<?xml version="1.0" encoding="UTF-8"?>
<svg version="1.1" xmlns="http://www.w3.org/2000/svg" width="2000" height="2000">
<path d="M0 0 C660 0 1320 0 2000 0 C2000 660 2000 1320 2000 2000 C1340 2000 680 2000 0 2000 C0 1340 0 680 0 0 Z " fill="#262626" transform="translate(0,0)"/>
<path d="M0 0 C1.6328125 1.9765625 1.6328125 1.9765625 3.125 4.625 C5.93040801 9.32693654 8.91863091 13.74258556 12.1875 18.125 C16.96391478 24.55504714 21.60895646 31.06849837 26.20385742 37.62939453 C26.6857251 38.31630371 27.16759277 39.00321289 27.6640625 39.7109375 C28.09154785 40.32243652 28.5190332 40.93393555 28.95947266 41.56396484 C29.92930205 42.98186937 29.92930205 42.98186937 31 44 C31.1875 46.4375 31.1875 46.4375 31 49 C30.34 49.66 29.68 50.32 29 51 C27.06739897 50.9815398 25.13471566 50.95970723 23.20257568 50.91363525 C19.56970237 51.05608311 16.44234989 52.27337071 13.0703125 53.5546875 C12.35390594 53.81629669 11.63749939 54.07790588 10.89938354 54.34744263 C9.39975378 54.8979163 7.90237201 55.45455026 6.40722656 56.01708984 C4.11510507 56.87871959 1.81628927 57.72007505 -0.484375 58.55859375 C-1.94574173 59.09779644 -3.40669503 59.63812124 -4.8671875 60.1796875 C-5.55360321 60.43185028 -6.24001892 60.68401306 -6.94723511 60.94381714 C-9.80271631 62.02398417 -11.81549961 62.81549961 -14 65 C-18.55555556 64.44444444 -18.55555556 64.44444444 -20 63 C-19.82029995 56.31077355 -18.46549879 49.73760316 -17.0390625 43.22265625 C-16.84782806 42.33066025 -16.65659363 41.43866425 -16.45956421 40.51963806 C-16.05703222 38.64770159 -15.65185924 36.77633122 -15.24414062 34.90551758 C-14.62760075 32.07444233 -14.02016866 29.2415284 -13.4140625 26.40820312 C-8.63298022 4.17966552 -8.63298022 4.17966552 -7 0 C-4.22798642 -1.38600679 -2.91199161 -0.96476318 0 0 Z " fill="#3F3F3F" transform="translate(1170,453)"/>
<path d="M0 0 C2.62483348 0.36481765 3.84424762 0.59562511 5.60195923 2.61811829 C5.9764621 3.27176865 6.35096497 3.92541901 6.73681641 4.59887695 C7.15666809 5.32305817 7.57651978 6.04723938 8.00909424 6.79336548 C8.62334259 7.91658707 8.62334259 7.91658707 9.25 9.0625 C9.62485535 9.74694183 9.99971069 10.43138367 10.38592529 11.13656616 C11.51987882 13.25977945 12.62082514 15.39693116 13.7109375 17.54296875 C14.10576324 18.31884842 14.50058899 19.09472809 14.90737915 19.89411926 C15.73136518 21.51900793 16.55306907 23.14505575 17.37255859 24.7722168 C18.63025956 27.26040531 19.90681389 29.73835625 21.18359375 32.21679688 C21.98555819 33.80409026 22.78638062 35.39196126 23.5859375 36.98046875 C23.96914154 37.71702194 24.35234558 38.45357513 24.74716187 39.21244812 C26.2604732 42.26511963 27.25523269 44.37586138 27.22900391 47.81762695 C25.92907233 50.79839275 24.92662679 52.15762734 22.25 54.0625 C19.3877664 54.82668602 16.52948481 55.06038776 13.58203125 55.29296875 C12.74661301 55.37372147 11.91119476 55.45447418 11.05046082 55.53767395 C8.38905941 55.7919236 5.72625609 56.02187036 3.0625 56.25 C0.38867089 56.49346789 -2.28461028 56.74190547 -4.95759583 56.99446106 C-6.61968522 57.14994486 -8.28236505 57.29925945 -9.94560242 57.44194031 C-13.65812235 57.4548977 -13.65812235 57.4548977 -16.75 59.0625 C-19.1875 59.3125 -19.1875 59.3125 -21.75 59.0625 C-23.75 56.0625 -23.75 56.0625 -23.53515625 53.3125 C-22.67510731 49.75249644 -21.51488869 46.47681859 -20.1875 43.0625 C-19.64594188 41.65280169 -19.10565019 40.24261641 -18.56640625 38.83203125 C-18.12965576 37.69241943 -18.12965576 37.69241943 -17.68408203 36.52978516 C-15.95154578 31.95346228 -14.29153258 27.35067909 -12.625 22.75 C-12.30072021 21.85603516 -11.97644043 20.96207031 -11.64233398 20.04101562 C-11.32466064 19.16509766 -11.0069873 18.28917969 -10.6796875 17.38671875 C-10.36612305 16.52353027 -10.05255859 15.6603418 -9.72949219 14.77099609 C-9.03241721 12.84344132 -8.34095292 10.91385354 -7.65332031 8.98291016 C-7.29592773 7.98437012 -6.93853516 6.98583008 -6.5703125 5.95703125 C-6.24562988 5.0441333 -5.92094727 4.13123535 -5.58642578 3.19067383 C-4.1870845 -0.3697634 -4.20708629 0.0701181 0 0 Z " fill="#3E3E3E" transform="translate(1771.75,621.9375)"/>
<path d="M0 0 C1.9375 0.75 1.9375 0.75 3.9375 2.75 C3.8832357 5.15039724 3.68551956 7.37689742 3.375 9.75 C3.23771484 10.87970215 3.23771484 10.87970215 3.09765625 12.03222656 C2.73165966 14.94122991 2.33711558 17.84541448 1.9375 20.75 C1.848172 21.40025146 1.75884399 22.05050293 1.66680908 22.72045898 C0.94145429 27.98289052 0.19341706 33.24188179 -0.5625 38.5 C-0.72348679 39.63381104 -0.72348679 39.63381104 -0.88772583 40.79052734 C-1.2003928 42.98106591 -1.52091487 45.17031449 -1.84375 47.359375 C-2.03001953 48.63780273 -2.21628906 49.91623047 -2.40820312 51.23339844 C-3.9768637 59.6643637 -3.9768637 59.6643637 -6.0625 61.75 C-9.125 62.375 -9.125 62.375 -13.0625 61.75 C-16.22242191 59.15808058 -18.5843007 55.98243387 -21.0625 52.75 C-21.8359375 51.76 -22.609375 50.77 -23.40625 49.75 C-25.0831609 47.5925375 -26.74333615 45.42328844 -28.39453125 43.24609375 C-31.69972829 38.89571638 -35.09086293 34.61351014 -38.48364258 30.33129883 C-44.07151487 23.25483296 -44.07151487 23.25483296 -44 19.25 C-43.0625 15.75 -43.0625 15.75 -40.97900391 14.19555664 C-37.56378422 12.50281298 -34.08292434 11.2755725 -30.4609375 10.12109375 C-29.74265778 9.88592545 -29.02437805 9.65075714 -28.28433228 9.40846252 C-26.00390131 8.66232366 -23.72100606 7.92416927 -21.4375 7.1875 C-19.14704697 6.44671167 -16.85726566 5.70409315 -14.56924438 4.95582581 C-13.14946415 4.49163733 -11.72826238 4.03176885 -10.30551147 3.57676697 C-6.91887052 2.47090396 -3.35622843 -0.40681557 0 0 Z " fill="#3E3E3E" transform="translate(939.0625,52.25)"/>
<path d="M0 0 C1.875 2.0625 1.875 2.0625 3 5 C2.59796625 10.99020808 0.64091158 16.07210601 -1.5625 21.58203125 C-2.08952515 22.92511604 -2.08952515 22.92511604 -2.62719727 24.29533386 C-3.74442117 27.13722409 -4.87214886 29.97481304 -6 32.8125 C-6.75848427 34.7386679 -7.51630378 36.6650977 -8.2734375 38.59179688 C-9.65622983 42.10288178 -11.0405136 45.61334401 -12.43359375 49.12036133 C-12.71259521 49.82316727 -12.99159668 50.52597321 -13.27905273 51.25007629 C-14 53 -14 53 -15 55 C-19.79025368 55.92120263 -21.9136094 55.73594202 -26.02734375 52.94921875 C-30.07014003 49.67582571 -33.85917667 46.15143564 -37.51953125 42.45703125 C-40.07034191 39.93032274 -42.72071066 37.64683483 -45.5 35.375 C-46.4178125 34.61960937 -47.335625 33.86421875 -48.28125 33.0859375 C-50.77131454 31.17545695 -53.27489958 29.5501477 -56 28 C-55.875 24.6875 -55.875 24.6875 -55 21 C-51.34139468 18.42234625 -48.44339057 17.60793613 -44 18 C-44 17.34 -44 16.68 -44 16 C-43.34773437 15.81824219 -42.69546875 15.63648438 -42.0234375 15.44921875 C-37.06283768 14.02249756 -32.55129872 12.48252657 -28 10 C-24.89942427 8.35075759 -22.14760162 7.0397389 -18.75 6.125 C-14.63196808 4.88959042 -11.18021188 3.09641104 -7.4296875 1.0234375 C-4.71396026 -0.12048619 -2.91717786 -0.34986424 0 0 Z " fill="#3E3E3E" transform="translate(638,1520)"/>
<path d="M0 0 C1.64355469 1.27758789 1.64355469 1.27758789 3 3 C2.90971272 10.57660729 0.42166371 17.04488705 -2.25 24.0625 C-5.46369876 32.70428809 -8.45194579 41.33124017 -11.02734375 50.18359375 C-12 53 -12 53 -14 55 C-16.68839385 55.26991906 -19.29141936 55.08737357 -22 55 C-22 54.34 -22 53.68 -22 53 C-22.61875 52.690625 -23.2375 52.38125 -23.875 52.0625 C-25.25 51.375 -26.625 50.6875 -28 50 C-28 49.34 -28 48.68 -28 48 C-28.77537109 47.67128906 -28.77537109 47.67128906 -29.56640625 47.3359375 C-32.98467174 45.45945789 -35.89958642 43.0578918 -38.9375 40.625 C-39.54529297 40.14289062 -40.15308594 39.66078125 -40.77929688 39.1640625 C-43.45233611 37.04177892 -46.11436135 34.90728331 -48.765625 32.7578125 C-51.07347463 30.94219654 -53.45270236 29.45559865 -56 28 C-55.87109375 25.72265625 -55.87109375 25.72265625 -55 23 C-52.41015625 21.12109375 -52.41015625 21.12109375 -49.0625 19.4375 C-48.4749292 19.1379541 -47.8873584 18.8384082 -47.28198242 18.52978516 C-43.07719854 16.42253913 -38.79030915 14.62266937 -34.39453125 12.9609375 C-31.84701437 11.93860609 -29.44173011 10.75314298 -27 9.5 C-22.85638511 7.37940588 -18.66186091 5.58807647 -14.3203125 3.9140625 C-12.23640649 3.09312983 -10.21896512 2.19098168 -8.1875 1.25 C-5.10065435 0.0394723 -3.25597318 -0.5426622 0 0 Z " fill="#3E3E3E" transform="translate(763,659)"/>
<path d="M0 0 C1.64355469 1.27758789 1.64355469 1.27758789 3 3 C2.90971272 10.57660729 0.42166371 17.04488705 -2.25 24.0625 C-5.46369876 32.70428809 -8.45194579 41.33124017 -11.02734375 50.18359375 C-12 53 -12 53 -14 55 C-16.68839385 55.26991906 -19.29141936 55.08737357 -22 55 C-22 54.34 -22 53.68 -22 53 C-22.61875 52.690625 -23.2375 52.38125 -23.875 52.0625 C-25.25 51.375 -26.625 50.6875 -28 50 C-28 49.34 -28 48.68 -28 48 C-28.77537109 47.67128906 -28.77537109 47.67128906 -29.56640625 47.3359375 C-32.98467174 45.45945789 -35.89958642 43.0578918 -38.9375 40.625 C-39.54529297 40.14289063 -40.15308594 39.66078125 -40.77929688 39.1640625 C-43.45233611 37.04177892 -46.11436135 34.90728331 -48.765625 32.7578125 C-51.07347463 30.94219654 -53.45270236 29.45559865 -56 28 C-55.87109375 25.72265625 -55.87109375 25.72265625 -55 23 C-52.41015625 21.12109375 -52.41015625 21.12109375 -49.0625 19.4375 C-48.4749292 19.1379541 -47.8873584 18.8384082 -47.28198242 18.52978516 C-43.07719854 16.42253913 -38.79030915 14.62266937 -34.39453125 12.9609375 C-31.84701437 11.93860609 -29.44173011 10.75314298 -27 9.5 C-22.85638511 7.37940588 -18.66186091 5.58807647 -14.3203125 3.9140625 C-12.23640649 3.09312983 -10.21896512 2.19098168 -8.1875 1.25 C-5.10065435 0.0394723 -3.25597318 -0.5426622 0 0 Z " fill="#3E3E3E" transform="translate(105,47)"/>
<path d="M0 0 C5.78219077 0.56874008 8.38605832 3.87348244 12.1875 7.875 C14.92075905 10.47810385 17.67156747 12.19301401 20.890625 14.1171875 C23.5617208 15.86534369 25.62424842 18.06517889 27.8125 20.375 C28.575625 20.931875 29.33875 21.48875 30.125 22.0625 C30.681875 22.495625 31.23875 22.92875 31.8125 23.375 C31.8125 24.035 31.8125 24.695 31.8125 25.375 C33.7925 26.035 35.7725 26.695 37.8125 27.375 C38.0625 29.6875 38.0625 29.6875 37.8125 32.375 C35.52967627 34.84805904 33.30189191 35.56160995 30.125 36.72265625 C26.00614234 38.2443557 22.1941577 40.14792636 18.3125 42.1875 C12.09127053 45.38675728 5.8113115 48.05324155 -0.78320312 50.3840332 C-3.77836316 51.445791 -6.57643675 52.5751325 -9.40625 54.03125 C-12.82836659 55.68463217 -15.43483221 55.60016007 -19.1875 55.375 C-22.08822734 49.4029143 -20.20029621 45.17222803 -18.3125 39.0625 C-17.82136719 37.45955078 -17.82136719 37.45955078 -17.3203125 35.82421875 C-16.05166186 31.96139629 -14.63391521 28.17376215 -13.1875 24.375 C-12.68629815 23.0303953 -12.18629257 21.68534406 -11.6875 20.33984375 C-11.1875 18.99739583 -10.6875 17.65494792 -10.1875 16.3125 C-9.94 15.64412109 -9.6925 14.97574219 -9.4375 14.28710938 C-4.29440583 0.50522422 -4.29440583 0.50522422 0 0 Z " fill="#3E3E3E" transform="translate(1078.1875,1736.625)"/>
<path d="M0 0 C1.56455741 2.76098367 1.32598369 4.7282519 1.0625 7.875 C-0.30078125 10.8203125 -0.30078125 10.8203125 -2.25 14 C-2.98386528 15.22400711 -3.71550155 16.44935244 -4.4453125 17.67578125 C-4.84395508 18.3404541 -5.24259766 19.00512695 -5.65332031 19.68994141 C-8.07084932 23.80341757 -10.33841495 28.00029083 -12.625 32.1875 C-13.52446308 33.82957857 -14.42419552 35.47150963 -15.32421875 37.11328125 C-15.7526709 37.89525879 -16.18112305 38.67723633 -16.62255859 39.48291016 C-18.7140927 43.287747 -20.82459101 47.08200134 -22.9375 50.875 C-29.16891892 51.48592342 -29.16891892 51.48592342 -32.375 48.9375 C-33.220625 47.926875 -34.06625 46.91625 -34.9375 45.875 C-36.22668463 44.43527364 -37.51858459 42.99797621 -38.8125 41.5625 C-41.36226125 38.67372555 -43.9014558 35.77581768 -46.4375 32.875 C-46.99824219 32.23433594 -47.55898437 31.59367187 -48.13671875 30.93359375 C-49.45401903 29.4276995 -50.76876767 27.91957213 -52.08203125 26.41015625 C-52.79746094 25.59417969 -53.51289062 24.77820312 -54.25 23.9375 C-54.90613281 23.18597656 -55.56226563 22.43445313 -56.23828125 21.66015625 C-57.82704848 19.78875803 -57.82704848 19.78875803 -59.9375 18.875 C-60.0625 16.5 -60.0625 16.5 -59.9375 13.875 C-57.57718332 11.51468332 -56.54054738 11.46218262 -53.3125 10.9375 C-50.10383178 10.35244369 -47.19825768 9.68872397 -44.1875 8.4375 C-39.39292073 6.50216273 -34.39056579 5.65845578 -29.33984375 4.62890625 C-25.76621442 3.83704579 -22.39993308 2.78307831 -18.953125 1.5703125 C-5.36705559 -3.11635486 -5.36705559 -3.11635486 0 0 Z " fill="#3E3E3E" transform="translate(1994.9375,1001.125)"/>
<path d="M0 0 C2.37356136 3.56034204 2.49350641 4.80015976 2 9 C0.71109684 11.5262502 -0.58001326 13.77086594 -2.125 16.125 C-2.96057386 17.45220334 -3.7925769 18.78166111 -4.62109375 20.11328125 C-5.02956543 20.76893066 -5.43803711 21.42458008 -5.85888672 22.10009766 C-8.01148307 25.68407386 -9.77253491 29.45605817 -11.59375 33.21484375 C-13.43538833 36.86231077 -15.53766089 40.31751903 -17.67578125 43.796875 C-19.281398 46.46816658 -20.66648982 49.18481185 -22 52 C-25.2982849 52.67187285 -26.82586328 52.92003963 -30 52 C-35.9894494 46.88948644 -40.52823378 40.42816394 -45 34 C-45.66 33.67 -46.32 33.34 -47 33 C-47 32.34 -47 31.68 -47 31 C-47.99 30.67 -48.98 30.34 -50 30 C-54 25.54285714 -54 25.54285714 -54 23 C-54.804375 22.773125 -55.60875 22.54625 -56.4375 22.3125 C-59 21 -59 21 -60 18.5625 C-60 16 -60 16 -58.953125 14.44140625 C-56.07434391 12.31686581 -53.25027843 12.00951262 -49.75 11.375 C-48.46609375 11.13523437 -47.1821875 10.89546875 -45.859375 10.6484375 C-42.24374126 10.04095248 -38.63176943 9.49866264 -35 9 C-35 8.34 -35 7.68 -35 7 C-34.41734375 6.89042969 -33.8346875 6.78085937 -33.234375 6.66796875 C-21.60628928 4.55020888 -21.60628928 4.55020888 -10.40625 0.92578125 C-6.70755203 -0.49725677 -3.94705202 -0.32352885 0 0 Z " fill="#3E3E3E" transform="translate(1451,284)"/>
<path d="M0 0 C2.31 0 4.62 0 7 0 C9.11561533 3.43787491 9.24754319 6.00465299 9 10 C8.1171875 12.39453125 8.1171875 12.39453125 6.875 14.8125 C4.55320035 19.62006821 2.72032213 24.4568715 1 29.5 C-1.29830598 36.17975111 -3.77498434 42.6999694 -7 49 C-7.37769531 49.92296875 -7.75539063 50.8459375 -8.14453125 51.796875 C-10 54 -10 54 -13.82421875 54.62109375 C-18.43041664 54.31709942 -20.58936317 52.3487472 -23.8125 49.0625 C-24.83315087 48.05056702 -25.85665387 47.04150362 -26.8828125 46.03515625 C-27.39489258 45.5261377 -27.90697266 45.01711914 -28.43457031 44.49267578 C-31.71479075 41.36490477 -35.3440908 38.65638713 -38.91796875 35.875 C-41 34 -41 34 -42 31 C-44.39068734 29.89363605 -44.39068734 29.89363605 -47 29 C-47.99 28.34 -48.98 27.68 -50 27 C-49.875 23.6875 -49.875 23.6875 -49 20 C-45.04967366 17.1360134 -40.67572985 16.37066604 -35.953125 15.52734375 C-33.78331277 15.11554134 -33.78331277 15.11554134 -32 13 C-29.81130926 12.15554452 -27.59864977 11.37256534 -25.375 10.625 C-21.36121327 9.25397924 -17.47740375 7.8602712 -13.75 5.8125 C-9.41370699 3.48409919 -4.82447039 2.75135195 0 2 C0 1.34 0 0.68 0 0 Z " fill="#3E3E3E" transform="translate(1852,1790)"/>
<path d="M0 0 C2.625 0.4375 2.625 0.4375 4.875 2.6875 C8.02255936 7.63366471 7.72072334 11.69409983 7.625 17.4375 C8.285 17.4375 8.945 17.4375 9.625 17.4375 C10.76802815 25.7605205 11.87666929 34.06801177 12.625 42.4375 C13.285 42.4375 13.945 42.4375 14.625 42.4375 C15.97456003 46.4861801 15.95985934 50.21827237 15.625 54.4375 C14.125 56.4375 14.125 56.4375 11.625 57.4375 C5.41520844 58.0124807 -0.53691457 56.88498113 -6.67578125 55.94921875 C-12.22381412 55.18175063 -17.78733341 54.79020985 -23.375 54.4375 C-23.375 53.7775 -23.375 53.1175 -23.375 52.4375 C-27.335 52.4375 -31.295 52.4375 -35.375 52.4375 C-35.82441847 47.46268724 -35.42576301 44.72855436 -32.22729492 40.81176758 C-31.7810376 40.29638428 -31.33478027 39.78100098 -30.875 39.25 C-29.94085621 38.10673669 -29.00991248 36.96085188 -28.08203125 35.8125 C-27.61877441 35.24402344 -27.15551758 34.67554688 -26.67822266 34.08984375 C-24.82260752 31.73712677 -23.19242368 29.26294443 -21.5625 26.75 C-18.0195501 21.33008691 -14.2896068 16.06272227 -10.5 10.8125 C-9.64184692 9.6200769 -9.64184692 9.6200769 -8.76635742 8.40356445 C-8.2272876 7.65937256 -7.68821777 6.91518066 -7.1328125 6.1484375 C-6.6495752 5.48118652 -6.16633789 4.81393555 -5.66845703 4.12646484 C-2.92026612 0.53794376 -2.92026612 0.53794376 0 0 Z " fill="#3E3E3E" transform="translate(199.375,1432.5625)"/>
<path d="M0 0 C8.54154426 3.94123724 17.54556517 6.9182737 26.4375 9.95703125 C29.42005318 11.12444474 31.94487399 12.27756301 34.53125 14.16796875 C35.40799138 17.67493425 35.5845567 18.83340714 34.53125 22.16796875 C30.57769968 28.14426575 25.59570351 33.13624192 20.53125 38.16796875 C15.52447462 43.38689563 11.77928481 48.70183493 8.53125 55.16796875 C5.71875 55.48046875 5.71875 55.48046875 2.53125 55.16796875 C-0.21706317 51.42799619 -1.76098212 47.16134207 -3.40625 42.85546875 C-5.70442977 36.93898521 -5.70442977 36.93898521 -8.46875 31.23046875 C-10.85642728 26.69488095 -12.52265423 21.87149633 -14.27539062 17.06469727 C-14.63600586 16.07747681 -14.63600586 16.07747681 -15.00390625 15.0703125 C-15.35932495 14.0956604 -15.35932495 14.0956604 -15.72192383 13.10131836 C-16.46851075 11.1685881 -17.30846758 9.30092374 -18.171875 7.41796875 C-19.71973259 3.53900034 -19.37172413 1.19030806 -18.46875 -2.83203125 C-12.02653381 -5.24786232 -5.83019598 -2.76534981 0 0 Z " fill="#3E3E3E" transform="translate(186.46875,648.83203125)"/>
<path d="M0 0 C4.26840094 0.58585895 5.32751989 2.26985536 8.1875 5.4375 C9.70977522 7.44723007 11.18590272 9.49239473 12.625 11.5625 C17.48905266 18.49852509 22.49907277 25.31972019 27.54077148 32.12744141 C28.40230835 33.29218994 28.40230835 33.29218994 29.28125 34.48046875 C29.79365234 35.17164795 30.30605469 35.86282715 30.83398438 36.57495117 C34.20866549 41.21878995 34.20866549 41.21878995 34 43.375 C33.00304296 45.90573709 32.05655982 47.43295523 30.1875 49.4375 C27.11230469 50.67016602 27.11230469 50.67016602 23.359375 51.69140625 C22.69214417 51.87839584 22.02491333 52.06538544 21.33746338 52.25804138 C19.20768164 52.85251869 17.07319201 53.42715641 14.9375 54 C12.8171842 54.57973987 10.69815366 55.16369991 8.5803833 55.75267029 C6.64925878 56.28802308 4.71484342 56.81146327 2.78027344 57.33422852 C0.18320919 58.1317369 -2.13148968 58.96308828 -4.59667969 60.05053711 C-7.70632418 61.39170704 -9.48864951 61.91233578 -12.8125 61.4375 C-13.4725 60.7775 -14.1325 60.1175 -14.8125 59.4375 C-14.73237124 56.93020191 -14.5237447 54.59762897 -14.1875 52.12109375 C-14.09194824 51.37178085 -13.99639648 50.62246796 -13.89794922 49.85044861 C-12.74023822 41.22732438 -11.08298015 32.69895059 -9.35351562 24.17504883 C-8.80294063 21.45273373 -8.26819658 18.7275976 -7.734375 16.00195312 C-7.38634558 14.26283468 -7.03742229 12.52389482 -6.6875 10.78515625 C-6.52910645 9.97385757 -6.37071289 9.1625589 -6.20751953 8.32667542 C-4.64175116 0.72205018 -4.64175116 0.72205018 0 0 Z " fill="#3F3F3F" transform="translate(479.8125,323.5625)"/>
<path d="M0 0 C2.4375 0.8125 2.4375 0.8125 5.4375 2.8125 C6.29711914 5.83422852 6.29711914 5.83422852 6.97265625 9.69140625 C7.09684433 10.37750473 7.22103241 11.06360321 7.34898376 11.77049255 C7.74464383 13.97005705 8.12279712 16.17220257 8.5 18.375 C8.8836674 20.5473446 9.27091176 22.7190319 9.65829468 24.89071655 C9.90786358 26.29013337 10.15643288 27.68972886 10.40396118 29.08950806 C11.23726011 37.50546125 11.23726011 37.50546125 14.4375 44.8125 C14.7109375 46.7734375 14.7109375 46.7734375 14.8125 49.1875 C14.86148437 49.97898437 14.91046875 50.77046875 14.9609375 51.5859375 C14.4375 53.8125 14.4375 53.8125 12.3828125 55.64453125 C8.66047049 57.12063239 5.77594878 56.77004383 1.9375 56.125 C0.88018677 55.97043335 0.88018677 55.97043335 -0.19848633 55.81274414 C-2.32325134 55.49811501 -4.44274636 55.15913909 -6.5625 54.8125 C-8.79149612 54.45726156 -11.0206488 54.10300324 -13.25 53.75 C-14.28382812 53.585 -15.31765625 53.42 -16.3828125 53.25 C-20.83797409 52.63700479 -25.29772619 52.33039112 -29.78515625 52.05859375 C-32.16523959 51.84770029 -34.2747264 51.47633838 -36.5625 50.8125 C-37.06428573 45.49670747 -35.89741886 43.27728226 -32.5625 39.1875 C-31.721218 38.12716846 -30.88273471 37.06461116 -30.046875 36 C-29.62470703 35.46632813 -29.20253906 34.93265625 -28.76757812 34.3828125 C-26.98895914 32.06513072 -25.40418011 29.63623864 -23.8125 27.1875 C-20.25889255 21.79260804 -16.56784545 16.50643757 -12.8125 11.25 C-12.25723633 10.46351074 -11.70197266 9.67702148 -11.12988281 8.86669922 C-10.59717773 8.12564941 -10.06447266 7.38459961 -9.515625 6.62109375 C-9.04286133 5.95907959 -8.57009766 5.29706543 -8.08300781 4.61499023 C-5.65824666 1.74055035 -3.87490022 -0.28352928 0 0 Z " fill="#3E3E3E" transform="translate(1420.5625,1700.1875)"/>
<path d="M0 0 C2.88492111 1.13214733 5.39841002 2.70265919 8 4.375 C8.72695068 4.82254639 9.45390137 5.27009277 10.20288086 5.73120117 C12.47923865 7.1378011 14.73955145 8.56800853 17 10 C18.45861032 10.90659926 19.9182254 11.81158425 21.37890625 12.71484375 C24.63668915 14.73416152 27.88740946 16.7635856 31.11816406 18.82592773 C32.46413488 19.66567523 33.82780345 20.47731771 35.20214844 21.26977539 C35.92563477 21.69379639 36.64912109 22.11781738 37.39453125 22.5546875 C38.05686768 22.93222168 38.7192041 23.30975586 39.40161133 23.69873047 C41 25 41 25 42.125 28.8125 C41.68189405 32.77091318 39.90552315 34.36399785 36.875 36.8125 C34.92410019 38.21870414 32.96484076 39.61334181 31 41 C28.5623156 42.86938987 26.15745832 44.77943051 23.75 46.6875 C22.59898917 47.58727904 21.44794837 48.48701973 20.296875 49.38671875 C13.4897019 54.24232316 13.4897019 54.24232316 9 61 C4.60178306 61.35661218 4.60178306 61.35661218 2.3125 60 C-1.18603124 54.66890477 -1.44889797 47.31241902 -2.43359375 41.140625 C-3.17288441 37.04138577 -4.22536582 33.05161428 -5.27734375 29.0234375 C-6.25781775 24.92134627 -6.88270664 20.78685795 -7.52734375 16.62109375 C-7.96072323 13.84651646 -7.96072323 13.84651646 -9.125 10.6875 C-10.2040047 7.37341413 -10.13847083 4.46177077 -10 1 C-6.75990521 -0.62004739 -3.50893177 -0.48286627 0 0 Z " fill="#3E3E3E" transform="translate(1418,886)"/>
<path d="M0 0 C4.55348047 -0.45534805 6.46569002 0.69841282 10 3.5 C19.08852569 10.42693039 28.94937558 16.09965457 38.9375 21.625 C39.618125 22.07875 40.29875 22.5325 41 23 C41 23.66 41 24.32 41 25 C41.515625 25.2475 42.03125 25.495 42.5625 25.75 C45.77184151 27.39581616 48.87585664 29.1976096 52 31 C52.24182753 33.90193042 52.21712593 35.60003118 50.8125 38.1875 C46.92256829 42.07743171 41.73005301 42.46674942 36.5 43.25 C28.55872475 44.52063921 20.97262727 46.59578629 13.30859375 49.01855469 C8.00336584 50.64164332 3.55721439 51.47084537 -2 51 C-4.92708161 48.16438969 -4.99179528 46.10337951 -5.3125 42.0625 C-5.07083932 34.87309485 -4.0018287 27.57769904 -2.46484375 20.5546875 C-1.61500906 15.88416744 -1.54164308 11.13201167 -1.28125 6.3984375 C-1 3 -1 3 0 0 Z " fill="#3E3E3E" transform="translate(457,1908)"/>
<path d="M0 0 C0 0.66 0 1.32 0 2 C1.32 2.33 2.64 2.66 4 3 C4 3.66 4 4.32 4 5 C4.61875 5.144375 5.2375 5.28875 5.875 5.4375 C8 6 8 6 10 7 C10 7.66 10 8.32 10 9 C11.29164062 9.36544922 11.29164062 9.36544922 12.609375 9.73828125 C16.31573093 11.11748973 19.03754505 12.88893309 22.25 15.1875 C22.81138672 15.58533691 23.37277344 15.98317383 23.95117188 16.39306641 C25.09265217 17.20253271 26.23200474 18.01500836 27.36914062 18.83056641 C29.73539031 20.52732329 32.11698746 22.20189688 34.5 23.875 C35.2528125 24.40867187 36.005625 24.94234375 36.78125 25.4921875 C39.13545131 27.09204966 41.54682251 28.55746253 44 30 C43.25 36.75 43.25 36.75 41 39 C38.57052966 39.69607375 36.18236287 40.29499541 33.71875 40.83984375 C32.9906311 41.00746719 32.26251221 41.17509064 31.5123291 41.34779358 C29.17639586 41.88457482 26.83840996 42.4116225 24.5 42.9375 C21.44690196 43.62972757 18.39489069 44.32654022 15.34375 45.02734375 C14.61011734 45.19530457 13.87648468 45.36326538 13.12062073 45.53631592 C8.31784553 46.65097546 3.59935859 47.92479346 -1.09204102 49.44995117 C-3.8437058 50.24323342 -6.17144991 50.41393416 -9 50 C-10.640625 48.90625 -10.640625 48.90625 -12 47 C-12.9533898 38.81930039 -11.93419667 30.68961445 -10.51171875 22.62890625 C-9.45565827 15.13974449 -9.30300326 7.55116022 -9 0 C-5.93109813 -1.53445094 -3.29905734 -0.54984289 0 0 Z " fill="#3E3E3E" transform="translate(1851,1295)"/>
<path d="M0 0 C4.25663321 0.40919569 6.22320494 1.91378167 9.64453125 4.4453125 C10.78346324 5.2713726 11.92278815 6.09689121 13.0625 6.921875 C13.61599121 7.32954102 14.16948242 7.73720703 14.73974609 8.15722656 C16.94270839 9.7663821 19.19186988 11.30031878 21.45703125 12.8203125 C22.14023437 13.284375 22.8234375 13.7484375 23.52734375 14.2265625 C25.4490991 15.48226116 25.4490991 15.48226116 28.33203125 16.3203125 C28.33203125 16.9803125 28.33203125 17.6403125 28.33203125 18.3203125 C29.399375 18.70896484 29.399375 18.70896484 30.48828125 19.10546875 C33.51053859 20.39657044 36.08199414 21.96179107 38.83203125 23.7578125 C42.29718878 26.01113825 45.77555797 28.21348865 49.33203125 30.3203125 C48.58203125 36.9453125 48.58203125 36.9453125 46.33203125 40.3203125 C43.88142972 40.93893996 41.57081999 41.38923184 39.08203125 41.7578125 C32.46908731 42.85934959 26.15986872 44.42432651 19.7265625 46.3359375 C3.89561379 50.92673045 3.89561379 50.92673045 -2.66796875 50.3203125 C-4.82641602 49.08837891 -4.82641602 49.08837891 -6.66796875 47.3203125 C-7.10913086 45.25830078 -7.10913086 45.25830078 -7.0078125 42.765625 C-6.97155762 41.78754883 -6.93530273 40.80947266 -6.89794922 39.80175781 C-6.4745302 33.39203885 -6.00627924 26.99074272 -5.44116211 20.59179688 C-5.22788383 18.1659109 -5.02466263 15.73931558 -4.82226562 13.3125 C-4.68939406 11.7707822 -4.55595221 10.22911342 -4.421875 8.6875 C-4.36141495 7.96158661 -4.3009549 7.23567322 -4.23866272 6.48776245 C-3.69355102 0.44344244 -3.69355102 0.44344244 0 0 Z " fill="#3E3E3E" transform="translate(622.66796875,1024.6796875)"/>
<path d="M0 0 C5.40078052 4.03587738 7.40995163 9.2704879 8.375 15.8125 C8.78649763 22.1809157 7.08496053 27.28613346 3.6875 32.625 C2.945 33.3675 2.2025 34.11 1.4375 34.875 C0.550625 35.803125 -0.33625 36.73125 -1.25 37.6875 C-7.06425757 41.65636278 -15.84423642 41.06087791 -22.5625 39.875 C-28.23550492 37.50720735 -31.62116024 33.19203726 -34.5625 27.875 C-34.975 27.1325 -35.3875 26.39 -35.8125 25.625 C-37.38474095 19.86011653 -37.46517843 14.11216858 -34.9375 8.625 C-31.2307599 2.23184198 -27.11759205 -1.61277731 -19.93359375 -3.66015625 C-12.25096738 -5.16630541 -6.59617347 -4.14178334 0 0 Z " fill="#3E3E3E" transform="translate(851.5625,882.125)"/>
<path d="M0 0 C7.32039994 -0.41436226 12.22408138 1.85847164 17.65234375 6.68359375 C22.81882475 12.58814347 24.28401383 16.65259572 24.1796875 24.5234375 C23.31174983 31.31729444 19.08658006 36.87691591 13.79296875 41.03125 C8.51159385 44.14726119 1.83856037 44.8379992 -4.16015625 44.18359375 C-11.82285273 41.68423767 -16.15543537 36.7252673 -20.03515625 29.87109375 C-22.04276955 23.29058348 -22.27599746 17.66440128 -19.09765625 11.43359375 C-15.71753692 6.06348868 -12.0455553 1.93166017 -5.78515625 0.30859375 C-3.85517635 0.24204272 -1.92418983 0.16353874 0 0 Z " fill="#3E3E3E" transform="translate(1444.16015625,34.81640625)"/>
<path d="M0 0 C1.17272247 0.88200556 2.32299068 1.79549449 3.4375 2.75 C4.200625 3.36875 4.96375 3.9875 5.75 4.625 C11.04461844 11.29229729 10.80186608 17.53152075 10.4375 25.75 C9.7775 25.75 9.1175 25.75 8.4375 25.75 C8.39625 26.430625 8.355 27.11125 8.3125 27.8125 C6.82430653 32.80857807 3.74927689 36.21480059 -0.57421875 39.0859375 C-6.38062399 42.02562561 -12.14015681 42.83305787 -18.5625 41.75 C-24.41360937 39.47008497 -29.17078977 34.99600164 -32.5625 29.75 C-34.73004528 23.64629888 -34.79080014 15.30270669 -32.69140625 9.23046875 C-29.76177265 4.20686753 -25.32892311 0.00009761 -19.73828125 -1.85546875 C-13.11634164 -3.05621543 -5.89718852 -3.62049615 0 0 Z " fill="#3E3E3E" transform="translate(1836.5625,1545.25)"/>
<path d="M0 0 C5.51329639 5.37577653 7.13109108 9.09332934 7.25 16.8125 C7.16567623 23.75234623 5.98730438 28.11199795 1.125 33.25 C-2.1165399 36.40297324 -5.30250862 38.78492275 -9.8671875 39.36328125 C-18.92631676 39.21033491 -25.24769285 38.59884562 -32 32 C-33.75 29.4375 -33.75 29.4375 -35 27 C-35.52207031 26.11248047 -35.52207031 26.11248047 -36.0546875 25.20703125 C-38.20419586 20.18855099 -37.78766403 13.83936377 -36.34765625 8.6484375 C-33.83070748 3.05281749 -29.75710874 -1.27268518 -24.15625 -3.84765625 C-15.81791288 -6.42775646 -6.94481979 -5.17457161 0 0 Z " fill="#3D3D3D" transform="translate(1285,1510)"/>
<path d="M0 0 C5.00512281 4.08174586 8.34719006 8.11864706 9.11328125 14.70703125 C9.45901309 21.85215591 8.98504694 27.71308592 4.30078125 33.45703125 C-0.80048673 38.97927766 -5.35961493 40.53636494 -12.76171875 40.89453125 C-19.62530765 40.7528812 -24.36681976 38.91515543 -29.37890625 34.28515625 C-34.34893102 29.08336866 -35.1762133 23.77413061 -35.03125 16.75 C-34.53800718 9.77794608 -31.8003805 5.40176748 -26.88671875 0.70703125 C-19.44627754 -4.73719402 -7.73868014 -5.3033191 0 0 Z " fill="#3F3F3F" transform="translate(280.88671875,214.29296875)"/>
<path d="M0 0 C5.38105136 4.28038176 7.51897613 8.97582474 8.3203125 15.6796875 C8.58193056 21.97596225 7.8540848 26.91131979 4 32 C-0.54453323 36.8006969 -4.90463951 40.41844657 -11.61328125 41.37109375 C-18.51670587 41.54093198 -22.68561061 40.43059597 -28 36 C-28.57878906 35.51917969 -29.15757812 35.03835938 -29.75390625 34.54296875 C-35.01175871 29.74121915 -36.09326625 25.15089906 -36.4375 18.125 C-36.34082378 12.1310746 -34.80940448 8.54706373 -31 4 C-30.38125 3.236875 -29.7625 2.47375 -29.125 1.6875 C-20.97764088 -4.78246165 -8.90448829 -5.37979501 0 0 Z " fill="#3E3E3E" transform="translate(617,1277)"/>
<path d="M0 0 C4.50999721 3.5213525 7.12983788 7.29708842 8.2734375 12.86328125 C8.97059171 20.86714788 7.69590218 26.33340414 3.0859375 33.05078125 C-1.42885867 37.56557742 -5.81916698 40.06192975 -12.2890625 40.23828125 C-19.5757248 39.85082579 -25.32213377 37.75811124 -30.7265625 32.86328125 C-35.53910402 26.65763561 -36.24737657 21.51524189 -35.7265625 13.86328125 C-34.04638239 6.72251579 -30.40911832 1.98807614 -24.5078125 -2.15625 C-16.84918873 -6.37185212 -7.02943692 -4.6279777 0 0 Z " fill="#3E3E3E" transform="translate(1157.7265625,181.13671875)"/>
<path d="M0 0 C1.5159375 -0.00773437 1.5159375 -0.00773437 3.0625 -0.015625 C6.0703976 0.25636574 8.27306793 0.98678882 11 2.25 C11 2.91 11 3.57 11 4.25 C11.556875 4.45625 12.11375 4.6625 12.6875 4.875 C16.22673434 6.97940961 19.2426258 10.07374756 20.6171875 14.0234375 C21.66287844 20.10551745 22.44348706 27.08207872 19.8359375 32.8046875 C16.21969217 37.71907218 11.6725539 41.88476551 6 44.25 C-1.32204647 45.14956571 -8.02863805 44.86014826 -14 40.25 C-19.64944954 34.89141321 -22.9792356 30.3168094 -23.375 22.4375 C-23.20732608 16.15904305 -21.44448061 11.837373 -17.12890625 7.26953125 C-11.73137582 2.32094475 -7.46257073 -0.03807434 0 0 Z " fill="#3E3E3E" transform="translate(719,412.75)"/>
<path d="M0 0 C5.2428165 2.38124024 8.22453655 5.94699607 11.00390625 10.91015625 C12.61836013 16.9643583 12.72622118 23.86838484 11.00390625 29.91015625 C10.34390625 29.91015625 9.68390625 29.91015625 9.00390625 29.91015625 C8.77703125 30.65265625 8.55015625 31.39515625 8.31640625 32.16015625 C6.74495015 35.45273095 5.00394909 36.88512734 2.00390625 38.91015625 C1.34390625 38.91015625 0.68390625 38.91015625 0.00390625 38.91015625 C0.00390625 39.57015625 0.00390625 40.23015625 0.00390625 40.91015625 C-18.16579578 42.68614216 -18.16579578 42.68614216 -24.18359375 37.84765625 C-28.96267364 33.2541717 -31.71611628 29.33075055 -32.265625 22.6171875 C-32.37042459 14.03314876 -32.37042459 14.03314876 -30.99609375 9.91015625 C-30.33609375 9.91015625 -29.67609375 9.91015625 -28.99609375 9.91015625 C-28.76921875 9.16765625 -28.54234375 8.42515625 -28.30859375 7.66015625 C-22.96546289 -3.53497508 -10.11963871 -3.78386491 0 0 Z " fill="#3E3E3E" transform="translate(1190.99609375,863.08984375)"/>
<path d="M0 0 C6.34976233 3.7083653 10.54387331 8.2295777 12.6875 15.375 C13.61641028 22.3819652 12.49656246 27.46301764 8.6875 33.375 C7.82125 34.73625 7.82125 34.73625 6.9375 36.125 C1.89145863 41.17104137 -2.81957451 42.63394315 -9.9375 42.8125 C-18.08016337 42.51230965 -22.13910739 39.87037379 -27.796875 34.2890625 C-32.457679 28.40299559 -31.85160945 21.51599072 -31.3125 14.375 C-30.14896246 8.01586414 -25.42578613 3.92433231 -20.3125 0.375 C-13.93965971 -2.71392903 -6.4835898 -2.99242606 0 0 Z " fill="#3F3F3F" transform="translate(1589.3125,475.625)"/>
<path d="M0 0 C0.52207031 0.51820312 1.04414062 1.03640625 1.58203125 1.5703125 C1.58203125 2.5603125 1.58203125 3.5503125 1.58203125 4.5703125 C2.24203125 4.5703125 2.90203125 4.5703125 3.58203125 4.5703125 C6.23792461 11.72408976 7.32102644 19.29057758 4.37890625 26.53125 C1.61411594 31.2928333 -1.06645805 35.35098857 -6.42578125 37.30078125 C-13.73577252 38.87876829 -21.02781167 40.34877048 -27.79296875 36.4453125 C-31.32670014 33.95175205 -33.23524372 31.26415486 -35.41796875 27.5703125 C-36.07796875 27.2403125 -36.73796875 26.9103125 -37.41796875 26.5703125 C-39.10455781 18.95345869 -38.99842733 11.14829474 -35.12109375 4.26953125 C-32.83878034 0.95782391 -31.4021449 -1.08736536 -27.54296875 -2.4296875 C-26.84171875 -2.4296875 -26.14046875 -2.4296875 -25.41796875 -2.4296875 C-25.41796875 -3.0896875 -25.41796875 -3.7496875 -25.41796875 -4.4296875 C-15.89049265 -6.33518272 -8.07922329 -5.63140257 0 0 Z " fill="#3E3E3E" transform="translate(690.41796875,1767.4296875)"/>
<path d="M0 0 C6.30944678 6.50869247 7.93224435 12.88595401 7.84765625 21.828125 C6.88519328 27.77789606 3.17958634 32.66722272 -1.61328125 36.2265625 C-3.5 37.3125 -3.5 37.3125 -6.625 38.75 C-6.955 39.08 -7.285 39.41 -7.625 39.75 C-16.12154004 40.89326533 -22.32454788 39.93896008 -29.30078125 34.8671875 C-34.23837802 30.36941027 -36.80949562 25.64176179 -37.25 18.9375 C-36.85745363 12.14750874 -34.56602774 5.03333263 -29.98046875 -0.0859375 C-22.11017918 -6.23293567 -7.63688382 -6.49346868 0 0 Z " fill="#3E3E3E" transform="translate(416.625,869.25)"/>
<path d="M0 0 C5.92326739 -0.22887432 11.5154897 0.08655088 16.71484375 3.15234375 C22.01789287 8.31610077 24.46592351 12.74703434 24.8828125 20.125 C24.89248047 21.65447266 24.89248047 21.65447266 24.90234375 23.21484375 C24.91652344 24.23707031 24.93070313 25.25929688 24.9453125 26.3125 C24.71643183 29.13277534 24.16760154 30.75787735 22.71484375 33.15234375 C22.05484375 33.15234375 21.39484375 33.15234375 20.71484375 33.15234375 C20.50859375 33.70921875 20.30234375 34.26609375 20.08984375 34.83984375 C17.65955382 38.92714955 14.20098729 41.65696257 9.71484375 43.15234375 C2.03840971 43.79292169 -4.9924277 44.04351004 -11.28515625 39.15234375 C-15.25004886 35.4830791 -17.58983942 32.60550268 -18.28515625 27.15234375 C-18.37652707 24.75789082 -18.41520618 22.36103405 -18.41015625 19.96484375 C-18.41273437 18.73378906 -18.4153125 17.50273438 -18.41796875 16.234375 C-18.28515625 13.15234375 -18.28515625 13.15234375 -17.28515625 11.15234375 C-16.62515625 11.15234375 -15.96515625 11.15234375 -15.28515625 11.15234375 C-15.24390625 10.43046875 -15.20265625 9.70859375 -15.16015625 8.96484375 C-13.96205034 5.11378905 -11.63877808 3.1802986 -8.28515625 1.15234375 C-5.47075604 0.32081641 -2.91181504 0.194121 0 0 Z " fill="#3E3E3E" transform="translate(120.28515625,1737.84765625)"/>
<path d="M0 0 C5.92326739 -0.22887432 11.5154897 0.08655088 16.71484375 3.15234375 C22.01789287 8.31610077 24.46592351 12.74703434 24.8828125 20.125 C24.89248047 21.65447266 24.89248047 21.65447266 24.90234375 23.21484375 C24.91652344 24.23707031 24.93070313 25.25929687 24.9453125 26.3125 C24.71643183 29.13277534 24.16760154 30.75787735 22.71484375 33.15234375 C22.05484375 33.15234375 21.39484375 33.15234375 20.71484375 33.15234375 C20.50859375 33.70921875 20.30234375 34.26609375 20.08984375 34.83984375 C17.65955382 38.92714955 14.20098729 41.65696257 9.71484375 43.15234375 C2.03840971 43.79292169 -4.9924277 44.04351004 -11.28515625 39.15234375 C-15.25004886 35.4830791 -17.58983942 32.60550268 -18.28515625 27.15234375 C-18.37652707 24.75789082 -18.41520618 22.36103405 -18.41015625 19.96484375 C-18.41273437 18.73378906 -18.4153125 17.50273437 -18.41796875 16.234375 C-18.28515625 13.15234375 -18.28515625 13.15234375 -17.28515625 11.15234375 C-16.62515625 11.15234375 -15.96515625 11.15234375 -15.28515625 11.15234375 C-15.24390625 10.43046875 -15.20265625 9.70859375 -15.16015625 8.96484375 C-13.96205034 5.11378905 -11.63877808 3.1802986 -8.28515625 1.15234375 C-5.47075604 0.32081641 -2.91181504 0.194121 0 0 Z " fill="#3E3E3E" transform="translate(1831.28515625,127.84765625)"/>
<path d="M0 0 C4.70588235 0.70588235 4.70588235 0.70588235 6 2 C6.09939581 3.38516505 6.13080194 4.77533729 6.1328125 6.1640625 C6.13490723 7.03240723 6.13700195 7.90075195 6.13916016 8.79541016 C6.1344873 9.7291748 6.12981445 10.66293945 6.125 11.625 C6.12161621 12.57036621 6.11823242 13.51573242 6.11474609 14.48974609 C5.95407541 36.56888688 5.95407541 36.56888688 3 41 C-4.90585597 40.67131015 -11.65729426 38.17632343 -18.90429688 35.18212891 C-20.88232979 34.37199798 -22.87320461 33.60192204 -24.8671875 32.83203125 C-26.13898731 32.31487042 -27.40985803 31.79541758 -28.6796875 31.2734375 C-29.82163574 30.81372559 -30.96358398 30.35401367 -32.14013672 29.88037109 C-36.00941272 27.33630726 -36.60173239 25.36346303 -38 21 C-37.9375 18.75 -37.9375 18.75 -37 17 C-33.64116811 14.02633879 -29.76644115 12.51834794 -25.64453125 10.8984375 C-24.94228928 10.61650543 -24.2400473 10.33457336 -23.51652527 10.0440979 C-21.28406332 9.14874099 -19.04852339 8.26142098 -16.8125 7.375 C-14.56626772 6.48025121 -12.32074397 5.58380336 -10.07633972 4.68447876 C-8.68193473 4.12617864 -7.28638077 3.57073825 -5.88960266 3.0184021 C-2.70615644 1.90442174 -2.70615644 1.90442174 0 0 Z " fill="#3E3E3E" transform="translate(1059,1315)"/>
<path d="M0 0 C2.5 0.25 2.5 0.25 4.5 2.25 C4.64507695 4.99485593 4.68652423 7.63480543 4.625 10.375 C4.61597656 11.12910156 4.60695313 11.88320313 4.59765625 12.66015625 C4.5740687 14.52357254 4.53819719 16.38682593 4.5 18.25 C5.35549438 18.24214478 5.35549438 18.24214478 6.22827148 18.23413086 C8.79800323 18.21341779 11.36771747 18.2003581 13.9375 18.1875 C14.83533203 18.17912109 15.73316406 18.17074219 16.65820312 18.16210938 C17.51220703 18.15888672 18.36621094 18.15566406 19.24609375 18.15234375 C20.03685303 18.14710693 20.8276123 18.14187012 21.64233398 18.13647461 C23.5 18.25 23.5 18.25 24.5 19.25 C24.6875 22.1875 24.6875 22.1875 24.5 25.25 C22.5 27.25 22.5 27.25 18.5859375 27.4453125 C17.01550649 27.43200376 15.44513779 27.40813602 13.875 27.375 C13.07320312 27.36597656 12.27140625 27.35695313 11.4453125 27.34765625 C9.46341477 27.32406223 7.48167019 27.28819065 5.5 27.25 C5.52320313 28.45398438 5.54640625 29.65796875 5.5703125 30.8984375 C5.58906863 32.47395215 5.60726899 34.04947348 5.625 35.625 C5.65013672 36.81609375 5.65013672 36.81609375 5.67578125 38.03125 C5.69335473 40.10492015 5.60335168 42.17883241 5.5 44.25 C3.5 46.25 3.5 46.25 1 46.5625 C0.175 46.459375 -0.65 46.35625 -1.5 46.25 C-3.95391569 42.56912647 -3.72802759 39.80644412 -3.625 35.5625 C-3.61597656 34.86060547 -3.60695313 34.15871094 -3.59765625 33.43554688 C-3.57413704 31.70688475 -3.53826713 29.97839855 -3.5 28.25 C-4.06509277 28.26571045 -4.63018555 28.2814209 -5.21240234 28.29760742 C-7.76650023 28.35987045 -10.32043871 28.39896136 -12.875 28.4375 C-13.76445313 28.46263672 -14.65390625 28.48777344 -15.5703125 28.51367188 C-16.84648438 28.52817383 -16.84648438 28.52817383 -18.1484375 28.54296875 C-19.32672119 28.56653442 -19.32672119 28.56653442 -20.52880859 28.59057617 C-21.17930176 28.47818604 -21.82979492 28.3657959 -22.5 28.25 C-24.5 25.25 -24.5 25.25 -24.25 23.1875 C-23.5 21.25 -23.5 21.25 -21.5 19.25 C-18.5906442 19.10482256 -15.780054 19.06369204 -12.875 19.125 C-12.07320312 19.13402344 -11.27140625 19.14304687 -10.4453125 19.15234375 C-8.46341477 19.17593777 -6.48167019 19.21180935 -4.5 19.25 C-4.52320313 18.04601562 -4.54640625 16.84203125 -4.5703125 15.6015625 C-4.58906863 14.02604785 -4.60726899 12.45052652 -4.625 10.875 C-4.64175781 10.0809375 -4.65851562 9.286875 -4.67578125 8.46875 C-4.69335473 6.39507985 -4.60335168 4.32116759 -4.5 2.25 C-2.5 0.25 -2.5 0.25 0 0 Z " fill="#3E3E3E" transform="translate(855.5,263.75)"/>
<path d="M0 0 C2.5625 0.1875 2.5625 0.1875 4.5625 2.1875 C4.54501781 5.10702568 4.42305367 7.91047885 4.1875 10.8125 C4.13078125 11.61429687 4.0740625 12.41609375 4.015625 13.2421875 C3.87402018 15.22465498 3.71947741 17.20619051 3.5625 19.1875 C4.61050781 19.29707031 5.65851563 19.40664063 6.73828125 19.51953125 C8.11726651 19.67900574 9.49616871 19.83919966 10.875 20 C11.56529297 20.07025391 12.25558594 20.14050781 12.96679688 20.21289062 C15.89358181 20.56636707 18.1227403 20.87682828 20.55859375 22.59765625 C21.5625 24.1875 21.5625 24.1875 21.3125 26.8125 C20.5625 29.1875 20.5625 29.1875 19.5625 30.1875 C17.68446829 30.12233171 15.80879172 29.98430594 13.9375 29.8125 C12.91398437 29.72226562 11.89046875 29.63203125 10.8359375 29.5390625 C7.39716425 29.16974318 3.98325173 28.69587368 0.5625 28.1875 C0.44132812 29.24710937 0.32015625 30.30671875 0.1953125 31.3984375 C0.02649248 32.78651324 -0.14280308 34.17453119 -0.3125 35.5625 C-0.39113281 36.26117188 -0.46976563 36.95984375 -0.55078125 37.6796875 C-1.2109375 42.9609375 -1.2109375 42.9609375 -3.4375 45.1875 C-6.5625 45.3125 -6.5625 45.3125 -9.4375 45.1875 C-10.82016991 42.42216017 -10.34220774 40.44044564 -10.0625 37.375 C-9.97226563 36.33730469 -9.88203125 35.29960937 -9.7890625 34.23046875 C-9.47388776 31.50245626 -9.02235707 28.86892097 -8.4375 26.1875 C-9.39849609 26.09662109 -9.39849609 26.09662109 -10.37890625 26.00390625 C-12.17117132 25.83028892 -13.96282782 25.65030293 -15.75390625 25.46484375 C-17.36461228 25.29838068 -18.97641776 25.14153061 -20.58984375 25.00390625 C-22.4375 24.8125 -22.4375 24.8125 -25.4375 24.1875 C-27.4375 21.1875 -27.4375 21.1875 -27.125 18.5625 C-26.4375 16.1875 -26.4375 16.1875 -25.4375 15.1875 C-18.88241247 14.82332847 -12.84763032 15.86776729 -6.4375 17.1875 C-6.38851563 16.61902344 -6.33953125 16.05054688 -6.2890625 15.46484375 C-4.82758927 0.37135302 -4.82758927 0.37135302 0 0 Z " fill="#3E3E3E" transform="translate(1882.4375,444.8125)"/>
<path d="M0 0 C3.29714793 0.32971479 4.6226839 0.6226839 7 3 C7.14507695 5.74485593 7.18652423 8.38480543 7.125 11.125 C7.11597656 11.87910156 7.10695313 12.63320312 7.09765625 13.41015625 C7.0740687 15.27357254 7.03819719 17.13682593 7 19 C8.27617188 18.97679687 9.55234375 18.95359375 10.8671875 18.9296875 C12.5364525 18.91093171 14.2057238 18.89273131 15.875 18.875 C16.71675781 18.85824219 17.55851563 18.84148437 18.42578125 18.82421875 C19.63427734 18.81455078 19.63427734 18.81455078 20.8671875 18.8046875 C21.61081543 18.79421387 22.35444336 18.78374023 23.12060547 18.77294922 C25 19 25 19 27 21 C26.67028521 24.29714793 26.3773161 25.6226839 24 28 C21.0906442 28.14517744 18.280054 28.18630796 15.375 28.125 C14.57320312 28.11597656 13.77140625 28.10695312 12.9453125 28.09765625 C10.96341477 28.07406223 8.98167019 28.03819065 7 28 C7.02320313 29.13179687 7.04640625 30.26359375 7.0703125 31.4296875 C7.08906901 32.91145175 7.10726934 34.39322312 7.125 35.875 C7.14175781 36.62136719 7.15851562 37.36773437 7.17578125 38.13671875 C7.1933959 40.09194461 7.10320189 42.04742021 7 44 C5 46 5 46 2.5 46.25 C0 46 0 46 -2 44 C-2.14507695 41.25514407 -2.18652423 38.61519457 -2.125 35.875 C-2.11597656 35.12089844 -2.10695313 34.36679688 -2.09765625 33.58984375 C-2.0740687 31.72642746 -2.03819719 29.86317407 -2 28 C-3.27617188 28.02320313 -4.55234375 28.04640625 -5.8671875 28.0703125 C-7.5364525 28.08906829 -9.2057238 28.10726869 -10.875 28.125 C-12.13763672 28.15013672 -12.13763672 28.15013672 -13.42578125 28.17578125 C-14.63427734 28.18544922 -14.63427734 28.18544922 -15.8671875 28.1953125 C-16.61081543 28.20578613 -17.35444336 28.21625977 -18.12060547 28.22705078 C-20 28 -20 28 -22 26 C-22.3125 23.5 -22.3125 23.5 -22 21 C-18.95318939 18.96879293 -18.39881676 18.75340125 -14.98828125 18.8046875 C-14.23095703 18.81113281 -13.47363281 18.81757813 -12.69335938 18.82421875 C-11.90767578 18.84097656 -11.12199219 18.85773438 -10.3125 18.875 C-9.51521484 18.88402344 -8.71792969 18.89304688 -7.89648438 18.90234375 C-5.930861 18.92588415 -3.96539225 18.96175453 -2 19 C-2.02320313 17.79601562 -2.04640625 16.59203125 -2.0703125 15.3515625 C-2.08906863 13.77604785 -2.10726899 12.20052652 -2.125 10.625 C-2.14175781 9.8309375 -2.15851562 9.036875 -2.17578125 8.21875 C-2.19335473 6.14507985 -2.10335168 4.07116759 -2 2 C-1.34 1.34 -0.68 0.68 0 0 Z " fill="#3F3F3F" transform="translate(556,130)"/>
<path d="M0 0 C1.765625 1.99609375 1.765625 1.99609375 3.25 4.4375 C3.75015625 5.24058594 4.2503125 6.04367187 4.765625 6.87109375 C5.55057937 8.22489163 6.30015401 9.60030802 7 11 C11.72640157 10.23591661 14.78413129 7.27701633 18.46484375 4.3984375 C21 3 21 3 23.75390625 3.2265625 C26 4 26 4 27 5 C27.3984375 7.296875 27.3984375 7.296875 27 10 C24.6640625 12.203125 24.6640625 12.203125 21.625 14.25 C20.12839844 15.27867187 20.12839844 15.27867187 18.6015625 16.328125 C16 18 16 18 14 19 C14.61413678 22.17656955 15.70728988 24.24282154 17.5625 26.875 C19.84296255 30.39755887 20.61028678 32.72799256 20 37 C19.505 37.99 19.505 37.99 19 39 C16.69921875 39.26171875 16.69921875 39.26171875 14 39 C12.26953125 37.20703125 12.26953125 37.20703125 10.8125 34.8125 C10.07966797 33.64654297 10.07966797 33.64654297 9.33203125 32.45703125 C8.01287759 30.02375368 6.97059487 27.5897863 6 25 C4.48019531 25.99193359 4.48019531 25.99193359 2.9296875 27.00390625 C1.57868822 27.85766274 0.22709397 28.71047824 -1.125 29.5625 C-1.79015625 30.00013672 -2.4553125 30.43777344 -3.140625 30.88867188 C-6.62563251 33.05825988 -8.28258902 34.04574097 -12.4921875 33.77734375 C-13.73355469 33.39255859 -13.73355469 33.39255859 -15 33 C-15.30078125 30.234375 -15.30078125 30.234375 -15 27 C-12.91796875 24.953125 -12.91796875 24.953125 -10.1875 23.25 C-9.29417969 22.67765625 -8.40085938 22.1053125 -7.48046875 21.515625 C-6.25263672 20.76539063 -6.25263672 20.76539063 -5 20 C-4.01 19.34 -3.02 18.68 -2 18 C-2.61413678 14.82343045 -3.70728988 12.75717846 -5.5625 10.125 C-7.8506702 6.61384228 -8.53314883 4.26519061 -8 0 C-4.63002237 -1.12332588 -3.32878809 -1.111319 0 0 Z " fill="#3E3E3E" transform="translate(138,441)"/>
<path d="M0 0 C1.65 0 3.3 0 5 0 C7.64 4.95 10.28 9.9 13 15 C18.99188912 13.05329067 18.99188912 13.05329067 24.875 10.8125 C27 10 27 10 30 10 C30 10.66 30 11.32 30 12 C30.66 12 31.32 12 32 12 C32.375 14.25 32.375 14.25 32 17 C27.75385002 20.43735951 22.57259019 24 17 24 C17.5053125 24.95261719 18.010625 25.90523438 18.53125 26.88671875 C19.18803215 28.15337004 19.8442527 29.42031265 20.5 30.6875 C20.83386719 31.31333984 21.16773438 31.93917969 21.51171875 32.58398438 C23.34978416 36.16633634 24.64175259 38.9525831 24 43 C22 45 22 45 19.625 45.5 C17 45 17 45 14.9375 42.5 C14.26558996 41.34815422 13.62199004 40.17955084 13 39 C12.62488281 38.30390625 12.24976563 37.6078125 11.86328125 36.890625 C9 31.38508772 9 31.38508772 9 29 C8.11957031 29.44472656 7.23914062 29.88945312 6.33203125 30.34765625 C5.17058594 30.91355469 4.00914063 31.47945313 2.8125 32.0625 C1.66394531 32.63097656 0.51539063 33.19945312 -0.66796875 33.78515625 C-4.12326299 35.04494114 -5.58186906 35.19353384 -9 34 C-10 33 -10 33 -10.375 30.625 C-10 28 -10 28 -8 26.4375 C-7.01 25.963125 -6.02 25.48875 -5 25 C-3.56204959 24.27172197 -2.12456694 23.54251979 -0.6875 22.8125 C0.54069016 22.2063507 1.76952505 21.60149768 3 21 C2.61775284 17.17752845 1.73594221 14.28654255 -0.0625 10.9375 C-1.70395529 7.81575048 -2.63429741 5.59435201 -2 2 C-1.34 1.34 -0.68 0.68 0 0 Z " fill="#3E3E3E" transform="translate(1629,264)"/>
<path d="M0 0 C1.32 0 2.64 0 4 0 C5.921875 2.1171875 5.921875 2.1171875 7.75 4.875 C8.67039062 6.23238281 8.67039062 6.23238281 9.609375 7.6171875 C11 10 11 10 11 12 C11.66 12 12.32 12 13 12 C13 12.99 13 13.98 13 15 C14.41875765 14.23302204 15.83491452 13.46123222 17.25 12.6875 C18.03890625 12.25824219 18.8278125 11.82898437 19.640625 11.38671875 C22.03076021 10.05834967 22.03076021 10.05834967 24.09765625 8.31640625 C26 7 26 7 29.1875 7.25 C32 8 32 8 33 9 C33.3671875 11.328125 33.3671875 11.328125 33 14 C30.8828125 15.984375 30.8828125 15.984375 28.125 17.75 C27.22007812 18.34296875 26.31515625 18.9359375 25.3828125 19.546875 C23 21 23 21 21 22 C20.67 22.99 20.34 23.98 20 25 C20.66 25 21.32 25 22 25 C23.76171875 27.1953125 23.76171875 27.1953125 25.6875 30.125 C26.33074219 31.07632812 26.97398437 32.02765625 27.63671875 33.0078125 C29.24555993 36.53896534 28.99077818 38.31058291 28 42 C24.8125 42.5 24.8125 42.5 21 42 C18.80790337 39.61020766 17.45384536 36.88106351 16 34 C15.401875 33.01 14.80375 32.02 14.1875 31 C13.795625 30.34 13.40375 29.68 13 29 C8.97855708 30.37878043 6.26938665 32.31742634 3 35 C0.65291316 36.49360071 -0.35275544 37.07614642 -3.125 36.75 C-5 36 -5 36 -7 34 C-6.90234375 31.57421875 -6.90234375 31.57421875 -6 29 C-4.00390625 27.26953125 -4.00390625 27.26953125 -1.5625 25.8125 C0.92595189 24.29865848 2.93497891 23.06502109 5 21 C5.16687448 18.41645782 5.16687448 18.41645782 5 16 C4.34 16 3.68 16 3 16 C1.45703125 14.20703125 1.45703125 14.20703125 -0.1875 11.8125 C-0.73792969 11.03519531 -1.28835938 10.25789063 -1.85546875 9.45703125 C-3.25713885 6.4479852 -3.0685194 5.10131242 -2 2 C-1.34 1.34 -0.68 0.68 0 0 Z " fill="#3E3E3E" transform="translate(860,1799)"/>
<path d="M0 0 C3.2421875 0.46875 3.2421875 0.46875 5.796875 3.3125 C6.59143639 4.51758478 7.36439525 5.73714091 8.1171875 6.96875 C8.519375 7.58878906 8.9215625 8.20882812 9.3359375 8.84765625 C10.32350051 10.37602758 11.28542064 11.92091384 12.2421875 13.46875 C13.66094515 12.70177204 15.07710202 11.92998222 16.4921875 11.15625 C17.28109375 10.72699219 18.07 10.29773438 18.8828125 9.85546875 C21.27441133 8.52246455 21.27441133 8.52246455 23.37109375 6.78515625 C25.2421875 5.46875 25.2421875 5.46875 27.9296875 5.71875 C30.2421875 6.46875 30.2421875 6.46875 31.2421875 7.46875 C31.57421875 9.80078125 31.57421875 9.80078125 31.2421875 12.46875 C29.37890625 14.41796875 29.37890625 14.41796875 26.9296875 16.15625 C25.72892578 17.02830078 25.72892578 17.02830078 24.50390625 17.91796875 C22.75881286 19.1145181 21.00273225 20.2950535 19.2421875 21.46875 C21.18747152 25.74442503 24.02296933 29.2306054 26.87890625 32.93359375 C28.2421875 35.46875 28.2421875 35.46875 28.01171875 38.22265625 C27.2421875 40.46875 27.2421875 40.46875 26.2421875 41.46875 C21.87172745 41.92879843 21.87172745 41.92879843 19.6171875 40.28125 C17.96907193 38.10873402 16.63681193 35.81171904 15.2421875 33.46875 C13.93180816 31.78397656 12.60395672 30.11226457 11.2421875 28.46875 C7.94958831 29.56628306 5.50753482 30.97351644 2.8046875 33.09375 C-0.44326758 35.51017172 -2.65034116 36.05553162 -6.7578125 35.46875 C-7.7578125 34.46875 -7.7578125 34.46875 -8.1953125 31.6796875 C-7.7578125 28.46875 -7.7578125 28.46875 -5.1328125 26.1328125 C-4.0190625 25.45992187 -2.9053125 24.78703125 -1.7578125 24.09375 C-0.6440625 23.40539062 0.4696875 22.71703125 1.6171875 22.0078125 C2.4834375 21.49992188 3.3496875 20.99203125 4.2421875 20.46875 C2.57122196 15.65094072 -0.06680762 12.53786978 -3.39453125 8.75 C-4.7578125 6.46875 -4.7578125 6.46875 -4.52734375 3.75 C-3.44725095 0.54810053 -3.41858609 0.58106279 0 0 Z " fill="#3E3E3E" transform="translate(937.7578125,607.53125)"/>
<path d="M0 0 C1.99954746 -0.04254356 4.00041636 -0.04080783 6 0 C6.495 0.495 6.495 0.495 7 1 C6.95444497 7.04742962 5.91622982 11.67471076 3 17 C3 18.32 3 19.64 3 21 C4.5159375 21.6496875 4.5159375 21.6496875 6.0625 22.3125 C9.70833333 23.875 13.35416667 25.4375 17 27 C17.04254356 28.99954746 17.04080783 31.00041636 17 33 C16 34 16 34 12.9375 34.3125 C8.76532124 33.9813747 6.45865782 32.99789314 2.89453125 30.97265625 C0.94213486 29.97029192 -0.85912299 29.45096079 -3 29 C-3.18755859 30.07701172 -3.18755859 30.07701172 -3.37890625 31.17578125 C-3.99952976 33.99786175 -4.86326301 36.50798812 -5.9375 39.1875 C-6.27652344 40.04730469 -6.61554687 40.90710937 -6.96484375 41.79296875 C-8 44 -8 44 -10 46 C-14.55555556 45.44444444 -14.55555556 45.44444444 -16 44 C-15.55571831 37.33577472 -13.20984903 31.25952586 -11 25 C-12.98 24.67 -14.96 24.34 -17 24 C-17 23.34 -17 22.68 -17 22 C-17.928125 21.896875 -18.85625 21.79375 -19.8125 21.6875 C-23 21 -23 21 -24.875 19.75 C-26.42493858 17.33898443 -26.43190547 15.80738557 -26 13 C-23 11 -23 11 -20.625 11.1875 C-18 12 -18 12 -15.625 13.4375 C-12.52208517 15.28447311 -9.48541812 16.11156009 -6 17 C-5.90203125 16.443125 -5.8040625 15.88625 -5.703125 15.3125 C-4.58748557 9.6188919 -2.77761221 5.09228905 0 0 Z " fill="#3E3E3E" transform="translate(803,1176)"/>
<path d="M0 0 C3.56571538 1.44326575 4.2292369 3.3870164 5.828125 6.76171875 C6.77676278 9.50067782 7.21517231 12.19780442 7.625 15.0625 C8.49382812 14.71316406 9.36265625 14.36382813 10.2578125 14.00390625 C11.41023438 13.54886719 12.56265625 13.09382812 13.75 12.625 C15.45542969 11.94630859 15.45542969 11.94630859 17.1953125 11.25390625 C20.40968403 10.13729655 23.23404701 9.32666773 26.625 9.0625 C27.615 9.7225 28.605 10.3825 29.625 11.0625 C28.875 15.8125 28.875 15.8125 26.625 18.0625 C24.81268918 18.80364563 22.97534143 19.48468448 21.125 20.125 C17.30702376 21.43326793 17.30702376 21.43326793 13.625 23.0625 C14.10076668 26.20256007 14.8608916 28.58146153 16.1875 31.5 C17.62629684 35.06571391 18.06578386 37.27175879 17.625 41.0625 C16.965 41.7225 16.305 42.3825 15.625 43.0625 C12.6796875 43.05859375 12.6796875 43.05859375 9.625 42.0625 C7.9453125 39.41015625 7.9453125 39.41015625 6.75 36.125 C6.34007812 35.04347656 5.93015625 33.96195313 5.5078125 32.84765625 C4.625 30.0625 4.625 30.0625 4.625 28.0625 C3.42875 28.536875 2.2325 29.01125 1 29.5 C-2.43914238 30.79732773 -5.71395604 31.60486951 -9.375 32.0625 C-9.375 32.7225 -9.375 33.3825 -9.375 34.0625 C-11.75 34.1875 -11.75 34.1875 -14.375 34.0625 C-16.375 32.0625 -16.375 32.0625 -16.5 28.9375 C-16.45875 27.98875 -16.4175 27.04 -16.375 26.0625 C-14.4598421 25.24645001 -12.54281166 24.43479368 -10.625 23.625 C-9.55765625 23.17253906 -8.4903125 22.72007812 -7.390625 22.25390625 C-5.0336159 21.32270447 -2.84507165 20.5840928 -0.375 20.0625 C-0.82863171 18.47781323 -1.28811452 16.89480076 -1.75 15.3125 C-2.00523438 14.43078125 -2.26046875 13.5490625 -2.5234375 12.640625 C-3.29424647 10.07957318 -3.29424647 10.07957318 -4.4921875 7.90234375 C-5.73360241 5.31514719 -5.24187096 3.73535213 -4.375 1.0625 C-2.375 0.0625 -2.375 0.0625 0 0 Z " fill="#3E3E3E" transform="translate(1412.375,676.9375)"/>
<path d="M0 0 C2.5 0.25 2.5 0.25 4.5 2.25 C4.625 4.875 4.625 4.875 4.5 7.25 C3.84 7.25 3.18 7.25 2.5 7.25 C2.273125 7.95125 2.04625 8.6525 1.8125 9.375 C0.66851575 11.88087025 -0.30047192 13.33797332 -2.0625 15.375 C-4.64217763 18.05604196 -4.64217763 18.05604196 -5.5 21.25 C-3.85 21.91 -2.2 22.57 -0.5 23.25 C-0.5 23.91 -0.5 24.57 -0.5 25.25 C0.0775 25.518125 0.655 25.78625 1.25 26.0625 C3.62367963 27.31527536 5.56206571 28.38127765 7.5 30.25 C7.75 32.9375 7.75 32.9375 7.5 35.25 C4.46367283 36.76816358 2.91052601 36.74607651 -0.5 36.25 C-2.96697285 34.60394815 -5.19563894 32.80554184 -7.44921875 30.87890625 C-9.49860529 29.06022899 -9.49860529 29.06022899 -12.5 28.25 C-12.809375 29.24 -12.809375 29.24 -13.125 30.25 C-15.01957356 34.38361503 -17.14087435 38.13351999 -20.5 41.25 C-24.375 41.75 -24.375 41.75 -27.5 41.25 C-28.49299932 34.72457588 -26.01045383 31.41566773 -22.2265625 26.19140625 C-21.65679688 25.55074219 -21.08703125 24.91007813 -20.5 24.25 C-19.84 24.25 -19.18 24.25 -18.5 24.25 C-20.2849258 19.25220777 -24.54103094 17.4356918 -28.875 14.8125 C-30.5 13.25 -30.5 13.25 -30.875 10.6875 C-30.5 8.25 -30.5 8.25 -28.5 6.25 C-25.30940959 5.78581711 -23.89021026 6.00174331 -21.1484375 7.74609375 C-20.39820313 8.38675781 -19.64796875 9.02742187 -18.875 9.6875 C-16.29489249 11.86694235 -14.73039983 13.17320006 -11.5 14.25 C-11.190625 13.46625 -10.88125 12.6825 -10.5625 11.875 C-9.5 9.25 -9.5 9.25 -8.5 7.25 C-7.84 7.25 -7.18 7.25 -6.5 7.25 C-6.21125 6.46625 -5.9225 5.6825 -5.625 4.875 C-4.23867641 1.64024496 -3.59502777 0.35950278 0 0 Z " fill="#3E3E3E" transform="translate(1721.5,861.75)"/>
<path d="M0 0 C2.33944736 0.28730055 4.6739143 0.61936779 7 1 C6.67319055 6.99150666 5.31193125 10.82141345 2.15625 15.921875 C1.0206149 17.9629489 0.45193615 19.7197767 0 22 C0.59167969 22.18175781 1.18335938 22.36351562 1.79296875 22.55078125 C11.16733295 25.53283838 11.16733295 25.53283838 14 28 C14.375 31.125 14.375 31.125 14 34 C13 35 13 35 9.4375 35.0625 C8.303125 35.041875 7.16875 35.02125 6 35 C6 34.34 6 33.68 6 33 C2.04 32.01 -1.92 31.02 -6 30 C-6.33 31.65 -6.66 33.3 -7 35 C-7.96885372 36.68496298 -8.96986723 38.35178756 -10 40 C-10.69822617 41.65369357 -11.37498605 43.31727014 -12 45 C-13.99954746 45.04254356 -16.00041636 45.04080783 -18 45 C-19 44 -19 44 -19.21875 41.296875 C-18.97935324 37.6888239 -18.10141384 35.47062117 -16.5 32.25 C-14.62504752 28.77459365 -14.62504752 28.77459365 -14 25 C-17.02962976 23.18587781 -20.14531967 21.57933655 -23.27734375 19.94921875 C-26 18 -26 18 -26.94140625 15.45703125 C-27 13 -27 13 -26 10 C-20.73613513 9.34201689 -18.07903834 10.88405129 -13.9296875 13.80859375 C-11.94260339 15.03543718 -10.27978465 15.55924163 -8 16 C-5.88437149 11.85730418 -4.0166196 7.60993412 -2.12109375 3.36328125 C-1 1 -1 1 0 0 Z " fill="#3E3E3E" transform="translate(469,569)"/>
<path d="M0 0 C0.85417408 2.91757051 1.22290244 4.46267826 0.0390625 7.31640625 C-0.42757812 8.05761719 -0.89421875 8.79882812 -1.375 9.5625 C-3.12781791 12.38757244 -4.36102464 14.7233938 -5 18 C-2.69 18.66 -0.38 19.32 2 20 C2 20.66 2 21.32 2 22 C3.11375 22.103125 4.2275 22.20625 5.375 22.3125 C7.169375 22.6528125 7.169375 22.6528125 9 23 C11 26 11 26 10.6875 28.625 C10 31 10 31 9 32 C4.72111666 32.62924755 2.42799424 31.18392279 -1.15234375 28.95703125 C-4.05834997 27.45180604 -6.75980474 27.26450574 -10 27 C-10.6496875 28.546875 -10.6496875 28.546875 -11.3125 30.125 C-11.87443033 31.4169146 -12.43693977 32.70857745 -13 34 C-13.474375 35.11375 -13.94875 36.2275 -14.4375 37.375 C-16 40 -16 40 -17.9375 41 C-20.44654501 41 -21.8748967 40.29024129 -24 39 C-23.57253574 33.87042889 -22.36214805 30.28496094 -19.83984375 25.796875 C-18.78828777 23.87761028 -18.78828777 23.87761028 -19 21 C-19.74765625 20.73445313 -20.4953125 20.46890625 -21.265625 20.1953125 C-22.74289062 19.66550781 -22.74289062 19.66550781 -24.25 19.125 C-25.22453125 18.77695313 -26.1990625 18.42890625 -27.203125 18.0703125 C-29.56294327 17.16725355 -31.76905116 16.17921582 -34 15 C-34.125 9.25 -34.125 9.25 -33 7 C-28.91281305 6.75957724 -25.82320557 7.57741188 -22 9 C-22 9.66 -22 10.32 -22 11 C-17.545 11.99 -17.545 11.99 -13 13 C-12.9175 12.34 -12.835 11.68 -12.75 11 C-11.76722678 7.06890713 -10.28172702 3.36751436 -8 0 C-4.71023192 -1.09658936 -3.28696233 -0.79953138 0 0 Z " fill="#3E3E3E" transform="translate(357,1293)"/>
<path d="M0 0 C2.5625 0.1875 2.5625 0.1875 4.5625 2.1875 C5.14848781 6.52380982 3.80157977 8.57052498 1.5625 12.1875 C0.84083809 14.50441454 0.16190471 16.83598923 -0.4375 19.1875 C2.84713659 21.37725773 5.76946275 22.18556563 9.5625 23.1875 C9.5625 23.8475 9.5625 24.5075 9.5625 25.1875 C10.5215625 25.4040625 10.5215625 25.4040625 11.5 25.625 C13.5625 26.1875 13.5625 26.1875 14.5625 27.1875 C14.60330783 29.18708364 14.60504356 31.18795254 14.5625 33.1875 C11.91719911 34.21148744 10.14197248 34.40629148 7.47265625 33.3984375 C5.93040045 32.66553645 4.39138708 31.92577848 2.85546875 31.1796875 C-0.27203697 29.8263886 -3.05734578 29.4751727 -6.4375 29.1875 C-6.69144531 29.79078125 -6.94539063 30.3940625 -7.20703125 31.015625 C-11.08682151 40.02487579 -11.08682151 40.02487579 -13.4375 42.1875 C-16 42.625 -16 42.625 -18.4375 42.1875 C-20.4375 39.1875 -20.4375 39.1875 -20.3125 36.9375 C-19.54647368 34.5299887 -18.70257597 32.78116963 -17.4375 30.625 C-15.82820738 27.85902831 -15.06914897 26.19441227 -14.4375 23.1875 C-15.01757812 23.01734375 -15.59765625 22.8471875 -16.1953125 22.671875 C-21.21534072 21.11450651 -25.36115803 19.55048213 -29.4375 16.1875 C-30.5 14.125 -30.5 14.125 -30.4375 12.1875 C-29.4375 10.375 -29.4375 10.375 -27.4375 9.1875 C-21.99551269 9.40091127 -17.42627154 11.17448692 -12.4375 13.1875 C-12.4375 13.8475 -12.4375 14.5075 -12.4375 15.1875 C-9.4105289 14.52266745 -9.4105289 14.52266745 -8.33984375 12.515625 C-7.86224609 11.48695312 -7.86224609 11.48695312 -7.375 10.4375 C-6.86839844 9.36048828 -6.86839844 9.36048828 -6.3515625 8.26171875 C-5.32210351 5.92563875 -4.37311416 3.56252056 -3.4375 1.1875 C-2.4375 0.1875 -2.4375 0.1875 0 0 Z " fill="#3E3E3E" transform="translate(1574.4375,1558.8125)"/>
<path d="M0 0 C2.23828125 2.72265625 2.23828125 2.72265625 4.3125 6.0625 C5.00988281 7.16722656 5.70726562 8.27195312 6.42578125 9.41015625 C7.20501953 10.69212891 7.20501953 10.69212891 8 12 C11.51868676 10.92145662 13.95604143 10.03273511 16.9375 7.8125 C20.78485525 5.53549383 22.74430625 5.9786335 27 7 C27.375 9.1875 27.375 9.1875 27 12 C18.80952381 20 18.80952381 20 14 20 C14.93347358 21.75215106 15.8719532 23.50163563 16.8125 25.25 C17.33457031 26.22453125 17.85664062 27.1990625 18.39453125 28.203125 C19.89964399 30.97892639 19.89964399 30.97892639 21.71484375 33.19140625 C23 35 23 35 22.75 37.6875 C22 40 22 40 21 41 C18.6953125 41.39453125 18.6953125 41.39453125 16 41 C13.8671875 38.69921875 13.8671875 38.69921875 11.875 35.6875 C8.78805939 31.04920318 8.78805939 31.04920318 5 27 C4.43152344 27.42152344 3.86304688 27.84304688 3.27734375 28.27734375 C-1.51442429 31.67717917 -5.03991319 34 -11 34 C-11.66 33.34 -12.32 32.68 -13 32 C-12.83442067 28.85399271 -12.26074136 27.31661451 -10.25 24.875 C-4.4 20 -4.4 20 0 20 C-1.54082442 16.0262949 -3.05027724 12.79396533 -5.6875 9.4375 C-8.09529823 6.25113229 -8.49295798 4.04225544 -8 0 C-4.57780668 -1.14073111 -3.36167842 -1.2256649 0 0 Z " fill="#3E3E3E" transform="translate(819,1478)"/>
<path d="M0 0 C2.97 0.495 2.97 0.495 6 1 C6.66 5.95 7.32 10.9 8 16 C9.18078125 15.97679687 10.3615625 15.95359375 11.578125 15.9296875 C13.13541033 15.91092503 14.69270252 15.89272534 16.25 15.875 C17.02730469 15.85824219 17.80460937 15.84148437 18.60546875 15.82421875 C25.72431144 15.76337394 25.72431144 15.76337394 29 18 C28.75 20.375 28.75 20.375 28 23 C24.47666615 25.53680037 20.43581861 25.43509519 16.25 25.625 C15.55261719 25.66367188 14.85523438 25.70234375 14.13671875 25.7421875 C12.42489182 25.83598624 10.71248318 25.91906174 9 26 C9.33 26.99 9.66 27.98 10 29 C10.12025295 31.35192393 10.17532335 33.70753531 10.1875 36.0625 C10.20167969 37.31160156 10.21585937 38.56070312 10.23046875 39.84765625 C10 43 10 43 8 45 C4.375 44.625 4.375 44.625 1 44 C-0.17566272 38.4156021 0 34.01330943 0 28 C-6.6 28 -13.2 28 -20 28 C-20 23 -20 23 -18.453125 21.23046875 C-15.17455761 19.58596441 -12.40226017 19.48158612 -8.75 19.3125 C-7.48671875 19.24675781 -6.2234375 19.18101563 -4.921875 19.11328125 C-3.95765625 19.07589844 -2.9934375 19.03851562 -2 19 C-2.02320313 17.79601563 -2.04640625 16.59203125 -2.0703125 15.3515625 C-2.08906863 13.77604785 -2.10726899 12.20052652 -2.125 10.625 C-2.14175781 9.8309375 -2.15851563 9.036875 -2.17578125 8.21875 C-2.19335473 6.14507985 -2.10335168 4.07116759 -2 2 C-1.34 1.34 -0.68 0.68 0 0 Z " fill="#3E3E3E" transform="translate(401,1630)"/>
<path d="M0 0 C3 0.125 3 0.125 4 1.125 C4.23701239 3.98377909 4.42219182 6.82383297 4.5625 9.6875 C4.60568359 10.49380859 4.64886719 11.30011719 4.69335938 12.13085938 C4.79975262 14.12868805 4.90040888 16.1268207 5 18.125 C6.26457031 18.04121094 7.52914063 17.95742187 8.83203125 17.87109375 C10.4921684 17.76792138 12.15232575 17.66507369 13.8125 17.5625 C14.64587891 17.50642578 15.47925781 17.45035156 16.33789062 17.39257812 C17.14033203 17.34423828 17.94277344 17.29589844 18.76953125 17.24609375 C19.50792236 17.1989624 20.24631348 17.15183105 21.00708008 17.10327148 C23 17.125 23 17.125 26 18.125 C26 20.105 26 22.085 26 24.125 C19.53205867 25.63733701 13.64409958 26.33932579 7 26.125 C7.24169922 26.89457031 7.24169922 26.89457031 7.48828125 27.6796875 C8.16164624 30.89744694 8.17035092 33.96423596 8.1875 37.25 C8.20167969 38.49007813 8.21585938 39.73015625 8.23046875 41.0078125 C8 44.125 8 44.125 6 46.125 C0.43181818 45.55681818 0.43181818 45.55681818 -1 44.125 C-1.23653523 41.59903741 -1.42173692 39.09392793 -1.5625 36.5625 C-1.60568359 35.85158203 -1.64886719 35.14066406 -1.69335938 34.40820312 C-1.79971777 32.64738088 -1.90038846 30.8862168 -2 29.125 C-2.56509277 29.14071045 -3.13018555 29.1564209 -3.71240234 29.17260742 C-6.26650023 29.23487045 -8.82043871 29.27396136 -11.375 29.3125 C-12.26445313 29.33763672 -13.15390625 29.36277344 -14.0703125 29.38867188 C-15.34648438 29.40317383 -15.34648438 29.40317383 -16.6484375 29.41796875 C-17.82672119 29.44153442 -17.82672119 29.44153442 -19.02880859 29.46557617 C-19.67930176 29.35318604 -20.32979492 29.2407959 -21 29.125 C-23 26.125 -23 26.125 -22.75 24.0625 C-22 22.125 -22 22.125 -20 20.125 C-16.05769343 19.32044764 -12.26183343 19.07948026 -8.25390625 19.1015625 C-7.45412354 19.10494629 -6.65434082 19.10833008 -5.83032227 19.11181641 C-5.22631592 19.11616699 -4.62230957 19.12051758 -4 19.125 C-4.01160156 17.83722656 -4.02320313 16.54945312 -4.03515625 15.22265625 C-4.0445327 13.54427228 -4.05363305 11.86588674 -4.0625 10.1875 C-4.07087891 9.33736328 -4.07925781 8.48722656 -4.08789062 7.61132812 C-4.09272461 6.39799805 -4.09272461 6.39799805 -4.09765625 5.16015625 C-4.10551147 4.03685913 -4.10551147 4.03685913 -4.11352539 2.89086914 C-3.91438253 -0.20676589 -3.13876126 0.13078172 0 0 Z " fill="#3D3D3D" transform="translate(1622,1896.875)"/>
<path d="M0 0 C0.78375 0.04125 1.5675 0.0825 2.375 0.125 C5.43273837 5.51244379 6.87329538 11.13948228 8.375 17.125 C12.24435495 17.34833978 12.24435495 17.34833978 15.1875 16.125 C18.75295439 15.00642607 21.65903945 14.90641409 25.375 15.125 C26.375 16.125 26.375 16.125 26.75 18.5 C26.375 21.125 26.375 21.125 24.5 22.75 C20.23747744 24.62550993 15.86132537 25.89670509 11.375 27.125 C11.5915625 27.98222656 11.808125 28.83945313 12.03125 29.72265625 C14.79679262 41.0793058 14.79679262 41.0793058 14.375 47.125 C9.625 48.25 9.625 48.25 7.375 47.125 C6.3046875 44.578125 6.3046875 44.578125 5.25 41.375 C4.89679688 40.32828125 4.54359375 39.2815625 4.1796875 38.203125 C3.43186809 35.34253424 3.21195103 33.05988144 3.375 30.125 C2.49457031 30.42535156 1.61414062 30.72570313 0.70703125 31.03515625 C-0.45441406 31.41542969 -1.61585937 31.79570313 -2.8125 32.1875 C-4.53533203 32.76177734 -4.53533203 32.76177734 -6.29296875 33.34765625 C-9.59954508 34.11906151 -11.41582314 34.08593996 -14.625 33.125 C-14.955 31.475 -15.285 29.825 -15.625 28.125 C-11.36776476 24.23795913 -5.34956601 22.125 0.375 22.125 C0.09785156 21.26777344 -0.17929688 20.41054687 -0.46484375 19.52734375 C-4.40422914 7.09234431 -4.40422914 7.09234431 -4.625 2.125 C-2.625 0.125 -2.625 0.125 0 0 Z " fill="#3F3F3F" transform="translate(1238.625,1207.875)"/>
<path d="M0 0 C2.44921875 0.09765625 2.44921875 0.09765625 5 1 C6.58203125 2.99609375 6.58203125 2.99609375 7.8125 5.4375 C8.23144531 6.24058594 8.65039062 7.04367187 9.08203125 7.87109375 C10 10 10 10 10 12 C10.88042969 11.55527344 11.76085937 11.11054687 12.66796875 10.65234375 C13.82941406 10.08644531 14.99085938 9.52054688 16.1875 8.9375 C17.33605469 8.36902344 18.48460937 7.80054688 19.66796875 7.21484375 C23.11316577 5.95874027 24.57908399 5.87257947 28 7 C28.495 9.475 28.495 9.475 29 12 C24.43910942 14.9286937 19.90522335 17.67001891 15 20 C15.3609375 20.80824219 15.721875 21.61648438 16.09375 22.44921875 C16.5578125 23.51785156 17.021875 24.58648438 17.5 25.6875 C18.19609375 27.27111328 18.19609375 27.27111328 18.90625 28.88671875 C19.96079791 31.88841406 20.39581285 33.8609842 20 37 C19.34 37.66 18.68 38.32 18 39 C15.58203125 38.99609375 15.58203125 38.99609375 13 38 C11.19921875 35.34765625 11.19921875 35.34765625 9.6875 32.0625 C9.17574219 30.98097656 8.66398437 29.89945313 8.13671875 28.78515625 C7 26 7 26 7 24 C6.04738281 24.51691406 5.09476563 25.03382813 4.11328125 25.56640625 C2.84674336 26.23251137 1.57979432 26.89783515 0.3125 27.5625 C-0.31333984 27.90474609 -0.93917969 28.24699219 -1.58398438 28.59960938 C-4.53962235 30.13158927 -6.53696346 31.0356182 -9.89453125 30.77734375 C-12 30 -12 30 -13 29 C-13 27.35 -13 25.7 -13 24 C-8.05 21.36 -3.1 18.72 2 16 C1.01 13.9271875 1.01 13.9271875 0 11.8125 C-2.68364198 5.76003086 -2.68364198 5.76003086 -2 2 C-1.34 1.34 -0.68 0.68 0 0 Z " fill="#3F3F3F" transform="translate(160,965)"/>
<path d="M0 0 C9.66987552 -0.68797533 9.66987552 -0.68797533 13.625 1.8125 C14.40875 2.534375 15.1925 3.25625 16 4 C16 4.99 16 5.98 16 7 C16.99 7.33 17.98 7.66 19 8 C19.86066329 17.67768056 19.86066329 17.67768056 16.625 21.625 C14 24 14 24 12 24 C12 24.66 12 25.32 12 26 C8.77245445 27.61377278 5.49919278 27.4484525 2 27 C-1.90297048 25.65015843 -4.49940191 23.694378 -6.9375 20.3125 C-8.29446516 16.08196157 -8.73718649 12.39881607 -8 8 C-6.1925313 4.90148223 -5.13239188 3.40891929 -1.75 2.1875 C-1.1725 2.125625 -0.595 2.06375 0 2 C0 1.34 0 0.68 0 0 Z " fill="#272727" transform="translate(832,887)"/>
<path d="M0 0 C2.47776075 1.08212408 3.92336519 2.18960042 6 4 C6 4.66 6 5.32 6 6 C6.66 6 7.32 6 8 6 C9.29945883 9.89837649 9.57018423 13.94622443 9 18 C6.9909426 21.80285865 4.91923595 25.09334467 1 27 C-3.71940644 27.73092146 -7.0769526 27.4615237 -11.375 25.3125 C-14.67927865 22.40158786 -16.69358771 20.33639371 -17.28125 15.85546875 C-17.53170324 9.56283118 -16.14855768 6.3381363 -11.875 1.6875 C-7.86913271 -0.66376993 -4.54005039 -0.81243007 0 0 Z " fill="#272727" transform="translate(607,1282)"/>
<path d="M0 0 C3.91939742 2.21852684 5.39402455 3.80783204 7.3125 7.875 C8.16989502 12.30340108 7.67762856 15.15826615 5.625 19.1875 C2.51282508 22.80435193 0.54216341 24.5067987 -4.2421875 25.296875 C-11.41412505 25.80221477 -11.41412505 25.80221477 -14.69921875 23.41015625 C-17.964069 19.67099362 -19.52588275 16.58814281 -20 11.5625 C-19.62540854 7.14232079 -18.52364013 5.24770719 -15.6875 1.875 C-10.64315129 -2.21501246 -6.01666752 -1.83559348 0 0 Z " fill="#272727" transform="translate(724.6875,423.125)"/>
<path d="M0 0 C3.36637548 2.29525601 4.92706799 4.22913599 6.75 7.875 C7.22404865 12.37846218 7.00059535 15.90966534 4.75 19.875 C-0.14618482 24.28156634 -3.22831133 25.28815292 -9.703125 25.22265625 C-13.91029972 24.64836399 -15.44669312 23.02872024 -18.25 19.875 C-20.72037796 16.00832146 -20.41515022 12.42653275 -19.79296875 8.02734375 C-18.80844877 4.1246782 -16.6421014 1.91907605 -13.5 -0.4375 C-8.71688673 -1.89900683 -4.62931203 -1.60245416 0 0 Z " fill="#262626" transform="translate(1586.25,484.125)"/>
<path d="M0 0 C4.25772403 1.57693483 6.65514029 3.12763168 9 7 C9.77983415 11.66600765 10.12674548 16.77572096 7.9453125 21.08203125 C6.20098038 23.20309782 4.46194535 24.76902733 2 26 C-0.04055005 26.07065617 -2.08334257 26.08421976 -4.125 26.0625 C-5.22070312 26.05347656 -6.31640625 26.04445313 -7.4453125 26.03515625 C-8.28835938 26.02355469 -9.13140625 26.01195312 -10 26 C-10 25.34 -10 24.68 -10 24 C-10.598125 23.773125 -11.19625 23.54625 -11.8125 23.3125 C-14.70715882 21.57570471 -15.63035715 20.0816964 -17 17 C-17.57057837 11.76969824 -16.84948106 8.42160854 -14 4 C-9.87823072 -0.60668331 -5.83887127 -0.85472013 0 0 Z " fill="#272727" transform="translate(678,1771)"/>
<path d="M0 0 C3.38227381 2.02936429 5.43771351 4.81292702 7.1875 8.3125 C7.57981417 13.02027 7.66086758 15.38329697 5.5 19.625 C2.60782095 22.98618105 0.55360407 25.00219127 -3.95703125 25.59375 C-8.64806793 25.78045793 -12.12459683 25.5245447 -15.8125 22.3125 C-15.8125 21.3225 -15.8125 20.3325 -15.8125 19.3125 C-16.4725 19.3125 -17.1325 19.3125 -17.8125 19.3125 C-20.15978069 15.64487392 -20.2555704 12.59551385 -19.8125 8.3125 C-15.02474636 -0.57904248 -9.56774635 -2.33878244 0 0 Z " fill="#272727" transform="translate(1830.8125,1552.6875)"/>
<path d="M0 0 C5.02818501 0.0988503 7.991748 0.80947887 11.75 4.375 C14.08086161 8.29508544 14.13720568 11.88341414 13.75 16.375 C13.02263186 19.05086528 12.13297489 20.90540198 10.75 23.375 C8.5625 24.3125 8.5625 24.3125 6.75 24.375 C6.75 25.035 6.75 25.695 6.75 26.375 C-4.18905458 27.16009961 -4.18905458 27.16009961 -8.375 24.0625 C-12.41271473 18.27510889 -13.29141197 14.41741953 -12.25 7.375 C-9.875 4.3125 -9.875 4.3125 -7.25 2.375 C-4.68599223 -0.18900777 -3.56217985 0.04866366 0 0 Z " fill="#262626" transform="translate(1180.25,869.625)"/>
<path d="M0 0 C3.63051107 1.23178054 5.36160819 2.27648928 7.875 5.125 C9.48542899 9.24054076 10.0012271 12.65654718 9 17 C6.4049314 21.55476643 3.59070395 24.44030787 -1.375 26.1875 C-6.53297117 25.92070839 -11.67418244 25.35691138 -15.4609375 21.51953125 C-17.71758518 18.02252758 -18.8263024 14.2790008 -18.5625 10.06640625 C-15.98659992 0.60355109 -8.87997506 -1.58044805 0 0 Z " fill="#262626" transform="translate(1450,44)"/>
<path d="M0 0 C3.36444825 2.34728948 4.36990434 3.99541277 5.6875 7.875 C6.45328649 13.20359769 5.82976241 17.37109054 2.6875 21.875 C-2.03357079 25.24719342 -6.69881901 25.62210727 -12.3125 24.875 C-15.8303347 23.49845599 -17.01532619 22.31563702 -19.125 19.1875 C-21.01962276 13.90249967 -20.99070511 9.87193726 -19.1875 4.5625 C-14.48316782 -2.18037613 -7.20622685 -2.4473978 0 0 Z " fill="#262626" transform="translate(275.3125,221.125)"/>
<path d="M0 0 C3.12813702 2.10967381 4.31095599 3.2946653 5.6875 6.8125 C6.43460727 12.42618099 6.05969342 17.09142921 2.6875 21.8125 C-1.35036739 24.69669099 -5.18711008 25.44872103 -10.05859375 25.30859375 C-14.05802788 24.42830235 -16.67864433 21.83829848 -19.3125 18.8125 C-21.15855224 15.12039552 -20.65647156 10.85098091 -20.3125 6.8125 C-18.94531654 3.24263207 -17.785755 2.13167197 -14.625 0 C-9.32883535 -1.89862506 -5.29616465 -1.89862506 0 0 Z " fill="#262626" transform="translate(1151.3125,187.1875)"/>
<path d="M0 0 C3.65084747 1.67330509 4.75538296 2.63307444 7 6 C7.66946807 11.46472771 7.90085778 16.38466881 5.1875 21.25 C3 23 3 23 0 23 C0 23.66 0 24.32 0 25 C-10.7479691 25.86060251 -10.7479691 25.86060251 -14.5625 22.75 C-17.83557307 19.05730218 -18.89041033 17.50685795 -19.25 12.5625 C-18.90090701 7.58792483 -18.24617578 5.1215582 -14.5 1.75 C-9.55456988 -1.71180109 -5.81182689 -1.0433831 0 0 Z " fill="#262626" transform="translate(1276,1515)"/>
<path d="M0 0 C1.2065625 0.495 1.2065625 0.495 2.4375 1 C2.4375 1.66 2.4375 2.32 2.4375 3 C3.0975 3 3.7575 3 4.4375 3 C6.70178806 8.19454321 6.83801756 12.57799629 5.4375 18 C3.33679383 21.29110633 1.68742205 22.8333853 -1.5625 25 C-7.47154385 25.70908526 -12.62007466 24.26139676 -17.5625 21 C-20.27186879 16.92742679 -20.09546169 12.72286051 -19.5625 8 C-15.94087835 -1.77837846 -9.32320932 -2.61704121 0 0 Z " fill="#262626" transform="translate(408.5625,875)"/>
<path d="M0 0 C3.31537347 3.31537347 4.41646537 5.38640396 4.4375 10 C4.339919 14.18988429 3.97804038 16.8784368 1.125 20.125 C-2.84426765 23.6131443 -6.63083787 23.41874804 -11.66796875 23.328125 C-13.875 23.125 -13.875 23.125 -15.875 22.125 C-15.875 21.465 -15.875 20.805 -15.875 20.125 C-16.49375 19.8775 -17.1125 19.63 -17.75 19.375 C-20.31506233 17.8661398 -20.76572196 16.84733301 -21.875 14.125 C-22.52198574 10.37929308 -22.6719399 6.7428222 -20.96484375 3.27734375 C-15.60173402 -3.74125966 -7.14707833 -4.66113804 0 0 Z " fill="#262626" transform="translate(131.875,1748.875)"/>
<path d="M0 0 C3.31537347 3.31537347 4.41646537 5.38640396 4.4375 10 C4.339919 14.18988429 3.97804038 16.8784368 1.125 20.125 C-2.84426765 23.6131443 -6.63083787 23.41874804 -11.66796875 23.328125 C-13.875 23.125 -13.875 23.125 -15.875 22.125 C-15.875 21.465 -15.875 20.805 -15.875 20.125 C-16.49375 19.8775 -17.1125 19.63 -17.75 19.375 C-20.31506233 17.8661398 -20.76572196 16.84733301 -21.875 14.125 C-22.52198574 10.37929308 -22.6719399 6.7428222 -20.96484375 3.27734375 C-15.60173402 -3.74125966 -7.14707833 -4.66113804 0 0 Z " fill="#262626" transform="translate(1842.875,138.875)"/>
<path d="M0 0 C4.76291783 4.33398714 8.13225812 9.34457137 11.6875 14.6875 C12.83535588 16.40100295 13.98501197 18.11330174 15.13671875 19.82421875 C15.63905029 20.57791748 16.14138184 21.33161621 16.65893555 22.1081543 C17.99932529 24.11129004 17.99932529 24.11129004 20 26 C20 26.99 20 27.98 20 29 C6.14 33.95 6.14 33.95 -8 39 C-2.52164009 10.12756264 -2.52164009 10.12756264 0 0 Z " fill="#262626" transform="translate(1168,467)"/>
<path d="M0 0 C-0.39435351 5.78385155 -2.29081446 10.41579716 -4.58984375 15.7109375 C-6.8903004 21.07654554 -8.93116844 26.54180609 -11 32 C-15.8671875 30.25 -15.8671875 30.25 -17.0625 28 C-17.371875 27.34 -17.68125 26.68 -18 26 C-18.57234375 25.72027344 -19.1446875 25.44054688 -19.734375 25.15234375 C-22.63732055 23.67584558 -24.76857764 21.73845822 -27.1875 19.5625 C-28.06792969 18.78003906 -28.94835938 17.99757813 -29.85546875 17.19140625 C-32 15 -32 15 -33 12 C-24.52932561 8.59064143 -16.04731729 5.22462613 -7.51171875 1.98046875 C-2.43824701 0 -2.43824701 0 0 0 Z " fill="#272727" transform="translate(1849,1802)"/>
<path d="M0 0 C-0.98440818 4.11439423 -2.347427 8.07511024 -3.75 12.0625 C-4.01441895 12.8145874 -4.27883789 13.5666748 -4.55126953 14.34155273 C-6.71069114 20.38496096 -9.18382927 26.23058829 -12 32 C-16.07669104 30.13267213 -19.31216463 27.52006872 -22.8046875 24.7421875 C-24.52840864 23.37425222 -26.28910924 22.05289934 -28.0625 20.75 C-29.0215625 19.88375 -29.0215625 19.88375 -30 19 C-30 18.01 -30 17.02 -30 16 C-31.32 15.67 -32.64 15.34 -34 15 C-34 14.34 -34 13.68 -34 13 C-33.31035156 12.75765625 -32.62070312 12.5153125 -31.91015625 12.265625 C-24.78971945 9.72610021 -17.93902979 6.85272425 -11.1015625 3.63671875 C-10.11929688 3.17910156 -9.13703125 2.72148438 -8.125 2.25 C-7.22007812 1.82203125 -6.31515625 1.3940625 -5.3828125 0.953125 C-3 0 -3 0 0 0 Z " fill="#272727" transform="translate(630,1532)"/>
<path d="M0 0 C0.66 0 1.32 0 2 0 C2.86114943 3.89463992 3.71541795 7.79072042 4.56347656 11.68823242 C4.85262686 13.01253431 5.14361885 14.33643552 5.43652344 15.65991211 C5.85841904 17.56776994 6.27303782 19.4772323 6.6875 21.38671875 C6.93886719 22.53358154 7.19023437 23.68044434 7.44921875 24.86206055 C7.94075081 27.66244242 8.11135406 30.16743108 8 33 C5.16658768 32.68820356 2.33327045 32.37558083 -0.5 32.0625 C-1.29148438 31.97548828 -2.08296875 31.88847656 -2.8984375 31.79882812 C-4.48474807 31.62329376 -6.07069368 31.44442866 -7.65625 31.26220703 C-9.21723153 31.08757222 -10.77985738 30.92705084 -12.34375 30.78076172 C-14.23730312 30.58844773 -16.12091483 30.30260043 -18 30 C-18.33 29.34 -18.66 28.68 -19 28 C-15.92794397 20.45949884 -10.94113047 14.40548629 -6 8 C-4.39012775 5.78089491 -2.78361166 3.55993429 -1.19140625 1.328125 C-0.79824219 0.88984375 -0.40507812 0.4515625 0 0 Z " fill="#272727" transform="translate(197,1448)"/>
<path d="M0 0 C-1.35391376 4.25922659 -2.72339993 8.51302002 -4.10766602 12.76245117 C-4.57652198 14.20929488 -5.04106353 15.65754399 -5.5012207 17.10717773 C-6.16273637 19.18856664 -6.83951433 21.26443721 -7.51953125 23.33984375 C-7.92276611 24.59144287 -8.32600098 25.84304199 -8.74145508 27.13256836 C-9.1567749 28.0788208 -9.57209473 29.02507324 -10 30 C-10.99 30.33 -11.98 30.66 -13 31 C-13.99 30.34 -14.98 29.68 -16 29 C-16 28.34 -16 27.68 -16 27 C-18.475 26.01 -18.475 26.01 -21 25 C-21 24.34 -21 23.68 -21 23 C-21.70125 22.773125 -22.4025 22.54625 -23.125 22.3125 C-26.69343613 20.68343133 -29.06514511 18.59359269 -32 16 C-31.7734375 14.15234375 -31.7734375 14.15234375 -31 12 C-29.1015625 10.69140625 -29.1015625 10.69140625 -26.625 9.5625 C-25.72523438 9.14355469 -24.82546875 8.72460938 -23.8984375 8.29296875 C-22.46371094 7.65294922 -22.46371094 7.65294922 -21 7 C-20.04351563 6.56300781 -19.08703125 6.12601563 -18.1015625 5.67578125 C-16.23149585 4.82272345 -14.35788415 3.9773856 -12.48046875 3.140625 C-10.46894644 2.21564151 -8.50616486 1.18518083 -6.5625 0.125 C-3.66408211 -1.14747615 -2.90413582 -0.90022045 0 0 Z " fill="#272727" transform="translate(755,672)"/>
<path d="M0 0 C-1.35391376 4.25922659 -2.72339993 8.51302002 -4.10766602 12.76245117 C-4.57652198 14.20929488 -5.04106353 15.65754399 -5.5012207 17.10717773 C-6.16273637 19.18856664 -6.83951433 21.26443721 -7.51953125 23.33984375 C-7.92276611 24.59144287 -8.32600098 25.84304199 -8.74145508 27.13256836 C-9.1567749 28.0788208 -9.57209473 29.02507324 -10 30 C-10.99 30.33 -11.98 30.66 -13 31 C-13.99 30.34 -14.98 29.68 -16 29 C-16 28.34 -16 27.68 -16 27 C-18.475 26.01 -18.475 26.01 -21 25 C-21 24.34 -21 23.68 -21 23 C-21.70125 22.773125 -22.4025 22.54625 -23.125 22.3125 C-26.69343613 20.68343133 -29.06514511 18.59359269 -32 16 C-31.7734375 14.15234375 -31.7734375 14.15234375 -31 12 C-29.1015625 10.69140625 -29.1015625 10.69140625 -26.625 9.5625 C-25.72523437 9.14355469 -24.82546875 8.72460938 -23.8984375 8.29296875 C-22.46371094 7.65294922 -22.46371094 7.65294922 -21 7 C-20.04351562 6.56300781 -19.08703125 6.12601562 -18.1015625 5.67578125 C-16.23149585 4.82272345 -14.35788415 3.9773856 -12.48046875 3.140625 C-10.46894644 2.21564151 -8.50616486 1.18518083 -6.5625 0.125 C-3.66408211 -1.14747615 -2.90413582 -0.90022045 0 0 Z " fill="#272727" transform="translate(97,60)"/>
<path d="M0 0 C0.66 0 1.32 0 2 0 C4.58774192 10.96649851 6.74410013 21.79605112 8 33 C-1.28582994 33.44218238 -9.92981571 31.76773893 -19 30 C-18.45276317 26.62537285 -17.9451 24.91765 -16 22 C-15.34 22 -14.68 22 -14 22 C-13.690625 21.21625 -13.38125 20.4325 -13.0625 19.625 C-12 17 -12 17 -11 15 C-10.34 15 -9.68 15 -9 15 C-8.7421875 14.28457031 -8.484375 13.56914063 -8.21875 12.83203125 C-6.92615235 9.82839889 -5.3722291 7.36494628 -3.5 4.6875 C-2.58734375 3.36298828 -2.58734375 3.36298828 -1.65625 2.01171875 C-1.1096875 1.34785156 -0.563125 0.68398437 0 0 Z " fill="#272727" transform="translate(1417,1714)"/>
<path d="M0 0 C2.94976453 2.5576408 4.40574495 5.43845298 6.13671875 8.91015625 C6.71357422 10.06451172 7.29042969 11.21886719 7.88476562 12.40820312 C8.18036377 13.00769775 8.47596191 13.60719238 8.78051758 14.22485352 C9.68788949 16.06328914 10.60588247 17.89612508 11.52539062 19.72851562 C16 28.73310075 16 28.73310075 16 31 C12.64703509 31.50828443 9.29246657 32.00511457 5.9375 32.5 C4.99455078 32.64308594 4.05160156 32.78617188 3.08007812 32.93359375 C-2.00732242 33.67809139 -6.8587994 34.17113566 -12 34 C-9.16460599 22.26047391 -4.81185391 11.05580719 0 0 Z " fill="#262626" transform="translate(1772,636)"/>
<path d="M0 0 C2.475 0.99 2.475 0.99 5 2 C5 2.66 5 3.32 5 4 C5.5671875 4.25910156 6.134375 4.51820312 6.71875 4.78515625 C9.21881232 6.11652505 11.28512532 7.67394396 13.5 9.4375 C16.82477247 12.07573277 16.82477247 12.07573277 20.28125 14.53515625 C21.13203125 15.26025391 21.13203125 15.26025391 22 16 C22 16.99 22 17.98 22 19 C20.1746875 19.6496875 20.1746875 19.6496875 18.3125 20.3125 C14.95067576 21.56726538 12.05205767 23.10277496 9 25 C7.33549317 25.67204109 5.66848689 26.33790203 4 27 C1.1666761 28.30951945 -1.65604019 29.6397122 -4.4765625 30.9765625 C-7 32 -7 32 -10 32 C-9.55136306 26.84067519 -8.19134523 22.73569491 -6.1875 17.9765625 C-3.83853598 12.08869874 -1.96050282 6.02613573 0 0 Z " fill="#272727" transform="translate(1079,1748)"/>
<path d="M0 0 C4.23358353 0.98911906 7.26634296 2.77416599 11 5 C11 5.66 11 6.32 11 7 C11.88365234 7.17402344 11.88365234 7.17402344 12.78515625 7.3515625 C15.12754195 8.03734032 16.50746034 8.90406908 18.4375 10.375 C21.20615049 12.43221996 24.01757597 14.26025265 27 16 C27.99 16.66 28.98 17.32 30 18 C30 18.66 30 19.32 30 20 C27.14490641 20.7137734 24.28967509 21.42690348 21.43359375 22.13671875 C19.23513582 22.68945959 17.03947429 23.25352165 14.84765625 23.83203125 C8.87641256 25.39208591 3.15266104 26.48727825 -3 27 C-3.15366997 20.60348741 -2.64846374 14.72301098 -1.5 8.4375 C-1.35691406 7.61958984 -1.21382812 6.80167969 -1.06640625 5.95898438 C-0.71771688 3.97145496 -0.35983915 1.98554104 0 0 Z " fill="#272727" transform="translate(1851,1308)"/>
<path d="M0 0 C-0.35582789 8.89569731 -1.09317646 17.63532177 -2.4375 26.4375 C-2.62082886 27.6891394 -2.62082886 27.6891394 -2.80786133 28.96606445 C-3.13255381 30.99038178 -3.55726985 32.99818186 -4 35 C-4.99 35.495 -4.99 35.495 -6 36 C-6.7734375 34.96101563 -7.546875 33.92203125 -8.34375 32.8515625 C-9.39544886 31.4424213 -10.44755998 30.03358773 -11.5 28.625 C-12.04301758 27.89780762 -12.58603516 27.17061523 -13.14550781 26.42138672 C-16.87190256 21.451024 -20.69296645 16.59176787 -24.671875 11.8203125 C-26 10 -26 10 -26 8 C-25.01 7.67386719 -24.02 7.34773438 -23 7.01171875 C-21.66654927 6.57066726 -20.33322395 6.12923651 -19 5.6875 C-18.31389648 5.4603833 -17.62779297 5.2332666 -16.92089844 4.99926758 C-13.33122824 3.80341937 -9.774829 2.56562863 -6.25 1.1875 C-3 0 -3 0 0 0 Z " fill="#262626" transform="translate(932,65)"/>
<path d="M0 0 C6.03117237 2.24725568 11.32117494 5.61989433 16.8125 8.9375 C18.42415039 9.88786133 18.42415039 9.88786133 20.06835938 10.85742188 C21.08349609 11.47037109 22.09863281 12.08332031 23.14453125 12.71484375 C24.07628174 13.27292725 25.00803223 13.83101074 25.96801758 14.40600586 C26.97384888 15.19503296 26.97384888 15.19503296 28 16 C28 16.99 28 17.98 28 19 C27.01 19.33 26.02 19.66 25 20 C24.67 20.99 24.34 21.98 24 23 C22.07013106 24.58998158 20.15875206 26.05684573 18.125 27.5 C14.00222828 30.42070426 14.00222828 30.42070426 10.2421875 33.78125 C9 35 9 35 7 35 C6.00952058 31.04441128 5.03472934 27.08511034 4.0625 23.125 C3.78470703 22.01640625 3.50691406 20.9078125 3.22070312 19.765625 C1.6124005 13.17739737 0.43579977 6.77165803 0 0 Z " fill="#272727" transform="translate(1419,898)"/>
<path d="M0 0 C3.48678721 1.43716025 5.12946498 3.12949655 7.3125 6.17578125 C7.91320312 7.00400391 8.51390625 7.83222656 9.1328125 8.68554688 C9.74898438 9.55244141 10.36515625 10.41933594 11 11.3125 C12.2283374 13.01752482 13.45748185 14.72196855 14.6875 16.42578125 C15.25984375 17.2245166 15.8321875 18.02325195 16.421875 18.84619141 C17.70603086 20.59879397 19.06201759 22.29858881 20.4375 23.98046875 C22 26 22 26 22 28 C18.06442471 29.17322847 14.12624273 30.33745371 10.1875 31.5 C9.06794922 31.83386719 7.94839844 32.16773438 6.79492188 32.51171875 C5.72177734 32.82753906 4.64863281 33.14335937 3.54296875 33.46875 C2.55321045 33.76201172 1.56345215 34.05527344 0.54370117 34.35742188 C-2 35 -2 35 -5 35 C-4.34141462 27.22671347 -3.20364318 19.57028715 -1.9375 11.875 C-1.75123047 10.72773438 -1.56496094 9.58046875 -1.37304688 8.3984375 C-0.91805826 5.59850755 -0.46032487 2.79905669 0 0 Z " fill="#262626" transform="translate(481,338)"/>
<path d="M0 0 C6.43528006 1.71700531 12.35532201 3.96023675 18.37890625 6.796875 C21.85833402 8.39398939 25.40317503 9.69206365 29 11 C29.66 11.33 30.32 11.66 31 12 C29.58255393 16.51005568 27.34619702 18.72985291 24 22 C22.42705883 24.01162577 20.92145733 26.06046198 19.4296875 28.1328125 C18.06561262 29.9143092 16.62254643 31.4542605 15 33 C14.01 32.67 13.02 32.34 12 32 C10.7890625 29.41015625 10.7890625 29.41015625 9.625 26.0625 C7.75277739 20.90964562 5.66269992 16.06845847 3.11328125 11.21875 C1.1046629 7.21560887 0 4.55091768 0 0 Z " fill="#272727" transform="translate(179,656)"/>
<path d="M0 0 C-0.26167969 0.52078125 -0.52335937 1.0415625 -0.79296875 1.578125 C-1.72026929 3.43872802 -2.63767613 5.30426452 -3.55078125 7.171875 C-6.44913832 13.05856032 -9.32507802 18.8726433 -12.95703125 24.3515625 C-14.11152653 26.1762704 -15.06215513 28.05641198 -16 30 C-19.27655508 28.59473786 -21.15432686 26.97082527 -23.4375 24.25 C-24.3346875 23.18652344 -24.3346875 23.18652344 -25.25 22.1015625 C-25.8275 21.40804688 -26.405 20.71453125 -27 20 C-27.515625 19.40960938 -28.03125 18.81921875 -28.5625 18.2109375 C-32 14.24609375 -32 14.24609375 -32 12 C-32.66 12 -33.32 12 -34 12 C-33.67 10.68 -33.34 9.36 -33 8 C-31.94941406 7.74605469 -30.89882812 7.49210937 -29.81640625 7.23046875 C-22.4299433 5.42629636 -15.17111171 3.55242959 -8 1 C-5.07175348 0.02391783 -3.04386724 -0.08226668 0 0 Z " fill="#272727" transform="translate(1441,295)"/>
<path d="M0 0 C4.23358353 0.98911906 7.26634296 2.77416599 11 5 C11 5.66 11 6.32 11 7 C11.87748901 7.17897827 11.87748901 7.17897827 12.77270508 7.36157227 C15.08576819 8.02458444 16.64227526 8.88441281 18.63671875 10.21484375 C19.29607422 10.65376953 19.95542969 11.09269531 20.63476562 11.54492188 C21.31216797 12.00447266 21.98957031 12.46402344 22.6875 12.9375 C23.37650391 13.39318359 24.06550781 13.84886719 24.77539062 14.31835938 C29.86985913 17.73971826 29.86985913 17.73971826 31 20 C23.68718765 21.85784962 16.35918048 23.62297618 9.00390625 25.3046875 C5.32322275 26.15665325 1.66084527 27.06684336 -2 28 C-2.10402152 21.55716721 -1.73459309 15.33540878 -1 8.9375 C-0.85691406 7.6390918 -0.85691406 7.6390918 -0.7109375 6.31445312 C-0.47830736 4.20915031 -0.23978031 2.10450044 0 0 Z " fill="#272727" transform="translate(627,1038)"/>
<path d="M0 0 C1.2065625 0.0309375 1.2065625 0.0309375 2.4375 0.0625 C-1.56910847 8.28908663 -5.72156034 16.2863929 -10.5625 24.0625 C-11.56490992 25.72771834 -12.56552018 27.39402494 -13.5625 29.0625 C-17.94589642 27.42137332 -20.61136084 24.12177784 -23.6875 20.75 C-24.22503906 20.18087891 -24.76257812 19.61175781 -25.31640625 19.02539062 C-28.21206453 15.88060464 -30.2938072 13.23665595 -31.5625 9.0625 C-26.5876208 5.74591387 -20.52681647 4.67770539 -14.5625 5.0625 C-14.5625 4.4025 -14.5625 3.7425 -14.5625 3.0625 C-13.78003906 2.92972656 -12.99757813 2.79695312 -12.19140625 2.66015625 C-11.17949219 2.48355469 -10.16757813 2.30695312 -9.125 2.125 C-8.11566406 1.95097656 -7.10632812 1.77695312 -6.06640625 1.59765625 C-3.18494227 0.98180513 -2.9634087 0.07227826 0 0 Z " fill="#262626" transform="translate(1981.5625,1010.9375)"/>
<path d="M0 0 C1.32 0.33 2.64 0.66 4 1 C4 1.66 4 2.32 4 3 C4.680625 3.2475 5.36125 3.495 6.0625 3.75 C9.56865083 5.24197908 12.71620368 7.06835511 16 9 C16 9.66 16 10.32 16 11 C16.9075 11.268125 17.815 11.53625 18.75 11.8125 C21.74911053 12.90832885 23.53826458 14.04758915 26 16 C26.99 16.33 27.98 16.66 29 17 C29.33 17.99 29.66 18.98 30 20 C26.49872828 21.47643988 23.05143778 22.58350403 19.3671875 23.5078125 C18.31402344 23.77207031 17.26085937 24.03632812 16.17578125 24.30859375 C15.08652344 24.57800781 13.99726563 24.84742188 12.875 25.125 C11.22951172 25.54072266 11.22951172 25.54072266 9.55078125 25.96484375 C7.97490234 26.35736328 7.97490234 26.35736328 6.3671875 26.7578125 C5.40925293 26.9964502 4.45131836 27.23508789 3.46435547 27.48095703 C1 28 1 28 -2 28 C-2.10402152 21.55716721 -1.73459309 15.33540878 -1 8.9375 C-0.85691406 7.6390918 -0.85691406 7.6390918 -0.7109375 6.31445312 C-0.47830736 4.20915031 -0.23978031 2.10450044 0 0 Z " fill="#272727" transform="translate(464,1921)"/>
<path d="M0 0 C0 6.27 0 12.54 0 19 C-5.06653773 17.98669245 -9.46124312 16.42859494 -14.25 14.5625 C-15.07757812 14.24990234 -15.90515625 13.93730469 -16.7578125 13.61523438 C-17.93730469 13.15793945 -17.93730469 13.15793945 -19.140625 12.69140625 C-19.85766602 12.41498291 -20.57470703 12.13855957 -21.31347656 11.85375977 C-23 11 -23 11 -24 9 C-20.56631406 7.49115787 -17.12746451 5.99446599 -13.6875 4.5 C-12.71103516 4.07074219 -11.73457031 3.64148437 -10.72851562 3.19921875 C-9.79072266 2.79316406 -8.85292969 2.38710937 -7.88671875 1.96875 C-7.02264404 1.59169922 -6.15856934 1.21464844 -5.26831055 0.82617188 C-3 0 -3 0 0 0 Z " fill="#262626" transform="translate(1056,1327)"/>
<path d="M0 0 C2.0625 0.4375 2.0625 0.4375 4 1 C3.2575 1.4125 2.515 1.825 1.75 2.25 C-2.06665977 4.67878349 -4.4968518 7.2452777 -7 11 C-6.58485103 6.1565954 -4.53791301 4.18412171 -1 1 C-0.67 0.67 -0.34 0.34 0 0 Z " fill="#2E2E2E" transform="translate(1175,870)"/>
<path d="M0 0 C0.66 0.33 1.32 0.66 2 1 C0.88121617 2.17262904 -0.24523051 3.33795138 -1.375 4.5 C-2.00148438 5.1496875 -2.62796875 5.799375 -3.2734375 6.46875 C-5 8 -5 8 -7 8 C-5.61918777 3.8575633 -3.40174442 2.67796901 0 0 Z " fill="#373737" transform="translate(112,1739)"/>
<path d="M0 0 C0.66 0.33 1.32 0.66 2 1 C0.88121617 2.17262904 -0.24523051 3.33795138 -1.375 4.5 C-2.00148438 5.1496875 -2.62796875 5.799375 -3.2734375 6.46875 C-5 8 -5 8 -7 8 C-5.61918777 3.8575633 -3.40174442 2.67796901 0 0 Z " fill="#373737" transform="translate(1823,129)"/>
</svg>
