<?xml version="1.0" encoding="UTF-8"?>
<svg version="1.1" xmlns="http://www.w3.org/2000/svg" width="1000" height="2000">
<path d="M0 0 C0.79019531 0.56847656 1.58039063 1.13695312 2.39453125 1.72265625 C14.25797713 10.7496078 24.61195874 21.70281499 33 34 C33.72445313 35.05316406 34.44890625 36.10632813 35.1953125 37.19140625 C54.90393657 66.50475716 66.69917976 100.17675931 76 134 C76.25346191 134.90298828 76.50692383 135.80597656 76.76806641 136.73632812 C87.73264583 175.92098493 94.22228872 216.64056828 99 257 C99.16082062 258.35653687 99.16082062 258.35653687 99.32489014 259.74047852 C104.75689198 305.78762606 108.5916036 351.92341928 111.7265625 398.17578125 C111.80205637 399.28731882 111.87755024 400.39885639 111.9553318 401.54407692 C112.71670817 412.75830253 113.4728452 423.97280058 114.2039814 435.18904209 C115.55133795 455.81057817 116.98939026 476.40311161 119.1171875 496.9609375 C119.24203364 498.16968096 119.24203364 498.16968096 119.36940193 499.40284348 C125.72165963 560.28486835 153.34406446 619.81964782 186 671 C186.85287356 672.35416101 187.70573811 673.7083277 188.55859375 675.0625 C200.14523922 693.32373049 212.61950787 711.01106611 226 728 C227.051875 729.33804687 227.051875 729.33804687 228.125 730.703125 C231.04918915 734.38272968 234.01954452 738.024309 236.98828125 741.66796875 C238.09637061 743.02863244 239.20444305 744.38930991 240.3125 745.75 C240.8703418 746.43408936 241.42818359 747.11817871 242.00292969 747.82299805 C245.64286269 752.29712622 249.21271267 756.81952633 252.75 761.375 C256.58735405 766.30598964 260.60632072 770.99049216 264.8359375 775.59375 C267.05829146 778.06481506 269.16013238 780.60366367 271.25 783.1875 C274.90847145 787.70942188 278.67715489 792.11757981 282.5 796.5 C286.94268038 801.59944103 291.30576694 806.74651446 295.56640625 812 C298.65306901 815.80506742 301.76218818 819.59131278 304.875 823.375 C305.47803955 824.10887939 306.0810791 824.84275879 306.70239258 825.59887695 C309.86105033 829.43460258 313.04844019 833.24043532 316.2890625 837.00708008 C322.91467727 844.7212233 328.99452685 852.79749351 335 861 C335.53947266 861.73444336 336.07894531 862.46888672 336.63476562 863.22558594 C382.82104215 926.20933907 409.81171178 993.5256422 397.75 1072.5625 C389.69926813 1120.90849706 369.85624889 1167.93168466 345 1210 C343.77081438 1212.20832278 342.54164811 1214.41665634 341.3125 1216.625 C336.11322613 1225.71850912 330.3988624 1234.49369967 324.73071289 1243.29956055 C323.57437734 1245.10379633 322.42513949 1246.91260026 321.28295898 1248.72583008 C315.14158446 1258.47273541 308.50837653 1267.85901416 301.88720703 1277.28320312 C300.2550733 1279.63280005 298.66166484 1282.00051082 297.08984375 1284.390625 C292.50736729 1291.28241565 288.06430242 1297.17147602 280 1300 C278.70449219 1300.00257812 277.40898438 1300.00515625 276.07421875 1300.0078125 C273.23964342 1300.31823759 272.28766089 1300.67228011 270.38183594 1302.84350586 C268.75662072 1305.52564734 267.33367972 1308.25422579 265.9375 1311.0625 C264.82025109 1313.17070444 263.69766713 1315.27608847 262.5703125 1317.37890625 C261.70067871 1319.01690186 261.70067871 1319.01690186 260.81347656 1320.68798828 C257.8557594 1326.08976414 254.60004331 1331.29437728 251.3125 1336.5 C250.67296387 1337.51449219 250.03342773 1338.52898437 249.37451172 1339.57421875 C244.82897353 1346.75126071 240.23459146 1353.88918025 235.43603516 1360.89990234 C234.36923642 1362.46001841 233.3071452 1364.02335561 232.24755859 1365.58837891 C223.84930776 1377.97787767 215.15811445 1389.87412013 205.45556641 1401.27246094 C203.47870522 1403.61869873 201.58154812 1406.02417636 199.6875 1408.4375 C196.36856961 1412.61087842 192.86046034 1416.57842439 189.265625 1420.515625 C187.80428037 1422.11806498 186.35532 1423.73192993 184.921875 1425.359375 C175.95182065 1435.5254366 166.39506514 1445.28534013 156 1454 C155.10796875 1454.78117187 154.2159375 1455.56234375 153.296875 1456.3671875 C137.68567597 1469.97119635 120.77405321 1481.42593834 103 1492 C102.33629395 1492.39944824 101.67258789 1492.79889648 100.98876953 1493.21044922 C64.09028239 1515.36924697 21.37511437 1527.98806536 -21 1534 C-22.16402344 1534.16790039 -23.32804687 1534.33580078 -24.52734375 1534.50878906 C-116.0033086 1547.26902329 -228.76499375 1537.69505366 -323.3125 1477.5 C-340.07718781 1464.5126132 -355.56348877 1450.25150275 -368 1433 C-368.47646973 1432.34080566 -368.95293945 1431.68161133 -369.44384766 1431.00244141 C-387.0888867 1406.27613134 -398.32991627 1379.24589886 -406 1350 C-406.19045898 1349.29520508 -406.38091797 1348.59041016 -406.57714844 1347.86425781 C-428.15104513 1267.45955424 -413.43255124 1177.62051399 -388.24658203 1058.40527344 C-387.41172816 1054.79305557 -386.58485418 1051.17915901 -385.76513672 1047.56347656 C-379.30140439 1019.07088843 -372.17650608 990.77042279 -364.8125 962.5 C-364.58678818 961.63344032 -364.36107635 960.76688065 -364.12852478 959.87406158 C-362.30278891 952.86576937 -360.47578703 945.85780712 -358.64799118 938.85005188 C-330.9727577 833.93934665 -330.9727577 833.93934665 -311.33001709 727.31652832 C-311.11330394 725.79532789 -310.89465594 724.27440161 -310.67388916 722.75378418 C-305.34874906 685.99903931 -305.22198078 648.83399729 -310 612 C-310.13921875 610.90913086 -310.2784375 609.81826172 -310.421875 608.69433594 C-315.02850721 573.72871783 -323.62042187 539.49198017 -332.13983154 505.32434082 C-351.78653449 426.52405963 -351.78653449 426.52405963 -356.3125 397.125 C-356.42974426 396.3777063 -356.54698853 395.6304126 -356.66778564 394.86047363 C-362.53760265 357.26035477 -365.15203437 318.74750396 -359 281 C-358.86078125 280.10055664 -358.7215625 279.20111328 -358.578125 278.27441406 C-350.38416553 226.36036991 -325.42797675 179.22531777 -291 140 C-290.37867188 139.27941406 -289.75734375 138.55882812 -289.1171875 137.81640625 C-285.853212 134.04385782 -282.49886286 130.36195279 -279.125 126.6875 C-275.72466437 122.96725419 -272.47335607 119.17549247 -269.3125 115.25 C-266.31121288 111.53135779 -263.2258382 108.08939042 -259.78089905 104.78208923 C-258.00880421 103.00881009 -256.38035166 101.16913973 -254.75170898 99.26391602 C-251.18878229 95.165644 -247.44254843 91.297551 -243.59765625 87.46484375 C-242.91626083 86.78249161 -242.23486542 86.10013947 -241.53282166 85.39710999 C-240.10294259 83.96655563 -238.67182089 82.53724233 -237.23950195 81.10913086 C-235.06802289 78.94300926 -232.90193675 76.77159826 -230.73632812 74.59960938 C-229.33625798 73.20020013 -227.93587762 71.80110116 -226.53515625 70.40234375 C-225.89844498 69.76360825 -225.2617337 69.12487274 -224.60572815 68.46678162 C-212.64645388 56.56855938 -212.64645388 56.56855938 -207 54 C-207 53.34 -207 52.68 -207 52 C-205.15625 50.29296875 -205.15625 50.29296875 -202.5 48.1875 C-201.49066406 47.38183594 -200.48132813 46.57617188 -199.44140625 45.74609375 C-198.88598145 45.30507324 -198.33055664 44.86405273 -197.75830078 44.40966797 C-195.9363531 42.9489729 -194.13644338 41.46439552 -192.33984375 39.97265625 C-171.55974852 22.76376844 -149.47625627 7.4809886 -125 -4 C-124.11183594 -4.44472656 -123.22367187 -4.88945312 -122.30859375 -5.34765625 C-83.2941732 -24.33589536 -36.10550906 -26.10527144 0 0 Z " fill="#7C7C7C" transform="translate(497,280)"/>
<path d="M0 0 C26.80221139 -0.66809031 52.35214039 9.66909119 71.76708984 27.96264648 C90.88804318 46.55175536 101.13710976 71.66356873 101.7890625 98.30859375 C101.29101501 126.78519141 89.78999309 151.3901367 70.046875 171.609375 C49.34868593 191.25568889 23.75543545 198.75147254 -4.29296875 198.39453125 C-29.46959394 197.61986586 -53.39353014 185.31544017 -70.5234375 167.12109375 C-87.84245828 148.13689409 -97.38744584 123.25869007 -96.765625 97.453125 C-94.74216916 69.61428897 -84.42133243 46.67543799 -64.5234375 27.12109375 C-63.76289062 26.36183594 -63.00234375 25.60257812 -62.21875 24.8203125 C-45.4965864 9.04757577 -22.6659549 1.08768514 0 0 Z " fill="#7C7C7C" transform="translate(787.5234375,392.87890625)"/>
</svg>
