<?xml version="1.0" encoding="UTF-8"?>
<svg version="1.1" xmlns="http://www.w3.org/2000/svg" width="1000" height="2000">
<path d="M0 0 C0 555.06 0 1110.12 0 1682 C-7.32117017 1681.26788298 -13.236559 1680.42648461 -20.125 1678.4375 C-21.0337085 1678.17573975 -21.94241699 1677.91397949 -22.87866211 1677.64428711 C-31.47859476 1675.04838012 -39.18400515 1671.3741688 -47 1667 C-48.07765625 1666.4225 -49.1553125 1665.845 -50.265625 1665.25 C-60.79278775 1659.4195714 -69.19075937 1652.45259299 -76.60546875 1642.98046875 C-79.36227278 1639.54907972 -82.26850433 1636.29843004 -85.25 1633.0625 C-85.74556396 1632.51883789 -86.24112793 1631.97517578 -86.75170898 1631.41503906 C-88.91313878 1629.08091302 -91.05336261 1626.95863992 -93.5703125 1625.0078125 C-96.46255944 1622.61775635 -98.46863012 1619.84204471 -100.625 1616.8125 C-105.32536823 1610.45317828 -110.70801681 1605.79479442 -117 1601 C-122.21367921 1596.67415747 -127.01445649 1592.02847173 -131.76171875 1587.19921875 C-134.43928921 1584.56837727 -137.26192899 1582.16485007 -140.17578125 1579.80078125 C-142 1578 -142 1578 -143.70141602 1575.04980469 C-146.46809296 1571.37892541 -148.24910892 1570.72303671 -152.6015625 1569.40234375 C-153.23806732 1569.20073135 -153.87457214 1568.99911896 -154.53036499 1568.79139709 C-156.55622661 1568.15300781 -158.58931531 1567.54375582 -160.625 1566.9375 C-163.28754093 1566.12485626 -165.94567763 1565.29896829 -168.6015625 1564.46484375 C-169.24990051 1564.26358887 -169.89823853 1564.06233398 -170.56622314 1563.85498047 C-174.31345703 1562.65739731 -177.70171134 1561.22697162 -181.1484375 1559.33984375 C-186.84712208 1556.3204972 -192.66011912 1555.47674001 -199 1554.625 C-200.19842529 1554.45709961 -201.39685059 1554.28919922 -202.6315918 1554.11621094 C-210.61723585 1553.08719123 -218.0311348 1552.90749018 -226.01953125 1553.625 C-251.70619293 1555.84302285 -274.15464168 1553.10134505 -298.34863281 1544.88330078 C-300.83362296 1544.05542837 -303.32762147 1543.28108184 -305.8359375 1542.52734375 C-323.43408523 1537.16748282 -335.95443523 1528.94480962 -348.96044922 1516.00244141 C-351.04512416 1513.95569687 -353.1702414 1511.96254634 -355.31640625 1509.98046875 C-356.02732422 1509.32385254 -356.73824219 1508.66723633 -357.47070312 1507.99072266 C-358.81582939 1506.7507825 -360.1620914 1505.51207269 -361.50976562 1504.27490234 C-381.88303301 1485.31201005 -387.77618972 1461.50710716 -394.14263916 1435.23266602 C-394.94201836 1431.94694744 -395.75725774 1428.66516795 -396.5703125 1425.3828125 C-398.41245402 1417.92957249 -400.21332638 1410.46671243 -402 1403 C-402.25418701 1401.94454987 -402.50837402 1400.88909973 -402.77026367 1399.80166626 C-405.56865132 1388.12995946 -407.88863654 1376.61766286 -409.25 1364.6875 C-409.40984375 1363.40294922 -409.5696875 1362.11839844 -409.734375 1360.79492188 C-411.71298856 1344.29823132 -412.23579188 1327.8522782 -412.25 1311.25 C-412.25133942 1310.31511749 -412.25267883 1309.38023499 -412.25405884 1308.41702271 C-412.24500208 1279.06781173 -407.82368245 1250.82155289 -402.203125 1222.08740234 C-401.62717653 1219.13615288 -401.05954624 1216.18337993 -400.4921875 1213.23046875 C-397.00264941 1195.23124636 -392.96889038 1177.62053656 -386.6875 1160.375 C-386.44911407 1159.71433533 -386.21072815 1159.05367065 -385.96511841 1158.37298584 C-375.52936281 1129.47550478 -361.42632527 1104.97073182 -341 1082 C-339.78957031 1080.63875 -339.78957031 1080.63875 -338.5546875 1079.25 C-336.37932925 1076.82451344 -334.19064204 1074.41167979 -332 1072 C-329.64739238 1069.37723648 -327.29598578 1066.75340348 -324.9453125 1064.12890625 C-321.3757248 1060.22242975 -321.3757248 1060.22242975 -320 1059 C-319.34 1059 -318.68 1059 -318 1059 C-317.61739014 1058.12952026 -317.61739014 1058.12952026 -317.22705078 1057.24145508 C-315.87263534 1054.76734282 -314.36587734 1053.12278998 -312.3671875 1051.13671875 C-311.64273438 1050.41419922 -310.91828125 1049.69167969 -310.171875 1048.94726562 C-309.41390625 1048.20154297 -308.6559375 1047.45582031 -307.875 1046.6875 C-306.77285156 1045.58631836 -306.77285156 1045.58631836 -305.6484375 1044.46289062 C-301.47301344 1040.32054651 -297.19145054 1036.36554841 -292.73730469 1032.52563477 C-290.61055708 1030.65800607 -288.64278784 1028.67041133 -286.6875 1026.625 C-282.57378034 1022.44711487 -278.17731385 1018.77156357 -273.578125 1015.140625 C-270.89448893 1012.98766566 -270.89448893 1012.98766566 -268.296875 1010.234375 C-266 1008 -266 1008 -264 1008 C-263.7834375 1007.45085938 -263.566875 1006.90171875 -263.34375 1006.3359375 C-261.55870876 1003.23287163 -259.08339526 1001.05045843 -256.5 998.625 C-246.21720048 988.60252452 -239.18925883 977.3127717 -233.12304688 964.37695312 C-231.84994839 961.68241251 -230.54351166 959.00533627 -229.234375 956.328125 C-226.43131897 950.57878424 -223.69906632 944.79878407 -221 939 C-220.54052979 938.03151123 -220.54052979 938.03151123 -220.07177734 937.04345703 C-213.08695516 922.11476811 -212.44148034 904.28001515 -212 888 C-211.97276855 887.13681152 -211.94553711 886.27362305 -211.91748047 885.38427734 C-211.12712722 857.09559612 -217.32058566 832.23886448 -226.0625 805.5 C-230.09084381 793.15435663 -233.30801072 780.70234684 -236 768 C-236.17934082 767.16307617 -236.35868164 766.32615234 -236.54345703 765.46386719 C-241.20502487 742.91984001 -239.52988541 721.21373414 -234 699 C-233.80776855 698.20658203 -233.61553711 697.41316406 -233.41748047 696.59570312 C-228.7168477 677.62514229 -219.66432214 660.10740043 -211.18359375 642.609375 C-205.63827646 631.14389417 -200.32013241 619.57124457 -195 608 C-194.53867676 606.9987207 -194.07735352 605.99744141 -193.60205078 604.96582031 C-192.35373532 602.25072262 -191.11266834 599.5324649 -189.875 596.8125 C-189.52091064 596.04188232 -189.16682129 595.27126465 -188.80200195 594.47729492 C-172.22932364 557.79021293 -180.66307263 511.53097976 -194.19189453 475.08691406 C-195.51923008 471.65910007 -197.02992464 468.34321329 -198.62890625 465.03515625 C-200.56888555 460.74067215 -202.21133548 456.34513066 -203.875 451.9375 C-204.22199951 451.02194336 -204.56899902 450.10638672 -204.92651367 449.16308594 C-206.51809623 444.95488392 -208.09610739 440.74236316 -209.6484375 436.51953125 C-212.49946569 428.86962166 -215.67336763 421.52400994 -219.31030273 414.21044922 C-225.75338348 401.24788358 -230.60346789 388.21906326 -234.92333984 374.41601562 C-236.72015868 368.71508836 -238.61043837 363.04572545 -240.5 357.375 C-241.05179932 355.70449585 -241.05179932 355.70449585 -241.61474609 354.00024414 C-243.82302421 347.35849738 -246.17389558 340.78800317 -248.63110352 334.23461914 C-265.68288202 288.44958956 -254.50506613 248.3042241 -235.21362305 205.06689453 C-231.61599307 197.41013102 -227.35773796 190.57443543 -222 184 C-221.35289062 183.1646875 -220.70578125 182.329375 -220.0390625 181.46875 C-215.9544235 176.2378289 -211.62525767 171.27218404 -207.15234375 166.37109375 C-205.23144623 164.25496889 -203.36010568 162.10690731 -201.5 159.9375 C-197.56376176 155.42972365 -193.49596001 150.95571227 -189 147 C-188.34 147 -187.68 147 -187 147 C-186.65195312 146.13568359 -186.65195312 146.13568359 -186.296875 145.25390625 C-184.67523653 142.43557674 -182.79979888 140.95546213 -180.25 138.9375 C-179.26644531 138.15246094 -178.28289062 137.36742187 -177.26953125 136.55859375 C-175.0219346 134.7943365 -172.76701587 133.03955382 -170.51171875 131.28515625 C-169.32003383 130.35712856 -168.1286295 129.42874046 -166.9375 128.5 C-166.34122803 128.03537354 -165.74495605 127.57074707 -165.13061523 127.09204102 C-160.72264546 123.63135828 -156.54790584 119.97407281 -152.42578125 116.17578125 C-149.85565714 113.87053306 -147.19756546 111.71677955 -144.5 109.5625 C-140.7738245 106.55329928 -137.34648449 103.42591054 -134 100 C-129.83963176 95.74776243 -125.46763682 91.97051657 -120.8203125 88.26171875 C-117.99789513 85.99831202 -115.25136432 83.66150602 -112.5 81.3125 C-106.50807457 76.29964735 -100.2542664 71.67927603 -93.9375 67.08520508 C-86.5135305 61.68489113 -79.25261198 56.12757692 -72.25 50.1875 C-52.85001408 33.91131981 -31.82978064 19.57205376 -10.27709961 6.31005859 C-0.05292654 0 -0.05292654 0 0 0 Z " fill="#848484" transform="translate(1000,135)"/>
</svg>
