<?xml version="1.0" encoding="UTF-8"?>
<svg version="1.1" xmlns="http://www.w3.org/2000/svg" width="1000" height="2000">
<path d="M0 0 C7.81205367 3.90602683 13.12940038 8.27313067 16.33203125 16.56640625 C18.8329585 25.67797161 16.35291718 32.19201128 12.53515625 40.55859375 C5.9551779 55.30913045 5.61784696 73.69273313 10.80078125 88.96875 C12.69287553 93.75137267 14.68554082 98.40542079 17 103 C17.38285156 103.81082031 17.76570313 104.62164062 18.16015625 105.45703125 C24.95750576 118.98936927 34.96216841 131.35827097 45.40234375 142.26171875 C47.39296784 144.36010595 49.28345458 146.47861636 51.1640625 148.671875 C55.685606 153.86917104 60.55796721 158.70377545 65.4375 163.5625 C66.34048828 164.46935547 67.24347656 165.37621094 68.17382812 166.31054688 C72.74513585 170.87523431 77.37507462 175.28917693 82.27758789 179.49584961 C84.63438182 181.55399382 86.81789816 183.75892244 89 186 C91.81456574 188.84863007 94.62735252 191.60529312 97.6875 194.1875 C102.68057486 198.44086006 107.21775291 203.16953166 111.80932617 207.84643555 C112.43556885 208.48105713 113.06181152 209.11567871 113.70703125 209.76953125 C114.2688208 210.34292236 114.83061035 210.91631348 115.40942383 211.50708008 C117.13564277 213.20957915 117.13564277 213.20957915 120 215 C120 215.66 120 216.32 120 217 C120.99 217.33 121.98 217.66 123 218 C124.47265625 219.49609375 124.47265625 219.49609375 126.0625 221.4375 C128.85443913 224.74080482 131.77595803 227.79539226 134.875 230.8125 C140.00880457 235.89970423 144.5554519 241.3068951 149 247 C150.09441406 248.38638672 150.09441406 248.38638672 151.2109375 249.80078125 C179.51007994 286.49037118 184.76713975 325.66409402 179 371 C175.03713482 401.23040957 165.84564252 430.06966758 156 458.8125 C155.72576202 459.61548523 155.45152405 460.41847046 155.16897583 461.24578857 C151.21309465 472.81256864 147.08615611 484.30612956 142.81814575 495.76113892 C132.38369744 523.76966136 122.4480651 551.76776717 116 581 C115.82146484 581.80260254 115.64292969 582.60520508 115.45898438 583.43212891 C105.82566876 627.7037553 115.74656888 667.52693499 128.77157593 709.98254395 C134.63316102 729.11073188 139.59963652 748.10854169 142 768 C142.13148438 769.0415625 142.26296875 770.083125 142.3984375 771.15625 C146.68459507 810.54256278 132.63302374 846.38244651 114 880.375 C100.67454815 904.76372252 90.5234333 930.70055055 98.5 958.328125 C107.97229274 989.35840569 124.45425031 1017.28885467 144 1043 C144.4753418 1043.62696777 144.95068359 1044.25393555 145.44042969 1044.89990234 C150.94912773 1052.12597266 156.71738493 1059.10393447 162.66918945 1065.96850586 C165.60851061 1069.3591532 168.45781831 1072.7983854 171.25 1076.3125 C176.55696023 1082.85904218 182.40930296 1088.89000621 188.2109375 1094.99609375 C191.76933728 1098.74310436 195.23404165 1102.56415361 198.671875 1106.421875 C201.70088453 1109.7761473 204.78664439 1113.07541836 207.875 1116.375 C213.96044643 1122.87754798 219.99840642 1129.41993957 226 1136 C226.8765625 1136.9590625 227.753125 1137.918125 228.65625 1138.90625 C233.5008973 1144.21785125 238.299153 1149.56084899 243 1155 C243.43038574 1155.49338867 243.86077148 1155.98677734 244.30419922 1156.49511719 C251.08475828 1164.26991332 257.58405354 1172.18149654 263.79541016 1180.41748047 C264.97645174 1181.96906368 266.18139345 1183.50236123 267.38671875 1185.03515625 C282.75514412 1204.61071899 296.4549972 1225.66344423 307.12060547 1248.17333984 C307.94591563 1249.88765706 308.81718222 1251.57963399 309.69140625 1253.26953125 C322.76348603 1279.32270185 330.76727022 1310.03250589 333 1339 C333.05494629 1339.69206543 333.10989258 1340.38413086 333.16650391 1341.09716797 C335.05762789 1365.64830852 334.42177356 1390.90449689 329 1415 C328.75491699 1416.10553223 328.75491699 1416.10553223 328.50488281 1417.23339844 C320.92480845 1450.53808745 304.15863146 1480.68059854 281.078125 1505.73828125 C279.19271065 1507.79026416 277.37229967 1509.88151954 275.5625 1512 C271.29681601 1516.88651124 266.84189918 1521.6803532 262 1526 C261.34 1526 260.68 1526 260 1526 C259.67 1526.99 259.34 1527.98 259 1529 C257.4089357 1530.43802182 255.7513985 1531.80325335 254.0625 1533.125 C250.24412818 1536.1688442 246.53859025 1539.26435861 242.9375 1542.5625 C239.0380509 1546.10800849 235.03121798 1549.44328313 230.89453125 1552.70703125 C227.25903442 1555.58697273 223.66022422 1558.51059488 220.0625 1561.4375 C219.37051514 1562.00017578 218.67853027 1562.56285156 217.96557617 1563.14257812 C213.16117786 1567.05101034 208.3618992 1570.96562756 203.57421875 1574.89453125 C201.81153836 1576.33623797 200.04299936 1577.77080309 198.26953125 1579.19921875 C192.52084227 1583.84519729 186.98817234 1588.66126211 181.55078125 1593.66796875 C179.39924849 1595.63499028 177.21708027 1597.54553129 175 1599.4375 C159.65714216 1612.79555282 146.46032478 1628.56612537 136 1646 C135.31808594 1647.10214844 134.63617188 1648.20429687 133.93359375 1649.33984375 C121.49877747 1669.78966666 123.0017543 1690.03555968 125.48828125 1713.09765625 C125.9824073 1717.68519806 126.34755002 1722.26954417 126.625 1726.875 C126.69976562 1728.08929687 126.77453125 1729.30359375 126.8515625 1730.5546875 C126.9047588 1732.03632954 126.95363543 1733.51812844 127 1735 C127.07420166 1736.57249512 127.07420166 1736.57249512 127.14990234 1738.17675781 C127.44351883 1748.8643978 125.64539731 1758.60405656 123.375 1769 C123.00679837 1770.73440896 122.63920959 1772.46894813 122.2722168 1774.20361328 C119.73405633 1786.09131677 116.97941692 1797.91057722 113.67041016 1809.60986328 C112.99903367 1812.00344515 112.36244057 1814.40434241 111.73046875 1816.80859375 C107.83039215 1831.32391644 100.39115502 1841.54366043 91 1853 C90.53851563 1853.56734863 90.07703125 1854.13469727 89.6015625 1854.71923828 C83.51502307 1862.16192403 77.0411194 1869.19594464 70.3125 1876.0625 C69.62397949 1876.77704346 68.93545898 1877.49158691 68.22607422 1878.2277832 C64.17186844 1882.29598897 60.28061107 1885.15582248 55.18530273 1887.78588867 C51.5623448 1889.79873303 48.52243104 1892.44924054 45.375 1895.125 C34.55733482 1904.08948547 23.66591866 1912.4015318 11.31640625 1919.1484375 C7.46618108 1921.29803318 3.73937402 1923.66289124 0 1926 C0 1290.42 0 654.84 0 0 Z " fill="#848484" transform="translate(0,34)"/>
<path d="M0 0 C9.63208627 9.96550465 14.58540123 22.7081977 15.09375 36.4140625 C14.78402912 50.13856907 9.60844726 61.84083993 0.23046875 71.71484375 C-10.93446479 82.30995612 -23.39124585 86.39665388 -38.5859375 86.25390625 C-52.42160006 85.43566814 -63.80976427 78.95407771 -73.21875 69.0390625 C-82.54327242 58.00296427 -86.20552658 45.34732291 -85.21875 31.0390625 C-83.20298801 16.97997677 -76.99749824 4.8699837 -65.68359375 -3.93359375 C-44.85650988 -18.04806354 -18.96257845 -16.75918025 0 0 Z " fill="#848484" transform="translate(202.21875,941.9609375)"/>
<path d="M0 0 C4.40608743 2.16298837 7.1987497 4.39680479 9 9 C9.72840518 13.32628533 9.98741501 17.20290469 7.828125 21.1328125 C5.07535745 24.5241086 2.39498637 27.18232812 -2 28 C-6.50332891 28.04939666 -9.95896418 27.61104276 -13.875 25.3125 C-16.85869943 22.06553297 -18.81389626 19.37174074 -19.16796875 14.859375 C-18.915768 9.36700315 -17.20803407 6.27732363 -13.47265625 2.3125 C-9.66069881 -1.08489443 -4.82426397 -0.53355915 0 0 Z " fill="#848484" transform="translate(205,873)"/>
</svg>
