<?xml version="1.0" encoding="UTF-8"?>
<svg version="1.1" xmlns="http://www.w3.org/2000/svg" width="350" height="1000">
<path d="M0 0 C0 257.4 0 514.8 0 780 C-5.69024627 779.18710768 -9.25960601 778.21274801 -14.125 775.625 C-15.01638672 775.16867187 -15.01638672 775.16867187 -15.92578125 774.703125 C-22.50484771 771.30466683 -28.39111852 767.3560465 -34.3125 762.9375 C-35.05306641 762.39544922 -35.79363281 761.85339844 -36.55664062 761.29492188 C-37.25595703 760.77349609 -37.95527344 760.25207031 -38.67578125 759.71484375 C-39.31427002 759.24167725 -39.95275879 758.76851074 -40.6105957 758.28100586 C-41.06909912 757.85827393 -41.52760254 757.43554199 -42 757 C-42 756.34 -42 755.68 -42 755 C-42.87398438 754.60554687 -42.87398438 754.60554687 -43.765625 754.203125 C-46.10607167 752.94288449 -47.79459301 751.54380311 -49.75 749.75 C-54.78332221 745.2519378 -59.86078234 740.89303841 -66 738 C-66 737.34 -66 736.68 -66 736 C-67.0725 735.731875 -68.145 735.46375 -69.25 735.1875 C-73 734 -73 734 -74.67578125 732.65234375 C-78.14319651 730.18727374 -81.9762333 728.87678143 -85.9375 727.375 C-86.73607422 727.06304688 -87.53464844 726.75109375 -88.35742188 726.4296875 C-92.21096221 724.94829337 -95.89501747 723.61367416 -100 723 C-100 722.34 -100 721.68 -100 721 C-101.051875 720.896875 -102.10375 720.79375 -103.1875 720.6875 C-110.38638937 719.78763883 -117.40143971 717.86496007 -124.4453125 716.171875 C-131.545354 714.48779826 -131.545354 714.48779826 -138.75 713.375 C-142 713 -142 713 -143 712 C-144.83572005 711.64334582 -146.68205466 711.34097248 -148.53125 711.0625 C-149.65144531 710.88976562 -150.77164063 710.71703125 -151.92578125 710.5390625 C-153.10527344 710.36117187 -154.28476563 710.18328125 -155.5 710 C-157.82348375 709.64957294 -160.14643664 709.29560126 -162.46875 708.9375 C-164.02239258 708.70353516 -164.02239258 708.70353516 -165.60742188 708.46484375 C-168 708 -168 708 -169 707 C-171.35196589 706.52476365 -173.69863786 706.09486326 -176.0625 705.6875 C-188.0360823 703.52143161 -199.85427082 701.01655411 -211 696 C-211.76699219 695.65839844 -212.53398437 695.31679688 -213.32421875 694.96484375 C-214.82283017 694.29568449 -216.32028983 693.62393792 -217.81640625 692.94921875 C-221.16295536 691.49445769 -224.57111766 690.24686631 -228 689 C-228 688.34 -228 687.68 -228 687 C-228.78375 686.814375 -229.5675 686.62875 -230.375 686.4375 C-235.50140972 684.40461339 -239.5793782 681.25549667 -244 678 C-244.71800781 677.50113281 -245.43601563 677.00226562 -246.17578125 676.48828125 C-262.94437648 664.60374289 -273.71017436 644.05603955 -280 625 C-280.23122559 624.37391846 -280.46245117 623.74783691 -280.70068359 623.1027832 C-282.96747998 616.77672367 -284.11747315 610.44416948 -285.125 603.8125 C-285.38156372 602.14767578 -285.38156372 602.14767578 -285.64331055 600.44921875 C-289.07112048 577.63499811 -288.44945491 556.65474587 -280 535 C-279.34 535 -278.68 535 -278 535 C-277.90332031 534.30003906 -277.80664062 533.60007812 -277.70703125 532.87890625 C-276.87084681 529.47411106 -275.46849589 526.95413329 -273.6875 523.9375 C-273.09324219 522.91527344 -272.49898437 521.89304687 -271.88671875 520.83984375 C-270.12173838 518.18323768 -268.31128035 516.17756992 -266 514 C-265.360625 513.195625 -264.72125 512.39125 -264.0625 511.5625 C-261.86389021 508.83089389 -259.57924519 506.37562057 -257 504 C-256.34 504 -255.68 504 -255 504 C-255 503.34 -255 502.68 -255 502 C-253.68 501.67 -252.36 501.34 -251 501 C-251 500.34 -251 499.68 -251 499 C-250.34 499 -249.68 499 -249 499 C-248.67 498.01 -248.34 497.02 -248 496 C-245.671875 494.28125 -245.671875 494.28125 -242.75 492.5 C-241.79609375 491.9121875 -240.8421875 491.324375 -239.859375 490.71875 C-238.44398438 489.86796875 -238.44398438 489.86796875 -237 489 C-236.14664063 488.48308594 -235.29328125 487.96617187 -234.4140625 487.43359375 C-232.1712142 486.10167574 -229.90996276 484.82046686 -227.625 483.5625 C-224.99542168 482.1138414 -222.39351781 480.64145545 -219.80859375 479.11328125 C-215.48952241 476.642341 -210.98352964 474.63843474 -206.4375 472.625 C-205.55924561 472.2328833 -204.68099121 471.8407666 -203.77612305 471.43676758 C-197.52859434 468.65546246 -191.2564991 465.93646931 -184.9609375 463.265625 C-182.43735917 462.18694508 -179.93544631 461.07374995 -177.4375 459.9375 C-172.74397349 457.82804988 -167.93414054 456.04140765 -163.11328125 454.24609375 C-159.97386057 452.98953767 -157.01870593 451.52105337 -154 450 C-151.77642205 449.04932057 -149.54694061 448.11235968 -147.3125 447.1875 C-137.26465444 442.93857572 -128.0675925 437.51503977 -118.84765625 431.734375 C-116.59743206 430.36386809 -114.37920499 429.12367272 -112 428 C-112 427.34 -112 426.68 -112 426 C-110.30263695 424.80186138 -108.60235367 423.60749186 -106.8828125 422.44140625 C-104.99828727 420.9986888 -103.65390643 419.54465545 -102.1875 417.6875 C-101.465625 416.800625 -100.74375 415.91375 -100 415 C-99.34 415 -98.68 415 -98 415 C-97.7525 414.34 -97.505 413.68 -97.25 413 C-95.40375843 408.56902023 -93.28517108 404.2388316 -90.89453125 400.07421875 C-88.22836249 393.89196716 -89.74247391 385.90694337 -91.83203125 379.7265625 C-96.99151116 367.68202412 -104.82764106 357.14721189 -113 347 C-117.94351227 340.84538228 -122.85471007 334.66678869 -127.72094727 328.45092773 C-130.05267205 325.47299008 -132.39313255 322.50342155 -134.76171875 319.5546875 C-139.74631881 313.32748518 -144.51782879 306.99451075 -149.0625 300.4375 C-149.52785156 299.77057129 -149.99320313 299.10364258 -150.47265625 298.41650391 C-152.78402714 295.03457618 -154.61280957 291.88273905 -156 288 C-156.45375 287.2575 -156.9075 286.515 -157.375 285.75 C-159.60235604 281.98062824 -161.27577806 278.01895849 -163 274 C-163.50273437 272.89527344 -164.00546875 271.79054688 -164.5234375 270.65234375 C-171.74720433 252.78403161 -171.91477747 230.92823351 -165 213 C-164.56835387 211.73722756 -164.14177298 210.47271848 -163.71875 209.20703125 C-160.43529455 199.46301616 -156.54571245 190.21828198 -152 181 C-151.48695313 179.9584375 -150.97390625 178.916875 -150.4453125 177.84375 C-149.30812109 175.55651757 -148.16155288 173.27493076 -147 171 C-146.34 171 -145.68 171 -145 171 C-144.81824219 170.40832031 -144.63648438 169.81664062 -144.44921875 169.20703125 C-143.0419527 164.78316414 -141.62209506 160.87614053 -139 157 C-138.34 156.01 -137.68 155.02 -137 154 C-136.34 154 -135.68 154 -135 154 C-134.61328125 152.69675781 -134.61328125 152.69675781 -134.21875 151.3671875 C-132.97873798 147.94125685 -131.45968465 145.1890832 -129.5 142.125 C-128.8915625 141.15820312 -128.283125 140.19140625 -127.65625 139.1953125 C-127.1096875 138.47085938 -126.563125 137.74640625 -126 137 C-125.34 137 -124.68 137 -124 137 C-123.77183594 136.14535156 -123.54367188 135.29070312 -123.30859375 134.41015625 C-121.81632756 130.5213551 -119.66520351 127.62609348 -117.0625 124.4375 C-113.54880484 120.08816674 -113.54880484 120.08816674 -110.49609375 115.41015625 C-108.68535673 112.49312037 -106.44164342 110.40874703 -104 108 C-102.38097293 105.9547721 -100.80313287 103.90555378 -99.25 101.8125 C-94.7966617 95.91569467 -90.00542591 90.43741389 -85 85 C-83.82848346 83.67092593 -82.66155394 82.33778972 -81.5 81 C-78.8566747 77.95802935 -76.15487519 74.9759568 -73.4375 72 C-70.73340874 69.01680625 -68.21766266 66.02348062 -65.875 62.75 C-63.4685343 59.43694335 -60.81169916 56.93466264 -57.6484375 54.3515625 C-53.70162438 51.11554984 -50.37149487 47.31262504 -47 43.5 C-42.05177592 37.90675602 -36.80000182 32.88041753 -31.18359375 27.96484375 C-28.21126547 25.29028002 -25.43866906 22.46238091 -22.6875 19.5625 C-20.6289706 17.59971615 -18.82144677 16.133631 -16.5 14.5625 C-13.01725575 12.16060741 -10.6791183 9.28191992 -8 6 C-1.60364465 0 -1.60364465 0 0 0 Z " fill="#bfbfbf" transform="translate(350,148)"/>
</svg>
