<?xml version="1.0" encoding="UTF-8"?>
<svg version="1.1" xmlns="http://www.w3.org/2000/svg" width="558" height="1000">
<path d="M0 0 C164.34 0 328.68 0 498 0 C474.52854296 42.24862266 431.19724652 76.7311111 384.82421875 91.01171875 C370.00299886 94.84192164 355.51037836 97.16224625 340.1953125 97.1328125 C339.07671844 97.13376923 337.95812439 97.13472595 336.80563354 97.13571167 C334.4439895 97.13638951 332.08234355 97.13456297 329.72070312 97.13037109 C326.17052838 97.12506801 322.62048309 97.13030337 319.0703125 97.13671875 C308.39224813 97.13976007 297.76468985 97.02557028 287.1058197 96.37425232 C277.5479747 95.81235731 267.98516684 95.74041884 258.4128418 95.70483398 C256.26791796 95.6933065 254.12302298 95.67284269 251.97827148 95.64331055 C222.72996561 95.24374963 194.75163845 99.25587304 172.73828125 120.1171875 C157.76317148 135.88270963 147.95151519 156.36852468 137.8125 175.375 C127.62730848 194.46799968 116.8942267 212.16274964 102 228 C101.19369141 228.90298828 101.19369141 228.90298828 100.37109375 229.82421875 C78.97834133 252.8254488 45.43720428 264.29628566 16 272 C14.40188477 272.42369873 14.40188477 272.42369873 12.77148438 272.85595703 C11.70736328 273.13165527 10.64324219 273.40735352 9.546875 273.69140625 C8.58104492 273.94220947 7.61521484 274.1930127 6.62011719 274.45141602 C4 275 4 275 0 275 C0 184.25 0 93.5 0 0 Z " fill="#848484" transform="translate(0,0)"/>
<path d="M0 0 C1.06089844 0.36222656 2.12179688 0.72445312 3.21484375 1.09765625 C24.45218958 9.16074122 40.94527008 26.21963641 50.5 46.5234375 C59.90342848 68.31784205 60.00543343 91.93547708 51.75927734 114.11132812 C48.18909305 122.99201806 43.15252698 130.72267184 37 138 C36.23558594 138.96292969 35.47117188 139.92585937 34.68359375 140.91796875 C21.54317846 156.6277252 0.89608757 165.34222051 -19 168 C-45.09660683 169.62151825 -68.1575887 162.35346772 -88 145 C-103.6932744 131.08572027 -112.589194 110.57070912 -115 90 C-116.37787777 63.71433182 -108.21575688 41.17737013 -90.7578125 21.46875 C-81.38345894 11.51042032 -69.95039742 4.37578646 -57 0 C-55.86949219 -0.391875 -54.73898438 -0.78375 -53.57421875 -1.1875 C-36.30689855 -6.35155838 -17.0053166 -5.90059336 0 0 Z " fill="#848484" transform="translate(202,776)"/>
</svg>