<?xml version="1.0" encoding="UTF-8"?>
<svg version="1.1" xmlns="http://www.w3.org/2000/svg" width="290" height="1000">
<path d="M0 0 C17.07328345 8.53664173 17.07328345 8.53664173 23.5546875 13.31640625 C28.25005512 16.54915936 33.40636018 18.96244125 38.5 21.5 C45.65811474 25.06604261 52.35849651 28.75475296 58.83789062 33.45556641 C61.45472941 35.32482139 64.17997694 36.89529989 67 38.4375 C75.79510317 43.48737382 83.16186301 50.01944044 90.6171875 56.84375 C92.78664341 58.80692978 95.00622919 60.68558145 97.25 62.5625 C100.51325669 65.40068317 102.99861029 68.43877799 105.49609375 71.95703125 C107.09611026 74.13056017 108.82308571 76.11649681 110.625 78.125 C118 86.44844789 118 86.44844789 118 91 C118.66 91 119.32 91 120 91 C120 91.99 120 92.98 120 94 C120.66 94 121.32 94 122 94 C145.79990067 139.62667796 148.0588059 188.81931298 133.29272461 237.89086914 C129.29975248 250.58745961 124.89116696 263.1635474 120.50634766 275.72900391 C108.71448525 309.65980668 96.81770302 346.34239436 108 382 C108.36732268 383.9940374 108.71198254 385.99297308 109 388 C109.66 388 110.32 388 111 388 C111 388.99 111 389.98 111 391 C111.66 391 112.32 391 113 391 C113.55945313 392.03898437 114.11890625 393.07796875 114.6953125 394.1484375 C122.69334828 408.10469449 137.63117181 419.93840071 150.37744141 429.46655273 C154.70820905 432.71496068 158.68472934 436.24633656 162.6640625 439.91015625 C165.60800672 442.5439525 168.70936101 444.92376239 171.84375 447.32421875 C177.54284833 451.7534093 182.54843123 456.44559827 187.20703125 461.95703125 C189.10829172 464.12339122 191.11938205 466.11804635 193.1875 468.125 C196.29321403 471.18274934 198.71136646 474.27037497 201 478 C202.58606042 480.19608365 204.0827845 482.0827845 206 484 C206 484.99 206 485.98 206 487 C206.66 487 207.32 487 208 487 C212.82734249 496.48304613 217.30010331 505.91577693 220.375 516.125 C220.60074707 516.86137695 220.82649414 517.59775391 221.05908203 518.35644531 C225.34751316 533.33222504 226.51170113 547.91203646 226.44604492 563.42919922 C226.43750989 566.4964468 226.46646045 569.56183978 226.49804688 572.62890625 C226.57836897 595.3326363 220.42421683 613.96267255 210 634 C209.34 634 208.68 634 208 634 C207.90847656 634.56460938 207.81695312 635.12921875 207.72265625 635.7109375 C206.81664857 638.58077803 205.3515365 640.31268924 203.4375 642.625 C200.79174619 645.4606802 200.79174619 645.4606802 200 649 C198.38712936 650.50413779 196.6621854 651.81830025 194.921875 653.171875 C192.84781176 654.99844171 192.84781176 654.99844171 191.26171875 657.72265625 C188.33720407 661.9604245 184.83594556 665.20908373 181.0625 668.6875 C179.93122681 669.7403418 179.93122681 669.7403418 178.77709961 670.81445312 C169.96658637 678.96243067 160.80783456 686.58985663 151.3984375 694.03515625 C147.97028195 696.84356381 144.72584278 699.84119739 141.45703125 702.83203125 C139.08595345 704.92415872 136.64843321 706.84606758 134.125 708.75 C130.85828204 711.23567021 128.52105792 713.74702204 126 717 C124.76449642 718.07932254 123.51250489 719.13988956 122.25 720.1875 C117.47536778 724.26989929 113.77184013 729.00195329 110 734 C109.29979736 734.8808728 109.29979736 734.8808728 108.58544922 735.77954102 C92.02300656 756.99113649 88.72269499 781.39758637 91.83413696 807.4118042 C92.39738108 811.96370861 92.97750603 816.51334567 93.5625 821.0625 C97.65296438 852.9263157 94.85739509 877.20422395 80 906 C79.34 906 78.68 906 78 906 C78 906.99 78 907.98 78 909 C77.34 909.66 76.68 910.32 76 911 C75.67 911.66 75.34 912.32 75 913 C74.34 913 73.68 913 73 913 C72.85498047 913.85271484 72.85498047 913.85271484 72.70703125 914.72265625 C71.84418792 917.50186985 70.5151809 919.17931611 68.6875 921.4375 C68.05972656 922.22253906 67.43195313 923.00757813 66.78515625 923.81640625 C65.40334617 925.50662908 64.01542354 927.19185571 62.625 928.875 C60.82083672 930.99569023 60.82083672 930.99569023 60 934 C59.34 934 58.68 934 58 934 C57.78472656 934.53496094 57.56945313 935.06992187 57.34765625 935.62109375 C55.50756103 938.86926183 53.00189439 941.38459117 50.4375 944.0625 C46.54442769 948.18762904 42.83343838 952.35845074 39.3125 956.8125 C35.90659495 961.06218261 32.2655678 964.57920448 28.125 968.1015625 C25.3800787 970.55382675 23.05532619 973.26174825 20.67578125 976.0625 C16.1417113 981.3046881 11.05502563 985.92089806 5.796875 990.421875 C3.98035364 991.97804377 3.98035364 991.97804377 2.328125 993.703125 C1 995 1 995 0 995 C0 666.65 0 338.3 0 0 Z " fill="#bfbfbf" transform="translate(0,4)"/>
<path d="M0 0 C0.88099735 2.97818634 1.06705164 5.45292865 0.87890625 8.546875 C0.83056641 9.39121094 0.78222656 10.23554687 0.73242188 11.10546875 C0.67634766 11.97816406 0.62027344 12.85085938 0.5625 13.75 C0.51029297 14.63816406 0.45808594 15.52632812 0.40429688 16.44140625 C0.27498267 18.62799196 0.14003358 20.81407894 0 23 C-0.33 23 -0.66 23 -1 23 C-1.22527296 19.54254978 -1.42733544 16.08412975 -1.625 12.625 C-1.68945312 11.64015625 -1.75390625 10.6553125 -1.8203125 9.640625 C-1.871875 8.69960938 -1.9234375 7.75859375 -1.9765625 6.7890625 C-2.02893066 5.91975098 -2.08129883 5.05043945 -2.13525391 4.15478516 C-2 2 -2 2 0 0 Z " fill="#bfbfbf" transform="translate(95,846)"/>
</svg>
