<?xml version="1.0" encoding="UTF-8"?>
<svg version="1.1" xmlns="http://www.w3.org/2000/svg" width="466" height="379">
<path d="M0 0 C22.63897989 -0.4733858 44.49855278 4.75969976 64.11328125 16.12109375 C65.01119385 16.63712158 65.01119385 16.63712158 65.92724609 17.16357422 C79.69186589 25.21075586 91.60903416 35.27028078 101.11328125 48.12109375 C101.70238281 48.88421875 102.29148437 49.64734375 102.8984375 50.43359375 C122.33270143 76.64107495 129.66203081 109.04543011 125.33959961 141.22314453 C120.18333169 173.6657086 102.38639798 202.51577559 76.11328125 222.12109375 C47.92026927 241.34677395 15.37456968 249.70053475 -18.47827148 243.52954102 C-42.48758761 238.68246352 -63.17913072 228.09789243 -80.88671875 211.12109375 C-81.78132813 210.30125 -82.6759375 209.48140625 -83.59765625 208.63671875 C-104.93726716 188.43282943 -117.37207399 158.26653073 -118.88671875 129.12109375 C-118.93957031 128.20972656 -118.99242187 127.29835938 -119.046875 126.359375 C-119.52266913 110.20306123 -116.41309706 94.23980437 -110.88671875 79.12109375 C-110.35111328 77.59162109 -110.35111328 77.59162109 -109.8046875 76.03125 C-100.82912442 52.4030009 -82.77127771 32.80825186 -61.88671875 19.12109375 C-60.92121094 18.48300781 -59.95570313 17.84492187 -58.9609375 17.1875 C-41.33497651 6.24136378 -20.62055777 0.8650031 0 0 Z " fill="#4B4B4B" transform="translate(247.88671875,56.87890625)"/>
</svg>
