<?xml version="1.0" encoding="UTF-8"?>
<svg version="1.1" xmlns="http://www.w3.org/2000/svg" width="274" height="251">
<path d="M0 0 C10.96137719 6.737407 19.37585567 16.82099429 22.61328125 29.37890625 C24.68680859 43.4328138 22.31157133 55.45089177 14 67 C7.09842623 75.67714644 -2.30800988 80.44929647 -13 83 C-27.61727727 84.21678957 -38.59851581 81.29337562 -50.16015625 72.32421875 C-57.86543934 65.39094861 -63.56851208 54.67745247 -64.23828125 44.3125 C-64.6139203 29.8939976 -61.83218224 19.07017599 -52 8 C-38.2061779 -4.85819463 -17.01721196 -8.50860598 0 0 Z " fill="#8C8C8C" transform="translate(217,56)"/>
<path d="M0 0 C6.4947041 3.9556671 9.94651456 9.01180511 11.875 16.3125 C12.05409659 21.59584926 11.13174054 26.47733855 7.63671875 30.61328125 C3.6118965 34.13890074 -0.06044326 35.78042754 -5.3125 36.375 C-10.68730588 35.82840957 -15.01978196 34.39526374 -18.546875 30.12890625 C-19.82998664 28.13253549 -20.93920945 26.12158111 -22 24 C-22.45375 23.195625 -22.9075 22.39125 -23.375 21.5625 C-24.6745698 16.23426383 -23.77581861 11.52290319 -21.3125 6.6875 C-15.30091637 -0.29893503 -8.773302 -2.32310807 0 0 Z " fill="#8A8A8A" transform="translate(75,188)"/>
</svg>
