<?xml version="1.0" encoding="UTF-8"?>
<svg version="1.1" xmlns="http://www.w3.org/2000/svg" width="370" height="1000">
<path d="M0 0 C0.33 0 0.66 0 1 0 C1 311.85 1 623.7 1 945 C-3.04618755 943.38152498 -5.89755955 941.89171603 -9.4453125 939.5 C-10.5084668 938.7869873 -11.57162109 938.07397461 -12.66699219 937.33935547 C-13.8197198 936.55965656 -14.97238744 935.77986897 -16.125 935 C-17.32943945 934.1898012 -18.53419773 933.38007619 -19.73925781 932.57080078 C-21.61191064 931.31294236 -23.48423866 930.05461961 -25.35534668 928.79446411 C-29.55148748 925.96871622 -33.75917437 923.16111175 -37.9765625 920.3671875 C-52.45423505 910.77143498 -66.79819016 901.00095275 -81 891 C-81.70463379 890.50532227 -82.40926758 890.01064453 -83.13525391 889.50097656 C-91.59514811 883.55549787 -99.88625565 877.40999379 -108 871 C-108.94794434 870.25145752 -108.94794434 870.25145752 -109.91503906 869.48779297 C-118.75121872 862.47971399 -127.31956656 855.2687859 -135.46630859 847.46630859 C-136.48225053 846.49500212 -137.50337236 845.52908255 -138.52978516 844.56884766 C-156.48523436 827.7547079 -170.34338969 808.12752117 -171.40112305 782.78271484 C-171.71494723 764.16809653 -164.00611938 747.86977147 -157 731 C-155.82499119 728.14915895 -154.65986139 725.29452802 -153.5 722.4375 C-153.0565625 721.36371094 -152.613125 720.28992188 -152.15625 719.18359375 C-147.63307425 706.72957945 -146.69116678 692.65851827 -152.21875 680.375 C-159.80489062 666.00125988 -169.11276684 653.24047962 -179.09570312 640.4453125 C-206.26875242 605.55233022 -228.76842067 572.43256065 -223.70263672 526.29150391 C-220.38656446 503.81094406 -208.31217808 484.03799163 -193.31152344 467.45410156 C-191.67666483 465.64151447 -190.08913296 463.79019647 -188.5 461.9375 C-181.83733284 454.36702418 -175.02245828 446.92773178 -167.8125 439.875 C-163.64672784 435.75573567 -159.92387269 431.41737496 -156.28125 426.83203125 C-154.74052127 424.9193115 -153.1553123 423.04170715 -151.53125 421.19921875 C-141.41066228 409.65737565 -135.12861628 397.03286843 -129.78515625 382.73828125 C-121.03367701 359.33451993 -109.61924403 337.08036446 -95.60986328 316.38330078 C-93.75578719 313.63845838 -91.92224677 310.8804513 -90.08984375 308.12109375 C-84.01890029 298.9864768 -77.92895164 289.8647371 -71.80708313 280.76416016 C-56.28625506 257.77049491 -56.28625506 257.77049491 -42 234 C-41.56300781 233.23155762 -41.12601563 232.46311523 -40.67578125 231.67138672 C-30.46214067 213.55415549 -18.59659339 191.37839568 -22.546875 170.046875 C-24.98898199 161.43038431 -28.7888101 153.2576405 -32.27685547 145.02709961 C-41.28214017 123.62238514 -47.13837794 102.97199214 -38.2890625 80.48828125 C-35.99244813 74.93201 -33.51032961 69.46236932 -31 64 C-30.46342773 62.83210938 -29.92685547 61.66421875 -29.37402344 60.4609375 C-25.84658714 52.80293825 -22.27080089 45.16808397 -18.671875 37.54345703 C-17.15167175 34.32146083 -15.63763028 31.09664963 -14.125 27.87109375 C-9.67964348 18.42584749 -5.10389949 9.10927757 0 0 Z " fill="#4B4B4B" transform="translate(369,32)"/>
<path d="M0 0 C0.69609375 0.42410156 1.3921875 0.84820312 2.109375 1.28515625 C9.7405943 6.43479484 14.23222215 13.61084958 16.53125 22.46484375 C18.23782209 31.69455447 16.74625064 40.14829054 12.125 48.3125 C5.26597172 56.98715341 -1.94546048 62.31842322 -13 64 C-22.98561214 64.56796471 -31.1404232 61.30346208 -39.1328125 55.43359375 C-45.5216909 49.69466618 -49.46623494 40.88891618 -50.23828125 32.37109375 C-50.49728829 22.13349984 -48.49905331 14.52729027 -41.8125 6.625 C-30.99624085 -4.60177724 -13.76781503 -8.69974139 0 0 Z " fill="#4B4B4B" transform="translate(245,193)"/>
<path d="M0 0 C0.33 0 0.66 0 1 0 C1.25 6.625 1.25 6.625 -1 10 C-1.66 9.67 -2.32 9.34 -3 9 C-2.01 6.03 -1.02 3.06 0 0 Z " fill="#3B3B3B" transform="translate(242,407)"/>
</svg>
