<?xml version="1.0" encoding="UTF-8"?>
<svg version="1.1" xmlns="http://www.w3.org/2000/svg" width="454" height="493">
<path d="M0 0 C0.95716919 -0.00095673 1.91433838 -0.00191345 2.9005127 -0.00289917 C4.90714586 -0.00357413 6.91378129 -0.00176808 8.92041016 0.00244141 C11.96131374 0.0077994 15.00206966 0.00247292 18.04296875 -0.00390625 C20.00781282 -0.00324535 21.9726568 -0.00196393 23.9375 0 C25.2770575 -0.00303635 25.2770575 -0.00303635 26.64367676 -0.00613403 C39.78246573 0.04176748 39.78246573 0.04176748 45.46875 1.1328125 C45.79875 1.7928125 46.12875 2.4528125 46.46875 3.1328125 C48.79031597 3.54010478 51.1256287 3.87719927 53.46875 4.1328125 C53.46875 4.7928125 53.46875 5.4528125 53.46875 6.1328125 C55.44875 6.1328125 57.42875 6.1328125 59.46875 6.1328125 C59.46875 7.1228125 59.46875 8.1128125 59.46875 9.1328125 C61.44875 9.1328125 63.42875 9.1328125 65.46875 9.1328125 C65.46875 10.1228125 65.46875 11.1128125 65.46875 12.1328125 C67.11875 12.1328125 68.76875 12.1328125 70.46875 12.1328125 C70.46875 12.7928125 70.46875 13.4528125 70.46875 14.1328125 C72.11875 14.1328125 73.76875 14.1328125 75.46875 14.1328125 C75.46875 15.1228125 75.46875 16.1128125 75.46875 17.1328125 C76.45875 17.1328125 77.44875 17.1328125 78.46875 17.1328125 C78.79875 17.7928125 79.12875 18.4528125 79.46875 19.1328125 C81.49338255 19.78494542 81.49338255 19.78494542 83.46875 20.1328125 C83.46875 20.7928125 83.46875 21.4528125 83.46875 22.1328125 C84.45875 22.1328125 85.44875 22.1328125 86.46875 22.1328125 C87.84743281 23.76216491 89.18149093 25.43030857 90.46875 27.1328125 C91.12875 27.4628125 91.78875 27.7928125 92.46875 28.1328125 C92.46875 28.7928125 92.46875 29.4528125 92.46875 30.1328125 C93.45875 30.4628125 94.44875 30.7928125 95.46875 31.1328125 C95.46875 31.7928125 95.46875 32.4528125 95.46875 33.1328125 C96.12875 33.1328125 96.78875 33.1328125 97.46875 33.1328125 C99.09375 34.5078125 99.09375 34.5078125 100.46875 36.1328125 C100.46875 36.7928125 100.46875 37.4528125 100.46875 38.1328125 C101.45875 38.1328125 102.44875 38.1328125 103.46875 38.1328125 C103.46875 39.1228125 103.46875 40.1128125 103.46875 41.1328125 C104.12875 41.1328125 104.78875 41.1328125 105.46875 41.1328125 C108.21250671 44.08762742 108.46875 44.90753158 108.46875 49.1328125 C109.45875 49.1328125 110.44875 49.1328125 111.46875 49.1328125 C111.46875 50.1228125 111.46875 51.1128125 111.46875 52.1328125 C112.45875 52.1328125 113.44875 52.1328125 114.46875 52.1328125 C114.46875 53.7828125 114.46875 55.4328125 114.46875 57.1328125 C115.45875 57.4628125 116.44875 57.7928125 117.46875 58.1328125 C117.13875 59.4528125 116.80875 60.7728125 116.46875 62.1328125 C117.45875 62.1328125 118.44875 62.1328125 119.46875 62.1328125 C119.46875 64.1128125 119.46875 66.0928125 119.46875 68.1328125 C120.45875 68.1328125 121.44875 68.1328125 122.46875 68.1328125 C122.654375 69.834375 122.654375 69.834375 122.84375 71.5703125 C123.05 72.7459375 123.25625 73.9215625 123.46875 75.1328125 C124.12875 75.4628125 124.78875 75.7928125 125.46875 76.1328125 C125.46875 78.7728125 125.46875 81.4128125 125.46875 84.1328125 C126.12875 84.1328125 126.78875 84.1328125 127.46875 84.1328125 C127.46875 87.4328125 127.46875 90.7328125 127.46875 94.1328125 C128.12875 94.1328125 128.78875 94.1328125 129.46875 94.1328125 C129.46875 108.3228125 129.46875 122.5128125 129.46875 137.1328125 C128.80875 137.1328125 128.14875 137.1328125 127.46875 137.1328125 C127.46875 140.4328125 127.46875 143.7328125 127.46875 147.1328125 C126.80875 147.1328125 126.14875 147.1328125 125.46875 147.1328125 C125.46875 149.7728125 125.46875 152.4128125 125.46875 155.1328125 C124.47875 155.1328125 123.48875 155.1328125 122.46875 155.1328125 C122.46875 157.7728125 122.46875 160.4128125 122.46875 163.1328125 C121.47875 163.1328125 120.48875 163.1328125 119.46875 163.1328125 C119.46875 165.1128125 119.46875 167.0928125 119.46875 169.1328125 C118.47875 169.1328125 117.48875 169.1328125 116.46875 169.1328125 C116.79875 170.4528125 117.12875 171.7728125 117.46875 173.1328125 C116.47875 173.4628125 115.48875 173.7928125 114.46875 174.1328125 C114.46875 175.1228125 114.46875 176.1128125 114.46875 177.1328125 C113.80875 177.4628125 113.14875 177.7928125 112.46875 178.1328125 C111.81661708 180.15744505 111.81661708 180.15744505 111.46875 182.1328125 C110.47875 182.1328125 109.48875 182.1328125 108.46875 182.1328125 C108.46875 183.1228125 108.46875 184.1128125 108.46875 185.1328125 C107.80875 185.1328125 107.14875 185.1328125 106.46875 185.1328125 C106.13875 186.7828125 105.80875 188.4328125 105.46875 190.1328125 C104.80875 190.1328125 104.14875 190.1328125 103.46875 190.1328125 C103.13875 191.1228125 102.80875 192.1128125 102.46875 193.1328125 C101.80875 193.1328125 101.14875 193.1328125 100.46875 193.1328125 C100.46875 193.7928125 100.46875 194.4528125 100.46875 195.1328125 C99.09375 196.7578125 99.09375 196.7578125 97.46875 198.1328125 C96.80875 198.1328125 96.14875 198.1328125 95.46875 198.1328125 C95.13875 199.1228125 94.80875 200.1128125 94.46875 201.1328125 C93.80875 201.1328125 93.14875 201.1328125 92.46875 201.1328125 C92.46875 201.7928125 92.46875 202.4528125 92.46875 203.1328125 C91.47875 203.1328125 90.48875 203.1328125 89.46875 203.1328125 C89.46875 204.1228125 89.46875 205.1128125 89.46875 206.1328125 C88.47875 206.1328125 87.48875 206.1328125 86.46875 206.1328125 C86.13875 207.1228125 85.80875 208.1128125 85.46875 209.1328125 C84.14875 209.1328125 82.82875 209.1328125 81.46875 209.1328125 C81.46875 209.7928125 81.46875 210.4528125 81.46875 211.1328125 C79.34882246 213.78272192 77.69714315 214.37952077 74.46875 215.1328125 C74.13875 215.7928125 73.80875 216.4528125 73.46875 217.1328125 C71.44134829 218.00669255 69.3780263 218.66262172 67.28125 219.3515625 C65.27362204 219.98610695 65.27362204 219.98610695 64.46875 222.1328125 C62.80208333 222.46614583 61.13541667 222.79947917 59.46875 223.1328125 C59.13875 223.7928125 58.80875 224.4528125 58.46875 225.1328125 C56.15875 225.1328125 53.84875 225.1328125 51.46875 225.1328125 C51.46875 225.7928125 51.46875 226.4528125 51.46875 227.1328125 C48.39257812 227.42578125 48.39257812 227.42578125 45.31640625 227.71875 C44.70667969 227.85539063 44.09695313 227.99203125 43.46875 228.1328125 C43.13875 228.7928125 42.80875 229.4528125 42.46875 230.1328125 C39.96484375 230.546875 39.96484375 230.546875 36.90625 230.7578125 C35.89433594 230.83257812 34.88242187 230.90734375 33.83984375 230.984375 C33.05738281 231.03335938 32.27492188 231.08234375 31.46875 231.1328125 C31.46875 231.7928125 31.46875 232.4528125 31.46875 233.1328125 C18.26875 233.1328125 5.06875 233.1328125 -8.53125 233.1328125 C-8.20125 232.4728125 -7.87125 231.8128125 -7.53125 231.1328125 C-11.49125 230.8028125 -15.45125 230.4728125 -19.53125 230.1328125 C-19.53125 229.1428125 -19.53125 228.1528125 -19.53125 227.1328125 C-22.17125 227.1328125 -24.81125 227.1328125 -27.53125 227.1328125 C-27.53125 226.4728125 -27.53125 225.8128125 -27.53125 225.1328125 C-29.84125 225.1328125 -32.15125 225.1328125 -34.53125 225.1328125 C-34.86125 224.1428125 -35.19125 223.1528125 -35.53125 222.1328125 C-37.18125 222.1328125 -38.83125 222.1328125 -40.53125 222.1328125 C-40.86125 221.4728125 -41.19125 220.8128125 -41.53125 220.1328125 C-44.05858235 219.47726131 -44.05858235 219.47726131 -46.53125 219.1328125 C-46.53125 218.4728125 -46.53125 217.8128125 -46.53125 217.1328125 C-47.85125 217.1328125 -49.17125 217.1328125 -50.53125 217.1328125 C-50.53125 216.1428125 -50.53125 215.1528125 -50.53125 214.1328125 C-51.85125 214.1328125 -53.17125 214.1328125 -54.53125 214.1328125 C-54.86125 213.4728125 -55.19125 212.8128125 -55.53125 212.1328125 C-56.52125 211.8028125 -57.51125 211.4728125 -58.53125 211.1328125 C-58.53125 210.4728125 -58.53125 209.8128125 -58.53125 209.1328125 C-59.85125 209.1328125 -61.17125 209.1328125 -62.53125 209.1328125 C-62.53125 208.1428125 -62.53125 207.1528125 -62.53125 206.1328125 C-63.52125 206.1328125 -64.51125 206.1328125 -65.53125 206.1328125 C-67.21875 204.7578125 -67.21875 204.7578125 -68.53125 203.1328125 C-68.53125 202.4728125 -68.53125 201.8128125 -68.53125 201.1328125 C-69.52125 200.8028125 -70.51125 200.4728125 -71.53125 200.1328125 C-71.53125 199.4728125 -71.53125 198.8128125 -71.53125 198.1328125 C-72.19125 198.1328125 -72.85125 198.1328125 -73.53125 198.1328125 C-75.15625 196.7578125 -75.15625 196.7578125 -76.53125 195.1328125 C-76.53125 194.4728125 -76.53125 193.8128125 -76.53125 193.1328125 C-77.52125 193.1328125 -78.51125 193.1328125 -79.53125 193.1328125 C-79.53125 192.1428125 -79.53125 191.1528125 -79.53125 190.1328125 C-80.19125 190.1328125 -80.85125 190.1328125 -81.53125 190.1328125 C-83.57294485 187.22732368 -84.53125 185.73139204 -84.53125 182.1328125 C-85.52125 182.1328125 -86.51125 182.1328125 -87.53125 182.1328125 C-87.53125 181.1428125 -87.53125 180.1528125 -87.53125 179.1328125 C-88.52125 178.8028125 -89.51125 178.4728125 -90.53125 178.1328125 C-90.53125 176.8128125 -90.53125 175.4928125 -90.53125 174.1328125 C-91.52125 173.8028125 -92.51125 173.4728125 -93.53125 173.1328125 C-93.53125 172.1428125 -93.53125 171.1528125 -93.53125 170.1328125 C-94.19125 169.8028125 -94.85125 169.4728125 -95.53125 169.1328125 C-95.53125 167.1528125 -95.53125 165.1728125 -95.53125 163.1328125 C-96.52125 163.1328125 -97.51125 163.1328125 -98.53125 163.1328125 C-98.86125 160.8228125 -99.19125 158.5128125 -99.53125 156.1328125 C-100.19125 156.1328125 -100.85125 156.1328125 -101.53125 156.1328125 C-101.75911458 154.08203125 -101.98697917 152.03125 -102.21484375 149.98046875 C-102.35011614 148.12141021 -102.35011614 148.12141021 -103.53125 147.1328125 C-104.1028175 144.56075877 -104.55994802 141.97497337 -105.03125 139.3828125 C-105.31074757 137.17435644 -105.31074757 137.17435644 -106.53125 136.1328125 C-106.61999135 133.03030049 -106.64643455 129.9501313 -106.62890625 126.84765625 C-106.6274913 125.91683731 -106.62607635 124.98601837 -106.62461853 124.0269928 C-106.61900172 121.04140059 -106.6064464 118.05588221 -106.59375 115.0703125 C-106.58873716 113.05143337 -106.58417388 111.03255307 -106.58007812 109.01367188 C-106.56902683 104.05335678 -106.55175095 99.09309718 -106.53125 94.1328125 C-105.87125 94.1328125 -105.21125 94.1328125 -104.53125 94.1328125 C-104.47066406 93.27816406 -104.41007813 92.42351562 -104.34765625 91.54296875 C-104.26386719 90.43824219 -104.18007812 89.33351563 -104.09375 88.1953125 C-104.01253906 87.09316406 -103.93132812 85.99101562 -103.84765625 84.85546875 C-103.53125 82.1328125 -103.53125 82.1328125 -102.53125 81.1328125 C-102.16364269 78.80463286 -101.82883419 76.470974 -101.53125 74.1328125 C-100.04625 73.6378125 -100.04625 73.6378125 -98.53125 73.1328125 C-98.53125 71.4828125 -98.53125 69.8328125 -98.53125 68.1328125 C-97.54125 68.1328125 -96.55125 68.1328125 -95.53125 68.1328125 C-95.53125 66.1528125 -95.53125 64.1728125 -95.53125 62.1328125 C-94.87125 62.1328125 -94.21125 62.1328125 -93.53125 62.1328125 C-93.20125 60.4828125 -92.87125 58.8328125 -92.53125 57.1328125 C-91.87125 57.1328125 -91.21125 57.1328125 -90.53125 57.1328125 C-90.53125 55.4828125 -90.53125 53.8328125 -90.53125 52.1328125 C-89.54125 52.1328125 -88.55125 52.1328125 -87.53125 52.1328125 C-87.53125 51.1428125 -87.53125 50.1528125 -87.53125 49.1328125 C-86.87125 48.4728125 -86.21125 47.8128125 -85.53125 47.1328125 C-85.20125 46.1428125 -84.87125 45.1528125 -84.53125 44.1328125 C-83.09375 42.4453125 -83.09375 42.4453125 -81.53125 41.1328125 C-80.87125 41.1328125 -80.21125 41.1328125 -79.53125 41.1328125 C-79.53125 40.1428125 -79.53125 39.1528125 -79.53125 38.1328125 C-78.54125 38.1328125 -77.55125 38.1328125 -76.53125 38.1328125 C-76.53125 37.4728125 -76.53125 36.8128125 -76.53125 36.1328125 C-75.15625 34.5078125 -75.15625 34.5078125 -73.53125 33.1328125 C-72.87125 33.1328125 -72.21125 33.1328125 -71.53125 33.1328125 C-71.53125 32.1428125 -71.53125 31.1528125 -71.53125 30.1328125 C-70.54125 30.1328125 -69.55125 30.1328125 -68.53125 30.1328125 C-68.53125 29.4728125 -68.53125 28.8128125 -68.53125 28.1328125 C-66.88122172 26.77894314 -65.2138113 25.44603108 -63.53125 24.1328125 C-63.20125 23.4728125 -62.87125 22.8128125 -62.53125 22.1328125 C-61.54125 22.1328125 -60.55125 22.1328125 -59.53125 22.1328125 C-59.53125 21.4728125 -59.53125 20.8128125 -59.53125 20.1328125 C-58.21125 20.1328125 -56.89125 20.1328125 -55.53125 20.1328125 C-55.53125 19.1428125 -55.53125 18.1528125 -55.53125 17.1328125 C-54.54125 16.8028125 -53.55125 16.4728125 -52.53125 16.1328125 C-52.20125 15.4728125 -51.87125 14.8128125 -51.53125 14.1328125 C-49.88125 14.1328125 -48.23125 14.1328125 -46.53125 14.1328125 C-46.53125 13.4728125 -46.53125 12.8128125 -46.53125 12.1328125 C-45.891875 12.0090625 -45.2525 11.8853125 -44.59375 11.7578125 C-43.913125 11.5515625 -43.2325 11.3453125 -42.53125 11.1328125 C-42.20125 10.4728125 -41.87125 9.8128125 -41.53125 9.1328125 C-38.96875 8.5078125 -38.96875 8.5078125 -36.53125 8.1328125 C-36.53125 7.4728125 -36.53125 6.8128125 -36.53125 6.1328125 C-34.22125 6.1328125 -31.91125 6.1328125 -29.53125 6.1328125 C-29.53125 5.4728125 -29.53125 4.8128125 -29.53125 4.1328125 C-28.396875 4.0090625 -27.2625 3.8853125 -26.09375 3.7578125 C-24.918125 3.5515625 -23.7425 3.3453125 -22.53125 3.1328125 C-22.20125 2.4728125 -21.87125 1.8128125 -21.53125 1.1328125 C-14.51699405 -0.21303457 -7.12101602 -0.01614106 0 0 Z " fill="#bfbfbf" transform="translate(245.53125,93.8671875)"/>
<path d="M0 0 C10.47812913 -0.58844566 20.14690538 3.06923761 27.99609375 9.91015625 C36.26531169 18.6429289 38.84556096 28.25743912 38.5390625 40.06640625 C37.99718108 48.48700966 34.23116976 56.39261921 28.15625 62.19140625 C18.62379052 69.47564416 9.17789794 73.35294342 -2.96875 71.7890625 C-13.57263809 69.5032754 -21.62232077 64.09532185 -27.84375 55.19140625 C-33.05581858 45.57521893 -34.53971712 35.6610813 -31.71875 24.94140625 C-28.65315668 16.02979775 -21.73343863 8.44156887 -13.5078125 3.90234375 C-9.02065026 1.83019906 -4.91524749 0.51026934 0 0 Z " fill="#bfbfbf" transform="translate(94.84375,313.80859375)"/>
<path d="M0 0 C0.99 0 1.98 0 3 0 C3.07654536 4.51617599 3.10228696 8.59085217 2 13 C1.01 13 0.02 13 -1 13 C-0.979375 13.94875 -0.95875 14.8975 -0.9375 15.875 C-1 19 -1 19 -2 21 C-2.66 21 -3.32 21 -4 21 C-4 24.3 -4 27.6 -4 31 C-4.66 31.33 -5.32 31.66 -6 32 C-6.66 31.67 -7.32 31.34 -8 31 C-8 45.85 -8 60.7 -8 76 C-6.68 76 -5.36 76 -4 76 C-4 79.3 -4 82.6 -4 86 C-3.34 86 -2.68 86 -2 86 C-2 88.64 -2 91.28 -2 94 C-1.34 94 -0.68 94 0 94 C0 95.98 0 97.96 0 100 C0.99 100 1.98 100 3 100 C3 101.98 3 103.96 3 106 C4.32 106.33 5.64 106.66 7 107 C6.67 107.99 6.34 108.98 6 110 C7.32 110.33 8.64 110.66 10 111 C9.67 112.65 9.34 114.3 9 116 C9.61875 116.12375 10.2375 116.2475 10.875 116.375 C13 117 13 117 15 119 C15.125 121.625 15.125 121.625 15 124 C15.66 124 16.32 124 17 124 C17.33 124.99 17.66 125.98 18 127 C19.6396721 128.36639342 21.31110128 129.6949419 23 131 C23.886875 131.9075 24.77375 132.815 25.6875 133.75 C27.70116241 136.23245165 27.70116241 136.23245165 30 136 C30 137.65 30 139.3 30 141 C30.99 141 31.98 141 33 141 C33.433125 141.45375 33.86625 141.9075 34.3125 142.375 C36.59779236 144.5756519 38.99089149 145.13070199 42 146 C42.33 147.98 42.66 149.96 43 152 C42.34 152 41.68 152 41 152 C40.67 151.34 40.34 150.68 40 150 C39.01 149.67 38.02 149.34 37 149 C37 148.34 37 147.68 37 147 C35.68 147 34.36 147 33 147 C33 146.01 33 145.02 33 144 C32.01 144 31.02 144 30 144 C28.3125 142.625 28.3125 142.625 27 141 C27 140.34 27 139.68 27 139 C26.01 138.67 25.02 138.34 24 138 C24 137.34 24 136.68 24 136 C23.34 136 22.68 136 22 136 C20.375 134.625 20.375 134.625 19 133 C19 132.34 19 131.68 19 131 C18.01 131 17.02 131 16 131 C16 130.01 16 129.02 16 128 C15.34 128 14.68 128 14 128 C11.95830515 125.09451118 11 123.59857954 11 120 C10.01 120 9.02 120 8 120 C8 119.01 8 118.02 8 117 C6.515 116.505 6.515 116.505 5 116 C5 114.68 5 113.36 5 112 C4.01 111.67 3.02 111.34 2 111 C2 110.01 2 109.02 2 108 C1.34 107.67 0.68 107.34 0 107 C0 105.02 0 103.04 0 101 C-0.99 101 -1.98 101 -3 101 C-3.33 98.69 -3.66 96.38 -4 94 C-4.66 94 -5.32 94 -6 94 C-6.22786458 91.94921875 -6.45572917 89.8984375 -6.68359375 87.84765625 C-6.81886614 85.98859771 -6.81886614 85.98859771 -8 85 C-8.5715675 82.42794627 -9.02869802 79.84216087 -9.5 77.25 C-9.77949757 75.04154394 -9.77949757 75.04154394 -11 74 C-11.08874135 70.89748799 -11.11518455 67.8173188 -11.09765625 64.71484375 C-11.0962413 63.78402481 -11.09482635 62.85320587 -11.09336853 61.8941803 C-11.08775172 58.90858809 -11.0751964 55.92306971 -11.0625 52.9375 C-11.05748716 50.91862087 -11.05292388 48.89974057 -11.04882812 46.88085938 C-11.03777683 41.92054428 -11.02050095 36.96028468 -11 32 C-10.34 32 -9.68 32 -9 32 C-8.93941406 31.14535156 -8.87882813 30.29070312 -8.81640625 29.41015625 C-8.69072266 27.75306641 -8.69072266 27.75306641 -8.5625 26.0625 C-8.48128906 24.96035156 -8.40007812 23.85820312 -8.31640625 22.72265625 C-8 20 -8 20 -7 19 C-6.63239269 16.67182036 -6.29758419 14.3381615 -6 12 C-5.01 11.67 -4.02 11.34 -3 11 C-3 9.35 -3 7.7 -3 6 C-2.01 6 -1.02 6 0 6 C0 4.02 0 2.04 0 0 Z " fill="#bfbfbf" transform="translate(150,156)"/>
<path d="M0 0 C0.99 0 1.98 0 3 0 C3 2.31 3 4.62 3 7 C3.99 7 4.98 7 6 7 C6 8.65 6 10.3 6 12 C6.99 12 7.98 12 9 12 C9 13.98 9 15.96 9 18 C10.32 18.33 11.64 18.66 13 19 C12.67 19.99 12.34 20.98 12 22 C13.32 22.33 14.64 22.66 16 23 C15.67 24.65 15.34 26.3 15 28 C15.61875 28.12375 16.2375 28.2475 16.875 28.375 C19 29 19 29 21 31 C21.125 33.625 21.125 33.625 21 36 C21.66 36 22.32 36 23 36 C23.33 36.99 23.66 37.98 24 39 C25.6396721 40.36639342 27.31110128 41.6949419 29 43 C29.886875 43.9075 30.77375 44.815 31.6875 45.75 C33.70116241 48.23245165 33.70116241 48.23245165 36 48 C36 49.65 36 51.3 36 53 C36.99 53 37.98 53 39 53 C39.433125 53.45375 39.86625 53.9075 40.3125 54.375 C42.59779236 56.5756519 44.99089149 57.13070199 48 58 C48.495 60.97 48.495 60.97 49 64 C48.34 64 47.68 64 47 64 C46.67 63.34 46.34 62.68 46 62 C45.01 61.67 44.02 61.34 43 61 C43 60.34 43 59.68 43 59 C41.68 59 40.36 59 39 59 C39 58.01 39 57.02 39 56 C38.01 56 37.02 56 36 56 C34.3125 54.625 34.3125 54.625 33 53 C33 52.34 33 51.68 33 51 C32.01 50.67 31.02 50.34 30 50 C30 49.34 30 48.68 30 48 C29.34 48 28.68 48 28 48 C26.375 46.625 26.375 46.625 25 45 C25 44.34 25 43.68 25 43 C24.01 43 23.02 43 22 43 C22 42.01 22 41.02 22 40 C21.34 40 20.68 40 20 40 C17.95830515 37.09451118 17 35.59857954 17 32 C16.01 32 15.02 32 14 32 C14 31.01 14 30.02 14 29 C13.01 28.67 12.02 28.34 11 28 C11 26.68 11 25.36 11 24 C10.01 23.67 9.02 23.34 8 23 C8 22.01 8 21.02 8 20 C7.34 19.67 6.68 19.34 6 19 C6 17.02 6 15.04 6 13 C5.01 13 4.02 13 3 13 C2.67 10.69 2.34 8.38 2 6 C1.34 6 0.68 6 0 6 C0 4.02 0 2.04 0 0 Z " fill="#bfbfbf" transform="translate(144,244)"/>
<path d="M0 0 C6.0546875 -0.1953125 6.0546875 -0.1953125 8 0 C8.66 0.66 9.32 1.32 10 2 C13.08524939 2.17553419 16.07964202 2.23122797 19.1640625 2.1953125 C20.07127045 2.1924826 20.97847839 2.18965271 21.91317749 2.18673706 C24.81725123 2.17552153 27.72101912 2.15041463 30.625 2.125 C32.59114139 2.11497197 34.5572876 2.10584581 36.5234375 2.09765625 C41.34907659 2.07557772 46.1744864 2.04103865 51 2 C51.33 1.34 51.66 0.68 52 0 C53.45792884 -0.05399736 54.91642712 -0.09279177 56.375 -0.125 C57.18710937 -0.14820313 57.99921875 -0.17140625 58.8359375 -0.1953125 C61 0 61 0 63 2 C62.67 2.66 62.34 3.32 62 4 C59.49609375 4.4140625 59.49609375 4.4140625 56.4375 4.625 C54.91962891 4.73714844 54.91962891 4.73714844 53.37109375 4.8515625 C52.58863281 4.90054687 51.80617188 4.94953125 51 5 C51 5.66 51 6.32 51 7 C37.8 7 24.6 7 11 7 C11.33 6.34 11.66 5.68 12 5 C8.04 4.67 4.08 4.34 0 4 C0 2.68 0 1.36 0 0 Z " fill="#bfbfbf" transform="translate(226,320)"/>
<path d="M0 0 C0.66 0 1.32 0 2 0 C2 1.32 2 2.64 2 4 C1.34 4 0.68 4 0 4 C-0.33 4.99 -0.66 5.98 -1 7 C-1.66 7 -2.32 7 -3 7 C-3.0928125 7.804375 -3.0928125 7.804375 -3.1875 8.625 C-5.21535194 14.55256721 -11.12854267 19.349424 -15.625 23.5 C-17.17415991 25.0702359 -17.17415991 25.0702359 -18.4375 27.625 C-20 30 -20 30 -22.1875 30.8125 C-22.785625 30.874375 -23.38375 30.93625 -24 31 C-23.67 32.65 -23.34 34.3 -23 36 C-26.22791555 38.1519437 -27.28400809 38.20086443 -31 38 C-30.67 37.01 -30.34 36.02 -30 35 C-29.34 35 -28.68 35 -28 35 C-28 33.35 -28 31.7 -28 30 C-27.01 30 -26.02 30 -25 30 C-25 29.01 -25 28.02 -25 27 C-24.34 26.34 -23.68 25.68 -23 25 C-22.67 24.01 -22.34 23.02 -22 22 C-20.5625 20.3125 -20.5625 20.3125 -19 19 C-18.34 19 -17.68 19 -17 19 C-17 18.01 -17 17.02 -17 16 C-16.01 16 -15.02 16 -14 16 C-14 15.34 -14 14.68 -14 14 C-12.625 12.375 -12.625 12.375 -11 11 C-10.34 11 -9.68 11 -9 11 C-9 10.01 -9 9.02 -9 8 C-8.01 8 -7.02 8 -6 8 C-6 7.34 -6 6.68 -6 6 C-4.34997172 4.64613064 -2.6825613 3.31321858 -1 2 C-0.67 1.34 -0.34 0.68 0 0 Z " fill="#bfbfbf" transform="translate(183,116)"/>
<path d="M0 0 C6.20727249 -0.02489804 12.41451528 -0.04295304 18.62182617 -0.05493164 C20.72925321 -0.05993051 22.83667682 -0.06673181 24.9440918 -0.07543945 C27.99008024 -0.08770131 31.03602245 -0.09327292 34.08203125 -0.09765625 C35.47335014 -0.10539818 35.47335014 -0.10539818 36.89277649 -0.11329651 C43.3109638 -0.11383508 49.61874248 0.32061834 56 1 C56.495 2.485 56.495 2.485 57 4 C53.37 4.66 49.74 5.32 46 6 C45.505 4.02 45.505 4.02 45 2 C30.15 2 15.3 2 0 2 C0 1.34 0 0.68 0 0 Z " fill="#bfbfbf" transform="translate(235,94)"/>
<path d="M0 0 C0.99 0 1.98 0 3 0 C3.07654536 4.51617599 3.10228696 8.59085217 2 13 C1.01 13 0.02 13 -1 13 C-0.979375 13.94875 -0.95875 14.8975 -0.9375 15.875 C-1 19 -1 19 -2 21 C-2.66 21 -3.32 21 -4 21 C-4 24.3 -4 27.6 -4 31 C-4.99 31 -5.98 31 -7 31 C-6.34 30.67 -5.68 30.34 -5 30 C-5.33 29.34 -5.66 28.68 -6 28 C-6.07181821 25.28239892 -6.09299506 22.59140612 -6.0625 19.875 C-6.05798828 19.12089844 -6.05347656 18.36679688 -6.04882812 17.58984375 C-6.03703499 15.72652873 -6.01909942 13.86325445 -6 12 C-5.01 11.67 -4.02 11.34 -3 11 C-3 9.35 -3 7.7 -3 6 C-2.01 6 -1.02 6 0 6 C0 4.02 0 2.04 0 0 Z " fill="#bfbfbf" transform="translate(150,156)"/>
<path d="M0 0 C2 0 2 0 3.625 1.375 C5 3 5 3 5 5 C5.99 5.33 6.98 5.66 8 6 C8 6.66 8 7.32 8 8 C8.66 8 9.32 8 10 8 C11.625 9.375 11.625 9.375 13 11 C13 11.66 13 12.32 13 13 C13.99 13 14.98 13 16 13 C16 13.99 16 14.98 16 16 C16.66 16 17.32 16 18 16 C20.74375671 18.95481492 21 19.77471908 21 24 C21.99 24 22.98 24 24 24 C24 24.99 24 25.98 24 27 C22.02 26.34 20.04 25.68 18 25 C18 23.35 18 21.7 18 20 C17.4225 19.74089844 16.845 19.48179687 16.25 19.21484375 C13.82706189 17.90662543 12.03571496 16.41134269 10 14.5625 C7.98888635 12.74385621 6.02847977 11.02054027 3.828125 9.43359375 C1.44732696 7.56660041 0.85985634 5.86618778 0 3 C0 2.01 0 1.02 0 0 Z " fill="#bfbfbf" transform="translate(333,119)"/>
<path d="M0 0 C2.31 0 4.62 0 7 0 C7 0.66 7 1.32 7 2 C8.98 2 10.96 2 13 2 C13 2.99 13 3.98 13 5 C14.98 5 16.96 5 19 5 C19 5.99 19 6.98 19 8 C20.65 8 22.3 8 24 8 C24 8.66 24 9.32 24 10 C25.65 10 27.3 10 29 10 C29 10.99 29 11.98 29 13 C27.02 13.33 25.04 13.66 23 14 C23 13.34 23 12.68 23 12 C21.35 12 19.7 12 18 12 C18 11.01 18 10.02 18 9 C16.35 9 14.7 9 13 9 C13 8.01 13 7.02 13 6 C11.02 6 9.04 6 7 6 C7 5.01 7 4.02 7 3 C4.69 3 2.38 3 0 3 C0 2.01 0 1.02 0 0 Z " fill="#bfbfbf" transform="translate(292,98)"/>
<path d="M0 0 C1.32 0 2.64 0 4 0 C4 0.66 4 1.32 4 2 C4.78375 1.79375 5.5675 1.5875 6.375 1.375 C7.674375 1.189375 7.674375 1.189375 9 1 C9.66 1.66 10.32 2.32 11 3 C12.64991582 3.70710678 14.31562256 4.37943989 16 5 C16 5.66 16 6.32 16 7 C17.65 7 19.3 7 21 7 C21 7.66 21 8.32 21 9 C23.64 9.33 26.28 9.66 29 10 C29 10.99 29 11.98 29 13 C27.02 13 25.04 13 23 13 C23 12.34 23 11.68 23 11 C20.69 11 18.38 11 16 11 C15.67 10.01 15.34 9.02 15 8 C13.35 8 11.7 8 10 8 C9.67 7.34 9.34 6.68 9 6 C6.47266765 5.34444881 6.47266765 5.34444881 4 5 C4 4.34 4 3.68 4 3 C2.68 3 1.36 3 0 3 C0 2.01 0 1.02 0 0 Z " fill="#bfbfbf" transform="translate(195,308)"/>
<path d="M0 0 C2.64 0 5.28 0 8 0 C8 1.32 8 2.64 8 4 C5.36 4 2.72 4 0 4 C0 4.66 0 5.32 0 6 C-2.64 6 -5.28 6 -8 6 C-8.33 6.99 -8.66 7.98 -9 9 C-10.134375 9.12375 -11.26875 9.2475 -12.4375 9.375 C-14.2009375 9.684375 -14.2009375 9.684375 -16 10 C-16.33 10.66 -16.66 11.32 -17 12 C-18.32 11.34 -19.64 10.68 -21 10 C-20.67 9.34 -20.34 8.68 -20 8 C-17.4375 7.375 -17.4375 7.375 -15 7 C-15 6.34 -15 5.68 -15 5 C-12.69 5 -10.38 5 -8 5 C-8 4.34 -8 3.68 -8 3 C-6.865625 2.87625 -5.73125 2.7525 -4.5625 2.625 C-3.386875 2.41875 -2.21125 2.2125 -1 2 C-0.67 1.34 -0.34 0.68 0 0 Z " fill="#bfbfbf" transform="translate(224,95)"/>
<path d="M0 0 C0.99 0 1.98 0 3 0 C3 2.31 3 4.62 3 7 C3.99 7 4.98 7 6 7 C6 8.65 6 10.3 6 12 C6.99 12 7.98 12 9 12 C9 13.98 9 15.96 9 18 C10.32 18.33 11.64 18.66 13 19 C13.33 22.3 13.66 25.6 14 29 C13.01 28.67 12.02 28.34 11 28 C11 26.68 11 25.36 11 24 C10.01 23.67 9.02 23.34 8 23 C8 22.01 8 21.02 8 20 C7.34 19.67 6.68 19.34 6 19 C6 17.02 6 15.04 6 13 C5.01 13 4.02 13 3 13 C2.67 10.69 2.34 8.38 2 6 C1.34 6 0.68 6 0 6 C0 4.02 0 2.04 0 0 Z " fill="#bfbfbf" transform="translate(144,244)"/>
<path d="M0 0 C-0.33 0.99 -0.66 1.98 -1 3 C-2.8125 3.87890625 -2.8125 3.87890625 -5 4.5625 C-7.14541038 5.20681284 -7.14541038 5.20681284 -9 6 C-9.33 6.66 -9.66 7.32 -10 8 C-11.66666667 8.33333333 -13.33333333 8.66666667 -15 9 C-15.33 9.66 -15.66 10.32 -16 11 C-18.31 11 -20.62 11 -23 11 C-23 11.66 -23 12.32 -23 13 C-24.65 13 -26.3 13 -28 13 C-28 12.01 -28 11.02 -28 10 C-26.865625 9.87625 -25.73125 9.7525 -24.5625 9.625 C-23.386875 9.41875 -22.21125 9.2125 -21 9 C-20.67 8.34 -20.34 7.68 -20 7 C-18.66666667 6.66666667 -17.33333333 6.33333333 -16 6 C-15.67 5.34 -15.34 4.68 -15 4 C-13.35 4 -11.7 4 -10 4 C-10 3.01 -10 2.02 -10 1 C-6.59437148 0.22157062 -3.49234244 -0.09978121 0 0 Z " fill="#bfbfbf" transform="translate(320,308)"/>
<path d="M0 0 C1.97909398 -0.02686553 3.95828971 -0.04633375 5.9375 -0.0625 C7.03964844 -0.07410156 8.14179688 -0.08570313 9.27734375 -0.09765625 C12 0 12 0 13 1 C16.90504849 1.13465684 20.44832262 1.08327206 24.3125 0.5 C29.22086897 -0.16554156 34.05502384 -0.08047882 39 0 C39 0.99 39 1.98 39 3 C25.8 3 12.6 3 -1 3 C-0.67 2.01 -0.34 1.02 0 0 Z " fill="#bfbfbf" transform="translate(238,324)"/>
<path d="M0 0 C0.99 0 1.98 0 3 0 C3 1.65 3 3.3 3 5 C3.99 5.33 4.98 5.66 6 6 C5.67 7.32 5.34 8.64 5 10 C5.99 10 6.98 10 8 10 C8 11.98 8 13.96 8 16 C8.99 16 9.98 16 11 16 C11 17.98 11 19.96 11 22 C9.68 22 8.36 22 7 22 C7 20.35 7 18.7 7 17 C6.01 17 5.02 17 4 17 C4.04125 16.05125 4.0825 15.1025 4.125 14.125 C4.34973818 10.89755144 4.34973818 10.89755144 2 9 C2 8.01 2 7.02 2 6 C1.01 6 0.02 6 -1 6 C-0.67 4.02 -0.34 2.04 0 0 Z " fill="#bfbfbf" transform="translate(357,146)"/>
<path d="M0 0 C0.66 0 1.32 0 2 0 C2 1.98 2 3.96 2 6 C1.01 6 0.02 6 -1 6 C-1 7.98 -1 9.96 -1 12 C-1.99 12 -2.98 12 -4 12 C-3.67 13.32 -3.34 14.64 -3 16 C-3.99 16.33 -4.98 16.66 -6 17 C-6 17.99 -6 18.98 -6 20 C-6.99 20.33 -7.98 20.66 -9 21 C-10.26264601 16.70700357 -9.62950412 14.12168689 -8 10 C-6.68 10 -5.36 10 -4 10 C-4 8.35 -4 6.7 -4 5 C-3.01 5 -2.02 5 -1 5 C-0.67 3.35 -0.34 1.7 0 0 Z " fill="#bfbfbf" transform="translate(366,251)"/>
<path d="M0 0 C0.66 0 1.32 0 2 0 C2 1.32 2 2.64 2 4 C1.34 4 0.68 4 0 4 C-0.33 4.99 -0.66 5.98 -1 7 C-1.66 7 -2.32 7 -3 7 C-3.33 8.32 -3.66 9.64 -4 11 C-5.32 11.33 -6.64 11.66 -8 12 C-8 12.66 -8 13.32 -8 14 C-8.78375 14.0825 -9.5675 14.165 -10.375 14.25 C-13.11631339 14.70995268 -13.11631339 14.70995268 -14.125 16.875 C-14.41375 17.57625 -14.7025 18.2775 -15 19 C-16.625 20.75 -16.625 20.75 -18 22 C-18.66 21.67 -19.32 21.34 -20 21 C-19.67 20.34 -19.34 19.68 -19 19 C-18.34 19 -17.68 19 -17 19 C-17 18.01 -17 17.02 -17 16 C-16.01 16 -15.02 16 -14 16 C-14 15.34 -14 14.68 -14 14 C-12.625 12.375 -12.625 12.375 -11 11 C-10.34 11 -9.68 11 -9 11 C-9 10.01 -9 9.02 -9 8 C-8.01 8 -7.02 8 -6 8 C-6 7.34 -6 6.68 -6 6 C-4.34997172 4.64613064 -2.6825613 3.31321858 -1 2 C-0.67 1.34 -0.34 0.68 0 0 Z " fill="#bfbfbf" transform="translate(183,116)"/>
<path d="M0 0 C0.99 0 1.98 0 3 0 C2.8125 2.3125 2.8125 2.3125 2 5 C-0.84825221 7.15543411 -3.4948582 8.35089967 -7 9 C-7 9.66 -7 10.32 -7 11 C-9.97 10.505 -9.97 10.505 -13 10 C-13 9.34 -13 8.68 -13 8 C-11.68 8 -10.36 8 -9 8 C-9 7.01 -9 6.02 -9 5 C-8.01 4.67 -7.02 4.34 -6 4 C-5.67 3.34 -5.34 2.68 -5 2 C-3.35 2 -1.7 2 0 2 C0 1.34 0 0.68 0 0 Z " fill="#bfbfbf" transform="translate(199,106)"/>
<path d="M0 0 C0.99 0.33 1.98 0.66 3 1 C3 3.64 3 6.28 3 9 C3.66 9 4.32 9 5 9 C5 12.3 5 15.6 5 19 C3.68 18.34 2.36 17.68 1 17 C1.33 13.7 1.66 10.4 2 7 C1.01 7 0.02 7 -1 7 C-1.04254356 5.00045254 -1.04080783 2.99958364 -1 1 C-0.67 0.67 -0.34 0.34 0 0 Z " fill="#bfbfbf" transform="translate(368,169)"/>
<path d="M0 0 C1.32 0 2.64 0 4 0 C4 3.3 4 6.6 4 10 C4.66 10 5.32 10 6 10 C6 12.64 6 15.28 6 18 C6.66 18.33 7.32 18.66 8 19 C7.01 19 6.02 19 5 19 C5 16.69 5 14.38 5 12 C4.01 12 3.02 12 2 12 C-0.13586678 8.79619983 -0.23132175 7.98060033 -0.125 4.3125 C-0.10695312 3.50425781 -0.08890625 2.69601563 -0.0703125 1.86328125 C-0.04710937 1.24839844 -0.02390625 0.63351563 0 0 Z " fill="#bfbfbf" transform="translate(142,232)"/>
<path d="M0 0 C0.99 0 1.98 0 3 0 C3 0.99 3 1.98 3 3 C2.01 3 1.02 3 0 3 C-0.33 3.99 -0.66 4.98 -1 6 C-2.32 6 -3.64 6 -5 6 C-5 6.66 -5 7.32 -5 8 C-7 9.625 -7 9.625 -9 11 C-8.67 8.69 -8.34 6.38 -8 4 C-7.34 4 -6.68 4 -6 4 C-6 3.01 -6 2.02 -6 1 C-3.03 1.495 -3.03 1.495 0 2 C0 1.34 0 0.68 0 0 Z " fill="#bfbfbf" transform="translate(332,297)"/>
<path d="M0 0 C3.63 0 7.26 0 11 0 C11 0.66 11 1.32 11 2 C12.65 2 14.3 2 16 2 C16 2.99 16 3.98 16 5 C14.02 5.33 12.04 5.66 10 6 C10 5.34 10 4.68 10 4 C8.35 4 6.7 4 5 4 C5 3.01 5 2.02 5 1 C3.35 1 1.7 1 0 1 C0 0.67 0 0.34 0 0 Z " fill="#bfbfbf" transform="translate(305,106)"/>
<path d="M0 0 C0.33 0.66 0.66 1.32 1 2 C2.65 2 4.3 2 6 2 C6 2.66 6 3.32 6 4 C8.64 4.33 11.28 4.66 14 5 C14 5.99 14 6.98 14 8 C12.02 8 10.04 8 8 8 C8 7.34 8 6.68 8 6 C6.2984375 6.0309375 6.2984375 6.0309375 4.5625 6.0625 C1 6 1 6 0 5 C-0.04063832 3.33382885 -0.042721 1.66611905 0 0 Z " fill="#bfbfbf" transform="translate(210,313)"/>
<path d="M0 0 C1.32 0.33 2.64 0.66 4 1 C3.67 2.65 3.34 4.3 3 6 C3.61875 6.12375 4.2375 6.2475 4.875 6.375 C7 7 7 7 9 9 C9.125 11.625 9.125 11.625 9 14 C7.68 13.67 6.36 13.34 5 13 C5 12.01 5 11.02 5 10 C4.01 10 3.02 10 2 10 C1.77213542 7.98177083 1.54427083 5.96354167 1.31640625 3.9453125 C1.08707039 1.92595684 1.08707039 1.92595684 0 0 Z " fill="#bfbfbf" transform="translate(156,266)"/>
<path d="M0 0 C1.32 0 2.64 0 4 0 C3.67 0.99 3.34 1.98 3 3 C2.34 3 1.68 3 1 3 C1 3.66 1 4.32 1 5 C-0.375 6.625 -0.375 6.625 -2 8 C-2.66 8 -3.32 8 -4 8 C-4.33 8.99 -4.66 9.98 -5 11 C-5.66 11 -6.32 11 -7 11 C-7 11.66 -7 12.32 -7 13 C-7.66 13 -8.32 13 -9 13 C-8.67 11.35 -8.34 9.7 -8 8 C-7.01 8 -6.02 8 -5 8 C-5 6.68 -5 5.36 -5 4 C-3.68 4 -2.36 4 -1 4 C-0.67 2.68 -0.34 1.36 0 0 Z " fill="#bfbfbf" transform="translate(345,284)"/>
<path d="M0 0 C1.45792884 -0.05399736 2.91642712 -0.09279177 4.375 -0.125 C5.18710937 -0.14820313 5.99921875 -0.17140625 6.8359375 -0.1953125 C9 0 9 0 11 2 C10.67 2.66 10.34 3.32 10 4 C6.7 4 3.4 4 0 4 C0 2.68 0 1.36 0 0 Z " fill="#bfbfbf" transform="translate(278,320)"/>
<path d="M0 0 C0 0.99 0 1.98 0 3 C-0.99 3 -1.98 3 -3 3 C-3 3.99 -3 4.98 -3 6 C-3.66 6 -4.32 6 -5 6 C-5.33 7.65 -5.66 9.3 -6 11 C-6.66 11 -7.32 11 -8 11 C-8.6875 8.1875 -8.6875 8.1875 -9 5 C-6.95824286 1.99109474 -3.66861375 0 0 0 Z " fill="#bfbfbf" transform="translate(357,273)"/>
<path d="M0 0 C1.98 0 3.96 0 6 0 C6.33 0.99 6.66 1.98 7 3 C6 4 6 4 2.5 4.4375 C0.7675 4.7159375 0.7675 4.7159375 -1 5 C-1.33 5.66 -1.66 6.32 -2 7 C-3.32 6.34 -4.64 5.68 -6 5 C-5.67 4.34 -5.34 3.68 -5 3 C-2.4375 2.375 -2.4375 2.375 0 2 C0 1.34 0 0.68 0 0 Z " fill="#bfbfbf" transform="translate(209,100)"/>
<path d="M0 0 C0.33 0 0.66 0 1 0 C1.33 3.63 1.66 7.26 2 11 C1.01 11.495 1.01 11.495 0 12 C-0.72159424 13.64363134 -1.39351421 15.31050386 -2 17 C-2.66 17 -3.32 17 -4 17 C-4 15.68 -4 14.36 -4 13 C-3.34 13 -2.68 13 -2 13 C-1.93941406 12.14535156 -1.87882813 11.29070312 -1.81640625 10.41015625 C-1.69072266 8.75306641 -1.69072266 8.75306641 -1.5625 7.0625 C-1.48128906 5.96035156 -1.40007812 4.85820312 -1.31640625 3.72265625 C-1 1 -1 1 0 0 Z " fill="#bfbfbf" transform="translate(143,175)"/>
<path d="M0 0 C0.99 0 1.98 0 3 0 C3 1.65 3 3.3 3 5 C3.99 5.33 4.98 5.66 6 6 C5.67 7.32 5.34 8.64 5 10 C4.01 9.67 3.02 9.34 2 9 C2 8.01 2 7.02 2 6 C1.01 6 0.02 6 -1 6 C-0.67 4.02 -0.34 2.04 0 0 Z " fill="#bfbfbf" transform="translate(357,146)"/>
<path d="M0 0 C3.96 0 7.92 0 12 0 C12.33 0.66 12.66 1.32 13 2 C9.85069107 3.04976964 7.61185544 3.10131595 4.3125 3.0625 C3.31863281 3.05347656 2.32476562 3.04445313 1.30078125 3.03515625 C0.16189453 3.01775391 0.16189453 3.01775391 -1 3 C-0.67 2.01 -0.34 1.02 0 0 Z " fill="#bfbfbf" transform="translate(238,324)"/>
<path d="M0 0 C0.33 0 0.66 0 1 0 C1 2.97 1 5.94 1 9 C0.34 9 -0.32 9 -1 9 C-1 12.3 -1 15.6 -1 19 C-1.99 19 -2.98 19 -4 19 C-3.34 18.67 -2.68 18.34 -2 18 C-2.33 17.34 -2.66 16.68 -3 16 C-3.06950541 14.45976004 -3.08452357 12.91665012 -3.0625 11.375 C-3.05347656 10.55773437 -3.04445312 9.74046875 -3.03515625 8.8984375 C-3.02355469 8.27195313 -3.01195312 7.64546875 -3 7 C-2.01 7 -1.02 7 0 7 C0 4.69 0 2.38 0 0 Z " fill="#bfbfbf" transform="translate(147,168)"/>
<path d="M0 0 C0.66 0 1.32 0 2 0 C4.74375671 2.95481492 5 3.77471908 5 8 C5.99 8 6.98 8 8 8 C8 8.99 8 9.98 8 11 C6.02 10.34 4.04 9.68 2 9 C2 7.35 2 5.7 2 4 C1.34 4 0.68 4 0 4 C0 2.68 0 1.36 0 0 Z " fill="#bfbfbf" transform="translate(349,135)"/>
<path d="M0 0 C2.64 0 5.28 0 8 0 C8 1.32 8 2.64 8 4 C5.36 4 2.72 4 0 4 C0 2.68 0 1.36 0 0 Z " fill="#bfbfbf" transform="translate(226,320)"/>
<path d="M0 0 C1.2065625 0.0309375 1.2065625 0.0309375 2.4375 0.0625 C2.1075 1.0525 1.7775 2.0425 1.4375 3.0625 C-0.8725 3.0625 -3.1825 3.0625 -5.5625 3.0625 C-5.5625 3.7225 -5.5625 4.3825 -5.5625 5.0625 C-7.2125 5.0625 -8.8625 5.0625 -10.5625 5.0625 C-10.5625 4.0725 -10.5625 3.0825 -10.5625 2.0625 C-9.428125 1.918125 -8.29375 1.77375 -7.125 1.625 C-3.80350664 1.10055368 -3.09809271 0.07556324 0 0 Z " fill="#bfbfbfbf" transform="translate(302.5625,315.9375)"/>
<path d="M0 0 C2.31 0.33 4.62 0.66 7 1 C7.66 3.31 8.32 5.62 9 8 C8.34 8 7.68 8 7 8 C6.67 7.34 6.34 6.68 6 6 C5.01 5.67 4.02 5.34 3 5 C3 4.34 3 3.68 3 3 C2.01 2.67 1.02 2.34 0 2 C0 1.34 0 0.68 0 0 Z " fill="#bfbfbf" transform="translate(184,300)"/>
<path d="M0 0 C3 1 3 1 4.1875 2.75 C5.10819096 5.29960574 5.14948718 7.30923081 5 10 C4.01 9.67 3.02 9.34 2 9 C2 7.68 2 6.36 2 5 C1.01 4.67 0.02 4.34 -1 4 C-0.67 2.68 -0.34 1.36 0 0 Z " fill="#bfbfbf" transform="translate(153,263)"/>
<path d="M0 0 C0.99 0 1.98 0 3 0 C3.33 0.66 3.66 1.32 4 2 C6.02463255 2.65213292 6.02463255 2.65213292 8 3 C8 3.66 8 4.32 8 5 C8.99 5 9.98 5 11 5 C11.33 5.99 11.66 6.98 12 8 C10.51793505 7.745504 9.03931385 7.47088238 7.5625 7.1875 C6.73878906 7.03667969 5.91507812 6.88585937 5.06640625 6.73046875 C4.38449219 6.48941406 3.70257813 6.24835938 3 6 C2.67 5.01 2.34 4.02 2 3 C1.34 2.67 0.68 2.34 0 2 C0 1.34 0 0.68 0 0 Z " fill="#bfbfbf" transform="translate(321,111)"/>
<path d="M0 0 C0.99 0.33 1.98 0.66 3 1 C2.67 3.97 2.34 6.94 2 10 C1.01 10.33 0.02 10.66 -1 11 C-2.26264601 6.70700357 -1.62950412 4.12168689 0 0 Z " fill="#bfbfbf" transform="translate(358,261)"/>
<path d="M0 0 C0.99 0 1.98 0 3 0 C3 1.98 3 3.96 3 6 C2.34 6 1.68 6 1 6 C1 6.66 1 7.32 1 8 C-0.32 8 -1.64 8 -3 8 C-2.67 7.01 -2.34 6.02 -2 5 C-1.34 5 -0.68 5 0 5 C0 3.35 0 1.7 0 0 Z " fill="#bfbfbf" transform="translate(155,146)"/>
<path d="M0 0 C0 0.99 0 1.98 0 3 C-0.61875 3.0825 -1.2375 3.165 -1.875 3.25 C-4.15354435 3.79278299 -4.15354435 3.79278299 -5.0625 5.875 C-5.5265625 6.926875 -5.5265625 6.926875 -6 8 C-7.625 9.75 -7.625 9.75 -9 11 C-9.66 10.67 -10.32 10.34 -11 10 C-10.67 9.34 -10.34 8.68 -10 8 C-9.34 8 -8.68 8 -8 8 C-8 7.01 -8 6.02 -8 5 C-7.01 5 -6.02 5 -5 5 C-5 4.34 -5 3.68 -5 3 C-2.46153846 0 -2.46153846 0 0 0 Z " fill="#bfbfbf" transform="translate(174,127)"/>
<path d="M0 0 C2.97 0 5.94 0 9 0 C9.33 0.99 9.66 1.98 10 3 C6.7 3 3.4 3 0 3 C0 2.01 0 1.02 0 0 Z " fill="#bfbfbf" transform="translate(282,95)"/>
<path d="M0 0 C0.99 0 1.98 0 3 0 C3 2.97 3 5.94 3 9 C2.01 9 1.02 9 0 9 C0 6.03 0 3.06 0 0 Z " fill="#bfbfbf" transform="translate(370,232)"/>
<path d="M0 0 C1.32 0 2.64 0 4 0 C4 0.66 4 1.32 4 2 C5.32 2 6.64 2 8 2 C8.33 2.99 8.66 3.98 9 5 C7.35 5 5.7 5 4 5 C4 4.34 4 3.68 4 3 C2.68 3 1.36 3 0 3 C0 2.01 0 1.02 0 0 Z " fill="#bfbfbf" transform="translate(195,308)"/>
<path d="M0 0 C2 0 2 0 3.625 1.375 C5 3 5 3 5 5 C5.99 5.33 6.98 5.66 8 6 C8 6.66 8 7.32 8 8 C6.68 7.67 5.36 7.34 4 7 C4 6.34 4 5.68 4 5 C3.01 5 2.02 5 1 5 C0.67 3.35 0.34 1.7 0 0 Z " fill="#bfbfbf" transform="translate(333,119)"/>
<path d="M0 0 C1.32 0 2.64 0 4 0 C5.4606285 2.64738916 6 3.89448334 6 7 C5.01 7 4.02 7 3 7 C3 6.01 3 5.02 3 4 C2.34 4 1.68 4 1 4 C0.67 2.68 0.34 1.36 0 0 Z " fill="#bfbfbf" transform="translate(163,280)"/>
<path d="M0 0 C1.32 0.33 2.64 0.66 4 1 C2.71567636 3.56864728 1.63365249 3.946539 -1 5 C-2.32 5 -3.64 5 -5 5 C-4.67 4.01 -4.34 3.02 -4 2 C-2.68 2 -1.36 2 0 2 C0 1.34 0 0.68 0 0 Z " fill="#bfbfbf" transform="translate(316,308)"/>
<path d="M0 0 C1.32 0 2.64 0 4 0 C4 1.98 4 3.96 4 6 C2.68 5.67 1.36 5.34 0 5 C0 3.35 0 1.7 0 0 Z " fill="#bfbfbf" transform="translate(367,243)"/>
<path d="M0 0 C0.66 0 1.32 0 2 0 C2 2.64 2 5.28 2 8 C1.01 8 0.02 8 -1 8 C-1.04241723 5.66705225 -1.04092937 3.33297433 -1 1 C-0.67 0.67 -0.34 0.34 0 0 Z " fill="#bfbfbf" transform="translate(145,167)"/>
<path d="M0 0 C0.33 1.32 0.66 2.64 1 4 C0.01 4 -0.98 4 -2 4 C-1.67 5.32 -1.34 6.64 -1 8 C-1.99 8.33 -2.98 8.66 -4 9 C-4 7.02 -4 5.04 -4 3 C-3.01 3 -2.02 3 -1 3 C-0.67 2.01 -0.34 1.02 0 0 Z " fill="#bfbfbf" transform="translate(364,259)"/>
<path d="M0 0 C2 0 2 0 3.625 1.375 C5 3 5 3 5 5 C5.99 5 6.98 5 8 5 C8 5.99 8 6.98 8 8 C4.67689517 6.83242263 2.16638868 5.85051143 0 3 C0 2.01 0 1.02 0 0 Z " fill="#bfbfbf" transform="translate(341,127)"/>
<path d="M0 0 C3.56144099 -0.19785783 6.04454879 -0.11103658 9 2 C9.75 4.125 9.75 4.125 10 6 C8.125 5.75 8.125 5.75 6 5 C5.33333333 3.66666667 4.66666667 2.33333333 4 1 C1.94999129 0.19471111 1.94999129 0.19471111 0 0 Z " fill="#bfbfbf" transform="translate(324,117)"/>
<path d="M0 0 C2.31 0 4.62 0 7 0 C7 0.99 7 1.98 7 3 C4.36 3 1.72 3 -1 3 C-0.67 2.01 -0.34 1.02 0 0 Z " fill="#bfbfbf" transform="translate(224,95)"/>
<path d="M0 0 C0.66 0 1.32 0 2 0 C2 1.98 2 3.96 2 6 C1.01 6 0.02 6 -1 6 C-1 6.66 -1 7.32 -1 8 C-1.66 8 -2.32 8 -3 8 C-3 5 -3 5 -1 3 C-0.67 2.01 -0.34 1.02 0 0 Z " fill="#bfbfbf" transform="translate(161,138)"/>
<path d="M0 0 C0.66 0 1.32 0 2 0 C1.67 1.32 1.34 2.64 1 4 C-1.31 4.33 -3.62 4.66 -6 5 C-5.67 4.01 -5.34 3.02 -5 2 C-3.35 2 -1.7 2 0 2 C0 1.34 0 0.68 0 0 Z " fill="#bfbfbf" transform="translate(199,106)"/>
<path d="M0 0 C2.4375 0.8125 2.4375 0.8125 5 2 C5.33 2.99 5.66 3.98 6 5 C5.34 5.66 4.68 6.32 4 7 C3.67 5.68 3.34 4.36 3 3 C2.01 3 1.02 3 0 3 C0 2.01 0 1.02 0 0 Z " fill="#bfbfbf" transform="translate(158,273)"/>
<path d="M0 0 C0.99 0 1.98 0 3 0 C3 2.64 3 5.28 3 8 C2.67 7.34 2.34 6.68 2 6 C1.34 6 0.68 6 0 6 C0 4.02 0 2.04 0 0 Z " fill="#bfbfbf" transform="translate(144,244)"/>
<path d="M0 0 C5.75 1.875 5.75 1.875 8 3 C7.67 3.99 7.34 4.98 7 6 C7 5.34 7 4.68 7 4 C5.02 4 3.04 4 1 4 C0.67 2.68 0.34 1.36 0 0 Z " fill="#bfbfbf" transform="translate(192,304)"/>
<path d="M0 0 C1.65 1.65 3.3 3.3 5 5 C4.67 5.66 4.34 6.32 4 7 C2.68 6.34 1.36 5.68 0 5 C0 3.35 0 1.7 0 0 Z " fill="#bfbfbf" transform="translate(169,284)"/>
<path d="M0 0 C0.99 0 1.98 0 3 0 C3 1.98 3 3.96 3 6 C2.01 6 1.02 6 0 6 C0 4.02 0 2.04 0 0 Z " fill="#bfbfbf" transform="translate(147,162)"/>
<path d="M0 0 C0.99 0 1.98 0 3 0 C3 1.98 3 3.96 3 6 C2.01 6 1.02 6 0 6 C0 4.02 0 2.04 0 0 Z " fill="#bfbfbf" transform="translate(150,156)"/>
<path d="M0 0 C0.66 0 1.32 0 2 0 C1.67 1.65 1.34 3.3 1 5 C0.01 5.33 -0.98 5.66 -2 6 C-2.66 5.67 -3.32 5.34 -4 5 C-4 4.34 -4 3.68 -4 3 C-2.68 3 -1.36 3 0 3 C0 2.01 0 1.02 0 0 Z " fill="#bfbfbf" transform="translate(190,111)"/>
<path d="M0 0 C1 3 1 3 0 6 C-2.31 6 -4.62 6 -7 6 C-7 5.67 -7 5.34 -7 5 C-5.35 5 -3.7 5 -2 5 C-1.855625 4.360625 -1.71125 3.72125 -1.5625 3.0625 C-1 1 -1 1 0 0 Z " fill="#bfbfbf" transform="translate(323,302)"/>
</svg>
