<?xml version="1.0" encoding="UTF-8"?>
<svg version="1.1" xmlns="http://www.w3.org/2000/svg" width="2000" height="847">
<path d="M0 0 C0.86863678 0.32362518 1.73727356 0.64725037 2.63223267 0.98068237 C16.37611453 6.11292961 30.02376065 11.46581938 43.6875 16.8125 C43.6875 261.3425 43.6875 505.8725 43.6875 757.8125 C-209.7525 757.8125 -463.1925 757.8125 -724.3125 757.8125 C-741.75034787 725.61955009 -741.75034787 725.61955009 -747.3125 714.8125 C-747.88838867 713.69472168 -748.46427734 712.57694336 -749.05761719 711.42529297 C-784.78562594 641.87806799 -813.54250884 566.80703222 -818.4375 467.6875 C-818.43561676 466.97161713 -818.43373352 466.25573425 -818.43179321 465.51815796 C-818.27599466 414.62842913 -814.22964003 358.73843682 -790.3125 312.8125 C-789.92755371 312.05018066 -789.54260742 311.28786133 -789.14599609 310.50244141 C-782.83159041 298.05236273 -775.69943092 287.15306703 -766.3125 276.8125 C-765.76223145 276.20180664 -765.21196289 275.59111328 -764.64501953 274.96191406 C-736.46329498 244.13892424 -695.03209419 229.6580359 -653.91119385 227.69804382 C-651.45742982 227.6329908 -649.00530983 227.59617543 -646.55078125 227.57421875 C-645.62738953 227.56456085 -644.7039978 227.55490295 -643.75262451 227.54495239 C-640.71004137 227.51995635 -637.66767541 227.50748589 -634.625 227.5 C-633.56449432 227.49704926 -632.50398865 227.49409851 -631.41134644 227.49105835 C-614.00337247 227.48022837 -596.72887514 228.28947996 -579.375 229.625 C-577.63018845 229.75912796 -577.63018845 229.75912796 -575.85012817 229.89596558 C-566.14673943 230.65053431 -556.44719983 231.44912717 -546.75146484 232.29638672 C-524.37859494 234.24908679 -502.15165023 235.11792108 -479.6875 235.1875 C-477.82865173 235.19928284 -477.82865173 235.19928284 -475.93225098 235.21130371 C-455.53539733 235.31240252 -435.37444487 234.09574683 -415.4375 229.5 C-414.4988208 229.28835205 -413.5601416 229.0767041 -412.59301758 228.85864258 C-371.01311913 219.16289732 -332.06021846 196.26215156 -308.86962891 159.65307617 C-307.66890346 157.7149073 -306.48643123 155.76701315 -305.3125 153.8125 C-304.89629395 153.11995117 -304.48008789 152.42740234 -304.05126953 151.71386719 C-292.00304108 131.3719956 -283.45425305 109.22962511 -274.61938477 87.36254883 C-244.7386585 13.61448768 -244.7386585 13.61448768 -229.3125 -4.1875 C-228.62542969 -5.01765625 -227.93835937 -5.8478125 -227.23046875 -6.703125 C-222.16509711 -12.62898885 -216.86955688 -17.00993338 -210.3125 -21.1875 C-209.39791016 -21.84492187 -209.39791016 -21.84492187 -208.46484375 -22.515625 C-151.10532883 -62.35212327 -57.23023755 -21.32660393 0 0 Z " fill="#848484" transform="translate(1956.3125,89.1875)"/>
<path d="M0 0 C22.87861281 -0.71233776 43.96956225 8.13654747 60.8828125 23.12109375 C61.55570313 23.69988281 62.22859375 24.27867187 62.921875 24.875 C73.55517734 34.68220913 80.3912012 47.54249325 84.8828125 61.12109375 C85.22183594 62.095625 85.56085938 63.07015625 85.91015625 64.07421875 C91.87730475 84.64300711 88.34160986 108.22984665 78.8828125 127.12109375 C74.53294006 135.02499731 69.19789648 141.70180046 62.8828125 148.12109375 C62.12226562 148.89453125 61.36171875 149.66796875 60.578125 150.46484375 C45.00148834 165.37755819 23.82704647 172.97458804 2.4453125 173.49609375 C-22.27424338 172.87225638 -44.48024294 163.51228013 -61.72216797 145.6484375 C-78.40862185 127.37919433 -85.22467972 104.08601957 -84.29638672 79.6640625 C-82.68735513 56.83072051 -71.27825036 35.75711907 -54.32421875 20.62890625 C-38.86065659 7.69999156 -19.98545274 1.1430794 0 0 Z " fill="#848484" transform="translate(943.1171875,186.87890625)"/>
</svg>
