<?xml version="1.0" encoding="UTF-8"?>
<svg version="1.1" xmlns="http://www.w3.org/2000/svg" width="2000" height="842">
<path d="M0 0 C6.87979903 4.0132161 13.09708576 7.69077574 19.47119141 12.24951172 C24.06209091 15.42741763 28.88258958 18.2233211 33.6875 21.0625 C35.898961 22.37672367 38.10988633 23.69184907 40.3203125 25.0078125 C41.43180664 25.66942383 42.54330078 26.33103516 43.68847656 27.01269531 C46.86709974 28.92024417 50.02676824 30.85500245 53.1796875 32.8046875 C61.85965629 38.17096651 70.46751022 43.47998459 79.67651367 47.89331055 C84.89956132 50.40417677 89.97431505 53.14437487 95.05517578 55.93115234 C109.08934858 63.62012038 123.36407652 70.53547348 138 77 C138.84046875 77.37318359 139.6809375 77.74636719 140.546875 78.13085938 C200.03641703 104.37914241 262.79037574 120.44479362 327.75 123.25 C328.70479248 123.29129028 329.65958496 123.33258057 330.64331055 123.37512207 C351.39744262 124.24039954 372.11270432 124.05831536 392.875 123.625 C394.41468445 123.59431931 394.41468445 123.59431931 395.98547363 123.5630188 C409.01230346 123.30104449 422.03336846 122.94996292 435.0546875 122.48828125 C575.75492812 117.51619289 575.75492812 117.51619289 644 133 C645.56306885 133.35070557 645.56306885 133.35070557 647.15771484 133.70849609 C672.94343768 139.62365435 698.01057122 148.20071982 721.8125 159.75 C722.44063599 160.05397705 723.06877197 160.3579541 723.71594238 160.67114258 C742.75147112 169.95560066 759.65426926 181.75091826 775.51318359 195.72045898 C776.87581418 196.89312679 778.28568445 198.01031354 779.69921875 199.12109375 C781.82649204 200.85830674 783.50095423 202.58069487 785.25 204.6875 C787.74226536 207.61831849 790.32980954 210.29589144 793.125 212.9375 C812.76625851 232.51273748 827.82169431 258.79440227 841 283 C841.50805176 283.928125 842.01610352 284.85625 842.53955078 285.8125 C847.56259171 294.99748913 852.51949326 304.21750449 857.44140625 313.45703125 C885.1671797 365.42052204 914.23627637 416.38412717 973.5234375 435.18432617 C976.99220537 436.22116861 980.48611628 437.13016839 984 438 C985.87365234 438.47953125 985.87365234 438.47953125 987.78515625 438.96875 C1007.13437927 443.15236579 1028.80251994 442.80054088 1048 438 C1048.73653809 437.82839355 1049.47307617 437.65678711 1050.23193359 437.47998047 C1087.7916951 428.71838507 1121.66029048 409.53245123 1154.89111328 390.57373047 C1161.66237622 386.71998149 1168.51254587 383.04866645 1175.42749023 379.46020508 C1180.06845092 377.04436931 1184.61060182 374.51995457 1189.125 371.875 C1195.54216831 368.15782908 1202.15121088 365.01599657 1208.88671875 361.921875 C1212.426075 360.28969879 1215.86587636 358.50835777 1219.3125 356.6875 C1260.36459833 336.06729465 1304.98674667 326.30658239 1350.5625 323.75 C1351.28270325 323.70880035 1352.00290649 323.66760071 1352.74493408 323.62515259 C1372.63892309 322.52366366 1392.43202976 322.94166859 1412.3125 324.125 C1413.39592682 324.18835541 1414.47935364 324.25171082 1415.59561157 324.31698608 C1440.0930136 325.77857512 1464.436228 328.40945353 1488.81396484 331.18408203 C1561.49656019 339.45500998 1631.11368412 343.11090624 1703.68475342 332.34246826 C1705.98735629 332.00187024 1708.29068743 331.6666401 1710.59423828 331.33251953 C1750.03195258 325.58575087 1788.94452902 317.48885275 1827.55065918 307.62518311 C1829.91356611 307.02206186 1832.27743677 306.42287602 1834.64160156 305.82470703 C1866.34078292 297.78726143 1897.82551548 288.92481908 1929.3359375 280.18359375 C1930.10341749 279.97069387 1930.87089748 279.757794 1931.66163445 279.53844261 C1939.59266255 277.33795059 1947.52274098 275.13410301 1955.45059013 272.92218304 C1958.71837436 272.0105734 1961.98646445 271.10006294 1965.25456619 270.18959236 C1967.52326729 269.55698808 1969.791472 268.92262711 1972.05966187 268.28819275 C1994.58882095 262 1994.58882095 262 2000 262 C2000 427.33 2000 592.66 2000 763 C1340 763 680 763 0 763 C0 511.21 0 259.42 0 0 Z " fill="#8D8D8D" transform="translate(0,79)"/>
<path d="M0 0 C8.52562316 7.83107137 12.29909028 16.16832511 12.9765625 27.61328125 C12.78503755 37.9045553 8.97919144 47.19864486 2.06640625 54.796875 C-6.73837764 63.05793718 -16.39782394 65.28683943 -28.19140625 65.02734375 C-38.90040831 64.29620706 -45.93124113 59.56371918 -53.08203125 51.76171875 C-60.7586261 42.24146965 -62.06381278 32.8165046 -61.08203125 20.76171875 C-59.03483014 11.02831945 -53.77852437 3.09453806 -45.64453125 -2.61328125 C-30.48863493 -11.91817678 -13.90712486 -11.0202167 0 0 Z " fill="#8D8D8D" transform="translate(1453.08203125,165.23828125)"/>
</svg>
