<?xml version="1.0" encoding="UTF-8"?>
<svg version="1.1" xmlns="http://www.w3.org/2000/svg" width="1350" height="1000">
<path d="M0 0 C2 2 2 2 2.25 5 C2 8 2 8 0 10 C-3.13704316 10.333728 -5.16554166 10.52849028 -7.875 8.8125 C-9.39684676 6.36063578 -9.43566323 4.83181098 -9 2 C-5.54754176 -0.30163882 -4.05261287 -0.34490322 0 0 Z " fill="#848484" transform="translate(75,229)"/>
<path d="M0 0 C2.9375 0.8125 2.9375 0.8125 4.9375 3.8125 C4.75 6.375 4.75 6.375 3.9375 8.8125 C0.9375 10.8125 0.9375 10.8125 -1.625 10.5625 C-4.0625 9.8125 -4.0625 9.8125 -6.0625 7.8125 C-6.375 4.8125 -6.375 4.8125 -6.0625 1.8125 C-3.0625 -0.1875 -3.0625 -0.1875 0 0 Z " fill="#848484" transform="translate(71.0625,347.1875)"/>
<path d="M0 0 C2 3 2 3 1.8125 5.5625 C1 8 1 8 -2 10 C-5.32240324 9.6758631 -6.60776303 9.39223697 -9 7 C-9.125 3.875 -9.125 3.875 -9 1 C-5.68199515 -1.08911416 -3.72082137 -1.27291258 0 0 Z " fill="#848484" transform="translate(74,387)"/>
<path d="M0 0 C2.25 1.5 2.25 1.5 3.3125 3.875 C3.25 6.5 3.25 6.5 1.6875 8.875 C-0.75 10.5 -0.75 10.5 -3.9375 10.3125 C-6.75 9.5 -6.75 9.5 -7.75 8.5 C-8.125 5.625 -8.125 5.625 -7.75 2.5 C-4.99025075 -0.02319931 -3.70879285 -0.67432597 0 0 Z " fill="#848484" transform="translate(790.75,426.5)"/>
<path d="M0 0 C2.25 1.5 2.25 1.5 3.3125 3.875 C3.25 6.5 3.25 6.5 1.625 8.875 C-0.75 10.5 -0.75 10.5 -3.375 10.375 C-5.75 9.5 -5.75 9.5 -7.75 7.5 C-8.1875 5.0625 -8.1875 5.0625 -7.75 2.5 C-4.97801787 0.04481583 -3.68261521 -0.6695664 0 0 Z " fill="#848484" transform="translate(655.75,426.5)"/>
<path d="M0 0 C3.0625 0.375 3.0625 0.375 5 2.0625 C6.32210381 4.94002006 5.97241047 6.39711118 5.0625 9.375 C-1.5625 10.625 -1.5625 10.625 -4.9375 8.375 C-5.25 5.375 -5.25 5.375 -4.9375 2.375 C-2.9375 0.375 -2.9375 0.375 0 0 Z " fill="#848484" transform="translate(71.9375,188.625)"/>
<path d="M0 0 C2.25 1.25 2.25 1.25 3.25 2.25 C3.5625 4.625 3.5625 4.625 3.25 7.25 C1.5625 9.125 1.5625 9.125 -0.75 10.25 C-4.12036311 10.00925978 -5.33798021 9.66201979 -7.75 7.25 C-8.1875 4.8125 -8.1875 4.8125 -7.75 2.25 C-4.9140876 -0.26180812 -3.71664963 -1.01363172 0 0 Z " fill="#848484" transform="translate(700.75,426.75)"/>
<path d="M0 0 C3.375 0.6875 3.375 0.6875 4.375 1.6875 C4.6875 4.0625 4.6875 4.0625 4.375 6.6875 C2.6875 8.5625 2.6875 8.5625 0.375 9.6875 C-2.32309776 9.43053831 -4.20850693 8.89574654 -6.625 7.6875 C-6.8125 4.8125 -6.8125 4.8125 -6.625 1.6875 C-3.625 -0.3125 -3.625 -0.3125 0 0 Z " fill="#848484" transform="translate(1102.625,427.3125)"/>
<path d="M0 0 C2 2 2 2 2.3125 4.4375 C2 7 2 7 0.875 8.875 C-1 10 -1 10 -4.0625 9.8125 C-7 9 -7 9 -9 7 C-9.3125 4.5 -9.3125 4.5 -9 2 C-5.54754176 -0.30163882 -4.05261287 -0.34490322 0 0 Z " fill="#848484" transform="translate(567,427)"/>
<path d="M0 0 C3 0.25 3 0.25 5 2.25 C5.3125 5.25 5.3125 5.25 5 8.25 C2 10.25 2 10.25 -0.5 10 C-3 9.25 -3 9.25 -6 7.25 C-4.92 0.41 -4.92 0.41 0 0 Z " fill="#848484" transform="translate(429,426.75)"/>
<path d="M0 0 C1 1 1 1 1.3125 3.375 C1 6 1 6 -0.6875 7.875 C-3 9 -3 9 -5.625 9 C-8 8 -8 8 -9.4375 5.6875 C-10 3 -10 3 -9.3125 0.75 C-6.44054348 -3.07927536 -3.74698856 -1.77488932 0 0 Z " fill="#848484" transform="translate(792,468)"/>
<path d="M0 0 C3.375 0.6875 3.375 0.6875 4.375 1.6875 C4.6875 4.0625 4.6875 4.0625 4.375 6.6875 C2.6875 8.5625 2.6875 8.5625 0.375 9.6875 C-2.99536311 9.44675978 -4.21298021 9.09951979 -6.625 6.6875 C-6.9375 4.1875 -6.9375 4.1875 -6.625 1.6875 C-3.625 -0.3125 -3.625 -0.3125 0 0 Z " fill="#848484" transform="translate(1058.625,427.3125)"/>
<path d="M0 0 C0.99 0.66 1.98 1.32 3 2 C3.4375 4.4375 3.4375 4.4375 3 7 C1.3125 8.875 1.3125 8.875 -1 10 C-3.69809776 9.74303831 -5.58350693 9.20824654 -8 8 C-8.1875 5.125 -8.1875 5.125 -8 2 C-4.75366476 -0.1642235 -3.75698557 -0.37569856 0 0 Z " fill="#848484" transform="translate(118,427)"/>
<path d="M0 0 C2.9375 0.75 2.9375 0.75 4.9375 2.75 C4.75 5.25 4.75 5.25 3.9375 7.75 C0.9375 9.75 0.9375 9.75 -2.1875 9.4375 C-5.0625 8.75 -5.0625 8.75 -6.0625 7.75 C-6.3125 4.8125 -6.3125 4.8125 -6.0625 1.75 C-3.0625 -0.25 -3.0625 -0.25 0 0 Z " fill="#848484" transform="translate(789.0625,387.25)"/>
<path d="M0 0 C2.875 0.6875 2.875 0.6875 3.875 1.6875 C4.125 4.625 4.125 4.625 3.875 7.6875 C0.875 9.6875 0.875 9.6875 -2.1875 9.4375 C-5.125 8.6875 -5.125 8.6875 -7.125 6.6875 C-6.9375 4.1875 -6.9375 4.1875 -6.125 1.6875 C-3.125 -0.3125 -3.125 -0.3125 0 0 Z " fill="#848484" transform="translate(790.125,308.3125)"/>
<path d="M0 0 C3.0625 0.375 3.0625 0.375 5 2.125 C6.0625 4.375 6.0625 4.375 5.875 6.5 C5.0625 8.375 5.0625 8.375 3.0625 10.375 C-0.5625 10 -0.5625 10 -3.9375 9.375 C-4.5625 6 -4.5625 6 -4.9375 2.375 C-2.9375 0.375 -2.9375 0.375 0 0 Z " fill="#848484" transform="translate(70.9375,268.625)"/>
<path d="M0 0 C1 1 1 1 1.3125 3.875 C1 7 1 7 -0.6875 9 C-3 10 -3 10 -5.75 9.1875 C-6.4925 8.795625 -7.235 8.40375 -8 8 C-8 5.03 -8 2.06 -8 -1 C-4.36442231 -2.21185923 -3.36216382 -1.59260392 0 0 Z " fill="#848484" transform="translate(74,467)"/>
<path d="M0 0 C3.0625 0.3125 3.0625 0.3125 5 1.5 C6.0625 3.3125 6.0625 3.3125 5.9375 5.875 C5.0625 8.3125 5.0625 8.3125 2.0625 10.3125 C-0.57184254 9.99123872 -2.56460097 9.49894952 -4.9375 8.3125 C-5.0625 5.4375 -5.0625 5.4375 -4.9375 2.3125 C-2.9375 0.3125 -2.9375 0.3125 0 0 Z " fill="#848484" transform="translate(1191.9375,426.6875)"/>
<path d="M0 0 C1.875 1.1875 1.875 1.1875 3 3 C2.875 5.5625 2.875 5.5625 2 8 C-1 10 -1 10 -3.5625 9.6875 C-6 9 -6 9 -8 8 C-8.1875 5.125 -8.1875 5.125 -8 2 C-4.76746204 -0.15502531 -3.74849077 -0.46856135 0 0 Z " fill="#848484" transform="translate(297,427)"/>
<path d="M0 0 C1.875 1.1875 1.875 1.1875 3 3 C2.875 5.5625 2.875 5.5625 2 8 C-1 10 -1 10 -3.5625 9.6875 C-6 9 -6 9 -8 8 C-8.1875 5.125 -8.1875 5.125 -8 2 C-4.76746204 -0.15502531 -3.74849077 -0.46856135 0 0 Z " fill="#848484" transform="translate(253,427)"/>
<path d="M0 0 C2.9375 0.75 2.9375 0.75 4.9375 2.75 C4.75 5.25 4.75 5.25 3.9375 7.75 C0.9375 9.75 0.9375 9.75 -1.625 9.4375 C-4.0625 8.75 -4.0625 8.75 -6.0625 7.75 C-6.25 4.875 -6.25 4.875 -6.0625 1.75 C-3.0625 -0.25 -3.0625 -0.25 0 0 Z " fill="#848484" transform="translate(789.0625,348.25)"/>
<path d="M0 0 C2.4375 0.75 2.4375 0.75 4.4375 2.75 C4.8008156 5.58386167 4.7943671 7.15522151 3.3125 9.625 C0.51598948 11.30290631 -1.49940532 10.49875648 -4.5625 9.75 C-4.8925 7.11 -5.2225 4.47 -5.5625 1.75 C-2.5625 -0.25 -2.5625 -0.25 0 0 Z " fill="#848484" transform="translate(71.5625,307.25)"/>
<path d="M0 0 C2 2 2 2 2.375 4.4375 C2 7 2 7 0.375 8.9375 C-2 10 -2 10 -5.1875 9.25 C-8 8 -8 8 -9 7 C-9.25 4.5625 -9.25 4.5625 -9 2 C-5.54754176 -0.30163882 -4.05261287 -0.34490322 0 0 Z " fill="#848484" transform="translate(1015,467)"/>
<path d="M0 0 C2 2 2 2 2.375 4.4375 C2 7 2 7 0.375 8.9375 C-2 10 -2 10 -5.25 9.1875 C-6.61125 8.5996875 -6.61125 8.5996875 -8 8 C-8.6875 5.6875 -8.6875 5.6875 -9 3 C-6.83087664 -0.70026925 -3.97666252 -0.4230492 0 0 Z " fill="#848484" transform="translate(297,467)"/>
<path d="M0 0 C1.875 1.1875 1.875 1.1875 3 3 C2.875 5.5625 2.875 5.5625 2 8 C-1 10 -1 10 -3.5625 9.6875 C-6 9 -6 9 -8 8 C-8.1875 5.125 -8.1875 5.125 -8 2 C-4.76746204 -0.15502531 -3.74849077 -0.46856135 0 0 Z " fill="#848484" transform="translate(836,427)"/>
<path d="M0 0 C3.0625 0.3125 3.0625 0.3125 5 1.5625 C6.0625 3.3125 6.0625 3.3125 5.9375 5.3125 C4.89767076 7.68925254 4.24965179 8.87953848 2.0625 10.3125 C-3.37228261 9.87771739 -3.37228261 9.87771739 -4.9375 8.3125 C-5.125 5.375 -5.125 5.375 -4.9375 2.3125 C-2.9375 0.3125 -2.9375 0.3125 0 0 Z " fill="#848484" transform="translate(1326.9375,426.6875)"/>
<path d="M0 0 C3 0.25 3 0.25 5 2.25 C5.375 4.6875 5.375 4.6875 5 7.25 C3.3125 9.125 3.3125 9.125 1 10.25 C-1.625 10.125 -1.625 10.125 -4 9.25 C-6 6.25 -6 6.25 -5.75 4.1875 C-4.47652888 0.89769961 -3.51215433 0.29267953 0 0 Z " fill="#848484" transform="translate(1282,426.75)"/>
<path d="M0 0 C1.875 1.1875 1.875 1.1875 3 3 C2.875 5.5625 2.875 5.5625 2 8 C-1 10 -1 10 -3.5625 9.6875 C-6 9 -6 9 -8 8 C-8.1875 5.125 -8.1875 5.125 -8 2 C-4.76746204 -0.15502531 -3.74849077 -0.46856135 0 0 Z " fill="#848484" transform="translate(1239,427)"/>
<path d="M0 0 C2.3125 1.5 2.3125 1.5 3.375 3.875 C3.3125 6.5 3.3125 6.5 1.6875 8.875 C-0.6875 10.5 -0.6875 10.5 -3.3125 10.4375 C-5.6875 9.5 -5.6875 9.5 -7.6875 6.5 C-7.51315138 3.71042207 -6.85188281 2.67612443 -4.9375 0.625 C-2.6875 -0.5 -2.6875 -0.5 0 0 Z " fill="#848484" transform="translate(744.6875,426.5)"/>
<path d="M0 0 C3.125 0.25 3.125 0.25 5.0625 1.4375 C6.125 3.25 6.125 3.25 6 5.8125 C5.125 8.25 5.125 8.25 2.125 10.25 C-1.19740324 9.9258631 -2.48276303 9.64223697 -4.875 7.25 C-4.17222471 0.36280215 -4.17222471 0.36280215 0 0 Z " fill="#848484" transform="translate(608.875,426.75)"/>
<path d="M0 0 C0.75 2.25 0.75 2.25 1 5 C-0.625 7.375 -0.625 7.375 -3 9 C-6.39154295 8.83849795 -7.58296757 8.41703243 -10 6 C-9.75 2.9375 -9.75 2.9375 -9 0 C-5.93109813 -1.53445094 -3.29905734 -0.54984289 0 0 Z " fill="#848484" transform="translate(523,428)"/>
<path d="M0 0 C2.875 0.6875 2.875 0.6875 3.875 1.6875 C4.16931219 4.4834658 4.21272308 6.12462819 2.75 8.5625 C0.875 9.6875 0.875 9.6875 -2.1875 9.5 C-5.125 8.6875 -5.125 8.6875 -7.125 6.6875 C-6.9375 4.1875 -6.9375 4.1875 -6.125 1.6875 C-3.125 -0.3125 -3.125 -0.3125 0 0 Z " fill="#848484" transform="translate(1059.125,348.3125)"/>
<path d="M0 0 C0.66 0.66 1.32 1.32 2 2 C1.8125 4.5 1.8125 4.5 1 7 C-2 9 -2 9 -4.5625 8.6875 C-7 8 -7 8 -9 7 C-9 5.02 -9 3.04 -9 1 C-5.66429909 -1.10025613 -3.74952434 -1.18406032 0 0 Z " fill="#848484" transform="translate(1062,309)"/>
<path d="M0 0 C2.8125 0.8125 2.8125 0.8125 3.8125 1.8125 C4.0625 4.75 4.0625 4.75 3.8125 7.8125 C0.8125 9.8125 0.8125 9.8125 -2.25 9.75 C-5.1875 8.8125 -5.1875 8.8125 -6.5625 6.25 C-6.76875 5.445625 -6.975 4.64125 -7.1875 3.8125 C-3.9984029 -0.23520017 -3.9984029 -0.23520017 0 0 Z " fill="#848484" transform="translate(655.1875,308.1875)"/>
<path d="M0 0 C3.5 0.25 3.5 0.25 5.5 2.25 C5.8125 4.75 5.8125 4.75 5.5 7.25 C2.04754176 9.55163882 0.55261287 9.59490322 -3.5 9.25 C-5.5 7.25 -5.5 7.25 -5.75 4.75 C-5.33482506 0.59825061 -4.03511096 0.28822221 0 0 Z " fill="#848484" transform="translate(341.5,229.75)"/>
<path d="M0 0 C3.5 0.25 3.5 0.25 5.5 2.25 C5.75 4.75 5.75 4.75 5.5 7.25 C3.5 9.25 3.5 9.25 0.5625 9.5 C-2.5 9.25 -2.5 9.25 -5.5 7.25 C-5.8125 4.75 -5.8125 4.75 -5.5 2.25 C-3.5 0.25 -3.5 0.25 0 0 Z " fill="#848484" transform="translate(206.5,229.75)"/>
<path d="M0 0 C0.75 2.25 0.75 2.25 1 5 C-0.625 7.375 -0.625 7.375 -3 9 C-6.39154295 8.83849795 -7.58296757 8.41703243 -10 6 C-9.75 2.9375 -9.75 2.9375 -9 0 C-5.93109813 -1.53445094 -3.29905734 -0.54984289 0 0 Z " fill="#848484" transform="translate(927,468)"/>
<path d="M0 0 C2 2 2 2 2.25 4.5 C2 7 2 7 0 9 C-4.05261287 9.34490322 -5.54754176 9.30163882 -9 7 C-9.375 4.5 -9.375 4.5 -9 2 C-5.54754176 -0.30163882 -4.05261287 -0.34490322 0 0 Z " fill="#848484" transform="translate(432,467)"/>
<path d="M0 0 C6.57692308 0.57692308 6.57692308 0.57692308 8 2 C8.3125 4.375 8.3125 4.375 8 7 C6.3125 8.875 6.3125 8.875 4 10 C1.375 9.875 1.375 9.875 -1 9 C-3 6 -3 6 -2.75 3.9375 C-2 2 -2 2 0 0 Z " fill="#848484" transform="translate(202,467)"/>
<path d="M0 0 C1.875 2.3125 1.875 2.3125 3 5 C2.67 5.99 2.34 6.98 2 8 C-1.04487718 9.42094268 -2.99756869 10.24383464 -6.3125 9.4375 C-8.58402023 7.50250129 -8.69450041 5.90224607 -9 3 C-6.01028735 0.34247764 -4.02505243 -0.82565178 0 0 Z " fill="#848484" transform="translate(162,467)"/>
<path d="M0 0 C2.375 0.375 2.375 0.375 4.375 2.375 C4.6875 5.375 4.6875 5.375 4.375 8.375 C1.375 10.375 1.375 10.375 -1.1875 10.0625 C-3.625 9.375 -3.625 9.375 -5.625 8.375 C-6.5 6.5625 -6.5 6.5625 -6.625 4.375 C-4.60238471 1.57445576 -3.45386932 0.4934099 0 0 Z " fill="#848484" transform="translate(968.625,426.625)"/>
<path d="M0 0 C1.875 1.1875 1.875 1.1875 3 3 C2.875 5.5625 2.875 5.5625 2 8 C-1 10 -1 10 -3.5625 9.75 C-6 9 -6 9 -8 7 C-8.3125 4.5 -8.3125 4.5 -8 2 C-4.76746204 -0.15502531 -3.74849077 -0.46856135 0 0 Z " fill="#848484" transform="translate(162,427)"/>
<path d="M0 0 C2.4375 0.6875 2.4375 0.6875 4.4375 1.6875 C4.66167836 4.4523665 4.75983508 6.15027487 3.3125 8.5625 C1.4375 9.6875 1.4375 9.6875 -1.625 9.5 C-4.5625 8.6875 -4.5625 8.6875 -6.5625 6.6875 C-6.375 4.1875 -6.375 4.1875 -5.5625 1.6875 C-2.5625 -0.3125 -2.5625 -0.3125 0 0 Z " fill="#848484" transform="translate(1102.5625,387.3125)"/>
<path d="M0 0 C2.4375 0.6875 2.4375 0.6875 4.4375 1.6875 C4.66167836 4.4523665 4.75983508 6.15027487 3.3125 8.5625 C1.4375 9.6875 1.4375 9.6875 -1.625 9.5 C-4.5625 8.6875 -4.5625 8.6875 -6.5625 6.6875 C-6.375 4.1875 -6.375 4.1875 -5.5625 1.6875 C-2.5625 -0.3125 -2.5625 -0.3125 0 0 Z " fill="#848484" transform="translate(1058.5625,387.3125)"/>
<path d="M0 0 C2.4375 0.6875 2.4375 0.6875 4.4375 1.6875 C4.66167836 4.4523665 4.75983508 6.15027487 3.3125 8.5625 C1.4375 9.6875 1.4375 9.6875 -1.625 9.5 C-4.5625 8.6875 -4.5625 8.6875 -6.5625 6.6875 C-6.375 4.1875 -6.375 4.1875 -5.5625 1.6875 C-2.5625 -0.3125 -2.5625 -0.3125 0 0 Z " fill="#848484" transform="translate(116.5625,387.3125)"/>
<path d="M0 0 C2.875 0.6875 2.875 0.6875 3.875 1.6875 C4.1875 4.0625 4.1875 4.0625 3.875 6.6875 C2.1875 8.5625 2.1875 8.5625 -0.125 9.6875 C-3.49536311 9.44675978 -4.71298021 9.09951979 -7.125 6.6875 C-6.9375 4.1875 -6.9375 4.1875 -6.125 1.6875 C-3.125 -0.3125 -3.125 -0.3125 0 0 Z " fill="#848484" transform="translate(161.125,348.3125)"/>
<path d="M0 0 C2.875 0.6875 2.875 0.6875 3.875 1.6875 C4.1875 4.0625 4.1875 4.0625 3.875 6.6875 C2.1875 8.5625 2.1875 8.5625 -0.125 9.6875 C-3.49536311 9.44675978 -4.71298021 9.09951979 -7.125 6.6875 C-6.9375 4.1875 -6.9375 4.1875 -6.125 1.6875 C-3.125 -0.3125 -3.125 -0.3125 0 0 Z " fill="#848484" transform="translate(117.125,348.3125)"/>
<path d="M0 0 C2.875 0.6875 2.875 0.6875 3.875 1.6875 C4.1875 4.0625 4.1875 4.0625 3.875 6.6875 C2.1875 8.5625 2.1875 8.5625 -0.125 9.6875 C-3.49536311 9.44675978 -4.71298021 9.09951979 -7.125 6.6875 C-6.9375 4.1875 -6.9375 4.1875 -6.125 1.6875 C-3.125 -0.3125 -3.125 -0.3125 0 0 Z " fill="#848484" transform="translate(1103.125,348.3125)"/>
<path d="M0 0 C2.4375 0.6875 2.4375 0.6875 4.4375 1.6875 C4.66167836 4.4523665 4.75983508 6.15027487 3.3125 8.5625 C1.4375 9.6875 1.4375 9.6875 -1.625 9.5 C-4.5625 8.6875 -4.5625 8.6875 -6.5625 6.6875 C-6.375 4.1875 -6.375 4.1875 -5.5625 1.6875 C-2.5625 -0.3125 -2.5625 -0.3125 0 0 Z " fill="#848484" transform="translate(1328.5625,308.3125)"/>
<path d="M0 0 C1 1 1 1 1.25 3.9375 C1.1675 4.948125 1.085 5.95875 1 7 C-2 9 -2 9 -5.0625 8.9375 C-8 8 -8 8 -9.5 5.625 C-10 3 -10 3 -8 0 C-4.69676014 -1.10107995 -3.29495231 -0.86709271 0 0 Z " fill="#848484" transform="translate(1197,309)"/>
<path d="M0 0 C3.5 0.25 3.5 0.25 5.5 2.25 C5.8125 4.75 5.8125 4.75 5.5 7.25 C2.5 9.25 2.5 9.25 -1.125 8.9375 C-4.5 8.25 -4.5 8.25 -5.5 7.25 C-5.6875 4.8125 -5.6875 4.8125 -5.5 2.25 C-3.5 0.25 -3.5 0.25 0 0 Z " fill="#848484" transform="translate(1193.5,269.75)"/>
<path d="M0 0 C3.5 0.25 3.5 0.25 5.5 2.25 C5.8125 4.75 5.8125 4.75 5.5 7.25 C2.5 9.25 2.5 9.25 -1.125 8.9375 C-4.5 8.25 -4.5 8.25 -5.5 7.25 C-5.6875 4.8125 -5.6875 4.8125 -5.5 2.25 C-3.5 0.25 -3.5 0.25 0 0 Z " fill="#848484" transform="translate(654.5,269.75)"/>
<path d="M0 0 C3.5 0.25 3.5 0.25 5.5 2.25 C5.8125 4.75 5.8125 4.75 5.5 7.25 C2.5 9.25 2.5 9.25 -1.125 8.9375 C-4.5 8.25 -4.5 8.25 -5.5 7.25 C-5.6875 4.8125 -5.6875 4.8125 -5.5 2.25 C-3.5 0.25 -3.5 0.25 0 0 Z " fill="#848484" transform="translate(924.5,229.75)"/>
<path d="M0 0 C2 2 2 2 2.25 4.5 C2 7 2 7 0 9 C-4.05261287 9.34490322 -5.54754176 9.30163882 -9 7 C-9.375 4.5 -9.375 4.5 -9 2 C-5.54754176 -0.30163882 -4.05261287 -0.34490322 0 0 Z " fill="#848484" transform="translate(793,230)"/>
<path d="M0 0 C1 1 1 1 1.375 3.375 C1 6 1 6 -1.125 8 C-4 9 -4 9 -7.3125 7.6875 C-8.199375 7.130625 -9.08625 6.57375 -10 6 C-9.625 3.0625 -9.625 3.0625 -9 0 C-5.90842747 -1.54578627 -3.31526981 -0.60277633 0 0 Z " fill="#848484" transform="translate(972,468)"/>
<path d="M0 0 C0.9075 0.391875 1.815 0.78375 2.75 1.1875 C4.06236443 5.6018167 4.06236443 5.6018167 2.75 8.0625 C-0.37897325 9.82254746 -2.85613794 8.94169157 -6.25 8.1875 C-7.25 7.1875 -7.25 7.1875 -7.5625 4.8125 C-7.25 2.1875 -7.25 2.1875 -5.625 0.25 C-3.25 -0.8125 -3.25 -0.8125 0 0 Z " fill="#848484" transform="translate(700.25,466.8125)"/>
<path d="M0 0 C1.9375 1.6875 1.9375 1.6875 3 4 C2.5 6.6875 2.5 6.6875 1 9 C-1.95950256 10.16822469 -3.35596292 10.26109611 -6.3125 9.0625 C-6.869375 8.711875 -7.42625 8.36125 -8 8 C-8.1875 5.125 -8.1875 5.125 -8 2 C-4.77856724 -0.14762184 -3.7404533 -0.561068 0 0 Z " fill="#848484" transform="translate(118,467)"/>
<path d="M0 0 C3 0.25 3 0.25 5 2.25 C5.3633156 5.08386167 5.3568671 6.65522151 3.875 9.125 C2 10.25 2 10.25 -1.125 10 C-4 9.25 -4 9.25 -5 8.25 C-5.1875 5.3125 -5.1875 5.3125 -5 2.25 C-3 0.25 -3 0.25 0 0 Z " fill="#848484" transform="translate(1147,426.75)"/>
<path d="M0 0 C3 0.25 3 0.25 5 2.25 C5.3125 5.25 5.3125 5.25 5 8.25 C2 10.25 2 10.25 -0.5625 10 C-3 9.25 -3 9.25 -5 7.25 C-5.25 4.75 -5.25 4.75 -5 2.25 C-3 0.25 -3 0.25 0 0 Z " fill="#848484" transform="translate(1012,426.75)"/>
<path d="M0 0 C1.875 1.1875 1.875 1.1875 3 3 C2.875 5.5625 2.875 5.5625 2 8 C-1 10 -1 10 -3.5625 9.75 C-6 9 -6 9 -8 7 C-7.75 3.9375 -7.75 3.9375 -7 1 C-4.45132831 -0.27433584 -2.82594567 -0.27570202 0 0 Z " fill="#848484" transform="translate(880,427)"/>
<path d="M0 0 C3.625 0.375 3.625 0.375 7 1 C7.75 3.25 7.75 3.25 8 6 C6.375 8.375 6.375 8.375 4 10 C1.375 9.9375 1.375 9.9375 -1 9 C-3 6 -3 6 -2.75 3.9375 C-2 2 -2 2 0 0 Z " fill="#848484" transform="translate(472,427)"/>
<path d="M0 0 C3 0.25 3 0.25 5 2.25 C5.3633156 5.08386167 5.3568671 6.65522151 3.875 9.125 C2 10.25 2 10.25 -1.125 10 C-4 9.25 -4 9.25 -5 8.25 C-5.1875 5.3125 -5.1875 5.3125 -5 2.25 C-3 0.25 -3 0.25 0 0 Z " fill="#848484" transform="translate(205,426.75)"/>
<path d="M0 0 C2.875 0.6875 2.875 0.6875 3.875 1.6875 C4.125 4.625 4.125 4.625 3.875 7.6875 C0.875 9.6875 0.875 9.6875 -2.25 9.375 C-5.125 8.6875 -5.125 8.6875 -6.125 7.6875 C-6.375 4.75 -6.375 4.75 -6.125 1.6875 C-3.125 -0.3125 -3.125 -0.3125 0 0 Z " fill="#848484" transform="translate(924.125,387.3125)"/>
<path d="M0 0 C2.4375 0.75 2.4375 0.75 4.4375 2.75 C4.10778521 6.04714793 3.8148161 7.3726839 1.4375 9.75 C-4.01704545 9.29545455 -4.01704545 9.29545455 -6.5625 6.75 C-6.375 4.25 -6.375 4.25 -5.5625 1.75 C-2.5625 -0.25 -2.5625 -0.25 0 0 Z " fill="#848484" transform="translate(654.5625,387.25)"/>
<path d="M0 0 C2.4375 0.75 2.4375 0.75 4.4375 2.75 C4.10778521 6.04714793 3.8148161 7.3726839 1.4375 9.75 C-4.01704545 9.29545455 -4.01704545 9.29545455 -6.5625 6.75 C-6.375 4.25 -6.375 4.25 -5.5625 1.75 C-2.5625 -0.25 -2.5625 -0.25 0 0 Z " fill="#848484" transform="translate(295.5625,387.25)"/>
<path d="M0 0 C2.875 0.6875 2.875 0.6875 3.875 1.6875 C4.125 4.625 4.125 4.625 3.875 7.6875 C0.875 9.6875 0.875 9.6875 -2.25 9.375 C-5.125 8.6875 -5.125 8.6875 -6.125 7.6875 C-6.375 4.75 -6.375 4.75 -6.125 1.6875 C-3.125 -0.3125 -3.125 -0.3125 0 0 Z " fill="#848484" transform="translate(924.125,348.3125)"/>
<path d="M0 0 C2.4375 0.75 2.4375 0.75 4.4375 2.75 C4.10778521 6.04714793 3.8148161 7.3726839 1.4375 9.75 C-4.01704545 9.29545455 -4.01704545 9.29545455 -6.5625 6.75 C-6.375 4.25 -6.375 4.25 -5.5625 1.75 C-2.5625 -0.25 -2.5625 -0.25 0 0 Z " fill="#848484" transform="translate(565.5625,308.25)"/>
<path d="M0 0 C3.5 0.25 3.5 0.25 5.5 2.25 C5.125 5.375 5.125 5.375 4.5 8.25 C-2.125 9.5 -2.125 9.5 -5.5 7.25 C-5.8125 4.75 -5.8125 4.75 -5.5 2.25 C-3.5 0.25 -3.5 0.25 0 0 Z " fill="#848484" transform="translate(789.5,269.75)"/>
<path d="M0 0 C3.5 0.25 3.5 0.25 5.5 2.25 C5.125 5.375 5.125 5.375 4.5 8.25 C-2.125 9.5 -2.125 9.5 -5.5 7.25 C-5.8125 4.75 -5.8125 4.75 -5.5 2.25 C-3.5 0.25 -3.5 0.25 0 0 Z " fill="#848484" transform="translate(610.5,269.75)"/>
<path d="M0 0 C3.0625 0.25 3.0625 0.25 6.0625 2.25 C6.4375 4.75 6.4375 4.75 6.0625 7.25 C3.0625 9.25 3.0625 9.25 -0.5625 8.9375 C-3.9375 8.25 -3.9375 8.25 -4.9375 7.25 C-5.125 4.8125 -5.125 4.8125 -4.9375 2.25 C-2.9375 0.25 -2.9375 0.25 0 0 Z " fill="#848484" transform="translate(384.9375,229.75)"/>
<path d="M0 0 C2 2 2 2 2.25 4.5 C2 7 2 7 0 9 C-3.1642235 9.33661952 -5.18513382 9.49943411 -7.9375 7.8125 C-9 6 -9 6 -8.8125 3.375 C-7.32021871 -0.98705301 -4.11629997 -0.25726875 0 0 Z " fill="#848484" transform="translate(480,190)"/>
<path d="M0 0 C2 2 2 2 2.25 4.5 C2 7 2 7 0 9 C-3.1642235 9.33661952 -5.18513382 9.49943411 -7.9375 7.8125 C-9 6 -9 6 -8.8125 3.375 C-7.32021871 -0.98705301 -4.11629997 -0.25726875 0 0 Z " fill="#848484" transform="translate(1239,467)"/>
<path d="M0 0 C2.8125 0.75 2.8125 0.75 3.8125 1.75 C4.125 4.125 4.125 4.125 3.8125 6.75 C2.1875 8.6875 2.1875 8.6875 -0.1875 9.75 C-3.4375 8.9375 -3.4375 8.9375 -6.1875 7.75 C-6.5175 6.1 -6.8475 4.45 -7.1875 2.75 C-4.59450907 0.25673949 -3.67556276 -0.28827943 0 0 Z " fill="#848484" transform="translate(834.1875,467.25)"/>
<path d="M0 0 C0.66 0.66 1.32 1.32 2 2 C1.625 5.125 1.625 5.125 1 8 C-5.625 9.25 -5.625 9.25 -9 7 C-9.375 4.5 -9.375 4.5 -9 2 C-5.54754176 -0.30163882 -4.05261287 -0.34490322 0 0 Z " fill="#848484" transform="translate(567,467)"/>
<path d="M0 0 C2 2 2 2 2.4375 4.4375 C2 7 2 7 -0.1875 8.9375 C-3 10 -3 10 -5.75 9.5 C-8 8 -8 8 -9 5.5625 C-9 3 -9 3 -7.9375 1.1875 C-5.18513382 -0.49943411 -3.1642235 -0.33661952 0 0 Z " fill="#848484" transform="translate(253,467)"/>
<path d="M0 0 C1 1 1 1 1.3125 3.375 C1 6 1 6 -0.6875 7.875 C-3.59333428 9.28864911 -4.97308697 8.98170152 -8 8 C-9 7 -9 7 -9.0625 3.4375 C-9.041875 2.303125 -9.02125 1.16875 -9 0 C-5.90842747 -1.54578627 -3.31526981 -0.60277633 0 0 Z " fill="#848484" transform="translate(927,428)"/>
<path d="M0 0 C3 0.25 3 0.25 5 2.25 C5.375 4.6875 5.375 4.6875 5 7.25 C3.3125 9.125 3.3125 9.125 1 10.25 C-3.41025641 9.83974359 -3.41025641 9.83974359 -5 8.25 C-5.1875 5.3125 -5.1875 5.3125 -5 2.25 C-3 0.25 -3 0.25 0 0 Z " fill="#848484" transform="translate(340,426.75)"/>
<path d="M0 0 C2.875 0.6875 2.875 0.6875 3.875 1.6875 C3.58769945 4.02694736 3.25563221 6.3614143 2.875 8.6875 C0.0625 9.3125 0.0625 9.3125 -3.125 9.6875 C-4.115 9.0275 -5.105 8.3675 -6.125 7.6875 C-6.5 4.6875 -6.5 4.6875 -6.125 1.6875 C-3.125 -0.3125 -3.125 -0.3125 0 0 Z " fill="#848484" transform="translate(385.125,387.3125)"/>
<path d="M0 0 C2.4375 0.75 2.4375 0.75 4.4375 2.75 C4.10778521 6.04714793 3.8148161 7.3726839 1.4375 9.75 C-1.6875 9.375 -1.6875 9.375 -4.5625 8.75 C-4.5625 8.09 -4.5625 7.43 -4.5625 6.75 C-5.2225 6.75 -5.8825 6.75 -6.5625 6.75 C-6.25 4.375 -6.25 4.375 -5.5625 1.75 C-2.5625 -0.25 -2.5625 -0.25 0 0 Z " fill="#848484" transform="translate(160.5625,387.25)"/>
<path d="M0 0 C0.66 0.66 1.32 1.32 2 2 C1.8125 4.5 1.8125 4.5 1 7 C-2 9 -2 9 -4.5625 8.75 C-7 8 -7 8 -9 6 C-9.125 3.375 -9.125 3.375 -9 1 C-5.66429909 -1.10025613 -3.74952434 -1.18406032 0 0 Z " fill="#848484" transform="translate(1331,388)"/>
<path d="M0 0 C2.375 0.8125 2.375 0.8125 4.375 1.8125 C4.59917836 4.5773665 4.69733508 6.27527487 3.25 8.6875 C1.375 9.8125 1.375 9.8125 -1.6875 9.8125 C-4.625 8.8125 -4.625 8.8125 -6 6.25 C-6.20625 5.445625 -6.4125 4.64125 -6.625 3.8125 C-3.31211656 -0.23657975 -3.31211656 -0.23657975 0 0 Z " fill="#848484" transform="translate(519.625,387.1875)"/>
<path d="M0 0 C1.375 2.5625 1.375 2.5625 2 5 C0.3125 7.0625 0.3125 7.0625 -2 9 C-5.39154295 8.83849795 -6.58296757 8.41703243 -9 6 C-8.75 2.9375 -8.75 2.9375 -8 0 C-5.01122021 -1.4943899 -3.14997454 -0.91874257 0 0 Z " fill="#848484" transform="translate(209,388)"/>
<path d="M0 0 C0.66 0.66 1.32 1.32 2 2 C1.8125 4.5 1.8125 4.5 1 7 C-2 9 -2 9 -4.5625 8.75 C-7 8 -7 8 -9 6 C-9.125 3.375 -9.125 3.375 -9 1 C-5.66429909 -1.10025613 -3.74952434 -1.18406032 0 0 Z " fill="#848484" transform="translate(1331,349)"/>
<path d="M0 0 C2.4375 0.75 2.4375 0.75 4.4375 2.75 C4.25 5.25 4.25 5.25 3.4375 7.75 C0.4375 9.75 0.4375 9.75 -2.125 9.5 C-4.5625 8.75 -4.5625 8.75 -6.5625 6.75 C-6.375 4.25 -6.375 4.25 -5.5625 1.75 C-2.5625 -0.25 -2.5625 -0.25 0 0 Z " fill="#848484" transform="translate(834.5625,348.25)"/>
<path d="M0 0 C2.4375 0.75 2.4375 0.75 4.4375 2.75 C4.25 5.25 4.25 5.25 3.4375 7.75 C0.4375 9.75 0.4375 9.75 -2.125 9.5 C-4.5625 8.75 -4.5625 8.75 -6.5625 6.75 C-6.375 4.25 -6.375 4.25 -5.5625 1.75 C-2.5625 -0.25 -2.5625 -0.25 0 0 Z " fill="#848484" transform="translate(654.5625,348.25)"/>
<path d="M0 0 C2.8125 0.8125 2.8125 0.8125 3.8125 1.8125 C4.125 4.1875 4.125 4.1875 3.8125 6.8125 C2.125 8.6875 2.125 8.6875 -0.1875 9.8125 C-2.8125 9.8125 -2.8125 9.8125 -5.1875 8.8125 C-6.5 6.25 -6.5 6.25 -7.1875 3.8125 C-3.9984029 -0.23520017 -3.9984029 -0.23520017 0 0 Z " fill="#848484" transform="translate(520.1875,348.1875)"/>
<path d="M0 0 C2.4375 0.75 2.4375 0.75 4.4375 2.75 C4.25 5.25 4.25 5.25 3.4375 7.75 C0.4375 9.75 0.4375 9.75 -2.125 9.5 C-4.5625 8.75 -4.5625 8.75 -6.5625 6.75 C-6.375 4.25 -6.375 4.25 -5.5625 1.75 C-2.5625 -0.25 -2.5625 -0.25 0 0 Z " fill="#848484" transform="translate(295.5625,348.25)"/>
<path d="M0 0 C2.4375 0.75 2.4375 0.75 4.4375 2.75 C4.25 5.25 4.25 5.25 3.4375 7.75 C0.4375 9.75 0.4375 9.75 -2.125 9.5 C-4.5625 8.75 -4.5625 8.75 -6.5625 6.75 C-6.375 4.25 -6.375 4.25 -5.5625 1.75 C-2.5625 -0.25 -2.5625 -0.25 0 0 Z " fill="#848484" transform="translate(251.5625,348.25)"/>
<path d="M0 0 C0.66 0.66 1.32 1.32 2 2 C1.8125 4.5 1.8125 4.5 1 7 C-2 9 -2 9 -4.5625 8.75 C-7 8 -7 8 -9 6 C-9.125 3.375 -9.125 3.375 -9 1 C-5.66429909 -1.10025613 -3.74952434 -1.18406032 0 0 Z " fill="#848484" transform="translate(927,309)"/>
<path d="M0 0 C0.66 0.66 1.32 1.32 2 2 C1.8125 4.5 1.8125 4.5 1 7 C-2 9 -2 9 -4.5625 8.6875 C-7 8 -7 8 -9 7 C-9 5.02 -9 3.04 -9 1 C-5.66429909 -1.10025613 -3.74952434 -1.18406032 0 0 Z " fill="#848484" transform="translate(523,309)"/>
<path d="M0 0 C2 2 2 2 2.3125 4.5 C2.1578125 5.7375 2.1578125 5.7375 2 7 C-1.8503105 9.56687367 -3.58569763 8.83288724 -8 8 C-8.33 6.02 -8.66 4.04 -9 2 C-5.54754176 -0.30163882 -4.05261287 -0.34490322 0 0 Z " fill="#848484" transform="translate(1062,270)"/>
<path d="M0 0 C0.66 0.33 1.32 0.66 2 1 C2.125 3.875 2.125 3.875 2 7 C0 9 0 9 -2.9375 9.3125 C-6 9 -6 9 -7.9375 7.8125 C-9 6 -9 6 -8.8125 3.375 C-7.31089738 -1.01429995 -4.12576353 -0.17190681 0 0 Z " fill="#848484" transform="translate(927,270)"/>
<path d="M0 0 C2 2 2 2 2.25 4.5 C2 7 2 7 0 9 C-3.1642235 9.33661952 -5.18513382 9.49943411 -7.9375 7.8125 C-9 6 -9 6 -8.8125 3.375 C-7.32021871 -0.98705301 -4.11629997 -0.25726875 0 0 Z " fill="#848484" transform="translate(1332,230)"/>
<path d="M0 0 C0.66 0.33 1.32 0.66 2 1 C2.125 3.875 2.125 3.875 2 7 C0 9 0 9 -2.9375 9.3125 C-6 9 -6 9 -7.9375 7.8125 C-9 6 -9 6 -8.8125 3.375 C-7.31089738 -1.01429995 -4.12576353 -0.17190681 0 0 Z " fill="#848484" transform="translate(658,230)"/>
<path d="M0 0 C0.66 0.33 1.32 0.66 2 1 C2.125 3.875 2.125 3.875 2 7 C0 9 0 9 -2.9375 9.3125 C-6 9 -6 9 -7.9375 7.8125 C-9 6 -9 6 -8.8125 3.375 C-7.31089738 -1.01429995 -4.12576353 -0.17190681 0 0 Z " fill="#848484" transform="translate(614,230)"/>
<path d="M0 0 C3.0625 0.3125 3.0625 0.3125 5 1.5 C6.0625 3.3125 6.0625 3.3125 5.875 5.9375 C5.0625 8.3125 5.0625 8.3125 3.0625 9.3125 C0.0625 9.5 0.0625 9.5 -2.9375 9.3125 C-4.9375 7.3125 -4.9375 7.3125 -5.1875 4.8125 C-4.80834721 1.0209721 -3.71668962 0.39539251 0 0 Z " fill="#848484" transform="translate(1013.9375,189.6875)"/>
<path d="M0 0 C2 3 2 3 1.6875 5.625 C1 8 1 8 0 9 C-4.03160191 9.26293056 -5.55892734 9.29404844 -9 7 C-9.375 4.5 -9.375 4.5 -9 2 C-5.54970958 -0.30019361 -4.05445642 -0.43132515 0 0 Z " fill="#848484" transform="translate(659,190)"/>
<path d="M0 0 C2 2 2 2 2.25 4.5 C2 7 2 7 0 9 C-3.1642235 9.33661952 -5.18513382 9.49943411 -7.9375 7.8125 C-9 6 -9 6 -8.8125 3.375 C-7.32021871 -0.98705301 -4.11629997 -0.25726875 0 0 Z " fill="#848484" transform="translate(345,190)"/>
<path d="M0 0 C0.66 0.66 1.32 1.32 2 2 C1.43181818 7.56818182 1.43181818 7.56818182 0 9 C-5.25450902 9.45691383 -5.25450902 9.45691383 -7.9375 7.8125 C-9 6 -9 6 -8.8125 3.375 C-7.32021871 -0.98705301 -4.11629997 -0.25726875 0 0 Z " fill="#848484" transform="translate(1150,467)"/>
<path d="M0 0 C0.625 2.3125 0.625 2.3125 1 5 C-1 8 -1 8 -2.875 8.8125 C-5.62771455 9.05538658 -6.79803769 8.67045417 -9 7 C-9.9375 4.5625 -9.9375 4.5625 -10 2 C-7.69982557 -2.31282705 -4.18010502 -0.86756897 0 0 Z " fill="#848484" transform="translate(344,468)"/>
<path d="M0 0 C6.57692308 0.57692308 6.57692308 0.57692308 8 2 C8.3125 4.375 8.3125 4.375 8 7 C6.3125 8.875 6.3125 8.875 4 10 C-0.41025641 9.58974359 -0.41025641 9.58974359 -2 8 C-2.1875 5.0625 -2.1875 5.0625 -2 2 C-1.34 1.34 -0.68 0.68 0 0 Z " fill="#848484" transform="translate(381,427)"/>
<path d="M0 0 C4.55555556 1.55555556 4.55555556 1.55555556 6 3 C6.25 6.4375 6.25 6.4375 6 10 C3 12 3 12 0.3125 11.625 C-0.450625 11.41875 -1.21375 11.2125 -2 11 C-2 7.7 -2 4.4 -2 1 C-1.34 0.67 -0.68 0.34 0 0 Z " fill="#848484" transform="translate(69,425)"/>
<path d="M0 0 C2.4375 0.75 2.4375 0.75 4.4375 2.75 C4.25 5.25 4.25 5.25 3.4375 7.75 C0.4375 9.75 0.4375 9.75 -2.125 9.5 C-4.5625 8.75 -4.5625 8.75 -6.5625 6.75 C-6.375 4.25 -6.375 4.25 -5.5625 1.75 C-2.5625 -0.25 -2.5625 -0.25 0 0 Z " fill="#848484" transform="translate(1237.5625,387.25)"/>
<path d="M0 0 C2.4375 0.75 2.4375 0.75 4.4375 2.75 C4.25 5.25 4.25 5.25 3.4375 7.75 C0.4375 9.75 0.4375 9.75 -2.125 9.5 C-4.5625 8.75 -4.5625 8.75 -6.5625 6.75 C-6.375 4.25 -6.375 4.25 -5.5625 1.75 C-2.5625 -0.25 -2.5625 -0.25 0 0 Z " fill="#848484" transform="translate(1193.5625,387.25)"/>
<path d="M0 0 C2.4375 0.75 2.4375 0.75 4.4375 2.75 C4.25 5.25 4.25 5.25 3.4375 7.75 C0.4375 9.75 0.4375 9.75 -2.125 9.5 C-4.5625 8.75 -4.5625 8.75 -6.5625 6.75 C-6.375 4.25 -6.375 4.25 -5.5625 1.75 C-2.5625 -0.25 -2.5625 -0.25 0 0 Z " fill="#848484" transform="translate(834.5625,387.25)"/>
<path d="M0 0 C2.875 0.6875 2.875 0.6875 3.875 1.6875 C4.125 4.625 4.125 4.625 3.875 7.6875 C0.875 9.6875 0.875 9.6875 -1.6875 9.375 C-4.125 8.6875 -4.125 8.6875 -6.125 7.6875 C-6.3125 4.8125 -6.3125 4.8125 -6.125 1.6875 C-3.125 -0.3125 -3.125 -0.3125 0 0 Z " fill="#848484" transform="translate(565.125,387.3125)"/>
<path d="M0 0 C2.4375 0.75 2.4375 0.75 4.4375 2.75 C4.25 5.25 4.25 5.25 3.4375 7.75 C0.4375 9.75 0.4375 9.75 -2.125 9.5 C-4.5625 8.75 -4.5625 8.75 -6.5625 6.75 C-6.375 4.25 -6.375 4.25 -5.5625 1.75 C-2.5625 -0.25 -2.5625 -0.25 0 0 Z " fill="#848484" transform="translate(251.5625,387.25)"/>
<path d="M0 0 C2.4375 0.75 2.4375 0.75 4.4375 2.75 C4.25 5.25 4.25 5.25 3.4375 7.75 C0.4375 9.75 0.4375 9.75 -2.125 9.5 C-4.5625 8.75 -4.5625 8.75 -6.5625 6.75 C-6.375 4.25 -6.375 4.25 -5.5625 1.75 C-2.5625 -0.25 -2.5625 -0.25 0 0 Z " fill="#848484" transform="translate(1237.5625,348.25)"/>
<path d="M0 0 C2.4375 0.75 2.4375 0.75 4.4375 2.75 C4.25 5.25 4.25 5.25 3.4375 7.75 C0.4375 9.75 0.4375 9.75 -2.125 9.5 C-4.5625 8.75 -4.5625 8.75 -6.5625 6.75 C-6.375 4.25 -6.375 4.25 -5.5625 1.75 C-2.5625 -0.25 -2.5625 -0.25 0 0 Z " fill="#848484" transform="translate(1193.5625,348.25)"/>
<path d="M0 0 C2.875 0.6875 2.875 0.6875 3.875 1.6875 C3.58769945 4.02694736 3.25563221 6.3614143 2.875 8.6875 C-0.03982778 9.49717438 -1.58613217 9.90595993 -4.4375 8.75 C-4.994375 8.399375 -5.55125 8.04875 -6.125 7.6875 C-6.3125 4.8125 -6.3125 4.8125 -6.125 1.6875 C-3.125 -0.3125 -3.125 -0.3125 0 0 Z " fill="#848484" transform="translate(385.125,348.3125)"/>
<path d="M0 0 C1 1 1 1 1.25 3.9375 C1.1675 4.948125 1.085 5.95875 1 7 C-2 9 -2 9 -4.5625 8.6875 C-7 8 -7 8 -9 7 C-9 5.02 -9 3.04 -9 1 C-5.65903378 -1.10357132 -3.7625171 -1.11858616 0 0 Z " fill="#848484" transform="translate(614,309)"/>
<path d="M0 0 C1.3125 2.5625 1.3125 2.5625 2 5 C0.3125 7.0625 0.3125 7.0625 -2 9 C-4.74426716 8.80398092 -6.55210492 8.22394754 -9 7 C-9 5.02 -9 3.04 -9 1 C-5.70950422 -1.07179364 -3.663785 -1.44623092 0 0 Z " fill="#848484" transform="translate(1106,309)"/>
<path d="M0 0 C2.875 0.6875 2.875 0.6875 3.875 1.6875 C4.16931219 4.4834658 4.21272308 6.12462819 2.75 8.5625 C0.875 9.6875 0.875 9.6875 -2.25 9.4375 C-5.125 8.6875 -5.125 8.6875 -6.125 7.6875 C-6.375 4.75 -6.375 4.75 -6.125 1.6875 C-3.125 -0.3125 -3.125 -0.3125 0 0 Z " fill="#848484" transform="translate(431.125,308.3125)"/>
<path d="M0 0 C2.4375 0.75 2.4375 0.75 4.4375 2.75 C4.25 5.25 4.25 5.25 3.4375 7.75 C0.4375 9.75 0.4375 9.75 -2.125 9.5 C-4.5625 8.75 -4.5625 8.75 -6.5625 6.75 C-6.375 4.25 -6.375 4.25 -5.5625 1.75 C-2.5625 -0.25 -2.5625 -0.25 0 0 Z " fill="#848484" transform="translate(385.5625,308.25)"/>
<path d="M0 0 C1.7325 0.1546875 1.7325 0.1546875 3.5 0.3125 C5.5 3.3125 5.5 3.3125 5.25 5.375 C4.5 7.3125 4.5 7.3125 2.5 9.3125 C-4.07692308 8.73557692 -4.07692308 8.73557692 -5.5 7.3125 C-5.6875 4.875 -5.6875 4.875 -5.5 2.3125 C-3.5 0.3125 -3.5 0.3125 0 0 Z " fill="#848484" transform="translate(1328.5,269.6875)"/>
<path d="M0 0 C2 2 2 2 2.3125 4.5 C2.1578125 5.7375 2.1578125 5.7375 2 7 C-1.23253796 9.15502531 -2.25150923 9.46856135 -6 9 C-7.875 7.8125 -7.875 7.8125 -9 6 C-8.8125 3.375 -8.8125 3.375 -8 1 C-5.23749964 -0.38125018 -3.05268901 -0.19079306 0 0 Z " fill="#848484" transform="translate(523,270)"/>
<path d="M0 0 C2 2 2 2 2.3125 4.5 C2.1578125 5.7375 2.1578125 5.7375 2 7 C-1.23253796 9.15502531 -2.25150923 9.46856135 -6 9 C-7.875 7.8125 -7.875 7.8125 -9 6 C-8.8125 3.375 -8.8125 3.375 -8 1 C-5.23749964 -0.38125018 -3.05268901 -0.19079306 0 0 Z " fill="#848484" transform="translate(479,270)"/>
<path d="M0 0 C3.5625 0.1875 3.5625 0.1875 5.5625 2.1875 C5.1875 5.3125 5.1875 5.3125 4.5625 8.1875 C-1.84944487 9.51828101 -1.84944487 9.51828101 -4.4375 8.0625 C-5.4375 6.1875 -5.4375 6.1875 -5.1875 3.5625 C-4.03548686 -0.08554162 -4.05612355 0.2212431 0 0 Z " fill="#848484" transform="translate(700.4375,229.8125)"/>
<path d="M0 0 C3.0625 0.3125 3.0625 0.3125 5 1.5625 C6.0625 3.3125 6.0625 3.3125 5.875 5.375 C5.0625 7.3125 5.0625 7.3125 3.0625 9.3125 C0.0625 9.5625 0.0625 9.5625 -2.9375 9.3125 C-4.9375 7.3125 -4.9375 7.3125 -5.1875 4.8125 C-4.80834721 1.0209721 -3.71668962 0.39539251 0 0 Z " fill="#848484" transform="translate(1058.9375,229.6875)"/>
<path d="M0 0 C3.0625 0.3125 3.0625 0.3125 5 1.5625 C6.0625 3.3125 6.0625 3.3125 5.875 5.375 C5.0625 7.3125 5.0625 7.3125 3.0625 9.3125 C0.0625 9.5625 0.0625 9.5625 -2.9375 9.3125 C-4.9375 7.3125 -4.9375 7.3125 -5.1875 4.8125 C-4.80834721 1.0209721 -3.71668962 0.39539251 0 0 Z " fill="#848484" transform="translate(519.9375,229.6875)"/>
<path d="M0 0 C3.0625 0.3125 3.0625 0.3125 5 1.5625 C6.0625 3.3125 6.0625 3.3125 5.875 5.375 C5.0625 7.3125 5.0625 7.3125 3.0625 9.3125 C0.0625 9.5625 0.0625 9.5625 -2.9375 9.3125 C-4.9375 7.3125 -4.9375 7.3125 -5.1875 4.8125 C-4.80834721 1.0209721 -3.71668962 0.39539251 0 0 Z " fill="#848484" transform="translate(475.9375,229.6875)"/>
<path d="M0 0 C2 2 2 2 2.25 4.5 C2 7 2 7 0 9 C-5.17431193 9.55045872 -5.17431193 9.55045872 -7.875 7.75 C-9 6 -9 6 -9 2 C-5.54754176 -0.30163882 -4.05261287 -0.34490322 0 0 Z " fill="#848484" transform="translate(1063,190)"/>
<path d="M0 0 C2 2 2 2 2.25 4.5 C2 7 2 7 0 9 C-3.1642235 9.33661952 -5.18513382 9.49943411 -7.9375 7.8125 C-9 6 -9 6 -8.8125 3.375 C-7.32021871 -0.98705301 -4.11629997 -0.25726875 0 0 Z " fill="#848484" transform="translate(928,190)"/>
<path d="M0 0 C1.31236443 4.4143167 1.31236443 4.4143167 0 6.875 C-3.12897325 8.63504746 -5.60613794 7.75419157 -9 7 C-10 6 -10 6 -10.25 3.5625 C-10.1675 2.716875 -10.085 1.87125 -10 1 C-6.1496895 -1.56687367 -4.41430237 -0.83288724 0 0 Z " fill="#848484" transform="translate(616,191)"/>
<path d="M0 0 C2 2 2 2 2.25 4.5 C2 7 2 7 0 9 C-5.17431193 9.55045872 -5.17431193 9.55045872 -7.875 7.75 C-9 6 -9 6 -9 2 C-5.54754176 -0.30163882 -4.05261287 -0.34490322 0 0 Z " fill="#848484" transform="translate(524,190)"/>
<path d="M0 0 C3.0625 0.4375 3.0625 0.4375 5 2.75 C6.0625 5.4375 6.0625 5.4375 5.0625 8.4375 C2.8125 9.8125 2.8125 9.8125 0.0625 10.4375 C-2.75 9.375 -2.75 9.375 -4.9375 7.4375 C-5.375 4.875 -5.375 4.875 -4.9375 2.4375 C-2.9375 0.4375 -2.9375 0.4375 0 0 Z " fill="#848484" transform="translate(1056.9375,466.5625)"/>
<path d="M0 0 C2.875 0.6875 2.875 0.6875 3.875 1.6875 C4.1875 4.0625 4.1875 4.0625 3.875 6.6875 C2.1875 8.625 2.1875 8.625 -0.125 9.6875 C-3.26259973 8.86574769 -4.82755875 7.98494125 -7.125 5.6875 C-6.9375 3.6875 -6.9375 3.6875 -6.125 1.6875 C-3.125 -0.3125 -3.125 -0.3125 0 0 Z " fill="#848484" transform="translate(878.125,467.3125)"/>
<path d="M0 0 C3.125 0.25 3.125 0.25 5.0625 1.4375 C6.125 3.25 6.125 3.25 5.9375 5.875 C5.125 8.25 5.125 8.25 3.125 9.25 C0.125 9.5 0.125 9.5 -2.875 9.25 C-4.875 6.25 -4.875 6.25 -4.5625 3.625 C-3.58556988 0.25015051 -3.59697395 0.31278034 0 0 Z " fill="#848484" transform="translate(382.875,466.75)"/>
<path d="M0 0 C3 0.0625 3 0.0625 6 1 C7.375 3.5625 7.375 3.5625 8 6 C6.3125 8.0625 6.3125 8.0625 4 10 C0.60845705 9.83849795 -0.58296757 9.41703243 -3 7 C-2.67028521 3.70285207 -2.3773161 2.3773161 0 0 Z " fill="#848484" transform="translate(1010,387)"/>
<path d="M0 0 C1 1 1 1 1.25 3.9375 C1.1675 4.948125 1.085 5.95875 1 7 C-2 9 -2 9 -4.5625 8.75 C-7 8 -7 8 -9 6 C-8.75 2.9375 -8.75 2.9375 -8 0 C-5.11795733 -1.44102133 -3.08226581 -0.65580124 0 0 Z " fill="#848484" transform="translate(344,388)"/>
<path d="M0 0 C2.875 0.6875 2.875 0.6875 3.875 1.6875 C3.58769945 4.02694736 3.25563221 6.3614143 2.875 8.6875 C-2.57236842 10.01907895 -2.57236842 10.01907895 -5 8.5625 C-6.49477553 6.07120746 -6.56430917 4.54300958 -6.125 1.6875 C-3.125 -0.3125 -3.125 -0.3125 0 0 Z " fill="#848484" transform="translate(1283.125,348.3125)"/>
<path d="M0 0 C3 0.0625 3 0.0625 6 1 C7.375 3.5625 7.375 3.5625 8 6 C6.3125 8.0625 6.3125 8.0625 4 10 C0.60845705 9.83849795 -0.58296757 9.41703243 -3 7 C-2.67028521 3.70285207 -2.3773161 2.3773161 0 0 Z " fill="#848484" transform="translate(1010,348)"/>
<path d="M0 0 C2.875 0.6875 2.875 0.6875 3.875 1.6875 C3.58769945 4.02694736 3.25563221 6.3614143 2.875 8.6875 C-2.57236842 10.01907895 -2.57236842 10.01907895 -5 8.5625 C-6.49477553 6.07120746 -6.56430917 4.54300958 -6.125 1.6875 C-3.125 -0.3125 -3.125 -0.3125 0 0 Z " fill="#848484" transform="translate(700.125,348.3125)"/>
<path d="M0 0 C2.875 0.6875 2.875 0.6875 3.875 1.6875 C4.125 4.625 4.125 4.625 3.875 7.6875 C0.875 9.6875 0.875 9.6875 -1.6875 9.4375 C-4.125 8.6875 -4.125 8.6875 -6.125 6.6875 C-6.4375 4.1875 -6.4375 4.1875 -6.125 1.6875 C-3.125 -0.3125 -3.125 -0.3125 0 0 Z " fill="#848484" transform="translate(565.125,348.3125)"/>
<path d="M0 0 C1 1 1 1 1.25 3.9375 C1.1675 4.948125 1.085 5.95875 1 7 C-2 9 -2 9 -4.5625 8.75 C-7 8 -7 8 -9 6 C-8.75 2.9375 -8.75 2.9375 -8 0 C-5.11795733 -1.44102133 -3.08226581 -0.65580124 0 0 Z " fill="#848484" transform="translate(344,349)"/>
<path d="M0 0 C1.5 1.8125 1.5 1.8125 2 4 C1.4375 6.1875 1.4375 6.1875 0 8 C-2.375 8.9375 -2.375 8.9375 -5 9 C-7.3125 7.5625 -7.3125 7.5625 -9 6 C-8.625 3.0625 -8.625 3.0625 -8 0 C-5.04063954 -1.47968023 -3.13239866 -0.84835797 0 0 Z " fill="#848484" transform="translate(209,349)"/>
<path d="M0 0 C2.4375 0.6875 2.4375 0.6875 4.4375 1.6875 C4.66167836 4.4523665 4.75983508 6.15027487 3.3125 8.5625 C1.4375 9.6875 1.4375 9.6875 -1.6875 9.4375 C-4.5625 8.6875 -4.5625 8.6875 -5.5625 7.6875 C-5.8125 4.75 -5.8125 4.75 -5.5625 1.6875 C-2.5625 -0.3125 -2.5625 -0.3125 0 0 Z " fill="#848484" transform="translate(206.5625,308.3125)"/>
<path d="M0 0 C1 1 1 1 1.25 3.9375 C1.1675 4.948125 1.085 5.95875 1 7 C-2 9 -2 9 -4.5625 8.6875 C-7 8 -7 8 -9 7 C-9 5.02 -9 3.04 -9 1 C-5.65903378 -1.10357132 -3.7625171 -1.11858616 0 0 Z " fill="#848484" transform="translate(1241,309)"/>
<path d="M0 0 C1 1 1 1 1.25 3.9375 C1.1675 4.948125 1.085 5.95875 1 7 C-2 9 -2 9 -4.5625 8.6875 C-7 8 -7 8 -9 7 C-9 5.02 -9 3.04 -9 1 C-5.65903378 -1.10357132 -3.7625171 -1.11858616 0 0 Z " fill="#848484" transform="translate(255,309)"/>
<path d="M0 0 C2.4375 0.75 2.4375 0.75 4.4375 2.75 C4.25 5.25 4.25 5.25 3.4375 7.75 C0.4375 9.75 0.4375 9.75 -2.125 9.5 C-4.5625 8.75 -4.5625 8.75 -6.5625 6.75 C-6.375 4.25 -6.375 4.25 -5.5625 1.75 C-2.5625 -0.25 -2.5625 -0.25 0 0 Z " fill="#848484" transform="translate(117.5625,308.25)"/>
<path d="M0 0 C1.175625 0.0825 2.35125 0.165 3.5625 0.25 C5.5625 3.25 5.5625 3.25 5.1875 5.9375 C4.98125 6.700625 4.775 7.46375 4.5625 8.25 C-1.84944487 9.58078101 -1.84944487 9.58078101 -4.4375 8.125 C-5.4375 6.25 -5.4375 6.25 -5.1875 3.625 C-4.03703747 -0.01813136 -4.04630725 0.29427689 0 0 Z " fill="#848484" transform="translate(1237.4375,269.75)"/>
<path d="M0 0 C2 2 2 2 2.3125 4.5 C2.1578125 5.7375 2.1578125 5.7375 2 7 C-1.23253796 9.15502531 -2.25150923 9.46856135 -6 9 C-7.8125 7.75 -7.8125 7.75 -9 6 C-9 4.68 -9 3.36 -9 2 C-5.54754176 -0.30163882 -4.05261287 -0.34490322 0 0 Z " fill="#848484" transform="translate(1106,270)"/>
<path d="M0 0 C1.7325 0.1546875 1.7325 0.1546875 3.5 0.3125 C5.5 3.3125 5.5 3.3125 5.25 5.375 C4.5 7.3125 4.5 7.3125 2.5 9.3125 C-1.125 8.9375 -1.125 8.9375 -4.5 8.3125 C-5.125 5.4375 -5.125 5.4375 -5.5 2.3125 C-3.5 0.3125 -3.5 0.3125 0 0 Z " fill="#848484" transform="translate(1013.5,269.6875)"/>
<path d="M0 0 C2 2 2 2 2.25 4.5 C2 7 2 7 0 9 C-6.46153846 8.53846154 -6.46153846 8.53846154 -9 6 C-8.75 3.4375 -8.75 3.4375 -8 1 C-5.23749964 -0.38125018 -3.05268901 -0.19079306 0 0 Z " fill="#848484" transform="translate(388,270)"/>
<path d="M0 0 C0.66 0.66 1.32 1.32 2 2 C1.625 5.125 1.625 5.125 1 8 C-5.41194487 9.33078101 -5.41194487 9.33078101 -8 7.875 C-9 6 -9 6 -8.8125 3.375 C-7.32021871 -0.98705301 -4.11629997 -0.25726875 0 0 Z " fill="#848484" transform="translate(255,270)"/>
<path d="M0 0 C1.670625 0.061875 1.670625 0.061875 3.375 0.125 C4.5625 2.375 4.5625 2.375 5.375 5.125 C4 7.4375 4 7.4375 2.375 9.125 C-4.5 8.25 -4.5 8.25 -5.625 7.125 C-5.8125 4.6875 -5.8125 4.6875 -5.625 2.125 C-3.625 0.125 -3.625 0.125 0 0 Z " fill="#848484" transform="translate(206.625,269.875)"/>
<path d="M0 0 C1.175625 0.0825 2.35125 0.165 3.5625 0.25 C5.5625 3.25 5.5625 3.25 5.1875 5.9375 C4.98125 6.700625 4.775 7.46375 4.5625 8.25 C-1.84944487 9.58078101 -1.84944487 9.58078101 -4.4375 8.125 C-5.4375 6.25 -5.4375 6.25 -5.1875 3.625 C-4.03703747 -0.01813136 -4.04630725 0.29427689 0 0 Z " fill="#848484" transform="translate(744.4375,229.75)"/>
<path d="M0 0 C3 0.25 3 0.25 5 2.25 C5.25 4.75 5.25 4.75 5 7.25 C3 9.25 3 9.25 0.0625 9.5625 C-3 9.25 -3 9.25 -4.9375 8 C-6 6.25 -6 6.25 -5.8125 4.1875 C-4.4469942 0.93129385 -3.53329441 0.2944412 0 0 Z " fill="#848484" transform="translate(386,189.75)"/>
<path d="M0 0 C3.0625 0.3125 3.0625 0.3125 4.9375 1.8125 C5.30875 2.3075 5.68 2.8025 6.0625 3.3125 C4.1875 8.1875 4.1875 8.1875 3.0625 9.3125 C0.125 9.5 0.125 9.5 -2.9375 9.3125 C-4.9375 7.3125 -4.9375 7.3125 -5.1875 4.8125 C-4.80834721 1.0209721 -3.71668962 0.39539251 0 0 Z " fill="#848484" transform="translate(206.9375,189.6875)"/>
<path d="M0 0 C3.5625 0.1875 3.5625 0.1875 5.5625 2.1875 C5.875 4.6875 5.875 4.6875 5.5625 7.1875 C1.7121895 9.75437367 -0.02319763 9.02038724 -4.4375 8.1875 C-4.47991723 5.85455225 -4.47842937 3.52047433 -4.4375 1.1875 C-3.4375 0.1875 -3.4375 0.1875 0 0 Z " fill="#848484" transform="translate(1326.4375,466.8125)"/>
<path d="M0 0 C3.0625 0.4375 3.0625 0.4375 4.9375 2.9375 C5.30875 3.7625 5.68 4.5875 6.0625 5.4375 C4.9375 7.4375 4.9375 7.4375 3.0625 9.4375 C-0.06373255 9.75650332 -2.10866253 9.85191874 -4.9375 8.4375 C-5.0625 5.5625 -5.0625 5.5625 -4.9375 2.4375 C-2.9375 0.4375 -2.9375 0.4375 0 0 Z " fill="#848484" transform="translate(1100.9375,466.5625)"/>
<path d="M0 0 C2.3125 1.25 2.3125 1.25 3.3125 2.25 C3.5 4.6875 3.5 4.6875 3.3125 7.25 C1.3125 9.25 1.3125 9.25 -1.6875 9.5 C-4.6875 9.25 -4.6875 9.25 -6.6875 7.25 C-7.0625 4.8125 -7.0625 4.8125 -6.6875 2.25 C-4.33222347 -0.45420638 -3.50969299 -0.97944921 0 0 Z " fill="#848484" transform="translate(654.6875,466.75)"/>
<path d="M0 0 C5.56818182 0.56818182 5.56818182 0.56818182 7 2 C7.25 4.9375 7.25 4.9375 7 8 C4 10 4 10 1.4375 9.75 C-1 9 -1 9 -3 7 C-2.67028521 3.70285207 -2.3773161 2.3773161 0 0 Z " fill="#848484" transform="translate(1145,387)"/>
<path d="M0 0 C2.4375 0.9375 2.4375 0.9375 3.75 3.5 C4.0903125 4.7065625 4.0903125 4.7065625 4.4375 5.9375 C2.75 8 2.75 8 0.4375 9.9375 C-2.95404295 9.77599795 -4.14546757 9.35453243 -6.5625 6.9375 C-6.375 4.4375 -6.375 4.4375 -5.5625 1.9375 C-2.5625 -0.0625 -2.5625 -0.0625 0 0 Z " fill="#848484" transform="translate(969.5625,387.0625)"/>
<path d="M0 0 C2.875 0.6875 2.875 0.6875 3.875 1.6875 C3.58769945 4.02694736 3.25563221 6.3614143 2.875 8.6875 C-2.57236842 10.01907895 -2.57236842 10.01907895 -5 8.5625 C-6.49477553 6.07120746 -6.56430917 4.54300958 -6.125 1.6875 C-3.125 -0.3125 -3.125 -0.3125 0 0 Z " fill="#848484" transform="translate(700.125,387.3125)"/>
<path d="M0 0 C2.4375 0.9375 2.4375 0.9375 3.75 3.5 C4.0903125 4.7065625 4.0903125 4.7065625 4.4375 5.9375 C2.75 8 2.75 8 0.4375 9.9375 C-2.95404295 9.77599795 -4.14546757 9.35453243 -6.5625 6.9375 C-6.375 4.4375 -6.375 4.4375 -5.5625 1.9375 C-2.5625 -0.0625 -2.5625 -0.0625 0 0 Z " fill="#848484" transform="translate(430.5625,387.0625)"/>
<path d="M0 0 C1 1 1 1 1.25 3.9375 C1.1675 4.948125 1.085 5.95875 1 7 C-2 9 -2 9 -4.5625 8.75 C-7 8 -7 8 -9 6 C-8.75 2.9375 -8.75 2.9375 -8 0 C-5.11795733 -1.44102133 -3.08226581 -0.65580124 0 0 Z " fill="#848484" transform="translate(1151,349)"/>
<path d="M0 0 C2.875 0.6875 2.875 0.6875 3.875 1.6875 C4.1875 4.0625 4.1875 4.0625 3.875 6.6875 C2.1875 8.5625 2.1875 8.5625 -0.125 9.6875 C-2.875 9.375 -2.875 9.375 -5.125 8.6875 C-5.455 6.3775 -5.785 4.0675 -6.125 1.6875 C-3.125 -0.3125 -3.125 -0.3125 0 0 Z " fill="#848484" transform="translate(476.125,348.3125)"/>
<path d="M0 0 C2.4375 0.9375 2.4375 0.9375 3.75 3.5 C4.0903125 4.7065625 4.0903125 4.7065625 4.4375 5.9375 C2.75 8 2.75 8 0.4375 9.9375 C-2.95404295 9.77599795 -4.14546757 9.35453243 -6.5625 6.9375 C-6.375 4.4375 -6.375 4.4375 -5.5625 1.9375 C-2.5625 -0.0625 -2.5625 -0.0625 0 0 Z " fill="#848484" transform="translate(430.5625,348.0625)"/>
<path d="M0 0 C5.56818182 0.56818182 5.56818182 0.56818182 7 2 C7.25 4.9375 7.25 4.9375 7 8 C4 10 4 10 1.4375 9.75 C-1 9 -1 9 -3 7 C-2.67028521 3.70285207 -2.3773161 2.3773161 0 0 Z " fill="#848484" transform="translate(293,308)"/>
<path d="M0 0 C2.4375 0.75 2.4375 0.75 4.4375 2.75 C4.10778521 6.04714793 3.8148161 7.3726839 1.4375 9.75 C-4.13068182 9.18181818 -4.13068182 9.18181818 -5.5625 7.75 C-5.8125 4.8125 -5.8125 4.8125 -5.5625 1.75 C-2.5625 -0.25 -2.5625 -0.25 0 0 Z " fill="#848484" transform="translate(1148.5625,308.25)"/>
<path d="M0 0 C5.56818182 0.56818182 5.56818182 0.56818182 7 2 C7.25 4.9375 7.25 4.9375 7 8 C4 10 4 10 1.4375 9.75 C-1 9 -1 9 -3 7 C-2.67028521 3.70285207 -2.3773161 2.3773161 0 0 Z " fill="#848484" transform="translate(876,308)"/>
<path d="M0 0 C2.4375 0.9375 2.4375 0.9375 3.9375 3.25 C4.4375 5.9375 4.4375 5.9375 3.0625 8.25 C2.52625 8.806875 1.99 9.36375 1.4375 9.9375 C-1.4375 9.625 -1.4375 9.625 -4.5625 8.9375 C-6.5625 5.9375 -6.5625 5.9375 -6.375 3.875 C-5.0555249 0.72855937 -3.31899742 -0.08095116 0 0 Z " fill="#848484" transform="translate(700.5625,308.0625)"/>
<path d="M0 0 C2.4375 0.9375 2.4375 0.9375 3.75 3.5 C4.0903125 4.7065625 4.0903125 4.7065625 4.4375 5.9375 C2.75 8 2.75 8 0.4375 9.9375 C-2.95404295 9.77599795 -4.14546757 9.35453243 -6.5625 6.9375 C-6.375 4.4375 -6.375 4.4375 -5.5625 1.9375 C-2.5625 -0.0625 -2.5625 -0.0625 0 0 Z " fill="#848484" transform="translate(476.5625,308.0625)"/>
<path d="M0 0 C3 0.25 3 0.25 5 2.25 C5.3125 4.75 5.3125 4.75 5 7.25 C1.76746204 9.40502531 0.74849077 9.71856135 -3 9.25 C-4.875 8 -4.875 8 -6 6.25 C-5.62460983 2.12070811 -4.23466276 0.35288856 0 0 Z " fill="#848484" transform="translate(117,269.75)"/>
<path d="M0 0 C3.5625 0.1875 3.5625 0.1875 5.5625 2.1875 C5.8125 4.6875 5.8125 4.6875 5.5625 7.1875 C3.5625 9.1875 3.5625 9.1875 0.5625 9.4375 C-2.4375 9.1875 -2.4375 9.1875 -4.4375 7.1875 C-4.625 4.125 -4.625 4.125 -4.4375 1.1875 C-3.4375 0.1875 -3.4375 0.1875 0 0 Z " fill="#848484" transform="translate(1148.4375,229.8125)"/>
<path d="M0 0 C3.5625 0.1875 3.5625 0.1875 5.5625 2.1875 C5.8125 4.6875 5.8125 4.6875 5.5625 7.1875 C3.5625 9.1875 3.5625 9.1875 0.5625 9.4375 C-2.4375 9.1875 -2.4375 9.1875 -4.4375 7.1875 C-4.625 4.125 -4.625 4.125 -4.4375 1.1875 C-3.4375 0.1875 -3.4375 0.1875 0 0 Z " fill="#848484" transform="translate(565.4375,229.8125)"/>
<path d="M0 0 C2 2 2 2 2.25 4.5 C2 7 2 7 0 9 C-5.33333333 9.33333333 -5.33333333 9.33333333 -8 8 C-8 5.69 -8 3.38 -8 1 C-5.23749964 -0.38125018 -3.05268901 -0.19079306 0 0 Z " fill="#848484" transform="translate(1287,190)"/>
<path d="M0 0 C3.0625 0.3125 3.0625 0.3125 5 1.5625 C6.0625 3.3125 6.0625 3.3125 5.875 5.375 C5.0625 7.3125 5.0625 7.3125 3.0625 9.3125 C-0.5625 8.9375 -0.5625 8.9375 -3.9375 8.3125 C-4.5625 5.4375 -4.5625 5.4375 -4.9375 2.3125 C-2.9375 0.3125 -2.9375 0.3125 0 0 Z " fill="#848484" transform="translate(430.9375,189.6875)"/>
<path d="M0 0 C3.0625 0.3125 3.0625 0.3125 4.9375 1.8125 C5.30875 2.3075 5.68 2.8025 6.0625 3.3125 C4.1875 8.1875 4.1875 8.1875 3.0625 9.3125 C0.72305264 9.02519945 -1.6114143 8.69313221 -3.9375 8.3125 C-4.5625 5.4375 -4.5625 5.4375 -4.9375 2.3125 C-2.9375 0.3125 -2.9375 0.3125 0 0 Z " fill="#848484" transform="translate(1280.9375,466.6875)"/>
<path d="M0 0 C2.4375 0.6875 2.4375 0.6875 4.4375 1.6875 C4.1075 3.9975 3.7775 6.3075 3.4375 8.6875 C-2.00986842 10.01907895 -2.00986842 10.01907895 -4.4375 8.5625 C-5.93227553 6.07120746 -6.00180917 4.54300958 -5.5625 1.6875 C-2.5625 -0.3125 -2.5625 -0.3125 0 0 Z " fill="#848484" transform="translate(1282.5625,387.3125)"/>
<path d="M0 0 C2.4375 0.75 2.4375 0.75 4.4375 2.75 C4.10778521 6.04714793 3.8148161 7.3726839 1.4375 9.75 C-1.6875 9.375 -1.6875 9.375 -4.5625 8.75 C-4.8925 6.44 -5.2225 4.13 -5.5625 1.75 C-2.5625 -0.25 -2.5625 -0.25 0 0 Z " fill="#848484" transform="translate(475.5625,387.25)"/>
<path d="M0 0 C2.4375 0.875 2.4375 0.875 3.875 2.6875 C4.4375 4.875 4.4375 4.875 3.875 7.0625 C2.4375 8.875 2.4375 8.875 0.0625 9.8125 C-3.17189697 9.88950945 -4.23347204 9.03150737 -6.5625 6.875 C-6.25 4.5 -6.25 4.5 -5.5625 1.875 C-2.5625 -0.125 -2.5625 -0.125 0 0 Z " fill="#848484" transform="translate(969.5625,348.125)"/>
<path d="M0 0 C1 1 1 1 1.25 3.375 C1 6 1 6 -0.1875 7.875 C-2 9 -2 9 -4.5625 8.8125 C-7 8 -7 8 -9 6 C-8.75 2.9375 -8.75 2.9375 -8 0 C-5.11795733 -1.44102133 -3.08226581 -0.65580124 0 0 Z " fill="#848484" transform="translate(747,349)"/>
<path d="M0 0 C2.375 0.875 2.375 0.875 4.375 2.875 C4.1875 5.375 4.1875 5.375 3.375 7.875 C0.375 9.875 0.375 9.875 -2.1875 9.8125 C-4.625 8.875 -4.625 8.875 -5.9375 6.3125 C-6.164375 5.508125 -6.39125 4.70375 -6.625 3.875 C-3.325 -0.15833333 -3.325 -0.15833333 0 0 Z " fill="#848484" transform="translate(1283.625,308.125)"/>
<path d="M0 0 C2.4375 0.6875 2.4375 0.6875 4.4375 1.6875 C4.66482116 4.49112763 4.77831872 6.14936517 3.25 8.5625 C1.4375 9.6875 1.4375 9.6875 -1.125 9.5 C-3.5625 8.6875 -3.5625 8.6875 -5.5625 6.6875 C-5.875 4.1875 -5.875 4.1875 -5.5625 1.6875 C-2.5625 -0.3125 -2.5625 -0.3125 0 0 Z " fill="#848484" transform="translate(1013.5625,308.3125)"/>
<path d="M0 0 C2.375 0.6875 2.375 0.6875 3.375 1.6875 C3.625 4.625 3.625 4.625 3.375 7.6875 C0.375 9.6875 0.375 9.6875 -2.1875 9.4375 C-4.625 8.6875 -4.625 8.6875 -6.625 6.6875 C-6.4375 4.1875 -6.4375 4.1875 -5.625 1.6875 C-2.625 -0.3125 -2.625 -0.3125 0 0 Z " fill="#848484" transform="translate(835.625,308.3125)"/>
<path d="M0 0 C2.375 0.875 2.375 0.875 4.375 2.875 C4.1875 5.375 4.1875 5.375 3.375 7.875 C0.375 9.875 0.375 9.875 -2.1875 9.8125 C-4.625 8.875 -4.625 8.875 -5.9375 6.3125 C-6.164375 5.508125 -6.39125 4.70375 -6.625 3.875 C-3.325 -0.15833333 -3.325 -0.15833333 0 0 Z " fill="#848484" transform="translate(744.625,308.125)"/>
<path d="M0 0 C1.670625 0.061875 1.670625 0.061875 3.375 0.125 C4.5625 2.375 4.5625 2.375 5.375 5.125 C4 7.4375 4 7.4375 2.375 9.125 C0.065 8.795 -2.245 8.465 -4.625 8.125 C-5.25 5.25 -5.25 5.25 -5.625 2.125 C-3.625 0.125 -3.625 0.125 0 0 Z " fill="#848484" transform="translate(430.625,269.875)"/>
<path d="M0 0 C2 2 2 2 2.25 4.5 C2 7 2 7 0 9 C-3 9.25 -3 9.25 -6 9 C-8 7 -8 7 -8.125 3.875 C-8.08375 2.92625 -8.0425 1.9775 -8 1 C-5.23749964 -0.38125018 -3.05268901 -0.19079306 0 0 Z " fill="#848484" transform="translate(344,270)"/>
<path d="M0 0 C3.5625 0.1875 3.5625 0.1875 5.5625 2.1875 C5.1875 5.3125 5.1875 5.3125 4.5625 8.1875 C-2.1875 9.3125 -2.1875 9.3125 -4.4375 8.1875 C-4.47991723 5.85455225 -4.47842937 3.52047433 -4.4375 1.1875 C-3.4375 0.1875 -3.4375 0.1875 0 0 Z " fill="#848484" transform="translate(1283.4375,229.8125)"/>
<path d="M0 0 C2 2 2 2 2.25 4.5 C2 7 2 7 0 9 C-3 9.25 -3 9.25 -6 9 C-8 7 -8 7 -8.125 3.875 C-8.08375 2.92625 -8.0425 1.9775 -8 1 C-5.23749964 -0.38125018 -3.05268901 -0.19079306 0 0 Z " fill="#848484" transform="translate(1197,230)"/>
<path d="M0 0 C3 0.1875 3 0.1875 5 1.1875 C5.125 4.0625 5.125 4.0625 5 7.1875 C3 9.1875 3 9.1875 0 9.4375 C-3 9.1875 -3 9.1875 -5 7.1875 C-5.25 4.6875 -5.25 4.6875 -5 2.1875 C-3 0.1875 -3 0.1875 0 0 Z " fill="#848484" transform="translate(1103,229.8125)"/>
<path d="M0 0 C0.6875 2.3125 0.6875 2.3125 1 5 C-0.125 6.8125 -0.125 6.8125 -2 8 C-4.91343893 8.43701584 -6.37186206 8.39782069 -8.875 6.8125 C-10 5 -10 5 -9.8125 2.375 C-8.11905613 -2.57506671 -4.34284193 -0.72380699 0 0 Z " fill="#848484" transform="translate(1199,191)"/>
<path d="M0 0 C3.0625 0.4375 3.0625 0.4375 4.9375 2.9375 C5.30875 3.7625 5.68 4.5875 6.0625 5.4375 C4.9375 7.4375 4.9375 7.4375 3.0625 9.4375 C0 9.8125 0 9.8125 -2.9375 9.4375 C-4.9375 7.4375 -4.9375 7.4375 -5.1875 4.9375 C-4.80904126 1.15291264 -3.68141281 0.54829553 0 0 Z " fill="#848484" transform="translate(1148.9375,189.5625)"/>
<path d="M0 0 C3.22297721 -0.4114439 5.16812172 -0.53669566 7.9375 1.25 C9 3 9 3 8.8125 5.0625 C8 7 8 7 6 9 C2.375 8.625 2.375 8.625 -1 8 C-1.625 5.6875 -1.625 5.6875 -2 3 C-1.34 2.01 -0.68 1.02 0 0 Z " fill="#848484" transform="translate(967,190)"/>
<path d="M0 0 C1.31236443 4.4143167 1.31236443 4.4143167 0 6.875 C-3.10259257 8.62020832 -5.6273707 7.69997967 -9 7 C-10.31236443 2.5856833 -10.31236443 2.5856833 -9 0.125 C-5.89740743 -1.62020832 -3.3726293 -0.69997967 0 0 Z " fill="#848484" transform="translate(884,191)"/>
<path d="M0 0 C3 0.25 3 0.25 5 2.25 C5.25 4.75 5.25 4.75 5 7.25 C3 9.25 3 9.25 0 9.4375 C-3 9.25 -3 9.25 -5 8.25 C-5.125 5.375 -5.125 5.375 -5 2.25 C-3 0.25 -3 0.25 0 0 Z " fill="#848484" transform="translate(745,189.75)"/>
<path d="M0 0 C3 0.25 3 0.25 5 2.25 C5.25 4.75 5.25 4.75 5 7.25 C3 9.25 3 9.25 0 9.5 C-3 9.25 -3 9.25 -5 7.25 C-5.25 4.75 -5.25 4.75 -5 2.25 C-3 0.25 -3 0.25 0 0 Z " fill="#848484" transform="translate(1192,466.75)"/>
<path d="M0 0 C0.125 2.875 0.125 2.875 0 6 C-2 8 -2 8 -4.4375 8.3125 C-7 8 -7 8 -8.875 6.8125 C-10 5 -10 5 -9.9375 2.4375 C-9 0 -9 0 -7.25 -1.4375 C-4.25020339 -2.18744915 -2.7110745 -1.35553725 0 0 Z " fill="#848484" transform="translate(747,468)"/>
<path d="M0 0 C3 0.25 3 0.25 5 2.25 C5.25 4.75 5.25 4.75 5 7.25 C3 9.25 3 9.25 0 9.5 C-3 9.25 -3 9.25 -5 7.25 C-5.25 4.75 -5.25 4.75 -5 2.25 C-3 0.25 -3 0.25 0 0 Z " fill="#848484" transform="translate(609,466.75)"/>
<path d="M0 0 C3 0.25 3 0.25 5 2.25 C5.25 4.75 5.25 4.75 5 7.25 C3 9.25 3 9.25 0 9.5 C-3 9.25 -3 9.25 -5 7.25 C-5.25 4.75 -5.25 4.75 -5 2.25 C-3 0.25 -3 0.25 0 0 Z " fill="#848484" transform="translate(518,466.75)"/>
<path d="M0 0 C2.4375 0.75 2.4375 0.75 4.4375 2.75 C4.25 5.25 4.25 5.25 3.4375 7.75 C0.4375 9.75 0.4375 9.75 -2.1875 9.4375 C-4.5625 8.75 -4.5625 8.75 -5.5625 7.75 C-5.8125 4.8125 -5.8125 4.8125 -5.5625 1.75 C-2.5625 -0.25 -2.5625 -0.25 0 0 Z " fill="#848484" transform="translate(878.5625,387.25)"/>
<path d="M0 0 C2.4375 0.75 2.4375 0.75 4.4375 2.75 C4.25 5.25 4.25 5.25 3.4375 7.75 C0.4375 9.75 0.4375 9.75 -2.1875 9.4375 C-4.5625 8.75 -4.5625 8.75 -5.5625 7.75 C-5.8125 4.8125 -5.8125 4.8125 -5.5625 1.75 C-2.5625 -0.25 -2.5625 -0.25 0 0 Z " fill="#848484" transform="translate(610.5625,387.25)"/>
<path d="M0 0 C2.4375 0.75 2.4375 0.75 4.4375 2.75 C4.25 5.25 4.25 5.25 3.4375 7.75 C0.4375 9.75 0.4375 9.75 -2.1875 9.4375 C-4.5625 8.75 -4.5625 8.75 -5.5625 7.75 C-5.8125 4.8125 -5.8125 4.8125 -5.5625 1.75 C-2.5625 -0.25 -2.5625 -0.25 0 0 Z " fill="#848484" transform="translate(878.5625,348.25)"/>
<path d="M0 0 C2.4375 0.75 2.4375 0.75 4.4375 2.75 C4.25 5.25 4.25 5.25 3.4375 7.75 C0.4375 9.75 0.4375 9.75 -2.1875 9.4375 C-4.5625 8.75 -4.5625 8.75 -5.5625 7.75 C-5.8125 4.8125 -5.8125 4.8125 -5.5625 1.75 C-2.5625 -0.25 -2.5625 -0.25 0 0 Z " fill="#848484" transform="translate(610.5625,348.25)"/>
<path d="M0 0 C2.4375 0.75 2.4375 0.75 4.4375 2.75 C4.25 5.25 4.25 5.25 3.4375 7.75 C0.4375 9.75 0.4375 9.75 -2.1875 9.4375 C-4.5625 8.75 -4.5625 8.75 -5.5625 7.75 C-5.8125 4.8125 -5.8125 4.8125 -5.5625 1.75 C-2.5625 -0.25 -2.5625 -0.25 0 0 Z " fill="#848484" transform="translate(341.5625,308.25)"/>
<path d="M0 0 C2.375 0.6875 2.375 0.6875 3.375 1.6875 C3.625 4.625 3.625 4.625 3.375 7.6875 C0.375 9.6875 0.375 9.6875 -2.1875 9.4375 C-4.625 8.6875 -4.625 8.6875 -6.625 6.6875 C-6.4375 4.1875 -6.4375 4.1875 -5.625 1.6875 C-2.625 -0.3125 -2.625 -0.3125 0 0 Z " fill="#848484" transform="translate(161.625,308.3125)"/>
<path d="M0 0 C3 0.25 3 0.25 5 2.25 C5.25 4.75 5.25 4.75 5 7.25 C3 9.25 3 9.25 0 9.5 C-3 9.25 -3 9.25 -5 7.25 C-5.25 4.75 -5.25 4.75 -5 2.25 C-3 0.25 -3 0.25 0 0 Z " fill="#848484" transform="translate(1283,269.75)"/>
<path d="M0 0 C3 0.25 3 0.25 5 2.25 C5.25 4.75 5.25 4.75 5 7.25 C3 9.25 3 9.25 0 9.5 C-3 9.25 -3 9.25 -5 7.25 C-5.25 4.75 -5.25 4.75 -5 2.25 C-3 0.25 -3 0.25 0 0 Z " fill="#848484" transform="translate(700,269.75)"/>
<path d="M0 0 C3.5625 0.1875 3.5625 0.1875 5.5625 2.1875 C5.1875 5.3125 5.1875 5.3125 4.5625 8.1875 C1.1875 8.8125 1.1875 8.8125 -2.4375 9.1875 C-4.4375 7.1875 -4.4375 7.1875 -4.625 4.125 C-4.35625459 -0.08534477 -4.30809085 0.23498677 0 0 Z " fill="#848484" transform="translate(295.4375,269.8125)"/>
<path d="M0 0 C3 0.25 3 0.25 5 2.25 C5.25 4.75 5.25 4.75 5 7.25 C3 9.25 3 9.25 0 9.5 C-3 9.25 -3 9.25 -5 7.25 C-5.25 4.75 -5.25 4.75 -5 2.25 C-3 0.25 -3 0.25 0 0 Z " fill="#848484" transform="translate(1238,229.75)"/>
<path d="M0 0 C3 0.25 3 0.25 5 2.25 C5.25 4.75 5.25 4.75 5 7.25 C3 9.25 3 9.25 0 9.5 C-3 9.25 -3 9.25 -5 7.25 C-5.25 4.75 -5.25 4.75 -5 2.25 C-3 0.25 -3 0.25 0 0 Z " fill="#848484" transform="translate(1014,229.75)"/>
<path d="M0 0 C3 0.25 3 0.25 5 2.25 C5.25 4.75 5.25 4.75 5 7.25 C3 9.25 3 9.25 0 9.5 C-3 9.25 -3 9.25 -5 7.25 C-5.25 4.75 -5.25 4.75 -5 2.25 C-3 0.25 -3 0.25 0 0 Z " fill="#848484" transform="translate(970,229.75)"/>
<path d="M0 0 C3 0.25 3 0.25 5 2.25 C5.25 4.75 5.25 4.75 5 7.25 C3 9.25 3 9.25 0 9.5 C-3 9.25 -3 9.25 -5 7.25 C-5.25 4.75 -5.25 4.75 -5 2.25 C-3 0.25 -3 0.25 0 0 Z " fill="#848484" transform="translate(879,229.75)"/>
<path d="M0 0 C3 0.25 3 0.25 5 2.25 C5.25 4.75 5.25 4.75 5 7.25 C3 9.25 3 9.25 0 9.5 C-3 9.25 -3 9.25 -5 7.25 C-5.25 4.75 -5.25 4.75 -5 2.25 C-3 0.25 -3 0.25 0 0 Z " fill="#848484" transform="translate(835,229.75)"/>
<path d="M0 0 C3 0.25 3 0.25 5 2.25 C5.25 4.75 5.25 4.75 5 7.25 C3 9.25 3 9.25 0 9.5 C-3 9.25 -3 9.25 -5 7.25 C-5.25 4.75 -5.25 4.75 -5 2.25 C-3 0.25 -3 0.25 0 0 Z " fill="#848484" transform="translate(431,229.75)"/>
<path d="M0 0 C3 0.25 3 0.25 5 2.25 C5.25 4.75 5.25 4.75 5 7.25 C3 9.25 3 9.25 0 9.5 C-3 9.25 -3 9.25 -5 7.25 C-5.25 4.75 -5.25 4.75 -5 2.25 C-3 0.25 -3 0.25 0 0 Z " fill="#848484" transform="translate(296,229.75)"/>
<path d="M0 0 C3 0.25 3 0.25 5 2.25 C5.25 4.75 5.25 4.75 5 7.25 C3 9.25 3 9.25 0 9.5 C-3 9.25 -3 9.25 -5 7.25 C-5.25 4.75 -5.25 4.75 -5 2.25 C-3 0.25 -3 0.25 0 0 Z " fill="#848484" transform="translate(252,229.75)"/>
<path d="M0 0 C3.0625 0.125 3.0625 0.125 5.0625 1.125 C5.1875 4 5.1875 4 5.0625 7.125 C3.0625 9.125 3.0625 9.125 0.0625 9.4375 C-0.9275 9.334375 -1.9175 9.23125 -2.9375 9.125 C-4.9375 6.125 -4.9375 6.125 -4.625 3.5 C-3.65688776 0.15561224 -3.65688776 0.15561224 0 0 Z " fill="#848484" transform="translate(160.9375,229.875)"/>
<path d="M0 0 C3.0625 0.125 3.0625 0.125 5.0625 1.125 C5.1875 4 5.1875 4 5.0625 7.125 C3.0625 9.125 3.0625 9.125 0.0625 9.4375 C-0.9275 9.334375 -1.9175 9.23125 -2.9375 9.125 C-4.9375 6.125 -4.9375 6.125 -4.625 3.5 C-3.65688776 0.15561224 -3.65688776 0.15561224 0 0 Z " fill="#848484" transform="translate(116.9375,229.875)"/>
<path d="M0 0 C2 2 2 2 2.125 5.125 C2.08375 6.07375 2.0425 7.0225 2 8 C-0.76250036 9.38125018 -2.94731099 9.19079306 -6 9 C-8 7 -8 7 -8.3125 4.5 C-8.209375 3.675 -8.10625 2.85 -8 2 C-4.77626323 -0.14915785 -3.73296326 -0.38286803 0 0 Z " fill="#848484" transform="translate(793,190)"/>
<path d="M0 0 C3 0.25 3 0.25 5 2.25 C5.25 4.75 5.25 4.75 5 7.25 C3 9.25 3 9.25 0 9.5 C-3 9.25 -3 9.25 -5 7.25 C-5.25 4.75 -5.25 4.75 -5 2.25 C-3 0.25 -3 0.25 0 0 Z " fill="#848484" transform="translate(701,189.75)"/>
<path d="M0 0 C3 0.25 3 0.25 5 2.25 C5.25 4.75 5.25 4.75 5 7.25 C3 9.25 3 9.25 0 9.5 C-3 9.25 -3 9.25 -5 7.25 C-5.25 4.75 -5.25 4.75 -5 2.25 C-3 0.25 -3 0.25 0 0 Z " fill="#848484" transform="translate(566,189.75)"/>
<path d="M0 0 C3 0.25 3 0.25 5 2.25 C5.25 4.75 5.25 4.75 5 7.25 C3 9.25 3 9.25 0 9.5 C-3 9.25 -3 9.25 -5 7.25 C-5.25 4.75 -5.25 4.75 -5 2.25 C-3 0.25 -3 0.25 0 0 Z " fill="#848484" transform="translate(118,189.75)"/>
<path d="M0 0 C3.0625 0.1875 3.0625 0.1875 5.0625 2.1875 C5.3125 4.6875 5.3125 4.6875 5.0625 7.1875 C3.0625 9.1875 3.0625 9.1875 0.0625 9.5 C-0.9275 9.396875 -1.9175 9.29375 -2.9375 9.1875 C-4.9375 6.1875 -4.9375 6.1875 -4.625 3.5625 C-3.63731654 0.1505026 -3.65603948 0.23336422 0 0 Z " fill="#848484" transform="translate(473.9375,466.8125)"/>
<path d="M0 0 C2.61580479 0.3269756 4.64078137 0.82039068 7 2 C7.22732116 4.80362763 7.34081872 6.46186517 5.8125 8.875 C4 10 4 10 1.4375 9.8125 C-1 9 -1 9 -3 7 C-2.67028521 3.70285207 -2.3773161 2.3773161 0 0 Z " fill="#848484" transform="translate(741,387)"/>
<path d="M0 0 C2.4375 0.75 2.4375 0.75 4.4375 2.75 C4.10778521 6.04714793 3.8148161 7.3726839 1.4375 9.75 C-1.85964793 9.42028521 -3.1851839 9.1273161 -5.5625 6.75 C-5.875 4.25 -5.875 4.25 -5.5625 1.75 C-2.5625 -0.25 -2.5625 -0.25 0 0 Z " fill="#848484" transform="translate(969.5625,308.25)"/>
<path d="M0 0 C3 0.1875 3 0.1875 5 1.1875 C5.125 4.0625 5.125 4.0625 5 7.1875 C4.34 7.8475 3.68 8.5075 3 9.1875 C-0.625 8.8125 -0.625 8.8125 -4 8.1875 C-4.625 5.3125 -4.625 5.3125 -5 2.1875 C-3 0.1875 -3 0.1875 0 0 Z " fill="#848484" transform="translate(1148,269.8125)"/>
<path d="M0 0 C1.134375 0.020625 2.26875 0.04125 3.4375 0.0625 C4.625 2.3125 4.625 2.3125 5.4375 5.0625 C4.375 7.375 4.375 7.375 2.4375 9.0625 C-0.49914297 9.57641252 -1.91126331 9.4749499 -4.4375 7.875 C-5.5625 6.0625 -5.5625 6.0625 -5.3125 3.4375 C-4.13833415 -0.28069186 -4.1698646 0.07315552 0 0 Z " fill="#848484" transform="translate(969.5625,269.9375)"/>
<path d="M0 0 C1.175625 0.0825 2.35125 0.165 3.5625 0.25 C5.5625 3.25 5.5625 3.25 5.1875 5.9375 C4.98125 6.700625 4.775 7.46375 4.5625 8.25 C1.1875 8.875 1.1875 8.875 -2.4375 9.25 C-4.4375 7.25 -4.4375 7.25 -4.625 4.1875 C-4.35637999 -0.02088008 -4.30150996 0.31283709 0 0 Z " fill="#848484" transform="translate(878.4375,269.75)"/>
<path d="M0 0 C0.66 0.66 1.32 1.32 2 2 C1.625 5.125 1.625 5.125 1 8 C-2.375 8.625 -2.375 8.625 -6 9 C-8 7 -8 7 -8.125 3.875 C-8.08375 2.92625 -8.0425 1.9775 -8 1 C-5.23749964 -0.38125018 -3.05268901 -0.19079306 0 0 Z " fill="#848484" transform="translate(838,270)"/>
<path d="M0 0 C3 0.25 3 0.25 5 2.25 C5.3125 4.75 5.3125 4.75 5 7.25 C1.77626323 9.39915785 0.73296326 9.63286803 -3 9.25 C-5 7.25 -5 7.25 -5.25 4.75 C-4.86630891 0.91308908 -3.76694968 0.31391247 0 0 Z " fill="#848484" transform="translate(744,269.75)"/>
<path d="M0 0 C3 0.1875 3 0.1875 5 1.1875 C5.125 4.0625 5.125 4.0625 5 7.1875 C4.34 7.8475 3.68 8.5075 3 9.1875 C-0.625 8.8125 -0.625 8.8125 -4 8.1875 C-4.625 5.3125 -4.625 5.3125 -5 2.1875 C-3 0.1875 -3 0.1875 0 0 Z " fill="#848484" transform="translate(565,269.8125)"/>
<path d="M0 0 C0.125 2.875 0.125 2.875 0 6 C-0.66 6.66 -1.32 7.32 -2 8 C-8.57692308 7.42307692 -8.57692308 7.42307692 -10 6 C-10.25 3.5625 -10.25 3.5625 -10 1 C-6.1496895 -1.56687367 -4.41430237 -0.83288724 0 0 Z " fill="#848484" transform="translate(1334,191)"/>
<path d="M0 0 C0.6875 2.3125 0.6875 2.3125 1 5 C-0.125 6.8125 -0.125 6.8125 -2 8 C-4.5 8.4375 -4.5 8.4375 -7 8 C-8.875 6.25 -8.875 6.25 -10 4 C-9.8125 1.8125 -9.8125 1.8125 -9 0 C-5.93109813 -1.53445094 -3.29905734 -0.54984289 0 0 Z " fill="#848484" transform="translate(1243,191)"/>
<path d="M0 0 C3 0.25 3 0.25 5 2.25 C4.43181818 7.81818182 4.43181818 7.81818182 3 9.25 C0.0625 9.4375 0.0625 9.4375 -3 9.25 C-5 7.25 -5 7.25 -5.25 4.75 C-4.86630891 0.91308908 -3.76694968 0.31391247 0 0 Z " fill="#848484" transform="translate(1104,189.75)"/>
<path d="M0 0 C6.57692308 0.57692308 6.57692308 0.57692308 8 2 C8.1875 4.4375 8.1875 4.4375 8 7 C6 9 6 9 3 9.25 C0 9 0 9 -2 7 C-2.25 4.5 -2.25 4.5 -2 2 C-1.34 1.34 -0.68 0.68 0 0 Z " fill="#848484" transform="translate(159,190)"/>
<path d="M0 0 C3 0.25 3 0.25 5 2.25 C4.625 5.375 4.625 5.375 4 8.25 C0.625 8.875 0.625 8.875 -3 9.25 C-5 7.25 -5 7.25 -5.25 4.75 C-4.86630891 0.91308908 -3.76694968 0.31391247 0 0 Z " fill="#848484" transform="translate(161,269.75)"/>
<path d="M0 0 C0.6875 2.3125 0.6875 2.3125 1 5 C-0.125 6.8125 -0.125 6.8125 -2 8 C-4.5625 8.3125 -4.5625 8.3125 -7 8 C-9 6 -9 6 -9.125 2.875 C-9.08375 1.92625 -9.0425 0.9775 -9 0 C-5.93109813 -1.53445094 -3.29905734 -0.54984289 0 0 Z " fill="#848484" transform="translate(301,191)"/>
<path d="M0 0 C0.6875 2.3125 0.6875 2.3125 1 5 C-0.125 6.8125 -0.125 6.8125 -2 8 C-4.5625 8.3125 -4.5625 8.3125 -7 8 C-9 6 -9 6 -9.125 2.875 C-9.08375 1.92625 -9.0425 0.9775 -9 0 C-5.93109813 -1.53445094 -3.29905734 -0.54984289 0 0 Z " fill="#848484" transform="translate(840,191)"/>
<path d="M0 0 C0.6875 2.3125 0.6875 2.3125 1 5 C-0.125 6.8125 -0.125 6.8125 -2 8 C-4.5625 8.3125 -4.5625 8.3125 -7 8 C-9 6 -9 6 -9.125 2.875 C-9.08375 1.92625 -9.0425 0.9775 -9 0 C-5.93109813 -1.53445094 -3.29905734 -0.54984289 0 0 Z " fill="#848484" transform="translate(257,191)"/>
<path d="M0 0 C0.66 0.66 1.32 1.32 2 2 C1.625 4.625 1.625 4.625 1 7 C0.01 7 -0.98 7 -2 7 C-1.34 4.69 -0.68 2.38 0 0 Z " fill="#848484" transform="translate(387,468)"/>
<path d="M0 0 C1.65 0 3.3 0 5 0 C5 0.66 5 1.32 5 2 C3.35 1.67 1.7 1.34 0 1 C0 0.67 0 0.34 0 0 Z " fill="#848484" transform="translate(1233,494)"/>
<path d="M0 0 C1.65 0 3.3 0 5 0 C5 0.66 5 1.32 5 2 C3.35 1.67 1.7 1.34 0 1 C0 0.67 0 0.34 0 0 Z " fill="#848484" transform="translate(515,494)"/>
<path d="M0 0 C0.66 0 1.32 0 2 0 C1.67 1.32 1.34 2.64 1 4 C0.34 4 -0.32 4 -1 4 C-0.67 2.68 -0.34 1.36 0 0 Z " fill="#414141" transform="translate(323,273)"/>
<path d="M0 0 C0.99 0.33 1.98 0.66 3 1 C2.01 1.99 1.02 2.98 0 4 C0 2.68 0 1.36 0 0 Z " fill="#848484" transform="translate(1040,273)"/>
<path d="M0 0 C1.32 0 2.64 0 4 0 C4 0.66 4 1.32 4 2 C2.68 2 1.36 2 0 2 C0 1.34 0 0.68 0 0 Z " fill="#848484" transform="translate(698,249)"/>
<path d="M0 0 C0.99 0 1.98 0 3 0 C2.67 0.99 2.34 1.98 2 3 C1.34 2.67 0.68 2.34 0 2 C0 1.34 0 0.68 0 0 Z " fill="#434343" transform="translate(682,193)"/>
<path d="" fill="#848484" transform="translate(0,0)"/>
</svg>
