<?xml version="1.0" encoding="UTF-8"?>
<svg version="1.1" xmlns="http://www.w3.org/2000/svg" width="2000" height="1000">
<path d="M0 0 C3.58338132 2.29877292 5.57409416 3.84754889 7.0625 7.875 C6.98115298 11.94235089 6.00049282 14.46579601 4 18 C1.30471694 20.25821013 -0.48357833 20.91209844 -3.9375 21.5 C-7.22145327 20.96384436 -9.38997682 20.0322582 -11.859375 17.7578125 C-14.20677867 14.14023834 -13.7996977 10.09257058 -13 6 C-9.77516125 0.55113453 -6.21377346 -0.73103217 0 0 Z " fill="#CDCDCD" transform="translate(1697,604)"/>
<path d="M0 0 C2.96306091 2.05134986 3.80171292 3.40513876 4.9375 6.8125 C5.01887093 10.96241767 4.03804579 13.39945244 2 17 C-0.69528306 19.25821013 -2.48357833 19.91209844 -5.9375 20.5 C-9.22145327 19.96384436 -11.38997682 19.0322582 -13.859375 16.7578125 C-16.20677867 13.14023834 -15.7996977 9.09257058 -15 5 C-11.28034796 -1.28492931 -6.79360022 -1.75318715 0 0 Z " fill="#CDCDCD" transform="translate(1794,605)"/>
<path d="M0 0 C2.72411796 2.17929437 3.7573387 3.72429487 4.41015625 7.15625 C4.69804735 11.58534383 4.45132005 13.42991152 1.625 17 C-2.17123386 19.89236866 -4.20194585 20.55362163 -9 20 C-13.30888031 17.60617761 -13.30888031 17.60617761 -15 15 C-16.06468648 10.07985794 -15.75480729 6.27536404 -13.1875 1.9375 C-9.154454 -1.63462646 -4.98509794 -1.4243137 0 0 Z " fill="#CDCDCD" transform="translate(1981,605)"/>
<path d="M0 0 C2.72411796 2.17929437 3.7573387 3.72429487 4.41015625 7.15625 C4.69804735 11.58534383 4.45132005 13.42991152 1.625 17 C-2.17123386 19.89236866 -4.20194585 20.55362163 -9 20 C-13.30888031 17.60617761 -13.30888031 17.60617761 -15 15 C-16.06468648 10.07985794 -15.75480729 6.27536404 -13.1875 1.9375 C-9.154454 -1.63462646 -4.98509794 -1.4243137 0 0 Z " fill="#CDCDCD" transform="translate(1886,605)"/>
<path d="M0 0 C2.72411796 2.17929437 3.7573387 3.72429487 4.41015625 7.15625 C4.69804735 11.58534383 4.45132005 13.42991152 1.625 17 C-2.17123386 19.89236866 -4.20194585 20.55362163 -9 20 C-13.29980658 17.61121857 -13.29980658 17.61121857 -15 15 C-15.80622519 11.51207543 -15.78527569 8.49075105 -15 5 C-10.60692467 -0.66475503 -6.90743017 -1.93844878 0 0 Z " fill="#CDCDCD" transform="translate(1607,605)"/>
<path d="M0 0 C3.95364129 2.46170118 5.67678008 3.9542885 7.0625 8.4375 C6.99077767 12.52567307 6.27796642 14.62232566 4 18 C1.53663875 19.93549813 -0.23435451 20.03037929 -3.375 20.4375 C-8.15229497 19.86092992 -9.91708171 18.68446332 -13 15 C-14.0945995 10.37928608 -13.63551678 7.05188984 -11.1875 3 C-7.71855974 -0.17160252 -4.56698445 -0.53729229 0 0 Z " fill="#CDCDCD" transform="translate(1695,878)"/>
<path d="M0 0 C3.95364129 2.46170118 5.67678008 3.9542885 7.0625 8.4375 C6.99077767 12.52567307 6.27796642 14.62232566 4 18 C1.53663875 19.93549813 -0.23435451 20.03037929 -3.375 20.4375 C-8.15229497 19.86092992 -9.91708171 18.68446332 -13 15 C-14.0945995 10.37928608 -13.63551678 7.05188984 -11.1875 3 C-7.71855974 -0.17160252 -4.56698445 -0.53729229 0 0 Z " fill="#CDCDCD" transform="translate(758,787)"/>
<path d="M0 0 C3.95364129 2.46170118 5.67678008 3.9542885 7.0625 8.4375 C6.99077767 12.52567307 6.27796642 14.62232566 4 18 C1.53663875 19.93549813 -0.23435451 20.03037929 -3.375 20.4375 C-8.15229497 19.86092992 -9.91708171 18.68446332 -13 15 C-14.0945995 10.37928608 -13.63551678 7.05188984 -11.1875 3 C-7.71855974 -0.17160252 -4.56698445 -0.53729229 0 0 Z " fill="#CDCDCD" transform="translate(1791,786)"/>
<path d="M0 0 C3.95364129 2.46170118 5.67678008 3.9542885 7.0625 8.4375 C6.99077767 12.52567307 6.27796642 14.62232566 4 18 C1.53663875 19.93549813 -0.23435451 20.03037929 -3.375 20.4375 C-8.15229497 19.86092992 -9.91708171 18.68446332 -13 15 C-14.0945995 10.37928608 -13.63551678 7.05188984 -11.1875 3 C-7.71855974 -0.17160252 -4.56698445 -0.53729229 0 0 Z " fill="#CDCDCD" transform="translate(1696,786)"/>
<path d="M0 0 C3.95364129 2.46170118 5.67678008 3.9542885 7.0625 8.4375 C6.99077767 12.52567307 6.27796642 14.62232566 4 18 C1.53663875 19.93549813 -0.23435451 20.03037929 -3.375 20.4375 C-8.15229497 19.86092992 -9.91708171 18.68446332 -13 15 C-14.0945995 10.37928608 -13.63551678 7.05188984 -11.1875 3 C-7.71855974 -0.17160252 -4.56698445 -0.53729229 0 0 Z " fill="#CDCDCD" transform="translate(758,697)"/>
<path d="M0 0 C3.95364129 2.46170118 5.67678008 3.9542885 7.0625 8.4375 C6.99077767 12.52567307 6.27796642 14.62232566 4 18 C1.53663875 19.93549813 -0.23435451 20.03037929 -3.375 20.4375 C-8.15229497 19.86092992 -9.91708171 18.68446332 -13 15 C-14.0945995 10.37928608 -13.63551678 7.05188984 -11.1875 3 C-7.71855974 -0.17160252 -4.56698445 -0.53729229 0 0 Z " fill="#CDCDCD" transform="translate(1791,696)"/>
<path d="M0 0 C3.95364129 2.46170118 5.67678008 3.9542885 7.0625 8.4375 C6.99077767 12.52567307 6.27796642 14.62232566 4 18 C1.53663875 19.93549813 -0.23435451 20.03037929 -3.375 20.4375 C-8.15229497 19.86092992 -9.91708171 18.68446332 -13 15 C-14.0945995 10.37928608 -13.63551678 7.05188984 -11.1875 3 C-7.71855974 -0.17160252 -4.56698445 -0.53729229 0 0 Z " fill="#CDCDCD" transform="translate(1696,696)"/>
<path d="M0 0 C3.58338132 2.29877292 5.57409416 3.84754889 7.0625 7.875 C6.98183615 11.90819246 5.95845889 14.48828061 4 18 C1.51759647 20.03911719 -0.20651298 20.02252869 -3.4375 20.375 C-7.58155564 19.93878362 -9.09130272 18.90869728 -12 16 C-13.6020886 12.79582279 -13.49285215 9.47660568 -13 6 C-9.67099375 0.604714 -6.25269403 -0.73561106 0 0 Z " fill="#CDCDCD" transform="translate(1507,968)"/>
<path d="M0 0 C3.95364129 2.46170118 5.67678008 3.9542885 7.0625 8.4375 C6.99077767 12.52567307 6.27796642 14.62232566 4 18 C1.53663875 19.93549813 -0.23435451 20.03037929 -3.375 20.4375 C-8.15229497 19.86092992 -9.91708171 18.68446332 -13 15 C-13.8022085 11.83127643 -13.78700567 9.17100095 -13 6 C-9.12968039 1.11117523 -6.23433807 -0.7193467 0 0 Z " fill="#CDCDCD" transform="translate(1694,967)"/>
<path d="M0 0 C3.95364129 2.46170118 5.67678008 3.9542885 7.0625 8.4375 C6.99077767 12.52567307 6.27796642 14.62232566 4 18 C0.24613716 20.40919555 -2.59009403 20.1581821 -6.87109375 19.5234375 C-9 19 -9 19 -11.5625 17.5 C-13.73894236 13.71488286 -13.76653246 10.25767037 -13 6 C-9.7239304 0.57753997 -6.23204555 -0.73318183 0 0 Z " fill="#CDCDCD" transform="translate(1226,879)"/>
<path d="M0 0 C3.95364129 2.46170118 5.67678008 3.9542885 7.0625 8.4375 C6.99077767 12.52567307 6.27796642 14.62232566 4 18 C1.53663875 19.93549813 -0.23435451 20.03037929 -3.375 20.4375 C-8.15229497 19.86092992 -9.91708171 18.68446332 -13 15 C-13.8022085 11.83127643 -13.78700567 9.17100095 -13 6 C-9.12968039 1.11117523 -6.23433807 -0.7193467 0 0 Z " fill="#CDCDCD" transform="translate(757,879)"/>
<path d="M0 0 C3.95364129 2.46170118 5.67678008 3.9542885 7.0625 8.4375 C6.99077767 12.52567307 6.27796642 14.62232566 4 18 C1.53663875 19.93549813 -0.23435451 20.03037929 -3.375 20.4375 C-8.15229497 19.86092992 -9.91708171 18.68446332 -13 15 C-13.8022085 11.83127643 -13.78700567 9.17100095 -13 6 C-9.12968039 1.11117523 -6.23433807 -0.7193467 0 0 Z " fill="#CDCDCD" transform="translate(1790,878)"/>
<path d="M0 0 C3.63644344 2.28961253 5.56265451 3.81659457 7.0625 7.875 C6.98183615 11.90819246 5.95845889 14.48828061 4 18 C1.51759647 20.03911719 -0.20651298 20.02252869 -3.4375 20.375 C-7.58155564 19.93878362 -9.09130272 18.90869728 -12 16 C-13.60086627 12.79826746 -13.49917089 9.47422941 -13 6 C-9.39443173 0.35127638 -6.64247344 -0.66424734 0 0 Z " fill="#CDCDCD" transform="translate(1509,787)"/>
<path d="M0 0 C3.99062431 2.48472834 5.68655935 3.96748964 7.0625 8.5 C6.97663991 13.30816501 5.51517785 15.43070865 2.25 18.8125 C-1.08187066 20.57098729 -3.28346973 20.51262487 -7 20 C-10.4375 18.0625 -10.4375 18.0625 -13 15 C-14.0945995 10.37928608 -13.63551678 7.05188984 -11.1875 3 C-7.71855974 -0.17160252 -4.56698445 -0.53729229 0 0 Z " fill="#CDCDCD" transform="translate(1227,787)"/>
<path d="M0 0 C3.99062431 2.48472834 5.68655935 3.96748964 7.0625 8.5 C6.97663991 13.30816501 5.51517785 15.43070865 2.25 18.8125 C-1.08187066 20.57098729 -3.28346973 20.51262487 -7 20 C-10.4375 18.0625 -10.4375 18.0625 -13 15 C-14.0945995 10.37928608 -13.63551678 7.05188984 -11.1875 3 C-7.71855974 -0.17160252 -4.56698445 -0.53729229 0 0 Z " fill="#CDCDCD" transform="translate(1040,787)"/>
<path d="M0 0 C3.99062431 2.48472834 5.68655935 3.96748964 7.0625 8.5 C6.97663991 13.30816501 5.51517785 15.43070865 2.25 18.8125 C-1.08187066 20.57098729 -3.28346973 20.51262487 -7 20 C-10.4375 18.0625 -10.4375 18.0625 -13 15 C-14.0945995 10.37928608 -13.63551678 7.05188984 -11.1875 3 C-7.71855974 -0.17160252 -4.56698445 -0.53729229 0 0 Z " fill="#CDCDCD" transform="translate(945,787)"/>
<path d="M0 0 C3.70982973 2.33581872 5.60247905 3.80743715 7 8 C7 12.64472149 6.0018049 14.9409491 2.8125 18.3125 C-0.84113829 20.50468298 -2.79882196 20.6633439 -7 20 C-10.4375 18.0625 -10.4375 18.0625 -13 15 C-13.74526995 11.85393679 -13.6855981 9.15375124 -13 6 C-9.45287039 0.32459262 -6.61274241 -0.66127424 0 0 Z " fill="#CDCDCD" transform="translate(1509,697)"/>
<path d="M0 0 C3.70982973 2.33581872 5.60247905 3.80743715 7 8 C7 12.64472149 6.0018049 14.9409491 2.8125 18.3125 C-0.84113829 20.50468298 -2.79882196 20.6633439 -7 20 C-10.4375 18.0625 -10.4375 18.0625 -13 15 C-13.74526995 11.85393679 -13.6855981 9.15375124 -13 6 C-9.45287039 0.32459262 -6.61274241 -0.66127424 0 0 Z " fill="#CDCDCD" transform="translate(1510,605)"/>
<path d="M0 0 C3.95364129 2.46170118 5.67678008 3.9542885 7.0625 8.4375 C6.99077767 12.52567307 6.27796642 14.62232566 4 18 C0.24613716 20.40919555 -2.59009403 20.1581821 -6.87109375 19.5234375 C-9 19 -9 19 -11.5625 17.5 C-13.73776693 13.71692708 -13.90147167 10.24979503 -13 6 C-9.12968039 1.11117523 -6.23433807 -0.7193467 0 0 Z " fill="#CDCDCD" transform="translate(1789,967)"/>
<path d="M0 0 C3.58338132 2.29877292 5.57409416 3.84754889 7.0625 7.875 C6.98183615 11.90819246 5.95845889 14.48828061 4 18 C1.51759647 20.03911719 -0.20651298 20.02252869 -3.4375 20.375 C-7.58155564 19.93878362 -9.09130272 18.90869728 -12 16 C-13.6020886 12.79582279 -13.49285215 9.47660568 -13 6 C-9.67099375 0.604714 -6.25269403 -0.73561106 0 0 Z " fill="#CDCDCD" transform="translate(1508,879)"/>
<path d="M0 0 C3.95364129 2.46170118 5.67678008 3.9542885 7.0625 8.4375 C6.99077767 12.52567307 6.27796642 14.62232566 4 18 C0.24613716 20.40919555 -2.59009403 20.1581821 -6.87109375 19.5234375 C-9 19 -9 19 -11.5625 17.5 C-13.73776693 13.71692708 -13.90147167 10.24979503 -13 6 C-9.12968039 1.11117523 -6.23433807 -0.7193467 0 0 Z " fill="#CDCDCD" transform="translate(1039,879)"/>
<path d="M0 0 C3.95364129 2.46170118 5.67678008 3.9542885 7.0625 8.4375 C6.99077767 12.52567307 6.27796642 14.62232566 4 18 C0.24613716 20.40919555 -2.59009403 20.1581821 -6.87109375 19.5234375 C-9 19 -9 19 -11.5625 17.5 C-13.73776693 13.71692708 -13.90147167 10.24979503 -13 6 C-9.12968039 1.11117523 -6.23433807 -0.7193467 0 0 Z " fill="#CDCDCD" transform="translate(944,879)"/>
<path d="M0 0 C3.65747972 2.34630774 5.6124894 3.83746821 7 8 C7 12.64472149 6.0018049 14.9409491 2.8125 18.3125 C-0.84113829 20.50468298 -2.79882196 20.6633439 -7 20 C-10.4375 18.0625 -10.4375 18.0625 -13 15 C-14.0945995 10.37928608 -13.63551678 7.05188984 -11.1875 3 C-7.71855974 -0.17160252 -4.56698445 -0.53729229 0 0 Z " fill="#CDCDCD" transform="translate(1227,697)"/>
<path d="M0 0 C3.65747972 2.34630774 5.6124894 3.83746821 7 8 C7 12.64472149 6.0018049 14.9409491 2.8125 18.3125 C-0.84113829 20.50468298 -2.79882196 20.6633439 -7 20 C-10.4375 18.0625 -10.4375 18.0625 -13 15 C-14.0945995 10.37928608 -13.63551678 7.05188984 -11.1875 3 C-7.71855974 -0.17160252 -4.56698445 -0.53729229 0 0 Z " fill="#CDCDCD" transform="translate(1228,605)"/>
<path d="M0 0 C3.95364129 2.46170118 5.67678008 3.9542885 7.0625 8.4375 C6.99077767 12.52567307 6.27796642 14.62232566 4 18 C0.84493089 20.39350071 -2.1317651 20.46418819 -6 20 C-8.5647293 18.49987532 -10.89183465 17.10816535 -13 15 C-13.44169067 11.94602448 -13.47716383 9.04969923 -13 6 C-9.12968039 1.11117523 -6.23433807 -0.7193467 0 0 Z " fill="#CDCDCD" transform="translate(1225,968)"/>
<path d="M0 0 C3.95364129 2.46170118 5.67678008 3.9542885 7.0625 8.4375 C6.99077767 12.52567307 6.27796642 14.62232566 4 18 C0.84493089 20.39350071 -2.1317651 20.46418819 -6 20 C-8.5647293 18.49987532 -10.89183465 17.10816535 -13 15 C-13.44169067 11.94602448 -13.47716383 9.04969923 -13 6 C-9.12968039 1.11117523 -6.23433807 -0.7193467 0 0 Z " fill="#CDCDCD" transform="translate(1038,968)"/>
<path d="M0 0 C3.95364129 2.46170118 5.67678008 3.9542885 7.0625 8.4375 C6.99077767 12.52567307 6.27796642 14.62232566 4 18 C0.84493089 20.39350071 -2.1317651 20.46418819 -6 20 C-8.5647293 18.49987532 -10.89183465 17.10816535 -13 15 C-13.44169067 11.94602448 -13.47716383 9.04969923 -13 6 C-9.12968039 1.11117523 -6.23433807 -0.7193467 0 0 Z " fill="#CDCDCD" transform="translate(943,968)"/>
<path d="M0 0 C3.95364129 2.46170118 5.67678008 3.9542885 7.0625 8.4375 C6.99077767 12.52567307 6.27796642 14.62232566 4 18 C0.84493089 20.39350071 -2.1317651 20.46418819 -6 20 C-8.5647293 18.49987532 -10.89183465 17.10816535 -13 15 C-13.44169067 11.94602448 -13.47716383 9.04969923 -13 6 C-9.12968039 1.11117523 -6.23433807 -0.7193467 0 0 Z " fill="#CDCDCD" transform="translate(756,968)"/>
<path d="M0 0 C3.03339644 2.10004369 3.82330849 3.40682136 4.875 6.9375 C5.01493137 10.36581845 4.71478872 12.03809222 3 15 C0.20520053 17.9545023 -1.40244275 18.90221791 -5.4375 19.5625 C-10.12108584 18.82298645 -11.95666217 17.63715985 -15 14 C-16.0945995 9.37928608 -15.63551678 6.05188984 -13.1875 2 C-9.15297993 -1.68870406 -5.04942662 -1.30307784 0 0 Z " fill="#CDCDCD" transform="translate(1042,698)"/>
<path d="M0 0 C3.03339644 2.10004369 3.82330849 3.40682136 4.875 6.9375 C5.01493137 10.36581845 4.71478872 12.03809222 3 15 C0.20520053 17.9545023 -1.40244275 18.90221791 -5.4375 19.5625 C-10.12108584 18.82298645 -11.95666217 17.63715985 -15 14 C-16.0945995 9.37928608 -15.63551678 6.05188984 -13.1875 2 C-9.15297993 -1.68870406 -5.04942662 -1.30307784 0 0 Z " fill="#CDCDCD" transform="translate(947,698)"/>
<path d="M0 0 C3.03339644 2.10004369 3.82330849 3.40682136 4.875 6.9375 C5.01493137 10.36581845 4.71478872 12.03809222 3 15 C0.20520053 17.9545023 -1.40244275 18.90221791 -5.4375 19.5625 C-10.12108584 18.82298645 -11.95666217 17.63715985 -15 14 C-16.0945995 9.37928608 -15.63551678 6.05188984 -13.1875 2 C-9.15297993 -1.68870406 -5.04942662 -1.30307784 0 0 Z " fill="#CDCDCD" transform="translate(1043,606)"/>
<path d="M0 0 C3.03339644 2.10004369 3.82330849 3.40682136 4.875 6.9375 C5.01493137 10.36581845 4.71478872 12.03809222 3 15 C0.20520053 17.9545023 -1.40244275 18.90221791 -5.4375 19.5625 C-10.12108584 18.82298645 -11.95666217 17.63715985 -15 14 C-16.0945995 9.37928608 -15.63551678 6.05188984 -13.1875 2 C-9.15297993 -1.68870406 -5.04942662 -1.30307784 0 0 Z " fill="#CDCDCD" transform="translate(948,606)"/>
<path d="M0 0 C3.03339644 2.10004369 3.82330849 3.40682136 4.875 6.9375 C5.01493137 10.36581845 4.71478872 12.03809222 3 15 C0.20520053 17.9545023 -1.40244275 18.90221791 -5.4375 19.5625 C-10.12108584 18.82298645 -11.95666217 17.63715985 -15 14 C-16.0945995 9.37928608 -15.63551678 6.05188984 -13.1875 2 C-9.15297993 -1.68870406 -5.04942662 -1.30307784 0 0 Z " fill="#CDCDCD" transform="translate(761,606)"/>
<path d="M0 0 C2.96306091 2.05134986 3.80171292 3.40513876 4.9375 6.8125 C5.01820325 10.92836575 3.99554403 13.42178312 2 17 C-1.69501058 19.4344526 -4.62571297 19.2092253 -8.87109375 18.59375 C-11 18 -11 18 -13.5625 15.9375 C-15.4134349 12.15515476 -15.99298503 9.13048396 -15 5 C-10.41475811 -0.67122023 -7.03729413 -1.7837102 0 0 Z " fill="#CDCDCD" transform="translate(571,969)"/>
<path d="M0 0 C3.29484618 2.17584182 5.48386641 3.74192438 7 7.4375 C7 12.00853584 5.88835739 14.95012309 2.9375 18.4375 C-0.69525403 20.36981597 -2.90883761 20.34362261 -6.90625 19.6640625 C-9 19 -9 19 -11.5625 16.9375 C-13.42119256 13.13930216 -13.8471185 10.15171936 -13 6 C-9.67099375 0.604714 -6.25269403 -0.73561106 0 0 Z " fill="#CDCDCD" transform="translate(1413,879)"/>
<path d="M0 0 C4.29069767 2.38372093 4.29069767 2.38372093 6 5 C6.86453464 8.51577422 6.85895696 11.48346478 6 15 C4.24865652 17.76527917 3.02677226 18.34903331 0 20 C-4.32945942 20.68359886 -6.19050994 20.5279283 -9.875 18.125 C-12.80038857 15.19961143 -12.96503325 14.42659437 -13.3125 10.1875 C-13.27673467 6.90901165 -12.99591603 5.99338116 -11.1875 3.0625 C-7.74390783 -0.18431547 -4.59448491 -0.54052764 0 0 Z " fill="#CDCDCD" transform="translate(1414,697)"/>
<path d="M0 0 C2.5 1.4375 2.5 1.4375 4 4 C4.78795246 8.09182328 5.18203817 12.11625719 2.89453125 15.76171875 C0.28924688 18.19937088 -2.03242009 19.0057893 -5.5 19.625 C-10.11528769 18.80084148 -11.98819573 17.5994734 -15 14 C-16.0945995 9.37928608 -15.63551678 6.05188984 -13.1875 2 C-9.13347942 -1.7065331 -5.06870042 -1.26462546 0 0 Z " fill="#CDCDCD" transform="translate(1417,606)"/>
<path d="M0 0 C2.5 1.4375 2.5 1.4375 4 4 C4.78795246 8.09182328 5.18203817 12.11625719 2.89453125 15.76171875 C0.28924688 18.19937088 -2.03242009 19.0057893 -5.5 19.625 C-10.11528769 18.80084148 -11.98819573 17.5994734 -15 14 C-16.0945995 9.37928608 -15.63551678 6.05188984 -13.1875 2 C-9.13347942 -1.7065331 -5.06870042 -1.26462546 0 0 Z " fill="#CDCDCD" transform="translate(1325,606)"/>
<path d="M0 0 C3.65747972 2.34630774 5.6124894 3.83746821 7 8 C7 12.67332395 6.00943366 14.96252652 2.75 18.3125 C-0.59428701 20.36467612 -2.13823325 20.63049253 -6 20 C-11.57894737 16.84210526 -11.57894737 16.84210526 -13 14 C-13.70153846 6.86769231 -13.70153846 6.86769231 -10.625 3.0625 C-6.84598336 0.09327264 -4.82619179 -0.55686828 0 0 Z " fill="#CDCDCD" transform="translate(1412,968)"/>
<path d="M0 0 C3.65747972 2.34630774 5.6124894 3.83746821 7 8 C7 12.67332395 6.00943366 14.96252652 2.75 18.3125 C-0.59428701 20.36467612 -2.13823325 20.63049253 -6 20 C-11.57894737 16.84210526 -11.57894737 16.84210526 -13 14 C-13.70153846 6.86769231 -13.70153846 6.86769231 -10.625 3.0625 C-6.84598336 0.09327264 -4.82619179 -0.55686828 0 0 Z " fill="#CDCDCD" transform="translate(1320,968)"/>
<path d="M0 0 C3.65747972 2.34630774 5.6124894 3.83746821 7 8 C7 12.67332395 6.00943366 14.96252652 2.75 18.3125 C-0.59428701 20.36467612 -2.13823325 20.63049253 -6 20 C-11.57894737 16.84210526 -11.57894737 16.84210526 -13 14 C-13.70153846 6.86769231 -13.70153846 6.86769231 -10.625 3.0625 C-6.84598336 0.09327264 -4.82619179 -0.55686828 0 0 Z " fill="#CDCDCD" transform="translate(1321,879)"/>
<path d="M0 0 C3.03339644 2.10004369 3.82330849 3.40682136 4.875 6.9375 C5.06561185 11.60749041 3.97872251 13.8729862 0.9375 17.375 C-2.70144858 19.38803538 -4.87173565 19.34992994 -8.90625 18.6640625 C-11 18 -11 18 -13.5625 15.9375 C-15.4134349 12.15515476 -15.99298503 9.13048396 -15 5 C-10.41475811 -0.67122023 -7.03729413 -1.7837102 0 0 Z " fill="#CDCDCD" transform="translate(854,880)"/>
<path d="M0 0 C3.03339644 2.10004369 3.82330849 3.40682136 4.875 6.9375 C5.06561185 11.60749041 3.97872251 13.8729862 0.9375 17.375 C-2.70144858 19.38803538 -4.87173565 19.34992994 -8.90625 18.6640625 C-11 18 -11 18 -13.5625 15.9375 C-15.4134349 12.15515476 -15.99298503 9.13048396 -15 5 C-10.41475811 -0.67122023 -7.03729413 -1.7837102 0 0 Z " fill="#CDCDCD" transform="translate(664,880)"/>
<path d="M0 0 C3.03339644 2.10004369 3.82330849 3.40682136 4.875 6.9375 C5.01493137 10.36581845 4.71478872 12.03809222 3 15 C0.16644979 17.99546736 -1.39127202 18.91303886 -5.5 19.5 C-9.53761333 18.9231981 -11.14650217 17.85349783 -14 15 C-15.60847182 11.78305636 -15.61309149 8.47862778 -15 5 C-10.41475811 -0.67122023 -7.03729413 -1.7837102 0 0 Z " fill="#CDCDCD" transform="translate(572,880)"/>
<path d="M0 0 C3.03339644 2.10004369 3.82330849 3.40682136 4.875 6.9375 C5.06561185 11.60749041 3.97872251 13.8729862 0.9375 17.375 C-2.70144858 19.38803538 -4.87173565 19.34992994 -8.90625 18.6640625 C-11 18 -11 18 -13.5625 15.9375 C-15.4134349 12.15515476 -15.99298503 9.13048396 -15 5 C-10.41475811 -0.67122023 -7.03729413 -1.7837102 0 0 Z " fill="#CDCDCD" transform="translate(1979,879)"/>
<path d="M0 0 C3.03339644 2.10004369 3.82330849 3.40682136 4.875 6.9375 C5.06561185 11.60749041 3.97872251 13.8729862 0.9375 17.375 C-2.70144858 19.38803538 -4.87173565 19.34992994 -8.90625 18.6640625 C-11 18 -11 18 -13.5625 15.9375 C-15.4134349 12.15515476 -15.99298503 9.13048396 -15 5 C-10.41475811 -0.67122023 -7.03729413 -1.7837102 0 0 Z " fill="#CDCDCD" transform="translate(1884,879)"/>
<path d="M0 0 C3.29484618 2.17584182 5.48386641 3.74192438 7 7.4375 C7 12.00853584 5.88835739 14.95012309 2.9375 18.4375 C-0.69525403 20.36981597 -2.90883761 20.34362261 -6.90625 19.6640625 C-9 19 -9 19 -11.5625 16.9375 C-13.42119256 13.13930216 -13.8471185 10.15171936 -13 6 C-9.67099375 0.604714 -6.25269403 -0.73561106 0 0 Z " fill="#CDCDCD" transform="translate(1414,787)"/>
<path d="M0 0 C2.7126169 1.94751983 3.72733641 3.25991312 4.875 6.375 C5.09459967 10.98659308 3.90377328 13.9319043 0.9375 17.4375 C-2.69525403 19.36981597 -4.90883761 19.34362261 -8.90625 18.6640625 C-11 18 -11 18 -13.5625 15.9375 C-15.42119256 12.13930216 -15.8471185 9.15171936 -15 5 C-11.16582096 -1.21401431 -6.84220367 -1.77952475 0 0 Z " fill="#CDCDCD" transform="translate(1324,788)"/>
<path d="M0 0 C3.03339644 2.10004369 3.82330849 3.40682136 4.875 6.9375 C5.01493137 10.36581845 4.71478872 12.03809222 3 15 C0.16644979 17.99546736 -1.39127202 18.91303886 -5.5 19.5 C-9.53761333 18.9231981 -11.14650217 17.85349783 -14 15 C-15.60847182 11.78305636 -15.61309149 8.47862778 -15 5 C-10.41475811 -0.67122023 -7.03729413 -1.7837102 0 0 Z " fill="#CDCDCD" transform="translate(665,788)"/>
<path d="M0 0 C3.20767206 2.96092806 4.78080112 5.61602248 5 10 C4.20042216 13.27826915 3.1384284 14.8536614 0.8125 17.3125 C-2.80124338 19.48074603 -4.84639617 19.59337198 -9 19 C-11.75329021 17.20437595 -13.52627461 15.94745078 -15 13 C-15.57884232 5.93812375 -15.57884232 5.93812375 -13.1875 2.0625 C-9.24086284 -1.65861504 -5.00668963 -1.47374332 0 0 Z " fill="#CDCDCD" transform="translate(573,788)"/>
<path d="M0 0 C2.72438773 2.17951019 3.7398552 3.7403515 4.4453125 7.15625 C4.79461505 11.71237027 4.4474691 13.46521985 1.4375 17.0625 C-2.58084587 19.32738586 -4.46574544 19.80968831 -9 19 C-12.4375 17.0625 -12.4375 17.0625 -15 14 C-16.0945995 9.37928608 -15.63551678 6.05188984 -13.1875 2 C-9.18844088 -1.65628262 -5.00546589 -1.43013311 0 0 Z " fill="#CDCDCD" transform="translate(1135,606)"/>
<path d="M0 0 C2.72438773 2.17951019 3.7398552 3.7403515 4.4453125 7.15625 C4.79461505 11.71237027 4.4474691 13.46521985 1.4375 17.0625 C-2.58084587 19.32738586 -4.46574544 19.80968831 -9 19 C-12.4375 17.0625 -12.4375 17.0625 -15 14 C-16.0945995 9.37928608 -15.63551678 6.05188984 -13.1875 2 C-9.18844088 -1.65628262 -5.00546589 -1.43013311 0 0 Z " fill="#CDCDCD" transform="translate(856,606)"/>
<path d="M0 0 C2.72438773 2.17951019 3.7398552 3.7403515 4.4453125 7.15625 C4.79461505 11.71237027 4.4474691 13.46521985 1.4375 17.0625 C-2.58084587 19.32738586 -4.46574544 19.80968831 -9 19 C-12.4375 17.0625 -12.4375 17.0625 -15 14 C-16.0945995 9.37928608 -15.63551678 6.05188984 -13.1875 2 C-9.18844088 -1.65628262 -5.00546589 -1.43013311 0 0 Z " fill="#CDCDCD" transform="translate(666,606)"/>
<path d="M0 0 C2.72438773 2.17951019 3.7398552 3.7403515 4.4453125 7.15625 C4.79461505 11.71237027 4.4474691 13.46521985 1.4375 17.0625 C-2.58084587 19.32738586 -4.46574544 19.80968831 -9 19 C-12.4375 17.0625 -12.4375 17.0625 -15 14 C-16.0945995 9.37928608 -15.63551678 6.05188984 -13.1875 2 C-9.18844088 -1.65628262 -5.00546589 -1.43013311 0 0 Z " fill="#CDCDCD" transform="translate(574,606)"/>
<path d="M0 0 C3.03339644 2.10004369 3.82330849 3.40682136 4.875 6.9375 C5.01493137 10.36581845 4.71478872 12.03809222 3 15 C0.37544677 17.69745749 -1.21053146 18.86562238 -4.9375 19.5 C-8.78011945 18.87263356 -10.96733129 17.39792409 -14 15 C-15.60847182 11.78305636 -15.61309149 8.47862778 -15 5 C-10.41475811 -0.67122023 -7.03729413 -1.7837102 0 0 Z " fill="#CDCDCD" transform="translate(1133,880)"/>
<path d="M0 0 C2.7126169 1.94751983 3.72733641 3.25991312 4.875 6.375 C5.09459967 10.98659308 3.90377328 13.9319043 0.9375 17.4375 C-2.69525403 19.36981597 -4.90883761 19.34362261 -8.90625 18.6640625 C-11 18 -11 18 -13.5625 15.9375 C-15.4134349 12.15515476 -15.99298503 9.13048396 -15 5 C-10.4208425 -0.66369481 -7.03163168 -1.79619898 0 0 Z " fill="#CDCDCD" transform="translate(1134,788)"/>
<path d="M0 0 C3.03339644 2.10004369 3.82330849 3.40682136 4.875 6.9375 C5.06561185 11.60749041 3.97872251 13.8729862 0.9375 17.375 C-2.70144858 19.38803538 -4.87173565 19.34992994 -8.90625 18.6640625 C-11 18 -11 18 -13.5625 15.9375 C-15.4134349 12.15515476 -15.99298503 9.13048396 -15 5 C-10.41475811 -0.67122023 -7.03729413 -1.7837102 0 0 Z " fill="#CDCDCD" transform="translate(855,788)"/>
<path d="M0 0 C2.52981749 2.33521614 3.68326407 4.19760232 4.9375 7.375 C5.02843467 11.19425608 3.81693075 13.67940243 2 17 C-0.44537725 19.00870274 -2.20424146 19.02647574 -5.375 19.4375 C-10.11870304 18.86498412 -11.90727295 17.62075362 -15 14 C-15.9882819 9.98206704 -15.3811861 6.87672804 -13.75 3.125 C-9.88916369 -1.56315837 -5.62643837 -1.79075554 0 0 Z " fill="#CDCDCD" transform="translate(478,788)"/>
<path d="M0 0 C3.03339644 2.10004369 3.82330849 3.40682136 4.875 6.9375 C5.06561185 11.60749041 3.97872251 13.8729862 0.9375 17.375 C-2.70144858 19.38803538 -4.87173565 19.34992994 -8.90625 18.6640625 C-11 18 -11 18 -13.5625 15.9375 C-15.4134349 12.15515476 -15.99298503 9.13048396 -15 5 C-10.41475811 -0.67122023 -7.03729413 -1.7837102 0 0 Z " fill="#CDCDCD" transform="translate(1980,787)"/>
<path d="M0 0 C3.03339644 2.10004369 3.82330849 3.40682136 4.875 6.9375 C5.06561185 11.60749041 3.97872251 13.8729862 0.9375 17.375 C-2.70144858 19.38803538 -4.87173565 19.34992994 -8.90625 18.6640625 C-11 18 -11 18 -13.5625 15.9375 C-15.4134349 12.15515476 -15.99298503 9.13048396 -15 5 C-10.41475811 -0.67122023 -7.03729413 -1.7837102 0 0 Z " fill="#CDCDCD" transform="translate(1885,787)"/>
<path d="M0 0 C2.5 1.4375 2.5 1.4375 4 4 C4.79118615 8.10861581 5.11080484 12.07181046 2.96484375 15.796875 C0.83701719 17.90692028 -1.29699325 18.92350704 -4.26171875 19.24609375 C-8.23117204 19.04270028 -10.43462494 18.45505797 -13.5625 15.9375 C-15.42119256 12.13930216 -15.8471185 9.15171936 -15 5 C-11.14060449 -1.25488238 -6.86756495 -1.71343673 0 0 Z " fill="#CDCDCD" transform="translate(1324,698)"/>
<path d="M0 0 C2.5 1.4375 2.5 1.4375 4 4 C4.78795246 8.09182328 5.18203817 12.11625719 2.89453125 15.76171875 C0.24905195 18.23697954 -2.02877251 19.00454303 -5.5625 19.5625 C-9.52374737 18.91429589 -11.18799374 17.81200626 -14 15 C-15.60847182 11.78305636 -15.61309149 8.47862778 -15 5 C-10.38884404 -0.70327184 -7.06055974 -1.73025575 0 0 Z " fill="#CDCDCD" transform="translate(855,698)"/>
<path d="M0 0 C2.5 1.4375 2.5 1.4375 4 4 C4.78795246 8.09182328 5.18203817 12.11625719 2.89453125 15.76171875 C0.24905195 18.23697954 -2.02877251 19.00454303 -5.5625 19.5625 C-9.52374737 18.91429589 -11.18799374 17.81200626 -14 15 C-15.60847182 11.78305636 -15.61309149 8.47862778 -15 5 C-10.38884404 -0.70327184 -7.06055974 -1.73025575 0 0 Z " fill="#CDCDCD" transform="translate(665,698)"/>
<path d="M0 0 C2.72438773 2.17951019 3.7398552 3.7403515 4.4453125 7.15625 C4.79461505 11.71237027 4.4474691 13.46521985 1.4375 17.0625 C-2.54335936 19.30625709 -4.50588566 19.73540053 -9 19 C-11.75329021 17.20437595 -13.52627461 15.94745078 -15 13 C-15.57884232 5.93812375 -15.57884232 5.93812375 -13.1875 2.0625 C-9.22182243 -1.67656742 -5.02706273 -1.43630364 0 0 Z " fill="#CDCDCD" transform="translate(573,698)"/>
<path d="M0 0 C2.73865602 2.19092482 3.78184151 3.72513631 4.375 7.19140625 C4.58312725 11.13931993 4.54151639 13.27797814 2.125 16.5 C-1.72756267 19.219456 -4.26173877 19.40154756 -9 19 C-11.75329021 17.20437595 -13.52627461 15.94745078 -15 13 C-15.70153846 5.86769231 -15.70153846 5.86769231 -12.625 2.0625 C-8.34377023 -1.30132339 -5.21372962 -1.46314151 0 0 Z " fill="#CDCDCD" transform="translate(478,698)"/>
<path d="M0 0 C2.5 1.4375 2.5 1.4375 4 4 C4.78795246 8.09182328 5.18203817 12.11625719 2.89453125 15.76171875 C0.24905195 18.23697954 -2.02877251 19.00454303 -5.5625 19.5625 C-9.52374737 18.91429589 -11.18799374 17.81200626 -14 15 C-15.60847182 11.78305636 -15.61309149 8.47862778 -15 5 C-10.38884404 -0.70327184 -7.06055974 -1.73025575 0 0 Z " fill="#CDCDCD" transform="translate(1980,697)"/>
<path d="M0 0 C2.5 1.4375 2.5 1.4375 4 4 C4.78795246 8.09182328 5.18203817 12.11625719 2.89453125 15.76171875 C0.24905195 18.23697954 -2.02877251 19.00454303 -5.5625 19.5625 C-9.52374737 18.91429589 -11.18799374 17.81200626 -14 15 C-15.60847182 11.78305636 -15.61309149 8.47862778 -15 5 C-10.38884404 -0.70327184 -7.06055974 -1.73025575 0 0 Z " fill="#CDCDCD" transform="translate(1885,697)"/>
<path d="M0 0 C2.72438773 2.17951019 3.7398552 3.7403515 4.4453125 7.15625 C4.79461505 11.71237027 4.4474691 13.46521985 1.4375 17.0625 C-2.58084587 19.32738586 -4.46574544 19.80968831 -9 19 C-12.4375 17.0625 -12.4375 17.0625 -15 14 C-15.8022085 10.83127643 -15.78700567 8.17100095 -15 5 C-10.5456055 -0.62660358 -6.93706364 -1.94676489 0 0 Z " fill="#CDCDCD" transform="translate(479,606)"/>
<path d="M0 0 C3.03339644 2.10004369 3.82330849 3.40682136 4.875 6.9375 C5.01493137 10.36581845 4.71478872 12.03809222 3 15 C0.37544677 17.69745749 -1.21053146 18.86562238 -4.9375 19.5 C-8.78011945 18.87263356 -10.96733129 17.39792409 -14 15 C-15.60847182 11.78305636 -15.61309149 8.47862778 -15 5 C-10.41475811 -0.67122023 -7.03729413 -1.7837102 0 0 Z " fill="#CDCDCD" transform="translate(1132,969)"/>
<path d="M0 0 C3.03339644 2.10004369 3.82330849 3.40682136 4.875 6.9375 C5.01493137 10.36581845 4.71478872 12.03809222 3 15 C0.37544677 17.69745749 -1.21053146 18.86562238 -4.9375 19.5 C-8.78011945 18.87263356 -10.96733129 17.39792409 -14 15 C-15.60847182 11.78305636 -15.61309149 8.47862778 -15 5 C-10.41475811 -0.67122023 -7.03729413 -1.7837102 0 0 Z " fill="#CDCDCD" transform="translate(853,969)"/>
<path d="M0 0 C3.03339644 2.10004369 3.82330849 3.40682136 4.875 6.9375 C5.01493137 10.36581845 4.71478872 12.03809222 3 15 C0.37544677 17.69745749 -1.21053146 18.86562238 -4.9375 19.5 C-8.78011945 18.87263356 -10.96733129 17.39792409 -14 15 C-15.60847182 11.78305636 -15.61309149 8.47862778 -15 5 C-10.41475811 -0.67122023 -7.03729413 -1.7837102 0 0 Z " fill="#CDCDCD" transform="translate(663,969)"/>
<path d="M0 0 C2.96306091 2.05134986 3.80171292 3.40513876 4.9375 6.8125 C5.01820325 10.92836575 3.99554403 13.42178312 2 17 C-0.44537725 19.00870274 -2.20424146 19.02647574 -5.375 19.4375 C-10.11870304 18.86498412 -11.90727295 17.62075362 -15 14 C-15.69939361 9.99438203 -15.99756288 7.69549149 -13.93359375 4.1875 C-9.66790107 -1.10959897 -6.45133908 -1.63519089 0 0 Z " fill="#CDCDCD" transform="translate(476,969)"/>
<path d="M0 0 C3.03339644 2.10004369 3.82330849 3.40682136 4.875 6.9375 C5.01493137 10.36581845 4.71478872 12.03809222 3 15 C0.37544677 17.69745749 -1.21053146 18.86562238 -4.9375 19.5 C-8.78011945 18.87263356 -10.96733129 17.39792409 -14 15 C-15.60847182 11.78305636 -15.61309149 8.47862778 -15 5 C-10.41475811 -0.67122023 -7.03729413 -1.7837102 0 0 Z " fill="#CDCDCD" transform="translate(1978,968)"/>
<path d="M0 0 C3.03339644 2.10004369 3.82330849 3.40682136 4.875 6.9375 C5.01493137 10.36581845 4.71478872 12.03809222 3 15 C0.37544677 17.69745749 -1.21053146 18.86562238 -4.9375 19.5 C-8.78011945 18.87263356 -10.96733129 17.39792409 -14 15 C-15.60847182 11.78305636 -15.61309149 8.47862778 -15 5 C-10.41475811 -0.67122023 -7.03729413 -1.7837102 0 0 Z " fill="#CDCDCD" transform="translate(1883,968)"/>
<path d="M0 0 C2.52981749 2.33521614 3.68326407 4.19760232 4.9375 7.375 C5.02843467 11.19425608 3.81693075 13.67940243 2 17 C-0.44537725 19.00870274 -2.20424146 19.02647574 -5.375 19.4375 C-10.11870304 18.86498412 -11.90727295 17.62075362 -15 14 C-15.79957948 10.42665808 -15.35638967 7.19876524 -14.3125 3.6875 C-10.43562322 -1.29705586 -5.74336952 -1.97052845 0 0 Z " fill="#CDCDCD" transform="translate(477,880)"/>
<path d="M0 0 C2.52981749 2.33521614 3.68326407 4.19760232 4.9375 7.375 C5.02843467 11.19425608 3.81693075 13.67940243 2 17 C-0.44537725 19.00870274 -2.20424146 19.02647574 -5.375 19.4375 C-10.11870304 18.86498412 -11.90727295 17.62075362 -15 14 C-15.79957948 10.42665808 -15.35638967 7.19876524 -14.3125 3.6875 C-10.43562322 -1.29705586 -5.74336952 -1.97052845 0 0 Z " fill="#CDCDCD" transform="translate(1606,787)"/>
<path d="M0 0 C2.5 1.4375 2.5 1.4375 4 4 C4.79118615 8.10861581 5.11080484 12.07181046 2.96484375 15.796875 C0.83701719 17.90692028 -1.29699325 18.92350704 -4.26171875 19.24609375 C-8.23117204 19.04270028 -10.43462494 18.45505797 -13.5625 15.9375 C-15.4134349 12.15515476 -15.99298503 9.13048396 -15 5 C-10.38884404 -0.70327184 -7.06055974 -1.73025575 0 0 Z " fill="#CDCDCD" transform="translate(1134,698)"/>
<path d="M0 0 C2.73865602 2.19092482 3.78184151 3.72513631 4.375 7.19140625 C4.58312725 11.13931993 4.54151639 13.27797814 2.125 16.5 C-1.73560564 19.22513339 -4.24596513 19.47540349 -9 19 C-12.4375 17 -12.4375 17 -15 14 C-15.9882819 9.98206704 -15.3811861 6.87672804 -13.75 3.125 C-9.86719524 -1.58983436 -5.65020918 -1.74832292 0 0 Z " fill="#CDCDCD" transform="translate(1606,697)"/>
<path d="M0 0 C2.52981749 2.33521614 3.68326407 4.19760232 4.9375 7.375 C5.02843467 11.19425608 3.81693075 13.67940243 2 17 C-0.44537725 19.00870274 -2.20424146 19.02647574 -5.375 19.4375 C-10.11870304 18.86498412 -11.90727295 17.62075362 -15 14 C-15.69939361 9.99438203 -15.99756288 7.69549149 -13.93359375 4.1875 C-9.74572716 -1.01295523 -6.37105098 -1.84192761 0 0 Z " fill="#CDCDCD" transform="translate(1604,968)"/>
<path d="M0 0 C2.52981749 2.33521614 3.68326407 4.19760232 4.9375 7.375 C5.02843467 11.19425608 3.81693075 13.67940243 2 17 C-0.44537725 19.00870274 -2.20424146 19.02647574 -5.375 19.4375 C-10.11870304 18.86498412 -11.90727295 17.62075362 -15 14 C-15.69939361 9.99438203 -15.99756288 7.69549149 -13.93359375 4.1875 C-9.74572716 -1.01295523 -6.37105098 -1.84192761 0 0 Z " fill="#CDCDCD" transform="translate(1605,879)"/>
<path d="M0 0 C3.61914281 2.32171426 5.5876676 3.86002219 7.0625 7.9375 C6.98471397 11.74901537 6.09098402 13.82747252 4 17 C1.67273175 18.76551385 0.02147649 18.99673184 -2.875 19.4375 C-6.24646986 18.96549422 -8.33782199 18.02559386 -10.8515625 15.69140625 C-12.73764431 12.91360549 -12.81662528 10.4502034 -12.5859375 7.16015625 C-11.0091498 1.34706559 -5.7543339 -1.19881956 0 0 Z " fill="#CDCDCD" transform="translate(1979,514)"/>
<path d="M0 0 C3.61914281 2.32171426 5.5876676 3.86002219 7.0625 7.9375 C6.98471397 11.74901537 6.09098402 13.82747252 4 17 C1.67273175 18.76551385 0.02147649 18.99673184 -2.875 19.4375 C-6.24646986 18.96549422 -8.33782199 18.02559386 -10.8515625 15.69140625 C-12.73764431 12.91360549 -12.81662528 10.4502034 -12.5859375 7.16015625 C-11.0091498 1.34706559 -5.7543339 -1.19881956 0 0 Z " fill="#CDCDCD" transform="translate(1884,514)"/>
<path d="M0 0 C3.61914281 2.32171426 5.5876676 3.86002219 7.0625 7.9375 C6.98471397 11.74901537 6.09098402 13.82747252 4 17 C1.67273175 18.76551385 0.02147649 18.99673184 -2.875 19.4375 C-6.24646986 18.96549422 -8.33782199 18.02559386 -10.8515625 15.69140625 C-12.73764431 12.91360549 -12.81662528 10.4502034 -12.5859375 7.16015625 C-11.0091498 1.34706559 -5.7543339 -1.19881956 0 0 Z " fill="#CDCDCD" transform="translate(1792,514)"/>
<path d="M0 0 C3.61914281 2.32171426 5.5876676 3.86002219 7.0625 7.9375 C6.98471397 11.74901537 6.09098402 13.82747252 4 17 C1.67273175 18.76551385 0.02147649 18.99673184 -2.875 19.4375 C-6.24646986 18.96549422 -8.33782199 18.02559386 -10.8515625 15.69140625 C-12.73764431 12.91360549 -12.81662528 10.4502034 -12.5859375 7.16015625 C-11.0091498 1.34706559 -5.7543339 -1.19881956 0 0 Z " fill="#CDCDCD" transform="translate(1697,514)"/>
<path d="M0 0 C3.61914281 2.32171426 5.5876676 3.86002219 7.0625 7.9375 C6.98471397 11.74901537 6.09098402 13.82747252 4 17 C1.67273175 18.76551385 0.02147649 18.99673184 -2.875 19.4375 C-6.24646986 18.96549422 -8.33782199 18.02559386 -10.8515625 15.69140625 C-12.73764431 12.91360549 -12.81662528 10.4502034 -12.5859375 7.16015625 C-11.0091498 1.34706559 -5.7543339 -1.19881956 0 0 Z " fill="#CDCDCD" transform="translate(1605,514)"/>
<path d="M0 0 C3.61914281 2.32171426 5.5876676 3.86002219 7.0625 7.9375 C6.98471397 11.74901537 6.09098402 13.82747252 4 17 C1.67273175 18.76551385 0.02147649 18.99673184 -2.875 19.4375 C-6.24646986 18.96549422 -8.33782199 18.02559386 -10.8515625 15.69140625 C-12.73764431 12.91360549 -12.81662528 10.4502034 -12.5859375 7.16015625 C-11.0091498 1.34706559 -5.7543339 -1.19881956 0 0 Z " fill="#CDCDCD" transform="translate(1510,514)"/>
<path d="M0 0 C3.61914281 2.32171426 5.5876676 3.86002219 7.0625 7.9375 C6.98471397 11.74901537 6.09098402 13.82747252 4 17 C1.67273175 18.76551385 0.02147649 18.99673184 -2.875 19.4375 C-6.24646986 18.96549422 -8.33782199 18.02559386 -10.8515625 15.69140625 C-12.73764431 12.91360549 -12.81662528 10.4502034 -12.5859375 7.16015625 C-11.0091498 1.34706559 -5.7543339 -1.19881956 0 0 Z " fill="#CDCDCD" transform="translate(1415,514)"/>
<path d="M0 0 C3.61914281 2.32171426 5.5876676 3.86002219 7.0625 7.9375 C6.98471397 11.74901537 6.09098402 13.82747252 4 17 C1.67273175 18.76551385 0.02147649 18.99673184 -2.875 19.4375 C-6.24646986 18.96549422 -8.33782199 18.02559386 -10.8515625 15.69140625 C-12.73764431 12.91360549 -12.81662528 10.4502034 -12.5859375 7.16015625 C-11.0091498 1.34706559 -5.7543339 -1.19881956 0 0 Z " fill="#CDCDCD" transform="translate(1323,514)"/>
<path d="M0 0 C3.61914281 2.32171426 5.5876676 3.86002219 7.0625 7.9375 C6.98471397 11.74901537 6.09098402 13.82747252 4 17 C1.67273175 18.76551385 0.02147649 18.99673184 -2.875 19.4375 C-6.24646986 18.96549422 -8.33782199 18.02559386 -10.8515625 15.69140625 C-12.73764431 12.91360549 -12.81662528 10.4502034 -12.5859375 7.16015625 C-11.0091498 1.34706559 -5.7543339 -1.19881956 0 0 Z " fill="#CDCDCD" transform="translate(1228,514)"/>
<path d="M0 0 C3.61914281 2.32171426 5.5876676 3.86002219 7.0625 7.9375 C6.98471397 11.74901537 6.09098402 13.82747252 4 17 C1.67273175 18.76551385 0.02147649 18.99673184 -2.875 19.4375 C-6.24646986 18.96549422 -8.33782199 18.02559386 -10.8515625 15.69140625 C-12.73764431 12.91360549 -12.81662528 10.4502034 -12.5859375 7.16015625 C-11.0091498 1.34706559 -5.7543339 -1.19881956 0 0 Z " fill="#CDCDCD" transform="translate(1133,514)"/>
<path d="M0 0 C3.61914281 2.32171426 5.5876676 3.86002219 7.0625 7.9375 C6.98471397 11.74901537 6.09098402 13.82747252 4 17 C1.67273175 18.76551385 0.02147649 18.99673184 -2.875 19.4375 C-6.24646986 18.96549422 -8.33782199 18.02559386 -10.8515625 15.69140625 C-12.73764431 12.91360549 -12.81662528 10.4502034 -12.5859375 7.16015625 C-11.0091498 1.34706559 -5.7543339 -1.19881956 0 0 Z " fill="#CDCDCD" transform="translate(1041,514)"/>
<path d="M0 0 C3.61914281 2.32171426 5.5876676 3.86002219 7.0625 7.9375 C6.98471397 11.74901537 6.09098402 13.82747252 4 17 C1.67273175 18.76551385 0.02147649 18.99673184 -2.875 19.4375 C-6.24646986 18.96549422 -8.33782199 18.02559386 -10.8515625 15.69140625 C-12.73764431 12.91360549 -12.81662528 10.4502034 -12.5859375 7.16015625 C-11.0091498 1.34706559 -5.7543339 -1.19881956 0 0 Z " fill="#CDCDCD" transform="translate(946,514)"/>
<path d="M0 0 C3.61914281 2.32171426 5.5876676 3.86002219 7.0625 7.9375 C6.98471397 11.74901537 6.09098402 13.82747252 4 17 C1.67273175 18.76551385 0.02147649 18.99673184 -2.875 19.4375 C-6.24646986 18.96549422 -8.33782199 18.02559386 -10.8515625 15.69140625 C-12.73764431 12.91360549 -12.81662528 10.4502034 -12.5859375 7.16015625 C-11.0091498 1.34706559 -5.7543339 -1.19881956 0 0 Z " fill="#CDCDCD" transform="translate(854,514)"/>
<path d="M0 0 C3.61914281 2.32171426 5.5876676 3.86002219 7.0625 7.9375 C6.98471397 11.74901537 6.09098402 13.82747252 4 17 C1.67273175 18.76551385 0.02147649 18.99673184 -2.875 19.4375 C-6.24646986 18.96549422 -8.33782199 18.02559386 -10.8515625 15.69140625 C-12.73764431 12.91360549 -12.81662528 10.4502034 -12.5859375 7.16015625 C-11.0091498 1.34706559 -5.7543339 -1.19881956 0 0 Z " fill="#CDCDCD" transform="translate(759,514)"/>
<path d="M0 0 C3.61914281 2.32171426 5.5876676 3.86002219 7.0625 7.9375 C6.98471397 11.74901537 6.09098402 13.82747252 4 17 C1.67273175 18.76551385 0.02147649 18.99673184 -2.875 19.4375 C-6.24646986 18.96549422 -8.33782199 18.02559386 -10.8515625 15.69140625 C-12.73764431 12.91360549 -12.81662528 10.4502034 -12.5859375 7.16015625 C-11.0091498 1.34706559 -5.7543339 -1.19881956 0 0 Z " fill="#CDCDCD" transform="translate(664,514)"/>
<path d="M0 0 C3.61914281 2.32171426 5.5876676 3.86002219 7.0625 7.9375 C6.98471397 11.74901537 6.09098402 13.82747252 4 17 C1.67273175 18.76551385 0.02147649 18.99673184 -2.875 19.4375 C-6.24646986 18.96549422 -8.33782199 18.02559386 -10.8515625 15.69140625 C-12.73764431 12.91360549 -12.81662528 10.4502034 -12.5859375 7.16015625 C-11.0091498 1.34706559 -5.7543339 -1.19881956 0 0 Z " fill="#CDCDCD" transform="translate(572,514)"/>
<path d="M0 0 C3.61914281 2.32171426 5.5876676 3.86002219 7.0625 7.9375 C6.98471397 11.74901537 6.09098402 13.82747252 4 17 C1.67273175 18.76551385 0.02147649 18.99673184 -2.875 19.4375 C-6.24646986 18.96549422 -8.33782199 18.02559386 -10.8515625 15.69140625 C-12.73764431 12.91360549 -12.81662528 10.4502034 -12.5859375 7.16015625 C-11.0091498 1.34706559 -5.7543339 -1.19881956 0 0 Z " fill="#CDCDCD" transform="translate(477,514)"/>
<path d="M0 0 C3.61914281 2.32171426 5.5876676 3.86002219 7.0625 7.9375 C6.98471397 11.74901537 6.09098402 13.82747252 4 17 C1.67273175 18.76551385 0.02147649 18.99673184 -2.875 19.4375 C-6.24646986 18.96549422 -8.33782199 18.02559386 -10.8515625 15.69140625 C-12.73764431 12.91360549 -12.81662528 10.4502034 -12.5859375 7.16015625 C-11.0091498 1.34706559 -5.7543339 -1.19881956 0 0 Z " fill="#CDCDCD" transform="translate(1979,424)"/>
<path d="M0 0 C3.61914281 2.32171426 5.5876676 3.86002219 7.0625 7.9375 C6.98471397 11.74901537 6.09098402 13.82747252 4 17 C1.67273175 18.76551385 0.02147649 18.99673184 -2.875 19.4375 C-6.24646986 18.96549422 -8.33782199 18.02559386 -10.8515625 15.69140625 C-12.73764431 12.91360549 -12.81662528 10.4502034 -12.5859375 7.16015625 C-11.0091498 1.34706559 -5.7543339 -1.19881956 0 0 Z " fill="#CDCDCD" transform="translate(1884,424)"/>
<path d="M0 0 C3.61914281 2.32171426 5.5876676 3.86002219 7.0625 7.9375 C6.98471397 11.74901537 6.09098402 13.82747252 4 17 C1.67273175 18.76551385 0.02147649 18.99673184 -2.875 19.4375 C-6.24646986 18.96549422 -8.33782199 18.02559386 -10.8515625 15.69140625 C-12.73764431 12.91360549 -12.81662528 10.4502034 -12.5859375 7.16015625 C-11.0091498 1.34706559 -5.7543339 -1.19881956 0 0 Z " fill="#CDCDCD" transform="translate(1792,424)"/>
<path d="M0 0 C3.61914281 2.32171426 5.5876676 3.86002219 7.0625 7.9375 C6.98471397 11.74901537 6.09098402 13.82747252 4 17 C1.67273175 18.76551385 0.02147649 18.99673184 -2.875 19.4375 C-6.24646986 18.96549422 -8.33782199 18.02559386 -10.8515625 15.69140625 C-12.73764431 12.91360549 -12.81662528 10.4502034 -12.5859375 7.16015625 C-11.0091498 1.34706559 -5.7543339 -1.19881956 0 0 Z " fill="#CDCDCD" transform="translate(1697,424)"/>
<path d="M0 0 C3.61914281 2.32171426 5.5876676 3.86002219 7.0625 7.9375 C6.98471397 11.74901537 6.09098402 13.82747252 4 17 C1.67273175 18.76551385 0.02147649 18.99673184 -2.875 19.4375 C-6.24646986 18.96549422 -8.33782199 18.02559386 -10.8515625 15.69140625 C-12.73764431 12.91360549 -12.81662528 10.4502034 -12.5859375 7.16015625 C-11.0091498 1.34706559 -5.7543339 -1.19881956 0 0 Z " fill="#CDCDCD" transform="translate(1605,424)"/>
<path d="M0 0 C3.61914281 2.32171426 5.5876676 3.86002219 7.0625 7.9375 C6.98471397 11.74901537 6.09098402 13.82747252 4 17 C1.67273175 18.76551385 0.02147649 18.99673184 -2.875 19.4375 C-6.24646986 18.96549422 -8.33782199 18.02559386 -10.8515625 15.69140625 C-12.73764431 12.91360549 -12.81662528 10.4502034 -12.5859375 7.16015625 C-11.0091498 1.34706559 -5.7543339 -1.19881956 0 0 Z " fill="#CDCDCD" transform="translate(1510,424)"/>
<path d="M0 0 C3.61914281 2.32171426 5.5876676 3.86002219 7.0625 7.9375 C6.98471397 11.74901537 6.09098402 13.82747252 4 17 C1.67273175 18.76551385 0.02147649 18.99673184 -2.875 19.4375 C-6.24646986 18.96549422 -8.33782199 18.02559386 -10.8515625 15.69140625 C-12.73764431 12.91360549 -12.81662528 10.4502034 -12.5859375 7.16015625 C-11.0091498 1.34706559 -5.7543339 -1.19881956 0 0 Z " fill="#CDCDCD" transform="translate(1415,424)"/>
<path d="M0 0 C3.61914281 2.32171426 5.5876676 3.86002219 7.0625 7.9375 C6.98471397 11.74901537 6.09098402 13.82747252 4 17 C1.67273175 18.76551385 0.02147649 18.99673184 -2.875 19.4375 C-6.24646986 18.96549422 -8.33782199 18.02559386 -10.8515625 15.69140625 C-12.73764431 12.91360549 -12.81662528 10.4502034 -12.5859375 7.16015625 C-11.0091498 1.34706559 -5.7543339 -1.19881956 0 0 Z " fill="#CDCDCD" transform="translate(1323,424)"/>
<path d="M0 0 C3.61914281 2.32171426 5.5876676 3.86002219 7.0625 7.9375 C6.98471397 11.74901537 6.09098402 13.82747252 4 17 C1.67273175 18.76551385 0.02147649 18.99673184 -2.875 19.4375 C-6.24646986 18.96549422 -8.33782199 18.02559386 -10.8515625 15.69140625 C-12.73764431 12.91360549 -12.81662528 10.4502034 -12.5859375 7.16015625 C-11.0091498 1.34706559 -5.7543339 -1.19881956 0 0 Z " fill="#CDCDCD" transform="translate(1228,424)"/>
<path d="M0 0 C3.61914281 2.32171426 5.5876676 3.86002219 7.0625 7.9375 C6.98471397 11.74901537 6.09098402 13.82747252 4 17 C1.67273175 18.76551385 0.02147649 18.99673184 -2.875 19.4375 C-6.24646986 18.96549422 -8.33782199 18.02559386 -10.8515625 15.69140625 C-12.73764431 12.91360549 -12.81662528 10.4502034 -12.5859375 7.16015625 C-11.0091498 1.34706559 -5.7543339 -1.19881956 0 0 Z " fill="#CDCDCD" transform="translate(1133,424)"/>
<path d="M0 0 C3.61914281 2.32171426 5.5876676 3.86002219 7.0625 7.9375 C6.98471397 11.74901537 6.09098402 13.82747252 4 17 C1.67273175 18.76551385 0.02147649 18.99673184 -2.875 19.4375 C-6.24646986 18.96549422 -8.33782199 18.02559386 -10.8515625 15.69140625 C-12.73764431 12.91360549 -12.81662528 10.4502034 -12.5859375 7.16015625 C-11.0091498 1.34706559 -5.7543339 -1.19881956 0 0 Z " fill="#CDCDCD" transform="translate(1041,424)"/>
<path d="M0 0 C3.61914281 2.32171426 5.5876676 3.86002219 7.0625 7.9375 C6.98471397 11.74901537 6.09098402 13.82747252 4 17 C1.67273175 18.76551385 0.02147649 18.99673184 -2.875 19.4375 C-6.24646986 18.96549422 -8.33782199 18.02559386 -10.8515625 15.69140625 C-12.73764431 12.91360549 -12.81662528 10.4502034 -12.5859375 7.16015625 C-11.0091498 1.34706559 -5.7543339 -1.19881956 0 0 Z " fill="#CDCDCD" transform="translate(946,424)"/>
<path d="M0 0 C3.61914281 2.32171426 5.5876676 3.86002219 7.0625 7.9375 C6.98471397 11.74901537 6.09098402 13.82747252 4 17 C1.67273175 18.76551385 0.02147649 18.99673184 -2.875 19.4375 C-6.24646986 18.96549422 -8.33782199 18.02559386 -10.8515625 15.69140625 C-12.73764431 12.91360549 -12.81662528 10.4502034 -12.5859375 7.16015625 C-11.0091498 1.34706559 -5.7543339 -1.19881956 0 0 Z " fill="#CDCDCD" transform="translate(854,424)"/>
<path d="M0 0 C3.61914281 2.32171426 5.5876676 3.86002219 7.0625 7.9375 C6.98471397 11.74901537 6.09098402 13.82747252 4 17 C1.67273175 18.76551385 0.02147649 18.99673184 -2.875 19.4375 C-6.24646986 18.96549422 -8.33782199 18.02559386 -10.8515625 15.69140625 C-12.73764431 12.91360549 -12.81662528 10.4502034 -12.5859375 7.16015625 C-11.0091498 1.34706559 -5.7543339 -1.19881956 0 0 Z " fill="#CDCDCD" transform="translate(759,424)"/>
<path d="M0 0 C3.61914281 2.32171426 5.5876676 3.86002219 7.0625 7.9375 C6.98471397 11.74901537 6.09098402 13.82747252 4 17 C1.67273175 18.76551385 0.02147649 18.99673184 -2.875 19.4375 C-6.24646986 18.96549422 -8.33782199 18.02559386 -10.8515625 15.69140625 C-12.73764431 12.91360549 -12.81662528 10.4502034 -12.5859375 7.16015625 C-11.0091498 1.34706559 -5.7543339 -1.19881956 0 0 Z " fill="#CDCDCD" transform="translate(664,424)"/>
<path d="M0 0 C3.61914281 2.32171426 5.5876676 3.86002219 7.0625 7.9375 C6.98471397 11.74901537 6.09098402 13.82747252 4 17 C1.67273175 18.76551385 0.02147649 18.99673184 -2.875 19.4375 C-6.24646986 18.96549422 -8.33782199 18.02559386 -10.8515625 15.69140625 C-12.73764431 12.91360549 -12.81662528 10.4502034 -12.5859375 7.16015625 C-11.0091498 1.34706559 -5.7543339 -1.19881956 0 0 Z " fill="#CDCDCD" transform="translate(572,424)"/>
<path d="M0 0 C3.61914281 2.32171426 5.5876676 3.86002219 7.0625 7.9375 C6.98471397 11.74901537 6.09098402 13.82747252 4 17 C1.67273175 18.76551385 0.02147649 18.99673184 -2.875 19.4375 C-6.24646986 18.96549422 -8.33782199 18.02559386 -10.8515625 15.69140625 C-12.73764431 12.91360549 -12.81662528 10.4502034 -12.5859375 7.16015625 C-11.0091498 1.34706559 -5.7543339 -1.19881956 0 0 Z " fill="#CDCDCD" transform="translate(477,424)"/>
<path d="M0 0 C3.61914281 2.32171426 5.5876676 3.86002219 7.0625 7.9375 C6.98471397 11.74901537 6.09098402 13.82747252 4 17 C1.67273175 18.76551385 0.02147649 18.99673184 -2.875 19.4375 C-6.24646986 18.96549422 -8.33782199 18.02559386 -10.8515625 15.69140625 C-12.73764431 12.91360549 -12.81662528 10.4502034 -12.5859375 7.16015625 C-11.0091498 1.34706559 -5.7543339 -1.19881956 0 0 Z " fill="#CDCDCD" transform="translate(1980,332)"/>
<path d="M0 0 C3.61914281 2.32171426 5.5876676 3.86002219 7.0625 7.9375 C6.98471397 11.74901537 6.09098402 13.82747252 4 17 C1.67273175 18.76551385 0.02147649 18.99673184 -2.875 19.4375 C-6.24646986 18.96549422 -8.33782199 18.02559386 -10.8515625 15.69140625 C-12.73764431 12.91360549 -12.81662528 10.4502034 -12.5859375 7.16015625 C-11.0091498 1.34706559 -5.7543339 -1.19881956 0 0 Z " fill="#CDCDCD" transform="translate(1885,332)"/>
<path d="M0 0 C3.61914281 2.32171426 5.5876676 3.86002219 7.0625 7.9375 C6.98471397 11.74901537 6.09098402 13.82747252 4 17 C1.67273175 18.76551385 0.02147649 18.99673184 -2.875 19.4375 C-6.24646986 18.96549422 -8.33782199 18.02559386 -10.8515625 15.69140625 C-12.73764431 12.91360549 -12.81662528 10.4502034 -12.5859375 7.16015625 C-11.0091498 1.34706559 -5.7543339 -1.19881956 0 0 Z " fill="#CDCDCD" transform="translate(1793,332)"/>
<path d="M0 0 C3.61914281 2.32171426 5.5876676 3.86002219 7.0625 7.9375 C6.98471397 11.74901537 6.09098402 13.82747252 4 17 C1.67273175 18.76551385 0.02147649 18.99673184 -2.875 19.4375 C-6.24646986 18.96549422 -8.33782199 18.02559386 -10.8515625 15.69140625 C-12.73764431 12.91360549 -12.81662528 10.4502034 -12.5859375 7.16015625 C-11.0091498 1.34706559 -5.7543339 -1.19881956 0 0 Z " fill="#CDCDCD" transform="translate(1698,332)"/>
<path d="M0 0 C3.61914281 2.32171426 5.5876676 3.86002219 7.0625 7.9375 C6.98471397 11.74901537 6.09098402 13.82747252 4 17 C1.67273175 18.76551385 0.02147649 18.99673184 -2.875 19.4375 C-6.24646986 18.96549422 -8.33782199 18.02559386 -10.8515625 15.69140625 C-12.73764431 12.91360549 -12.81662528 10.4502034 -12.5859375 7.16015625 C-11.0091498 1.34706559 -5.7543339 -1.19881956 0 0 Z " fill="#CDCDCD" transform="translate(1606,332)"/>
<path d="M0 0 C3.61914281 2.32171426 5.5876676 3.86002219 7.0625 7.9375 C6.98471397 11.74901537 6.09098402 13.82747252 4 17 C1.67273175 18.76551385 0.02147649 18.99673184 -2.875 19.4375 C-6.24646986 18.96549422 -8.33782199 18.02559386 -10.8515625 15.69140625 C-12.73764431 12.91360549 -12.81662528 10.4502034 -12.5859375 7.16015625 C-11.0091498 1.34706559 -5.7543339 -1.19881956 0 0 Z " fill="#CDCDCD" transform="translate(1511,332)"/>
<path d="M0 0 C3.61914281 2.32171426 5.5876676 3.86002219 7.0625 7.9375 C6.98471397 11.74901537 6.09098402 13.82747252 4 17 C1.67273175 18.76551385 0.02147649 18.99673184 -2.875 19.4375 C-6.24646986 18.96549422 -8.33782199 18.02559386 -10.8515625 15.69140625 C-12.73764431 12.91360549 -12.81662528 10.4502034 -12.5859375 7.16015625 C-11.0091498 1.34706559 -5.7543339 -1.19881956 0 0 Z " fill="#CDCDCD" transform="translate(1416,332)"/>
<path d="M0 0 C3.61914281 2.32171426 5.5876676 3.86002219 7.0625 7.9375 C6.98471397 11.74901537 6.09098402 13.82747252 4 17 C1.67273175 18.76551385 0.02147649 18.99673184 -2.875 19.4375 C-6.24646986 18.96549422 -8.33782199 18.02559386 -10.8515625 15.69140625 C-12.73764431 12.91360549 -12.81662528 10.4502034 -12.5859375 7.16015625 C-11.0091498 1.34706559 -5.7543339 -1.19881956 0 0 Z " fill="#CDCDCD" transform="translate(1324,332)"/>
<path d="M0 0 C3.61914281 2.32171426 5.5876676 3.86002219 7.0625 7.9375 C6.98471397 11.74901537 6.09098402 13.82747252 4 17 C1.67273175 18.76551385 0.02147649 18.99673184 -2.875 19.4375 C-6.24646986 18.96549422 -8.33782199 18.02559386 -10.8515625 15.69140625 C-12.73764431 12.91360549 -12.81662528 10.4502034 -12.5859375 7.16015625 C-11.0091498 1.34706559 -5.7543339 -1.19881956 0 0 Z " fill="#CDCDCD" transform="translate(1229,332)"/>
<path d="M0 0 C3.61914281 2.32171426 5.5876676 3.86002219 7.0625 7.9375 C6.98471397 11.74901537 6.09098402 13.82747252 4 17 C1.67273175 18.76551385 0.02147649 18.99673184 -2.875 19.4375 C-6.24646986 18.96549422 -8.33782199 18.02559386 -10.8515625 15.69140625 C-12.73764431 12.91360549 -12.81662528 10.4502034 -12.5859375 7.16015625 C-11.0091498 1.34706559 -5.7543339 -1.19881956 0 0 Z " fill="#CDCDCD" transform="translate(1134,332)"/>
<path d="M0 0 C3.61914281 2.32171426 5.5876676 3.86002219 7.0625 7.9375 C6.98471397 11.74901537 6.09098402 13.82747252 4 17 C1.67273175 18.76551385 0.02147649 18.99673184 -2.875 19.4375 C-6.24646986 18.96549422 -8.33782199 18.02559386 -10.8515625 15.69140625 C-12.73764431 12.91360549 -12.81662528 10.4502034 -12.5859375 7.16015625 C-11.0091498 1.34706559 -5.7543339 -1.19881956 0 0 Z " fill="#CDCDCD" transform="translate(1042,332)"/>
<path d="M0 0 C3.61914281 2.32171426 5.5876676 3.86002219 7.0625 7.9375 C6.98471397 11.74901537 6.09098402 13.82747252 4 17 C1.67273175 18.76551385 0.02147649 18.99673184 -2.875 19.4375 C-6.24646986 18.96549422 -8.33782199 18.02559386 -10.8515625 15.69140625 C-12.73764431 12.91360549 -12.81662528 10.4502034 -12.5859375 7.16015625 C-11.0091498 1.34706559 -5.7543339 -1.19881956 0 0 Z " fill="#CDCDCD" transform="translate(947,332)"/>
<path d="M0 0 C3.61914281 2.32171426 5.5876676 3.86002219 7.0625 7.9375 C6.98471397 11.74901537 6.09098402 13.82747252 4 17 C1.67273175 18.76551385 0.02147649 18.99673184 -2.875 19.4375 C-6.24646986 18.96549422 -8.33782199 18.02559386 -10.8515625 15.69140625 C-12.73764431 12.91360549 -12.81662528 10.4502034 -12.5859375 7.16015625 C-11.0091498 1.34706559 -5.7543339 -1.19881956 0 0 Z " fill="#CDCDCD" transform="translate(855,332)"/>
<path d="M0 0 C3.61914281 2.32171426 5.5876676 3.86002219 7.0625 7.9375 C6.98471397 11.74901537 6.09098402 13.82747252 4 17 C1.67273175 18.76551385 0.02147649 18.99673184 -2.875 19.4375 C-6.24646986 18.96549422 -8.33782199 18.02559386 -10.8515625 15.69140625 C-12.73764431 12.91360549 -12.81662528 10.4502034 -12.5859375 7.16015625 C-11.0091498 1.34706559 -5.7543339 -1.19881956 0 0 Z " fill="#CDCDCD" transform="translate(760,332)"/>
<path d="M0 0 C3.61914281 2.32171426 5.5876676 3.86002219 7.0625 7.9375 C6.98471397 11.74901537 6.09098402 13.82747252 4 17 C1.67273175 18.76551385 0.02147649 18.99673184 -2.875 19.4375 C-6.24646986 18.96549422 -8.33782199 18.02559386 -10.8515625 15.69140625 C-12.73764431 12.91360549 -12.81662528 10.4502034 -12.5859375 7.16015625 C-11.0091498 1.34706559 -5.7543339 -1.19881956 0 0 Z " fill="#CDCDCD" transform="translate(665,332)"/>
<path d="M0 0 C3.61914281 2.32171426 5.5876676 3.86002219 7.0625 7.9375 C6.98471397 11.74901537 6.09098402 13.82747252 4 17 C1.67273175 18.76551385 0.02147649 18.99673184 -2.875 19.4375 C-6.24646986 18.96549422 -8.33782199 18.02559386 -10.8515625 15.69140625 C-12.73764431 12.91360549 -12.81662528 10.4502034 -12.5859375 7.16015625 C-11.0091498 1.34706559 -5.7543339 -1.19881956 0 0 Z " fill="#CDCDCD" transform="translate(573,332)"/>
<path d="M0 0 C3.61914281 2.32171426 5.5876676 3.86002219 7.0625 7.9375 C6.98471397 11.74901537 6.09098402 13.82747252 4 17 C1.67273175 18.76551385 0.02147649 18.99673184 -2.875 19.4375 C-6.24646986 18.96549422 -8.33782199 18.02559386 -10.8515625 15.69140625 C-12.73764431 12.91360549 -12.81662528 10.4502034 -12.5859375 7.16015625 C-11.0091498 1.34706559 -5.7543339 -1.19881956 0 0 Z " fill="#CDCDCD" transform="translate(478,332)"/>
<path d="M0 0 C3.61914281 2.32171426 5.5876676 3.86002219 7.0625 7.9375 C6.98471397 11.74901537 6.09098402 13.82747252 4 17 C1.67273175 18.76551385 0.02147649 18.99673184 -2.875 19.4375 C-6.24646986 18.96549422 -8.33782199 18.02559386 -10.8515625 15.69140625 C-12.73764431 12.91360549 -12.81662528 10.4502034 -12.5859375 7.16015625 C-11.0091498 1.34706559 -5.7543339 -1.19881956 0 0 Z " fill="#CDCDCD" transform="translate(1981,243)"/>
<path d="M0 0 C3.61914281 2.32171426 5.5876676 3.86002219 7.0625 7.9375 C6.98471397 11.74901537 6.09098402 13.82747252 4 17 C1.67273175 18.76551385 0.02147649 18.99673184 -2.875 19.4375 C-6.24646986 18.96549422 -8.33782199 18.02559386 -10.8515625 15.69140625 C-12.73764431 12.91360549 -12.81662528 10.4502034 -12.5859375 7.16015625 C-11.0091498 1.34706559 -5.7543339 -1.19881956 0 0 Z " fill="#CDCDCD" transform="translate(1886,243)"/>
<path d="M0 0 C3.61914281 2.32171426 5.5876676 3.86002219 7.0625 7.9375 C6.98471397 11.74901537 6.09098402 13.82747252 4 17 C1.67273175 18.76551385 0.02147649 18.99673184 -2.875 19.4375 C-6.24646986 18.96549422 -8.33782199 18.02559386 -10.8515625 15.69140625 C-12.73764431 12.91360549 -12.81662528 10.4502034 -12.5859375 7.16015625 C-11.0091498 1.34706559 -5.7543339 -1.19881956 0 0 Z " fill="#CDCDCD" transform="translate(1794,243)"/>
<path d="M0 0 C3.61914281 2.32171426 5.5876676 3.86002219 7.0625 7.9375 C6.98471397 11.74901537 6.09098402 13.82747252 4 17 C1.67273175 18.76551385 0.02147649 18.99673184 -2.875 19.4375 C-6.24646986 18.96549422 -8.33782199 18.02559386 -10.8515625 15.69140625 C-12.73764431 12.91360549 -12.81662528 10.4502034 -12.5859375 7.16015625 C-11.0091498 1.34706559 -5.7543339 -1.19881956 0 0 Z " fill="#CDCDCD" transform="translate(1699,243)"/>
<path d="M0 0 C3.61914281 2.32171426 5.5876676 3.86002219 7.0625 7.9375 C6.98471397 11.74901537 6.09098402 13.82747252 4 17 C1.67273175 18.76551385 0.02147649 18.99673184 -2.875 19.4375 C-6.24646986 18.96549422 -8.33782199 18.02559386 -10.8515625 15.69140625 C-12.73764431 12.91360549 -12.81662528 10.4502034 -12.5859375 7.16015625 C-11.0091498 1.34706559 -5.7543339 -1.19881956 0 0 Z " fill="#CDCDCD" transform="translate(1607,243)"/>
<path d="M0 0 C3.61914281 2.32171426 5.5876676 3.86002219 7.0625 7.9375 C6.98471397 11.74901537 6.09098402 13.82747252 4 17 C1.67273175 18.76551385 0.02147649 18.99673184 -2.875 19.4375 C-6.24646986 18.96549422 -8.33782199 18.02559386 -10.8515625 15.69140625 C-12.73764431 12.91360549 -12.81662528 10.4502034 -12.5859375 7.16015625 C-11.0091498 1.34706559 -5.7543339 -1.19881956 0 0 Z " fill="#CDCDCD" transform="translate(1512,243)"/>
<path d="M0 0 C3.61914281 2.32171426 5.5876676 3.86002219 7.0625 7.9375 C6.98471397 11.74901537 6.09098402 13.82747252 4 17 C1.67273175 18.76551385 0.02147649 18.99673184 -2.875 19.4375 C-6.24646986 18.96549422 -8.33782199 18.02559386 -10.8515625 15.69140625 C-12.73764431 12.91360549 -12.81662528 10.4502034 -12.5859375 7.16015625 C-11.0091498 1.34706559 -5.7543339 -1.19881956 0 0 Z " fill="#CDCDCD" transform="translate(1417,243)"/>
<path d="M0 0 C3.61914281 2.32171426 5.5876676 3.86002219 7.0625 7.9375 C6.98471397 11.74901537 6.09098402 13.82747252 4 17 C1.67273175 18.76551385 0.02147649 18.99673184 -2.875 19.4375 C-6.24646986 18.96549422 -8.33782199 18.02559386 -10.8515625 15.69140625 C-12.73764431 12.91360549 -12.81662528 10.4502034 -12.5859375 7.16015625 C-11.0091498 1.34706559 -5.7543339 -1.19881956 0 0 Z " fill="#CDCDCD" transform="translate(1325,243)"/>
<path d="M0 0 C3.61914281 2.32171426 5.5876676 3.86002219 7.0625 7.9375 C6.98471397 11.74901537 6.09098402 13.82747252 4 17 C1.67273175 18.76551385 0.02147649 18.99673184 -2.875 19.4375 C-6.24646986 18.96549422 -8.33782199 18.02559386 -10.8515625 15.69140625 C-12.73764431 12.91360549 -12.81662528 10.4502034 -12.5859375 7.16015625 C-11.0091498 1.34706559 -5.7543339 -1.19881956 0 0 Z " fill="#CDCDCD" transform="translate(1230,243)"/>
<path d="M0 0 C3.61914281 2.32171426 5.5876676 3.86002219 7.0625 7.9375 C6.98471397 11.74901537 6.09098402 13.82747252 4 17 C1.67273175 18.76551385 0.02147649 18.99673184 -2.875 19.4375 C-6.24646986 18.96549422 -8.33782199 18.02559386 -10.8515625 15.69140625 C-12.73764431 12.91360549 -12.81662528 10.4502034 -12.5859375 7.16015625 C-11.0091498 1.34706559 -5.7543339 -1.19881956 0 0 Z " fill="#CDCDCD" transform="translate(1135,243)"/>
<path d="M0 0 C3.61914281 2.32171426 5.5876676 3.86002219 7.0625 7.9375 C6.98471397 11.74901537 6.09098402 13.82747252 4 17 C1.67273175 18.76551385 0.02147649 18.99673184 -2.875 19.4375 C-6.24646986 18.96549422 -8.33782199 18.02559386 -10.8515625 15.69140625 C-12.73764431 12.91360549 -12.81662528 10.4502034 -12.5859375 7.16015625 C-11.0091498 1.34706559 -5.7543339 -1.19881956 0 0 Z " fill="#CDCDCD" transform="translate(1043,243)"/>
<path d="M0 0 C3.61914281 2.32171426 5.5876676 3.86002219 7.0625 7.9375 C6.98471397 11.74901537 6.09098402 13.82747252 4 17 C1.67273175 18.76551385 0.02147649 18.99673184 -2.875 19.4375 C-6.24646986 18.96549422 -8.33782199 18.02559386 -10.8515625 15.69140625 C-12.73764431 12.91360549 -12.81662528 10.4502034 -12.5859375 7.16015625 C-11.0091498 1.34706559 -5.7543339 -1.19881956 0 0 Z " fill="#CDCDCD" transform="translate(948,243)"/>
<path d="M0 0 C3.61914281 2.32171426 5.5876676 3.86002219 7.0625 7.9375 C6.98471397 11.74901537 6.09098402 13.82747252 4 17 C1.67273175 18.76551385 0.02147649 18.99673184 -2.875 19.4375 C-6.24646986 18.96549422 -8.33782199 18.02559386 -10.8515625 15.69140625 C-12.73764431 12.91360549 -12.81662528 10.4502034 -12.5859375 7.16015625 C-11.0091498 1.34706559 -5.7543339 -1.19881956 0 0 Z " fill="#CDCDCD" transform="translate(856,243)"/>
<path d="M0 0 C3.61914281 2.32171426 5.5876676 3.86002219 7.0625 7.9375 C6.98471397 11.74901537 6.09098402 13.82747252 4 17 C1.67273175 18.76551385 0.02147649 18.99673184 -2.875 19.4375 C-6.24646986 18.96549422 -8.33782199 18.02559386 -10.8515625 15.69140625 C-12.73764431 12.91360549 -12.81662528 10.4502034 -12.5859375 7.16015625 C-11.0091498 1.34706559 -5.7543339 -1.19881956 0 0 Z " fill="#CDCDCD" transform="translate(761,243)"/>
<path d="M0 0 C3.61914281 2.32171426 5.5876676 3.86002219 7.0625 7.9375 C6.98471397 11.74901537 6.09098402 13.82747252 4 17 C1.67273175 18.76551385 0.02147649 18.99673184 -2.875 19.4375 C-6.24646986 18.96549422 -8.33782199 18.02559386 -10.8515625 15.69140625 C-12.73764431 12.91360549 -12.81662528 10.4502034 -12.5859375 7.16015625 C-11.0091498 1.34706559 -5.7543339 -1.19881956 0 0 Z " fill="#CDCDCD" transform="translate(666,243)"/>
<path d="M0 0 C3.61914281 2.32171426 5.5876676 3.86002219 7.0625 7.9375 C6.98471397 11.74901537 6.09098402 13.82747252 4 17 C1.67273175 18.76551385 0.02147649 18.99673184 -2.875 19.4375 C-6.24646986 18.96549422 -8.33782199 18.02559386 -10.8515625 15.69140625 C-12.73764431 12.91360549 -12.81662528 10.4502034 -12.5859375 7.16015625 C-11.0091498 1.34706559 -5.7543339 -1.19881956 0 0 Z " fill="#CDCDCD" transform="translate(574,243)"/>
<path d="M0 0 C3.61914281 2.32171426 5.5876676 3.86002219 7.0625 7.9375 C6.98471397 11.74901537 6.09098402 13.82747252 4 17 C1.67273175 18.76551385 0.02147649 18.99673184 -2.875 19.4375 C-6.24646986 18.96549422 -8.33782199 18.02559386 -10.8515625 15.69140625 C-12.73764431 12.91360549 -12.81662528 10.4502034 -12.5859375 7.16015625 C-11.0091498 1.34706559 -5.7543339 -1.19881956 0 0 Z " fill="#CDCDCD" transform="translate(479,243)"/>
<path d="M0 0 C3.61914281 2.32171426 5.5876676 3.86002219 7.0625 7.9375 C6.98471397 11.74901537 6.09098402 13.82747252 4 17 C1.67273175 18.76551385 0.02147649 18.99673184 -2.875 19.4375 C-6.24646986 18.96549422 -8.33782199 18.02559386 -10.8515625 15.69140625 C-12.73764431 12.91360549 -12.81662528 10.4502034 -12.5859375 7.16015625 C-11.0091498 1.34706559 -5.7543339 -1.19881956 0 0 Z " fill="#CDCDCD" transform="translate(1982,151)"/>
<path d="M0 0 C3.61914281 2.32171426 5.5876676 3.86002219 7.0625 7.9375 C6.98471397 11.74901537 6.09098402 13.82747252 4 17 C1.67273175 18.76551385 0.02147649 18.99673184 -2.875 19.4375 C-6.24646986 18.96549422 -8.33782199 18.02559386 -10.8515625 15.69140625 C-12.73764431 12.91360549 -12.81662528 10.4502034 -12.5859375 7.16015625 C-11.0091498 1.34706559 -5.7543339 -1.19881956 0 0 Z " fill="#CDCDCD" transform="translate(1887,151)"/>
<path d="M0 0 C3.61914281 2.32171426 5.5876676 3.86002219 7.0625 7.9375 C6.98471397 11.74901537 6.09098402 13.82747252 4 17 C1.67273175 18.76551385 0.02147649 18.99673184 -2.875 19.4375 C-6.24646986 18.96549422 -8.33782199 18.02559386 -10.8515625 15.69140625 C-12.73764431 12.91360549 -12.81662528 10.4502034 -12.5859375 7.16015625 C-11.0091498 1.34706559 -5.7543339 -1.19881956 0 0 Z " fill="#CDCDCD" transform="translate(1795,151)"/>
<path d="M0 0 C3.61914281 2.32171426 5.5876676 3.86002219 7.0625 7.9375 C6.98471397 11.74901537 6.09098402 13.82747252 4 17 C1.67273175 18.76551385 0.02147649 18.99673184 -2.875 19.4375 C-6.24646986 18.96549422 -8.33782199 18.02559386 -10.8515625 15.69140625 C-12.73764431 12.91360549 -12.81662528 10.4502034 -12.5859375 7.16015625 C-11.0091498 1.34706559 -5.7543339 -1.19881956 0 0 Z " fill="#CDCDCD" transform="translate(1700,151)"/>
<path d="M0 0 C3.61914281 2.32171426 5.5876676 3.86002219 7.0625 7.9375 C6.98471397 11.74901537 6.09098402 13.82747252 4 17 C1.67273175 18.76551385 0.02147649 18.99673184 -2.875 19.4375 C-6.24646986 18.96549422 -8.33782199 18.02559386 -10.8515625 15.69140625 C-12.73764431 12.91360549 -12.81662528 10.4502034 -12.5859375 7.16015625 C-11.0091498 1.34706559 -5.7543339 -1.19881956 0 0 Z " fill="#CDCDCD" transform="translate(1608,151)"/>
<path d="M0 0 C3.61914281 2.32171426 5.5876676 3.86002219 7.0625 7.9375 C6.98471397 11.74901537 6.09098402 13.82747252 4 17 C1.67273175 18.76551385 0.02147649 18.99673184 -2.875 19.4375 C-6.24646986 18.96549422 -8.33782199 18.02559386 -10.8515625 15.69140625 C-12.73764431 12.91360549 -12.81662528 10.4502034 -12.5859375 7.16015625 C-11.0091498 1.34706559 -5.7543339 -1.19881956 0 0 Z " fill="#CDCDCD" transform="translate(1513,151)"/>
<path d="M0 0 C3.61914281 2.32171426 5.5876676 3.86002219 7.0625 7.9375 C6.98471397 11.74901537 6.09098402 13.82747252 4 17 C1.67273175 18.76551385 0.02147649 18.99673184 -2.875 19.4375 C-6.24646986 18.96549422 -8.33782199 18.02559386 -10.8515625 15.69140625 C-12.73764431 12.91360549 -12.81662528 10.4502034 -12.5859375 7.16015625 C-11.0091498 1.34706559 -5.7543339 -1.19881956 0 0 Z " fill="#CDCDCD" transform="translate(1418,151)"/>
<path d="M0 0 C3.61914281 2.32171426 5.5876676 3.86002219 7.0625 7.9375 C6.98471397 11.74901537 6.09098402 13.82747252 4 17 C1.67273175 18.76551385 0.02147649 18.99673184 -2.875 19.4375 C-6.24646986 18.96549422 -8.33782199 18.02559386 -10.8515625 15.69140625 C-12.73764431 12.91360549 -12.81662528 10.4502034 -12.5859375 7.16015625 C-11.0091498 1.34706559 -5.7543339 -1.19881956 0 0 Z " fill="#CDCDCD" transform="translate(1326,151)"/>
<path d="M0 0 C3.61914281 2.32171426 5.5876676 3.86002219 7.0625 7.9375 C6.98471397 11.74901537 6.09098402 13.82747252 4 17 C1.67273175 18.76551385 0.02147649 18.99673184 -2.875 19.4375 C-6.24646986 18.96549422 -8.33782199 18.02559386 -10.8515625 15.69140625 C-12.73764431 12.91360549 -12.81662528 10.4502034 -12.5859375 7.16015625 C-11.0091498 1.34706559 -5.7543339 -1.19881956 0 0 Z " fill="#CDCDCD" transform="translate(1231,151)"/>
<path d="M0 0 C3.61914281 2.32171426 5.5876676 3.86002219 7.0625 7.9375 C6.98471397 11.74901537 6.09098402 13.82747252 4 17 C1.67273175 18.76551385 0.02147649 18.99673184 -2.875 19.4375 C-6.24646986 18.96549422 -8.33782199 18.02559386 -10.8515625 15.69140625 C-12.73764431 12.91360549 -12.81662528 10.4502034 -12.5859375 7.16015625 C-11.0091498 1.34706559 -5.7543339 -1.19881956 0 0 Z " fill="#CDCDCD" transform="translate(1136,151)"/>
<path d="M0 0 C3.61914281 2.32171426 5.5876676 3.86002219 7.0625 7.9375 C6.98471397 11.74901537 6.09098402 13.82747252 4 17 C1.67273175 18.76551385 0.02147649 18.99673184 -2.875 19.4375 C-6.24646986 18.96549422 -8.33782199 18.02559386 -10.8515625 15.69140625 C-12.73764431 12.91360549 -12.81662528 10.4502034 -12.5859375 7.16015625 C-11.0091498 1.34706559 -5.7543339 -1.19881956 0 0 Z " fill="#CDCDCD" transform="translate(1044,151)"/>
<path d="M0 0 C3.61914281 2.32171426 5.5876676 3.86002219 7.0625 7.9375 C6.98471397 11.74901537 6.09098402 13.82747252 4 17 C1.67273175 18.76551385 0.02147649 18.99673184 -2.875 19.4375 C-6.24646986 18.96549422 -8.33782199 18.02559386 -10.8515625 15.69140625 C-12.73764431 12.91360549 -12.81662528 10.4502034 -12.5859375 7.16015625 C-11.0091498 1.34706559 -5.7543339 -1.19881956 0 0 Z " fill="#CDCDCD" transform="translate(949,151)"/>
<path d="M0 0 C3.61914281 2.32171426 5.5876676 3.86002219 7.0625 7.9375 C6.98471397 11.74901537 6.09098402 13.82747252 4 17 C1.67273175 18.76551385 0.02147649 18.99673184 -2.875 19.4375 C-6.24646986 18.96549422 -8.33782199 18.02559386 -10.8515625 15.69140625 C-12.73764431 12.91360549 -12.81662528 10.4502034 -12.5859375 7.16015625 C-11.0091498 1.34706559 -5.7543339 -1.19881956 0 0 Z " fill="#CDCDCD" transform="translate(857,151)"/>
<path d="M0 0 C3.61914281 2.32171426 5.5876676 3.86002219 7.0625 7.9375 C6.98471397 11.74901537 6.09098402 13.82747252 4 17 C1.67273175 18.76551385 0.02147649 18.99673184 -2.875 19.4375 C-6.24646986 18.96549422 -8.33782199 18.02559386 -10.8515625 15.69140625 C-12.73764431 12.91360549 -12.81662528 10.4502034 -12.5859375 7.16015625 C-11.0091498 1.34706559 -5.7543339 -1.19881956 0 0 Z " fill="#CDCDCD" transform="translate(762,151)"/>
<path d="M0 0 C3.61914281 2.32171426 5.5876676 3.86002219 7.0625 7.9375 C6.98471397 11.74901537 6.09098402 13.82747252 4 17 C1.67273175 18.76551385 0.02147649 18.99673184 -2.875 19.4375 C-6.24646986 18.96549422 -8.33782199 18.02559386 -10.8515625 15.69140625 C-12.73764431 12.91360549 -12.81662528 10.4502034 -12.5859375 7.16015625 C-11.0091498 1.34706559 -5.7543339 -1.19881956 0 0 Z " fill="#CDCDCD" transform="translate(667,151)"/>
<path d="M0 0 C3.61914281 2.32171426 5.5876676 3.86002219 7.0625 7.9375 C6.98471397 11.74901537 6.09098402 13.82747252 4 17 C1.67273175 18.76551385 0.02147649 18.99673184 -2.875 19.4375 C-6.24646986 18.96549422 -8.33782199 18.02559386 -10.8515625 15.69140625 C-12.73764431 12.91360549 -12.81662528 10.4502034 -12.5859375 7.16015625 C-11.0091498 1.34706559 -5.7543339 -1.19881956 0 0 Z " fill="#CDCDCD" transform="translate(575,151)"/>
<path d="M0 0 C3.61914281 2.32171426 5.5876676 3.86002219 7.0625 7.9375 C6.98471397 11.74901537 6.09098402 13.82747252 4 17 C1.67273175 18.76551385 0.02147649 18.99673184 -2.875 19.4375 C-6.24646986 18.96549422 -8.33782199 18.02559386 -10.8515625 15.69140625 C-12.73764431 12.91360549 -12.81662528 10.4502034 -12.5859375 7.16015625 C-11.0091498 1.34706559 -5.7543339 -1.19881956 0 0 Z " fill="#CDCDCD" transform="translate(480,151)"/>
<path d="M0 0 C3.61914281 2.32171426 5.5876676 3.86002219 7.0625 7.9375 C6.98471397 11.74901537 6.09098402 13.82747252 4 17 C1.67273175 18.76551385 0.02147649 18.99673184 -2.875 19.4375 C-6.24646986 18.96549422 -8.33782199 18.02559386 -10.8515625 15.69140625 C-12.73764431 12.91360549 -12.81662528 10.4502034 -12.5859375 7.16015625 C-11.0091498 1.34706559 -5.7543339 -1.19881956 0 0 Z " fill="#CDCDCD" transform="translate(1983,59)"/>
<path d="M0 0 C3.61914281 2.32171426 5.5876676 3.86002219 7.0625 7.9375 C6.98471397 11.74901537 6.09098402 13.82747252 4 17 C1.67273175 18.76551385 0.02147649 18.99673184 -2.875 19.4375 C-6.24646986 18.96549422 -8.33782199 18.02559386 -10.8515625 15.69140625 C-12.73764431 12.91360549 -12.81662528 10.4502034 -12.5859375 7.16015625 C-11.0091498 1.34706559 -5.7543339 -1.19881956 0 0 Z " fill="#CDCDCD" transform="translate(1888,59)"/>
<path d="M0 0 C3.61914281 2.32171426 5.5876676 3.86002219 7.0625 7.9375 C6.98471397 11.74901537 6.09098402 13.82747252 4 17 C1.67273175 18.76551385 0.02147649 18.99673184 -2.875 19.4375 C-6.24646986 18.96549422 -8.33782199 18.02559386 -10.8515625 15.69140625 C-12.73764431 12.91360549 -12.81662528 10.4502034 -12.5859375 7.16015625 C-11.0091498 1.34706559 -5.7543339 -1.19881956 0 0 Z " fill="#CDCDCD" transform="translate(1796,59)"/>
<path d="M0 0 C3.61914281 2.32171426 5.5876676 3.86002219 7.0625 7.9375 C6.98471397 11.74901537 6.09098402 13.82747252 4 17 C1.67273175 18.76551385 0.02147649 18.99673184 -2.875 19.4375 C-6.24646986 18.96549422 -8.33782199 18.02559386 -10.8515625 15.69140625 C-12.73764431 12.91360549 -12.81662528 10.4502034 -12.5859375 7.16015625 C-11.0091498 1.34706559 -5.7543339 -1.19881956 0 0 Z " fill="#CDCDCD" transform="translate(1701,59)"/>
<path d="M0 0 C3.61914281 2.32171426 5.5876676 3.86002219 7.0625 7.9375 C6.98471397 11.74901537 6.09098402 13.82747252 4 17 C1.67273175 18.76551385 0.02147649 18.99673184 -2.875 19.4375 C-6.24646986 18.96549422 -8.33782199 18.02559386 -10.8515625 15.69140625 C-12.73764431 12.91360549 -12.81662528 10.4502034 -12.5859375 7.16015625 C-11.0091498 1.34706559 -5.7543339 -1.19881956 0 0 Z " fill="#CDCDCD" transform="translate(1609,59)"/>
<path d="M0 0 C3.61914281 2.32171426 5.5876676 3.86002219 7.0625 7.9375 C6.98471397 11.74901537 6.09098402 13.82747252 4 17 C1.67273175 18.76551385 0.02147649 18.99673184 -2.875 19.4375 C-6.24646986 18.96549422 -8.33782199 18.02559386 -10.8515625 15.69140625 C-12.73764431 12.91360549 -12.81662528 10.4502034 -12.5859375 7.16015625 C-11.0091498 1.34706559 -5.7543339 -1.19881956 0 0 Z " fill="#CDCDCD" transform="translate(1514,59)"/>
<path d="M0 0 C3.61914281 2.32171426 5.5876676 3.86002219 7.0625 7.9375 C6.98471397 11.74901537 6.09098402 13.82747252 4 17 C1.67273175 18.76551385 0.02147649 18.99673184 -2.875 19.4375 C-6.24646986 18.96549422 -8.33782199 18.02559386 -10.8515625 15.69140625 C-12.73764431 12.91360549 -12.81662528 10.4502034 -12.5859375 7.16015625 C-11.0091498 1.34706559 -5.7543339 -1.19881956 0 0 Z " fill="#CDCDCD" transform="translate(1419,59)"/>
<path d="M0 0 C3.61914281 2.32171426 5.5876676 3.86002219 7.0625 7.9375 C6.98471397 11.74901537 6.09098402 13.82747252 4 17 C1.67273175 18.76551385 0.02147649 18.99673184 -2.875 19.4375 C-6.24646986 18.96549422 -8.33782199 18.02559386 -10.8515625 15.69140625 C-12.73764431 12.91360549 -12.81662528 10.4502034 -12.5859375 7.16015625 C-11.0091498 1.34706559 -5.7543339 -1.19881956 0 0 Z " fill="#CDCDCD" transform="translate(1327,59)"/>
<path d="M0 0 C3.61914281 2.32171426 5.5876676 3.86002219 7.0625 7.9375 C6.98471397 11.74901537 6.09098402 13.82747252 4 17 C1.67273175 18.76551385 0.02147649 18.99673184 -2.875 19.4375 C-6.24646986 18.96549422 -8.33782199 18.02559386 -10.8515625 15.69140625 C-12.73764431 12.91360549 -12.81662528 10.4502034 -12.5859375 7.16015625 C-11.0091498 1.34706559 -5.7543339 -1.19881956 0 0 Z " fill="#CDCDCD" transform="translate(1232,59)"/>
<path d="M0 0 C3.61914281 2.32171426 5.5876676 3.86002219 7.0625 7.9375 C6.98471397 11.74901537 6.09098402 13.82747252 4 17 C1.67273175 18.76551385 0.02147649 18.99673184 -2.875 19.4375 C-6.24646986 18.96549422 -8.33782199 18.02559386 -10.8515625 15.69140625 C-12.73764431 12.91360549 -12.81662528 10.4502034 -12.5859375 7.16015625 C-11.0091498 1.34706559 -5.7543339 -1.19881956 0 0 Z " fill="#CDCDCD" transform="translate(1137,59)"/>
<path d="M0 0 C3.61914281 2.32171426 5.5876676 3.86002219 7.0625 7.9375 C6.98471397 11.74901537 6.09098402 13.82747252 4 17 C1.67273175 18.76551385 0.02147649 18.99673184 -2.875 19.4375 C-6.24646986 18.96549422 -8.33782199 18.02559386 -10.8515625 15.69140625 C-12.73764431 12.91360549 -12.81662528 10.4502034 -12.5859375 7.16015625 C-11.0091498 1.34706559 -5.7543339 -1.19881956 0 0 Z " fill="#CDCDCD" transform="translate(1045,59)"/>
<path d="M0 0 C3.61914281 2.32171426 5.5876676 3.86002219 7.0625 7.9375 C6.98471397 11.74901537 6.09098402 13.82747252 4 17 C1.67273175 18.76551385 0.02147649 18.99673184 -2.875 19.4375 C-6.24646986 18.96549422 -8.33782199 18.02559386 -10.8515625 15.69140625 C-12.73764431 12.91360549 -12.81662528 10.4502034 -12.5859375 7.16015625 C-11.0091498 1.34706559 -5.7543339 -1.19881956 0 0 Z " fill="#CDCDCD" transform="translate(950,59)"/>
<path d="M0 0 C3.61914281 2.32171426 5.5876676 3.86002219 7.0625 7.9375 C6.98471397 11.74901537 6.09098402 13.82747252 4 17 C1.67273175 18.76551385 0.02147649 18.99673184 -2.875 19.4375 C-6.24646986 18.96549422 -8.33782199 18.02559386 -10.8515625 15.69140625 C-12.73764431 12.91360549 -12.81662528 10.4502034 -12.5859375 7.16015625 C-11.0091498 1.34706559 -5.7543339 -1.19881956 0 0 Z " fill="#CDCDCD" transform="translate(858,59)"/>
<path d="M0 0 C3.61914281 2.32171426 5.5876676 3.86002219 7.0625 7.9375 C6.98471397 11.74901537 6.09098402 13.82747252 4 17 C1.67273175 18.76551385 0.02147649 18.99673184 -2.875 19.4375 C-6.24646986 18.96549422 -8.33782199 18.02559386 -10.8515625 15.69140625 C-12.73764431 12.91360549 -12.81662528 10.4502034 -12.5859375 7.16015625 C-11.0091498 1.34706559 -5.7543339 -1.19881956 0 0 Z " fill="#CDCDCD" transform="translate(763,59)"/>
<path d="M0 0 C3.61914281 2.32171426 5.5876676 3.86002219 7.0625 7.9375 C6.98471397 11.74901537 6.09098402 13.82747252 4 17 C1.67273175 18.76551385 0.02147649 18.99673184 -2.875 19.4375 C-6.24646986 18.96549422 -8.33782199 18.02559386 -10.8515625 15.69140625 C-12.73764431 12.91360549 -12.81662528 10.4502034 -12.5859375 7.16015625 C-11.0091498 1.34706559 -5.7543339 -1.19881956 0 0 Z " fill="#CDCDCD" transform="translate(668,59)"/>
<path d="M0 0 C3.61914281 2.32171426 5.5876676 3.86002219 7.0625 7.9375 C6.98471397 11.74901537 6.09098402 13.82747252 4 17 C1.67273175 18.76551385 0.02147649 18.99673184 -2.875 19.4375 C-6.24646986 18.96549422 -8.33782199 18.02559386 -10.8515625 15.69140625 C-12.73764431 12.91360549 -12.81662528 10.4502034 -12.5859375 7.16015625 C-11.0091498 1.34706559 -5.7543339 -1.19881956 0 0 Z " fill="#CDCDCD" transform="translate(576,59)"/>
<path d="M0 0 C3.61914281 2.32171426 5.5876676 3.86002219 7.0625 7.9375 C6.98471397 11.74901537 6.09098402 13.82747252 4 17 C1.67273175 18.76551385 0.02147649 18.99673184 -2.875 19.4375 C-6.24646986 18.96549422 -8.33782199 18.02559386 -10.8515625 15.69140625 C-12.73764431 12.91360549 -12.81662528 10.4502034 -12.5859375 7.16015625 C-11.0091498 1.34706559 -5.7543339 -1.19881956 0 0 Z " fill="#CDCDCD" transform="translate(481,59)"/>
<path d="M0 0 C2.97 0.33 5.94 0.66 9 1 C9 1.33 9 1.66 9 2 C5.625 2.125 5.625 2.125 2 2 C1.34 1.34 0.68 0.68 0 0 Z " fill="#CDCDCD" transform="translate(1405,760)"/>
<path d="M0 0 C0.33 0 0.66 0 1 0 C1 2.64 1 5.28 1 8 C0.67 8 0.34 8 0 8 C0 5.36 0 2.72 0 0 Z " fill="#CDCDCD" transform="translate(1355,793)"/>
<path d="M0 0 C1.98 0 3.96 0 6 0 C6 0.33 6 0.66 6 1 C4.02 1 2.04 1 0 1 C0 0.67 0 0.34 0 0 Z " fill="#CDCDCD" transform="translate(1219,923)"/>
<path d="M0 0 C1.98 0 3.96 0 6 0 C6 0.33 6 0.66 6 1 C4.02 1 2.04 1 0 1 C0 0.67 0 0.34 0 0 Z " fill="#CDCDCD" transform="translate(1789,196)"/>
<path d="M0 0 C1.65 0 3.3 0 5 0 C5 0.33 5 0.66 5 1 C3.35 1 1.7 1 0 1 C0 0.67 0 0.34 0 0 Z " fill="#CDCDCD" transform="translate(655,923)"/>
<path d="M0 0 C1.65 0 3.3 0 5 0 C5 0.33 5 0.66 5 1 C3.35 1 1.7 1 0 1 C0 0.67 0 0.34 0 0 Z " fill="#CDCDCD" transform="translate(563,923)"/>
<path d="" fill="#CDCDCD" transform="translate(0,0)"/>
<path d="" fill="#CDCDCD" transform="translate(0,0)"/>
<path d="" fill="#CDCDCD" transform="translate(0,0)"/>
<path d="" fill="#CDCDCD" transform="translate(0,0)"/>
<path d="" fill="#CDCDCD" transform="translate(0,0)"/>
<path d="" fill="#CDCDCD" transform="translate(0,0)"/>
</svg>
