<?xml version="1.0" encoding="UTF-8"?>
<svg version="1.1" xmlns="http://www.w3.org/2000/svg" width="3464" height="3464">
<path d="M0 0 C1.33467603 0.00222332 2.66935214 0.00439979 4.00402832 0.00653076 C23.29033974 0.04918124 42.34612405 0.30575012 61.4375 3.3125 C62.70126465 3.51117676 63.9650293 3.70985352 65.26708984 3.91455078 C143.76085367 16.57795134 220.16426401 48.32517143 280.52734375 100.8046875 C283.29961536 103.19367861 286.13394842 105.47509704 289 107.75 C293.69855802 111.56500994 297.94071861 115.69588939 302.16821289 120.01367188 C304.82989441 122.72778111 307.51899503 125.31489129 310.4375 127.75 C315.75758934 132.28479549 320.33530637 137.5567414 325.01074219 142.73730469 C326.27061344 144.12825084 327.54443281 145.50653572 328.8203125 146.8828125 C334.55820286 153.11428483 339.78517189 159.68016738 344.94873047 166.38671875 C346.46650591 168.35002028 347.99975273 170.30046363 349.53515625 172.25 C403.17747874 240.78931774 432.30585185 323.21881978 440.4375 409.3125 C440.52370605 410.21145996 440.60991211 411.11041992 440.69873047 412.03662109 C441.15830912 417.12945793 441.3580374 422.20040576 441.4375 427.3125 C441.45796387 428.52244629 441.47842773 429.73239258 441.49951172 430.97900391 C442.89461864 523.48852282 419.46260723 612.98462081 364.4375 696.3125 C363.7053125 697.36953125 362.973125 698.4265625 362.21875 699.515625 C351.94170703 714.20226849 340.82911289 728.22659853 328.91796875 741.61865234 C327.86122315 742.82770593 326.82417328 744.05409105 325.80078125 745.29150391 C325.26839844 745.93394043 324.73601563 746.57637695 324.1875 747.23828125 C323.70796875 747.82649658 323.2284375 748.41471191 322.734375 749.02075195 C321.4375 750.3125 321.4375 750.3125 319.4375 750.3125 C319.18693848 750.88830811 318.93637695 751.46411621 318.67822266 752.05737305 C317.26893301 754.61888593 315.65841237 756.3343495 313.5859375 758.39453125 C312.81636719 759.16216797 312.04679687 759.92980469 311.25390625 760.72070312 C310.44824219 761.51412109 309.64257812 762.30753906 308.8125 763.125 C308.03003906 763.90681641 307.24757813 764.68863281 306.44140625 765.49414062 C301.59870108 770.30070621 296.61478039 774.87099636 291.4375 779.3125 C290.38931702 780.23810424 289.34236885 781.16510939 288.296875 782.09375 C278.44401841 790.7507412 268.01453865 798.567611 257.4375 806.3125 C256.72754883 806.8384375 256.01759766 807.364375 255.28613281 807.90625 C228.70087047 827.56680029 198.93878015 843.61688153 168.4375 856.3125 C167.48681641 856.70888672 166.53613281 857.10527344 165.55664062 857.51367188 C147.87133384 864.79452072 129.87626313 870.34241285 111.4375 875.3125 C110.03419434 875.69680176 110.03419434 875.69680176 108.60253906 876.08886719 C85.00773603 882.46756249 59.96069492 886.51271386 35.58300781 888.16552734 C33.56158736 888.30399971 31.54234406 888.47326672 29.5234375 888.64453125 C-24.72912518 892.72162764 -79.71993597 885.32233224 -131.5625 869.3125 C-132.4066748 869.05500977 -133.25084961 868.79751953 -134.12060547 868.53222656 C-181.09127656 854.0751359 -225.62955914 830.11757912 -264.5625 800.3125 C-265.52857178 799.57604248 -265.52857178 799.57604248 -266.51416016 798.82470703 C-284.7967639 784.83878069 -303.22479159 769.53154895 -318.5625 752.3125 C-318.5625 751.6525 -318.5625 750.9925 -318.5625 750.3125 C-319.2225 750.3125 -319.8825 750.3125 -320.5625 750.3125 C-321.97265625 748.9140625 -321.97265625 748.9140625 -323.625 746.9375 C-326.29316312 743.79071792 -329.01558248 740.72042312 -331.8125 737.6875 C-337.39871393 731.48689706 -342.49055608 724.93420457 -347.5625 718.3125 C-348.05685547 717.66974121 -348.55121094 717.02698242 -349.06054688 716.36474609 C-407.74400653 639.87610547 -440.0196174 545.20121567 -436.8125 383.375 C-425.43052775 299.92337111 -390.73119836 221.71204864 -336.5625 157.3125 C-336.08925293 156.74901855 -335.61600586 156.18553711 -335.12841797 155.60498047 C-324.7856427 143.31903701 -324.7856427 143.31903701 -319.11328125 137.86328125 C-317.44459941 136.19459941 -315.95204812 134.43435068 -314.4375 132.625 C-309.81715079 127.27240794 -304.52400168 122.62892358 -299.29296875 117.89013672 C-297.58909708 116.33674807 -295.90144068 114.76769149 -294.21875 113.19140625 C-287.5468459 106.94701069 -280.74325908 100.97463917 -273.5625 95.3125 C-272.58023437 94.53519531 -271.59796875 93.75789063 -270.5859375 92.95703125 C-211.21578268 46.62473921 -142.27089538 17.22895723 -68.1875 4.5 C-67.0739917 4.30510986 -65.9604834 4.11021973 -64.81323242 3.90942383 C-43.32990498 0.40833427 -21.72271029 -0.06389233 0 0 Z " fill="#FE1A41" transform="translate(1731.5625,1011.6875)"/>
<path d="M0 0 C1 3 1 3 0.109375 4.90234375 C-0.33921875 5.57394531 -0.7878125 6.24554687 -1.25 6.9375 C-1.71277344 7.63746094 -2.17554688 8.33742188 -2.65234375 9.05859375 C-4.05435999 11.0783099 -5.47363563 13.07196079 -7 15 C-7.66 14.67 -8.32 14.34 -9 14 C-6.03 9.38 -3.06 4.76 0 0 Z " fill="#EF1D4C" transform="translate(1372,1198)"/>
<path d="M0 0 C1.65 0.33 3.3 0.66 5 1 C1.88983545 4.28788824 -1.01618925 6.83735988 -5 9 C-5 8.34 -5 7.68 -5 7 C-4.34 7 -3.68 7 -3 7 C-1.79371992 4.66785852 -0.8345262 2.50357861 0 0 Z " fill="#F21D4A" transform="translate(2002,1802)"/>
<path d="M0 0 C1.60156595 4.00391487 0.4087561 7.07031192 -1 11 C-1.99 11.495 -1.99 11.495 -3 12 C-2.68950274 10.56206608 -2.3765224 9.1246682 -2.0625 7.6875 C-1.88847656 6.88699219 -1.71445313 6.08648438 -1.53515625 5.26171875 C-1 3 -1 3 0 0 Z " fill="#F01E4D" transform="translate(1316,1307)"/>
<path d="M0 0 C0 0.99 0 1.98 0 3 C-3.22791555 5.1519437 -4.28400809 5.20086443 -8 5 C-5.44008376 2.98863724 -2.95409701 1.37154504 0 0 Z " fill="#ED204B" transform="translate(1540,1055)"/>
<path d="M0 0 C-2.55068845 2.35448165 -3.71017358 2.98327924 -7.25 3.1875 C-8.1575 3.125625 -9.065 3.06375 -10 3 C-6.84439813 -0.15560187 -4.30999015 -1.43666338 0 0 Z " fill="#F41A50" transform="translate(1575,1042)"/>
</svg>
